<svg id="Layer_1" data-name="Layer 1" xmlns="http://www.w3.org/2000/svg" viewBox="0 0 61.28 49">
  <defs>
    <style>
      .cls-1 {
        fill: #b70228;
      }

      .cls-2 {
        fill: #fff;
      }
    </style>
  </defs>
  <title>numbers</title>
  <rect class="cls-1" x="8.08" y="1.94" width="45.11" height="45.11" rx="4.71" ry="4.71"/>
  <path class="cls-2" d="M30.7,13.16a6.79,6.79,0,0,1,2.66.53,7,7,0,0,1,2.16,1.44A6.78,6.78,0,0,1,37,17.24a6.27,6.27,0,0,1,.54,2.57A6.43,6.43,0,0,1,37,22.14a7.85,7.85,0,0,1-1.5,2.37l-5.34,6.08h7.2v4.14H23.59V31.79c1.46-1.74,2.79-3.3,4-4.7l1.49-1.78,1.35-1.62,1-1.23a7.12,7.12,0,0,0,.51-.64,7.34,7.34,0,0,0,.66-1.05,2.19,2.19,0,0,0,.24-1,2.34,2.34,0,0,0-.72-1.84,2.55,2.55,0,0,0-1.77-.64,2.48,2.48,0,0,0-1,.2,2.58,2.58,0,0,0-.81.57,2.61,2.61,0,0,0-.54.81,2.41,2.41,0,0,0-.2.94h-4a6.27,6.27,0,0,1,.54-2.57,6.81,6.81,0,0,1,1.46-2.11,7,7,0,0,1,2.16-1.44A6.58,6.58,0,0,1,30.7,13.16Z"/>
</svg>
