<svg id="Layer_1" data-name="Layer 1" xmlns="http://www.w3.org/2000/svg" viewBox="0 0 61.28 49">
  <defs>
    <style>
      .cls-1 {
        fill: #208dbe;
      }

      .cls-2 {
        fill: #fff;
      }
    </style>
  </defs>
  <title>numbers</title>
  <rect class="cls-1" x="8.08" y="1.94" width="45.11" height="45.11" rx="4.71" ry="4.71"/>
  <path class="cls-2" d="M34.42,21.59a7.19,7.19,0,0,1,2.28,2.65,7.6,7.6,0,0,1,.81,3.47,7,7,0,0,1-.58,2.86,7.94,7.94,0,0,1-1.58,2.36A7.24,7.24,0,0,1,33,34.53a7.09,7.09,0,0,1-2.87.59,6.9,6.9,0,0,1-2.28-.38,7.67,7.67,0,0,1-2-1,7.22,7.22,0,0,1-1.59-1.58,7.8,7.8,0,0,1-1.07-2l4-1.68a3.41,3.41,0,0,0,1,1.78,2.65,2.65,0,0,0,3,.48,3.09,3.09,0,0,0,.95-.69,3.13,3.13,0,0,0,.63-1A3.33,3.33,0,0,0,33,27.8a3.46,3.46,0,0,0-.22-1.25,3.13,3.13,0,0,0-.63-1,3,3,0,0,0-1-.69A3,3,0,0,0,30,24.59a2.59,2.59,0,0,0-1.47.42l-2.25-2.85,3.54-4.56H24.34V13.46H35.41v2.07l-3.48,5A6.43,6.43,0,0,1,34.42,21.59Z"/>
</svg>
