<svg id="Layer_1" data-name="Layer 1" xmlns="http://www.w3.org/2000/svg" viewBox="0 0 61.28 49">
  <defs>
    <style>
      .cls-1 {
        fill: #566a74;
      }

      .cls-2 {
        fill: none;
        stroke: #566a74;
        stroke-miterlimit: 10;
      }
    </style>
  </defs>
  <title>numbers</title>
  <path class="cls-1" d="M34.43,21.53A5.32,5.32,0,0,1,36.08,23a5.94,5.94,0,0,1,1,2.07,9.37,9.37,0,0,1,.3,2.36,7.17,7.17,0,0,1-.58,2.86,7.77,7.77,0,0,1-1.56,2.4,7.68,7.68,0,0,1-2.3,1.67,6.46,6.46,0,0,1-2.82.63,6.78,6.78,0,0,1-2.34-.41,7.28,7.28,0,0,1-2-1.11,8.09,8.09,0,0,1-1.59-1.66,7.6,7.6,0,0,1-1.05-2l2.76-1a4.73,4.73,0,0,0,.63,1.3,4.67,4.67,0,0,0,1,1.07,4.46,4.46,0,0,0,1.29.69,4.06,4.06,0,0,0,1.48.21,3.83,3.83,0,0,0,1.59-.41,4.4,4.4,0,0,0,1.31-1,5.3,5.3,0,0,0,.9-1.38,4.44,4.44,0,0,0,.09-3.34,4.34,4.34,0,0,0-.9-1.43,4.67,4.67,0,0,0-1.37-1,4.15,4.15,0,0,0-1.68-.4,3.05,3.05,0,0,0-.6.06q-.3.06-.6.15l-1.17-1.5,3.72-5.52H25.12V13.46H35.58v2l-1.79,2.67c-.22.34-.44.66-.66,1s-.41.6-.57.86-.34.54-.54.84A5.55,5.55,0,0,1,34.43,21.53Z"/>
  <rect class="cls-2" x="8.08" y="1.94" width="45.11" height="45.11" rx="4.71" ry="4.71"/>
</svg>
