<svg id="Layer_1" data-name="Layer 1" xmlns="http://www.w3.org/2000/svg" viewBox="0 0 61.28 49">
  <defs>
    <style>
      .cls-1 {
        fill: #566a74;
      }

      .cls-2 {
        fill: none;
        stroke: #566a74;
        stroke-miterlimit: 10;
      }
    </style>
  </defs>
  <title>numbers</title>
  <path class="cls-1" d="M23.47,34.73v-2.1l6.12-7Q31,24,31.78,23.09T33,21.59a3.29,3.29,0,0,0,.54-1,4,4,0,0,0,.12-1.08,3.18,3.18,0,0,0-1-2.54,3.54,3.54,0,0,0-2.4-.85,3.11,3.11,0,0,0-1.33.28,3.61,3.61,0,0,0-1.08.77,3.78,3.78,0,0,0-.74,1.08,3,3,0,0,0-.27,1.26H23.8a6,6,0,0,1,.51-2.45,6.48,6.48,0,0,1,1.4-2,6.73,6.73,0,0,1,2.05-1.38,6.48,6.48,0,0,1,5,0,6.55,6.55,0,0,1,3.42,3.4,6,6,0,0,1,.51,2.45,6.91,6.91,0,0,1-.25,1.87A4.33,4.33,0,0,1,35.65,23l-7.53,8.82h9.06v2.91Z"/>
  <rect class="cls-2" x="8.08" y="1.94" width="45.11" height="45.11" rx="4.71" ry="4.71"/>
</svg>
