<svg width="60" height="60" viewBox="0 0 60 60" fill="none" xmlns="http://www.w3.org/2000/svg">
<rect width="60" height="60" rx="20" fill="#2B4F6E"/>
<path d="M28.25 31C28.25 31.69 27.69 32.25 27 32.25C26.31 32.25 25.75 31.69 25.75 31C25.75 30.31 26.31 29.75 27 29.75C27.69 29.75 28.25 30.31 28.25 31Z" fill="white"/>
<path d="M33 29.75C32.31 29.75 31.75 30.31 31.75 31C31.75 31.69 32.31 32.25 33 32.25C33.69 32.25 34.25 31.69 34.25 31C34.25 30.31 33.69 29.75 33 29.75Z" fill="white"/>
<path fill-rule="evenodd" clip-rule="evenodd" d="M30 40C35.52 40 40 35.52 40 30C40 24.48 35.52 20 30 20C24.48 20 20 24.48 20 30C20 35.52 24.48 40 30 40ZM35.5002 26C32.6002 26 30.0602 24.44 28.6602 22.12C29.0902 22.05 29.5402 22 30.0002 22C32.9002 22 35.4402 23.56 36.8402 25.88C36.4102 25.95 35.9602 26 35.5002 26ZM22.4199 27.47C24.1299 26.5 25.4499 24.92 26.0799 23.03C24.3699 24 23.0499 25.58 22.4199 27.47ZM37.67 27.7601C37.88 28.4701 38 29.2201 38 30.0001C38 34.4101 34.41 38.0001 30 38.0001C25.59 38.0001 22 34.4101 22 30.0001C22 29.983 22.0012 29.966 22.0023 29.9493C22.0045 29.9171 22.0066 29.8864 22 29.8601C24.6 28.8801 26.69 26.8701 27.74 24.3101C29.58 26.5601 32.37 28.0001 35.5 28.0001C36.25 28.0001 36.97 27.9101 37.67 27.7601Z" fill="white"/>
<circle cx="30" cy="30" r="16.75" stroke="white" stroke-width="2.5"/>
<path d="M31.25 10C31.25 9.30964 30.6904 8.75 30 8.75C29.3096 8.75 28.75 9.30964 28.75 10H31.25ZM10 28.75C9.30964 28.75 8.75 29.3096 8.75 30C8.75 30.6904 9.30964 31.25 10 31.25V28.75ZM31.25 14V10H28.75V14H31.25ZM13.5 28.75H10V31.25H13.5V28.75Z" fill="white"/>
<path d="M50 31.25C50.6904 31.25 51.25 30.6904 51.25 30C51.25 29.3096 50.6904 28.75 50 28.75V31.25ZM46 31.25H50V28.75H46V31.25Z" fill="white"/>
<path d="M28.75 50C28.75 50.6904 29.3096 51.25 30 51.25C30.6904 51.25 31.25 50.6904 31.25 50H28.75ZM28.75 46V50H31.25V46H28.75Z" fill="white"/>
</svg>
