<svg width="60" height="60" viewBox="0 0 60 60" fill="none" xmlns="http://www.w3.org/2000/svg">
<rect width="60" height="60" rx="20" fill="#14B8B8"/>
<path d="M43.1818 21.3636H17L30.0909 14L43.1818 21.3636Z" stroke="white" stroke-width="2.5" stroke-linejoin="round"/>
<path d="M21.25 27C21.25 26.3096 20.6904 25.75 20 25.75C19.3096 25.75 18.75 26.3096 18.75 27H21.25ZM18.75 38C18.75 38.6904 19.3096 39.25 20 39.25C20.6904 39.25 21.25 38.6904 21.25 38H18.75ZM18.75 27V38H21.25V27H18.75Z" fill="white"/>
<path d="M31.25 27C31.25 26.3096 30.6904 25.75 30 25.75C29.3096 25.75 28.75 26.3096 28.75 27H31.25ZM28.75 38C28.75 38.6904 29.3096 39.25 30 39.25C30.6904 39.25 31.25 38.6904 31.25 38H28.75ZM28.75 27V38H31.25V27H28.75Z" fill="white"/>
<path d="M41.25 27C41.25 26.3096 40.6904 25.75 40 25.75C39.3096 25.75 38.75 26.3096 38.75 27H41.25ZM38.75 38C38.75 38.6904 39.3096 39.25 40 39.25C40.6904 39.25 41.25 38.6904 41.25 38H38.75ZM38.75 27V38H41.25V27H38.75Z" fill="white"/>
<path d="M17 42.2046C16.3096 42.2046 15.75 42.7642 15.75 43.4546C15.75 44.1449 16.3096 44.7046 17 44.7046V42.2046ZM44 44.7046C44.6904 44.7046 45.25 44.1449 45.25 43.4546C45.25 42.7642 44.6904 42.2046 44 42.2046V44.7046ZM17 44.7046L44 44.7046V42.2046L17 42.2046V44.7046Z" fill="white"/>
</svg>
