<svg width="60" height="60" viewBox="0 0 60 60" fill="none" xmlns="http://www.w3.org/2000/svg">
<rect width="60" height="60" rx="20" fill="#6EC9F7"/>
<path fill-rule="evenodd" clip-rule="evenodd" d="M27.6077 15.9923C27.8084 15.5409 28.256 15.25 28.75 15.25C30.0761 15.25 31.3479 15.7768 32.2855 16.7145C33.2232 17.6521 33.75 18.9239 33.75 20.25V24H39.5686C40.1095 23.995 40.6452 24.1071 41.1388 24.3286C41.6347 24.5512 42.0764 24.879 42.4331 25.2892C42.7898 25.6994 43.053 26.1822 43.2046 26.7043C43.3562 27.2264 43.3924 27.7751 43.3108 28.3126L41.5859 39.5624C41.5858 39.5627 41.5859 39.5621 41.5859 39.5624C41.4501 40.4562 40.9958 41.2719 40.3069 41.8574C39.6198 42.4415 38.7452 42.7584 37.8435 42.75H20C19.0054 42.75 18.0516 42.3549 17.3483 41.6517C16.6451 40.9484 16.25 39.9946 16.25 39V30.25C16.25 29.2554 16.6451 28.3016 17.3483 27.5984C18.0516 26.8951 19.0054 26.5 20 26.5H22.9377L27.6077 15.9923ZM25 28.0153L29.5098 17.8682C29.8865 17.9884 30.233 18.1974 30.5178 18.4822C30.9866 18.9511 31.25 19.587 31.25 20.25V25.25C31.25 25.9404 31.8096 26.5 32.5 26.5H39.575L39.5892 26.4999C39.7703 26.4979 39.9498 26.5352 40.1151 26.6094C40.2805 26.6836 40.4277 26.7929 40.5466 26.9296C40.6655 27.0664 40.7532 27.2273 40.8037 27.4013C40.8542 27.5752 40.8663 27.7579 40.8392 27.9369C40.8393 27.9368 40.8392 27.9371 40.8392 27.9369L39.1141 39.1876C39.0689 39.4856 38.9175 39.7573 38.6878 39.9526C38.4581 40.1478 38.1656 40.2535 37.8641 40.2501L25 40.25V28.0153ZM22.5 40.25V29H20C19.6685 29 19.3505 29.1317 19.1161 29.3661C18.8817 29.6005 18.75 29.9185 18.75 30.25V39C18.75 39.3315 18.8817 39.6495 19.1161 39.8839C19.3505 40.1183 19.6685 40.25 20 40.25H22.5Z" fill="white"/>
</svg>
