<?xml version="1.0" encoding="utf-8"?>
<!-- Generator: Adobe Illustrator 16.0.0, SVG Export Plug-In . SVG Version: 6.00 Build 0)  -->
<!DOCTYPE svg PUBLIC "-//W3C//DTD SVG 1.1//EN" "http://www.w3.org/Graphics/SVG/1.1/DTD/svg11.dtd">
<svg version="1.1" id="Шар_1" xmlns="http://www.w3.org/2000/svg" x="0px" y="0px"
     width="32px" height="32px" viewBox="0 0 32 32" enable-background="new 0 0 32 32" xml:space="preserve">
<path fill="#9e9e9e" fill-rule="evenodd" clip-rule="evenodd" d="M28.782,32c-8.522,0-17.043,0-25.564,0c0.001-0.018,0.004-0.036,0.003-0.055
	c-0.003-1.066,0.063-2.127,0.215-3.184c0.058-0.399,0.124-0.798,0.29-1.173c0.362-0.813,0.913-1.481,1.606-2.036
	c0.726-0.584,1.542-1.012,2.395-1.375c0.955-0.407,1.914-0.806,2.869-1.21c0.414-0.175,0.799-0.399,1.149-0.684
	c0.309-0.254,0.523-0.559,0.532-0.974c0.011-0.557,0.015-1.111,0.024-1.667c0.003-0.157-0.049-0.288-0.144-0.411
	c-0.108-0.139-0.215-0.28-0.313-0.428c-0.409-0.615-0.677-1.294-0.87-2.004c-0.052-0.193-0.14-0.364-0.304-0.486
	c-0.519-0.384-0.786-0.913-0.865-1.541c-0.056-0.436-0.088-0.875-0.124-1.314c-0.042-0.543-0.068-1.089-0.012-1.633
	c0.031-0.297,0.074-0.594,0.112-0.891c0.058-0.45,0.087-0.907,0.179-1.35c0.225-1.096,0.701-2.073,1.476-2.892
	c0.719-0.76,1.595-1.278,2.565-1.646c0.912-0.346,1.849-0.462,2.817-0.307c0.742,0.12,1.432,0.386,2.091,0.737
	c1.851,0.982,2.885,2.538,3.198,4.591c0.053,0.345,0.069,0.696,0.107,1.044c0.033,0.312,0.089,0.622,0.107,0.935
	c0.053,0.927-0.049,1.847-0.156,2.763c-0.067,0.573-0.314,1.075-0.782,1.436c-0.212,0.164-0.338,0.364-0.406,0.618
	c-0.235,0.873-0.604,1.683-1.18,2.389c-0.095,0.116-0.134,0.252-0.132,0.403c0.008,0.508,0.021,1.018,0.018,1.526
	c-0.003,0.441,0.158,0.802,0.504,1.063c0.275,0.207,0.563,0.408,0.869,0.563c0.479,0.241,0.978,0.444,1.471,0.657
	c0.841,0.361,1.694,0.696,2.521,1.084c0.913,0.427,1.738,0.988,2.402,1.76c0.443,0.514,0.811,1.074,0.975,1.74
	c0.199,0.813,0.263,1.646,0.31,2.478C28.763,31.019,28.768,31.509,28.782,32z"/>
</svg>
