<?xml version="1.0" encoding="utf-8"?>
<!-- Generator: Adobe Illustrator 16.0.0, SVG Export Plug-In . SVG Version: 6.00 Build 0)  -->
<!DOCTYPE svg PUBLIC "-//W3C//DTD SVG 1.1//EN" "http://www.w3.org/Graphics/SVG/1.1/DTD/svg11.dtd">
<svg version="1.1" id="Шар_1" xmlns="http://www.w3.org/2000/svg" x="0px" y="0px"
     width="32px" height="32px" viewBox="0 0 32 32" enable-background="new 0 0 32 32" xml:space="preserve">
<path fill="#9e9e9e" d="M28.954,32c-8.564,0-17.099,0-25.658,0c-0.029-0.928,0.114-3.521,0.471-4.357c0.534-1.252,1.477-2.117,2.624-2.793
	c1.018-0.6,2.126-0.994,3.211-1.445c0.51-0.211,1.016-0.436,1.512-0.678c0.246-0.121,0.474-0.285,0.693-0.453
	c0.354-0.271,0.592-0.605,0.59-1.082c-0.003-0.553,0.024-1.106,0.021-1.66c0-0.111-0.05-0.245-0.122-0.334
	c-0.598-0.731-0.968-1.573-1.211-2.477c-0.055-0.205-0.138-0.365-0.321-0.5c-0.573-0.424-0.824-1.057-0.88-1.724
	c-0.092-1.097-0.241-2.197-0.044-3.303c0.077-0.434,0.069-0.883,0.142-1.319c0.412-2.479,1.845-4.102,4.177-4.979
	c2.979-1.12,5.995,0.483,7.188,2.609c0.637,1.136,0.959,2.382,0.989,3.689c0.017,0.634-0.01,1.268-0.014,1.902
	c0,0.068,0.002,0.14,0.021,0.205c0.188,0.703,0.036,1.372-0.213,2.027c-0.14,0.369-0.361,0.688-0.689,0.914
	c-0.149,0.104-0.221,0.231-0.264,0.397c-0.236,0.936-0.607,1.805-1.211,2.568c-0.07,0.088-0.109,0.227-0.107,0.341
	c0.006,0.621,0.007,1.245,0.056,1.865c0.017,0.198,0.13,0.438,0.274,0.573c0.301,0.281,0.625,0.564,0.99,0.738
	c0.883,0.422,1.795,0.791,2.699,1.168c0.855,0.356,1.696,0.742,2.471,1.262C28.154,26.371,28.979,29.804,28.954,32z"/>
</svg>
