<svg xmlns="http://www.w3.org/2000/svg" width="16" height="11">
    <path fill="#37a8fd" fill-rule="evenodd" d="M15.998 10.576l-.003.019-.004.026-.006.022c-.002.008-.003.016-.006.023l-.007.021-.008.022-.01.02-.01.022a.174.174 0 0 0-.011.018l-.014.022a.22.22 0 0 1-.014.018.127.127 0 0 1-.013.019.727.727 0 0 1-.027.028l-.005.006-.005.005c-.01.009-.019.018-.03.026l-.017.013-.02.015-.021.012a.128.128 0 0 1-.02.011l-.02.01-.022.01-.021.008-.023.008-.021.005-.024.006-.025.003-.021.003a.387.387 0 0 1-.048.003H.486a.474.474 0 0 1-.477-.471V6.301.471.463L.01.437.012.416.016.391.02.37.026.347.032.326A.143.143 0 0 1 .04.304L.049.283l.009-.02.011-.022.012-.018A.255.255 0 0 1 .095.202C.098.196.103.191.107.186A.173.173 0 0 1 .124.165L.129.159.138.15.156.131.173.116.191.102C.197.096.204.092.211.087L.228.075.25.062l.018-.01.023-.01.02-.009.022-.008A.202.202 0 0 0 .356.018.174.174 0 0 1 .378.013L.401.008.425.004.446.002.474.001.486 0h15.037c.263 0 .477.211.477.471v10.058l-.002.047zm-.953-9.211c-.028.059-.035.126-.089.171l-4.1 3.728.008.008 4.181 4.121V1.365zm-.675 8.694l-4.181-4.122a.497.497 0 0 1-.056-.067l-1.82 1.521a.478.478 0 0 1-.625-.006L5.902 5.827a.455.455 0 0 1-.083.11l-4.18 4.122H14.37zM.963 6.673v2.72l4.181-4.121a.435.435 0 0 1 .063-.052L.963 1.516v5.157zm7.048-.263L14.199.941H1.745L8.011 6.41zM15.034.941c.006.011.005.024.011.035V.941h-.011zM3.005 4.889c0 .26-.213.47-.477.47v-.941c.264 0 .477.211.477.471z"/>
</svg>
