<svg xmlns="http://www.w3.org/2000/svg" width="17.5" height="12.5">
    <path fill="none" stroke="#37a8fd" d="M1.5.5h14a1 1 0 0 1 1 1v9a1 1 0 0 1-1 1h-14a1 1 0 0 1-1-1v-9a1 1 0 0 1 1-1z"/>
    <path fill="#37a8fd" fill-rule="evenodd" d="M.5 6V3.25h16V6H.5zM3.833 7.375c.368 0 .667.308.667.687 0 .38-.299.688-.667.688a.677.677 0 0 1-.666-.688c0-.379.298-.687.666-.687zM6.5 7.375c.368 0 .667.308.667.687 0 .38-.299.688-.667.688a.678.678 0 0 1-.667-.688c0-.379.299-.687.667-.687zM9.167 7.375c.368 0 .666.308.666.687 0 .38-.298.688-.666.688a.677.677 0 0 1-.667-.688c0-.379.298-.687.667-.687z"/>
</svg>
