<svg xmlns="http://www.w3.org/2000/svg" width="14" height="15" viewBox="0 0 14 15">
    <g fill="#FFF" fill-rule="nonzero">
        <path d="M5.118 14.148c.713.411 1.416.618 2.07.618.549 0 1.063-.145 1.52-.436l1.688-1.07a.284.284 0 0 0 .088-.381L9.02 10.44a.263.263 0 0 0-.37-.09l-1.7 1.079a1.222 1.222 0 0 1-.92.146 1.18 1.18 0 0 1-.755-.529l-2.31-3.85a1.208 1.208 0 0 1 .375-1.633l1.765-1.12a.281.281 0 0 0 .087-.382L3.731 1.625a.265.265 0 0 0-.37-.09L1.596 2.654C-.367 3.9-.298 7.175 1.765 10.616c.947 1.578 2.137 2.832 3.353 3.532zM1.88 3.125l1.534-.973 1.18 1.965-1.535.975h-.001c-.793.505-1.04 1.579-.55 2.395l2.31 3.85c.233.39.634.674 1.098.78.458.103.938.025 1.318-.216l1.47-.934 1.18 1.966-1.458.926c-1.065.675-2.244.267-3.045-.194-1.137-.655-2.258-1.841-3.157-3.34C.326 7.162.185 4.201 1.88 3.125zM6.925 4.533A2.673 2.673 0 0 1 9.04 5.796c.453.715.562 1.591.3 2.404a.278.278 0 0 0 .17.35.27.27 0 0 0 .34-.175 3.406 3.406 0 0 0-.358-2.88A3.246 3.246 0 0 0 6.956 3.98a.273.273 0 0 0-.284.26.274.274 0 0 0 .253.293z"/>
        <path d="M7.302 2.477a4.715 4.715 0 0 1 3.435 2.184 4.987 4.987 0 0 1 .582 4c-.04.147.042.3.185.342a.27.27 0 0 0 .333-.19 5.554 5.554 0 0 0-.648-4.454 5.25 5.25 0 0 0-3.826-2.432.273.273 0 0 0-.298.244.275.275 0 0 0 .237.306z"/>
        <path d="M7.67.667c1.873.268 3.54 1.357 4.57 2.988a6.887 6.887 0 0 1 .832 5.41c-.039.147.047.3.19.34a.27.27 0 0 0 .33-.195 7.455 7.455 0 0 0-.9-5.857C11.576 1.588 9.772.408 7.744.118a.271.271 0 0 0-.304.236.275.275 0 0 0 .23.313z"/>
    </g>
</svg>
