<?xml version="1.0" encoding="utf-8"?>
<!-- Generator: Adobe Illustrator 16.0.0, SVG Export Plug-In . SVG Version: 6.00 Build 0)  -->
<!DOCTYPE svg PUBLIC "-//W3C//DTD SVG 1.1//EN" "http://www.w3.org/Graphics/SVG/1.1/DTD/svg11.dtd">
<svg version="1.1" id="Шар_1" xmlns="http://www.w3.org/2000/svg" x="0px" y="0px"
     width="32px" height="32px" viewBox="0 0 32 32" enable-background="new 0 0 32 32" xml:space="preserve">
<path fill="#9e9e9e" d="M10.111,12.816c0.319,0.037,0.63,0.073,0.94,0.109c2.865,0.334,5.736,0.342,8.609,0.13c0.627-0.046,1.251-0.136,1.875-0.211
	c0.373-0.045,0.427-0.039,0.55,0.32c0.093,0.268,0.162,0.558,0.163,0.838c0.005,0.523-0.115,1.031-0.328,1.513
	c-0.146,0.333-0.354,0.625-0.652,0.829c-0.146,0.104-0.218,0.231-0.26,0.394c-0.234,0.926-0.602,1.789-1.197,2.543
	c-0.068,0.088-0.107,0.226-0.106,0.339c0.005,0.614,0.006,1.233,0.054,1.845c0.018,0.2,0.129,0.436,0.271,0.571
	c0.3,0.276,0.619,0.558,0.979,0.729c0.874,0.418,1.776,0.781,2.673,1.154c0.811,0.339,1.605,0.701,2.342,1.184
	c3.027,2.061,2.727,4.698,2.681,6.896c-0.282,0.088-24.664,0.088-25.407,0c-0.058-0.516,0.036-2.793,0.138-3.298
	c0.301-1.487,1.129-2.619,2.365-3.472c0.782-0.539,1.637-0.938,2.512-1.297c0.747-0.309,1.504-0.593,2.237-0.928
	c0.419-0.189,0.816-0.443,1.196-0.71c0.347-0.241,0.567-0.58,0.565-1.034c-0.002-0.563,0.024-1.121,0.024-1.685
	c0-0.101-0.045-0.22-0.109-0.296c-0.626-0.754-0.986-1.635-1.248-2.563c-0.028-0.101-0.066-0.228-0.142-0.279
	c-0.723-0.498-0.939-1.246-1.056-2.051C9.688,13.763,9.761,13.39,10.111,12.816z M23.607,11.116c0.026-0.688,0.018-1.38-0.254-2.041
	c-0.146-0.353-0.373-0.651-0.726-0.81c-0.235-0.107-0.31-0.256-0.326-0.503c-0.063-0.911-0.312-1.778-0.733-2.589
	c-0.596-1.143-1.44-2.024-2.674-2.483c-0.098-0.036-0.201-0.048-0.357-0.084c0,0.191,0,0.337,0,0.483c0,1.164,0,2.328,0,3.492
	c0,0.124,0.006,0.248-0.012,0.37c-0.039,0.306-0.273,0.517-0.58,0.535c-0.324,0.019-0.6-0.18-0.656-0.496
	c-0.025-0.133-0.02-0.273-0.02-0.409c-0.002-1.452,0-2.904-0.002-4.355c0-0.123,0.006-0.248-0.014-0.369
	c-0.063-0.43-0.34-0.681-0.779-0.693c-0.328-0.009-0.658-0.012-0.986,0.001c-0.41,0.016-0.689,0.278-0.744,0.683
	c-0.016,0.122-0.01,0.247-0.01,0.37c-0.001,1.452,0,2.904-0.001,4.354c0,0.137,0.007,0.277-0.018,0.41
	c-0.058,0.304-0.306,0.5-0.612,0.504c-0.314,0.004-0.554-0.175-0.62-0.486c-0.031-0.146-0.035-0.299-0.035-0.449
	c-0.002-1.165,0-2.328-0.002-3.492c0-0.142-0.015-0.284-0.026-0.471c-0.728,0.209-1.31,0.552-1.818,1.022
	C10.8,4.357,10.266,5.274,9.976,6.323c-0.162,0.59-0.252,1.2-0.378,1.816c-0.75,0.426-0.989,0.736-1.131,1.618
	c-0.07,0.442-0.069,0.896-0.101,1.359C12.005,12.206,20.303,12.16,23.607,11.116z"/>
</svg>
