<?xml version="1.0" encoding="utf-8"?>
<!-- Generator: Adobe Illustrator 16.0.0, SVG Export Plug-In . SVG Version: 6.00 Build 0)  -->
<!DOCTYPE svg PUBLIC "-//W3C//DTD SVG 1.1//EN" "http://www.w3.org/Graphics/SVG/1.1/DTD/svg11.dtd">
<svg version="1.1" id="Шар_1" xmlns="http://www.w3.org/2000/svg" x="0px" y="0px"
     width="32px" height="32px" viewBox="0 0 32 32" enable-background="new 0 0 32 32" xml:space="preserve">
<path fill="#9e9e9e" d="M10.292,12.889c0.214,0.027,0.415,0.062,0.617,0.078c1.181,0.094,2.36,0.218,3.542,0.268
	c1.722,0.072,3.445,0.06,5.164-0.083c0.714-0.059,1.425-0.143,2.136-0.228c0.424-0.05,0.479-0.03,0.64,0.383
	c0.155,0.412,0.159,0.835,0.091,1.263c-0.104,0.604-0.229,1.221-0.707,1.636c-0.355,0.312-0.516,0.671-0.643,1.101
	c-0.219,0.744-0.556,1.438-1.041,2.053c-0.075,0.102-0.135,0.246-0.135,0.371c0,0.619,0.006,1.24,0.051,1.855
	c0.014,0.189,0.112,0.406,0.244,0.547c0.221,0.238,0.496,0.434,0.754,0.635c0.104,0.084,0.229,0.146,0.364,0.229
	c-0.727,1.186-1.172,2.439-1.036,3.813c0.135,1.852,1.021,3.947,3.424,5.191c-6.263,0-14.106,0-20.314,0
	c-0.06-0.521,0.036-2.607,0.138-3.115c0.301-1.494,1.135-2.637,2.377-3.492c0.787-0.545,1.646-0.945,2.527-1.311
	c0.751-0.311,1.514-0.592,2.251-0.934c0.434-0.197,0.845-0.463,1.236-0.736c0.337-0.236,0.543-0.57,0.542-1.018
	c-0.002-0.563,0.027-1.127,0.024-1.691c-0.001-0.107-0.06-0.24-0.132-0.328c-0.583-0.723-0.95-1.545-1.188-2.434
	c-0.058-0.219-0.149-0.387-0.34-0.531c-0.577-0.438-0.757-1.09-0.889-1.763C9.863,14.041,9.917,13.469,10.292,12.889z
	 M23.863,10.175c-0.02-0.259-0.074-0.518-0.143-0.77c-0.127-0.469-0.367-0.875-0.818-1.089c-0.254-0.122-0.316-0.288-0.336-0.544
	c-0.074-0.931-0.33-1.816-0.771-2.639c-0.563-1.05-1.344-1.878-2.459-2.356c-0.158-0.068-0.328-0.109-0.563-0.186
	c0,0.21,0,0.356,0,0.502c0,1.171,0.002,2.343,0,3.515c0,0.124,0.006,0.249-0.01,0.371c-0.035,0.327-0.287,0.544-0.615,0.549
	c-0.324,0.003-0.582-0.208-0.633-0.532c-0.02-0.122-0.014-0.248-0.014-0.371c0-1.462,0-2.922,0-4.383
	c0-0.124,0.006-0.25-0.013-0.372c-0.06-0.434-0.338-0.692-0.776-0.707c-0.33-0.009-0.662-0.01-0.992,0.001
	c-0.431,0.017-0.714,0.29-0.76,0.721c-0.013,0.123-0.007,0.248-0.007,0.372c0,1.447,0,2.895,0,4.341c0,0.124,0.006,0.25-0.011,0.371
	c-0.046,0.332-0.292,0.549-0.615,0.557c-0.335,0.008-0.575-0.181-0.64-0.521c-0.026-0.134-0.028-0.273-0.029-0.41
	c-0.002-1.172,0-2.344-0.002-3.515c0-0.144-0.013-0.289-0.021-0.462C13.494,2.654,13.4,2.668,13.312,2.7
	c-0.591,0.214-1.112,0.543-1.566,0.977c-0.777,0.742-1.299,1.643-1.583,2.67C10,6.941,9.907,7.556,9.775,8.201
	C9.311,8.378,8.963,8.735,8.78,9.242c-0.23,0.634-0.242,1.29-0.197,1.944c3.433,1.064,11.785,1.071,15.288,0.002
	C23.871,10.834,23.889,10.503,23.863,10.175z M26.24,30.84c2.521,0.006,4.563-2.025,4.58-4.523c0.016-2.738-2.291-4.555-4.465-4.596
	c-2.385-0.045-4.658,1.916-4.639,4.545C21.717,28.789,23.738,30.836,26.24,30.84z M26.629,25.654
	c0.525-0.525,1.043-1.057,1.582-1.572c0.131-0.123,0.316-0.227,0.492-0.262c0.283-0.061,0.512,0.078,0.652,0.332
	c0.133,0.236,0.115,0.479-0.027,0.703c-0.061,0.092-0.143,0.168-0.221,0.246c-1.109,1.107-2.221,2.221-3.328,3.33
	c-0.479,0.475-0.787,0.477-1.268,0.006c-0.381-0.377-0.76-0.76-1.139-1.143c-0.052-0.047-0.103-0.096-0.144-0.146
	c-0.263-0.316-0.252-0.711,0.021-0.965c0.265-0.246,0.642-0.254,0.935,0.006c0.235,0.211,0.45,0.445,0.676,0.668
	c0.09,0.084,0.183,0.164,0.291,0.264C25.654,26.623,26.143,26.139,26.629,25.654z"/>
</svg>
