<?xml version="1.0" encoding="utf-8"?>
<!-- Generator: Adobe Illustrator 16.0.0, SVG Export Plug-In . SVG Version: 6.00 Build 0)  -->
<!DOCTYPE svg PUBLIC "-//W3C//DTD SVG 1.1//EN" "http://www.w3.org/Graphics/SVG/1.1/DTD/svg11.dtd">
<svg version="1.1" id="Шар_1" xmlns="http://www.w3.org/2000/svg" x="0px" y="0px"
     width="32px" height="32px" viewBox="0 0 32 32" enable-background="new 0 0 32 32" xml:space="preserve">
<path fill="#9e9e9e" d="M7.105,32.017C5.933,32.011,4.761,32.002,3.588,32c-0.059,0-0.108,0.013-0.165,0.016c0.011-0.938,0.017-1.876,0.072-2.811
	c0.053-0.917,0.419-1.748,0.961-2.494c0.628-0.863,1.473-1.467,2.401-1.966c0.951-0.511,1.963-0.882,2.958-1.291
	c0.703-0.286,1.386-0.602,2.011-1.042c0.425-0.296,0.641-0.679,0.631-1.203c-0.009-0.499,0.015-0.999,0.008-1.499
	c-0.001-0.12-0.031-0.264-0.102-0.352c-0.61-0.755-0.979-1.625-1.24-2.548c-0.049-0.17-0.13-0.299-0.276-0.41
	c-0.492-0.375-0.73-0.907-0.853-1.496c-0.083-0.398-0.187-0.805-0.087-1.21c0.065-0.265,0.19-0.516,0.302-0.767
	c0.015-0.034,0.105-0.056,0.157-0.051c0.468,0.046,0.938,0.101,1.405,0.15c1.276,0.135,2.557,0.198,3.839,0.211
	c1.41,0.014,2.817-0.032,4.223-0.141c0.653-0.052,1.301-0.146,1.953-0.217c0.309-0.033,0.356,0,0.459,0.293
	c0.358,1.013,0.15,1.948-0.403,2.83c-0.084,0.133-0.209,0.249-0.334,0.342c-0.185,0.134-0.296,0.301-0.35,0.519
	c-0.225,0.892-0.592,1.72-1.152,2.46c-0.08,0.104-0.131,0.258-0.131,0.388c0.004,0.579,0.027,1.156,0.046,1.735
	c0.01,0.3,0.151,0.534,0.366,0.747c0.528,0.525,1.199,0.795,1.861,1.083c0.966,0.419,1.938,0.818,2.895,1.258
	c0.91,0.418,1.743,0.958,2.427,1.705c0.719,0.784,1.174,1.703,1.331,2.75c0.073,0.477,0.065,0.969,0.071,1.455
	c0.007,0.541,0.003,1.087,0.002,1.631c-3.572,0.009-7.144-0.003-10.715-0.019c-0.154-0.026-0.313-0.048-0.486-0.048H7.179
	C7.153,32.01,7.131,32.017,7.105,32.017z M8.647,11.202c0.916,0.25,1.85,0.399,2.791,0.507c1.464,0.169,2.934,0.243,4.405,0.248
	c2.165,0.007,4.322-0.08,6.458-0.455c0.462-0.082,0.919-0.204,1.376-0.316c0.044-0.011,0.109-0.075,0.11-0.116
	c0.022-0.536,0.014-1.07-0.128-1.591c-0.145-0.528-0.385-0.985-0.92-1.223c-0.152-0.069-0.229-0.205-0.247-0.371
	c-0.01-0.072-0.021-0.144-0.027-0.217c-0.082-1.019-0.402-1.962-0.927-2.838c-0.571-0.958-1.347-1.688-2.397-2.097
	c-0.136-0.053-0.283-0.079-0.444-0.125v4.042c0,0.097,0,0.194-0.008,0.291c-0.028,0.329-0.276,0.563-0.607,0.573
	c-0.329,0.009-0.595-0.211-0.639-0.538c-0.013-0.096-0.013-0.194-0.013-0.291V2.968c0-0.315,0.006-0.631-0.003-0.946
	c-0.017-0.562-0.319-0.856-0.881-0.861c-0.257-0.002-0.516-0.003-0.772,0c-0.597,0.005-0.892,0.304-0.893,0.903
	c0,1.515,0,3.031-0.001,4.546c0,0.103,0.005,0.205-0.005,0.306c-0.029,0.35-0.278,0.588-0.618,0.598
	c-0.343,0.009-0.592-0.21-0.637-0.568c-0.016-0.135-0.025-0.271-0.026-0.406c-0.003-1.132-0.003-2.264-0.004-3.396V2.603
	c-0.087,0.019-0.136,0.022-0.178,0.041c-0.247,0.102-0.503,0.186-0.735,0.314c-1.194,0.66-1.987,1.671-2.417,2.946
	C10.04,6.557,9.927,7.248,9.78,7.925c-0.036,0.164-0.09,0.277-0.245,0.36c-0.504,0.275-0.817,0.7-0.893,1.272
	c-0.063,0.476-0.089,0.956-0.142,1.433C8.487,11.118,8.525,11.168,8.647,11.202z"/>
</svg>
