<?xml version="1.0" encoding="utf-8"?>
<!-- Generator: Adobe Illustrator 16.0.0, SVG Export Plug-In . SVG Version: 6.00 Build 0)  -->
<!DOCTYPE svg PUBLIC "-//W3C//DTD SVG 1.1//EN" "http://www.w3.org/Graphics/SVG/1.1/DTD/svg11.dtd">
<svg version="1.1" id="Шар_1" xmlns="http://www.w3.org/2000/svg" x="0px" y="0px"
     width="32px" height="32px" viewBox="0 0 32 32" enable-background="new 0 0 32 32" xml:space="preserve">
<path fill="#9e9e9e" d="M9.162,12.892c0.214,0.027,0.415,0.062,0.617,0.078c1.181,0.094,2.36,0.218,3.542,0.268c1.721,0.072,3.445,0.06,5.164-0.083
	c0.713-0.059,1.424-0.143,2.135-0.228c0.424-0.05,0.48-0.03,0.639,0.383c0.156,0.412,0.16,0.835,0.09,1.263
	c-0.102,0.604-0.229,1.221-0.707,1.636c-0.356,0.311-0.514,0.671-0.641,1.1c-0.219,0.744-0.555,1.438-1.041,2.053
	c-0.076,0.1-0.135,0.246-0.135,0.371c0,0.619,0.006,1.24,0.051,1.856c0.012,0.188,0.113,0.406,0.244,0.546
	c0.221,0.238,0.496,0.434,0.754,0.635c0.105,0.084,0.23,0.145,0.365,0.228c-0.727,1.183-1.076,2.45-0.941,3.821
	c0.136,1.851,0.814,3.956,3.327,5.182c-6.262,0-14.106,0-20.314,0c-0.06-0.523,0.036-2.609,0.138-3.116
	c0.301-1.495,1.135-2.636,2.377-3.493c0.787-0.545,1.646-0.945,2.527-1.309c0.751-0.309,1.514-0.592,2.251-0.932
	c0.434-0.199,0.845-0.463,1.236-0.737c0.337-0.238,0.543-0.572,0.542-1.017c-0.002-0.563,0.027-1.127,0.024-1.692
	c-0.001-0.11-0.06-0.241-0.132-0.329c-0.583-0.721-0.95-1.544-1.188-2.432c-0.058-0.219-0.149-0.387-0.34-0.532
	c-0.577-0.438-0.757-1.09-0.889-1.763C8.735,14.044,8.787,13.472,9.162,12.892z M22.734,10.178c-0.019-0.259-0.074-0.518-0.142-0.77
	c-0.127-0.469-0.368-0.875-0.819-1.089c-0.254-0.122-0.316-0.288-0.336-0.544c-0.074-0.931-0.33-1.816-0.771-2.639
	c-0.563-1.05-1.344-1.878-2.459-2.356c-0.158-0.068-0.328-0.109-0.562-0.186c0,0.21,0,0.356,0,0.502c0,1.171,0.002,2.343,0,3.515
	c0,0.124,0.006,0.249-0.01,0.371C17.6,7.309,17.348,7.526,17.02,7.531c-0.324,0.003-0.583-0.208-0.633-0.532
	c-0.019-0.122-0.013-0.248-0.013-0.371c-0.001-1.462-0.001-2.922-0.001-4.383c0-0.124,0.006-0.25-0.011-0.372
	c-0.059-0.434-0.339-0.692-0.777-0.707c-0.33-0.009-0.662-0.01-0.992,0.001c-0.432,0.017-0.715,0.29-0.761,0.721
	c-0.013,0.123-0.007,0.248-0.007,0.372c0,1.447,0,2.895,0,4.341c0,0.124,0.006,0.25-0.011,0.371
	c-0.046,0.332-0.292,0.549-0.615,0.557c-0.335,0.008-0.575-0.181-0.64-0.521c-0.026-0.134-0.028-0.273-0.029-0.41
	c-0.002-1.172,0-2.344-0.002-3.515c0-0.144-0.013-0.289-0.021-0.462c-0.142,0.036-0.235,0.05-0.324,0.082
	c-0.591,0.214-1.112,0.543-1.566,0.977C9.84,4.422,9.318,5.323,9.034,6.35C8.87,6.944,8.779,7.559,8.647,8.204
	C8.181,8.381,7.835,8.738,7.652,9.245c-0.23,0.634-0.242,1.29-0.197,1.944c3.433,1.064,11.785,1.071,15.287,0.002
	C22.742,10.837,22.76,10.506,22.734,10.178z M25.111,30.842c2.521,0.006,4.563-2.025,4.58-4.523c0.016-2.74-2.291-4.555-4.465-4.596
	c-2.384-0.045-4.658,1.916-4.638,4.545C20.588,28.791,22.609,30.838,25.111,30.842z M25.5,25.656
	c0.525-0.525,1.043-1.057,1.582-1.572c0.131-0.123,0.316-0.227,0.492-0.262c0.283-0.061,0.512,0.078,0.652,0.332
	c0.133,0.236,0.116,0.479-0.027,0.703c-0.061,0.092-0.143,0.168-0.221,0.246c-1.109,1.11-2.22,2.221-3.328,3.33
	c-0.478,0.476-0.787,0.477-1.267,0.006c-0.381-0.377-0.76-0.76-1.139-1.14c-0.05-0.047-0.101-0.096-0.142-0.149
	c-0.262-0.316-0.252-0.711,0.021-0.965c0.264-0.246,0.641-0.254,0.934,0.006c0.236,0.211,0.451,0.445,0.676,0.668
	c0.089,0.084,0.181,0.164,0.291,0.265C24.525,26.626,25.014,26.141,25.5,25.656z"/>
</svg>
