<?xml version="1.0" encoding="UTF-8"?>
<svg width="22px" height="22px" viewBox="0 0 22 22" version="1.1" xmlns="http://www.w3.org/2000/svg" xmlns:xlink="http://www.w3.org/1999/xlink">
    <!-- Generator: Sketch 51.2 (57519) - http://www.bohemiancoding.com/sketch -->
    <title>Group 3</title>
    <desc>Created with Sketch.</desc>
    <defs></defs>
    <g id="Painter-image" stroke="none" stroke-width="1" fill="none" fill-rule="evenodd">
        <g id="Group-4" transform="translate(-793.000000, -541.000000)" fill-rule="nonzero">
            <g id="White" transform="translate(776.000000, 523.000000)">
                <g id="Group-3" transform="translate(16.000000, 17.000000)">
                    <path d="M11.1806774,22.1001154 L10.2949078,22.6777118 C9.60098003,23.1302112 8.67161715,22.9344948 8.21911775,22.240567 C8.18948364,22.1951218 8.16233691,22.1481022 8.13779725,22.0997157 L7.65949652,21.1566178 C7.39060793,20.626432 6.83398676,20.3050666 6.24038808,20.3372952 L5.18449098,20.3946236 C4.35728217,20.4395356 3.65028851,19.8053588 3.60537644,18.97815 C3.60243515,18.9239763 3.60243515,18.8696828 3.60537644,18.815509 L3.6627048,17.7596119 C3.69493336,17.1660132 3.37356797,16.6093921 2.84338216,16.3405035 L1.90028426,15.8622027 C1.16144439,15.4874933 0.866258319,14.5847833 1.24096772,13.8459434 C1.26550738,13.7975569 1.29265411,13.7505374 1.32228823,13.7050922 L1.8998846,12.8193226 C2.22459469,12.3213654 2.22459469,11.6786346 1.8998846,11.1806774 L1.32228823,10.2949078 C0.869788828,9.60098003 1.06550522,8.67161715 1.75943302,8.21911775 C1.80487824,8.18948364 1.85189776,8.16233691 1.90028426,8.13779725 L2.84338216,7.65949652 C3.37356797,7.39060793 3.69493336,6.83398676 3.6627048,6.24038808 L3.60537644,5.18449098 C3.56046436,4.35728217 4.19464116,3.65028851 5.02184997,3.60537644 C5.07602374,3.60243515 5.1303172,3.60243515 5.18449098,3.60537644 L6.24038808,3.6627048 C6.83398676,3.69493336 7.39060793,3.37356797 7.65949652,2.84338216 L8.13779725,1.90028426 C8.51250666,1.16144439 9.41521671,0.866258319 10.1540566,1.24096772 C10.2024431,1.26550738 10.2494626,1.29265411 10.2949078,1.32228823 L11.1806774,1.8998846 C11.6786346,2.22459469 12.3213654,2.22459469 12.8193226,1.8998846 L13.7050922,1.32228823 C14.39902,0.869788828 15.3283828,1.06550522 15.7808822,1.75943302 C15.8105164,1.80487824 15.8376631,1.85189776 15.8622027,1.90028426 L16.3405035,2.84338216 C16.6093921,3.37356797 17.1660132,3.69493336 17.7596119,3.6627048 L18.815509,3.60537644 C19.6427178,3.56046436 20.3497115,4.19464116 20.3946236,5.02184997 C20.3975648,5.07602374 20.3975648,5.1303172 20.3946236,5.18449098 L20.3372952,6.24038808 C20.3050666,6.83398676 20.626432,7.39060793 21.1566178,7.65949652 L22.0997157,8.13779725 C22.8385556,8.51250666 23.1337417,9.41521671 22.7590323,10.1540566 C22.7344926,10.2024431 22.7073459,10.2494626 22.6777118,10.2949078 L22.1001154,11.1806774 C21.7754053,11.6786346 21.7754053,12.3213654 22.1001154,12.8193226 L22.6777118,13.7050922 C23.1302112,14.39902 22.9344948,15.3283828 22.240567,15.7808822 C22.1951218,15.8105164 22.1481022,15.8376631 22.0997157,15.8622027 L21.1566178,16.3405035 C20.626432,16.6093921 20.3050666,17.1660132 20.3372952,17.7596119 L20.3946236,18.815509 C20.4395356,19.6427178 19.8053588,20.3497115 18.97815,20.3946236 C18.9239763,20.3975648 18.8696828,20.3975648 18.815509,20.3946236 L17.7596119,20.3372952 C17.1660132,20.3050666 16.6093921,20.626432 16.3405035,21.1566178 L15.8622027,22.0997157 C15.4874933,22.8385556 14.5847833,23.1337417 13.8459434,22.7590323 C13.7975569,22.7344926 13.7505374,22.7073459 13.7050922,22.6777118 L12.8193226,22.1001154 C12.3213654,21.7754053 11.6786346,21.7754053 11.1806774,22.1001154 Z" id="Star" fill="#81A96A"></path>
                    <polygon id="Combined-Shape" fill="#FFFFFF" points="10.3433009 13.8209213 16.6642222 7.5 17.9370145 8.77279221 10.3549033 16.3549033 10.35 16.35 10.3383976 16.3616024 6.27734713 12.3005519 7.55013934 11.0277597 10.3433009 13.8209213"></polygon>
                </g>
            </g>
        </g>
    </g>
</svg>