<svg width="40" height="40" viewBox="0 0 40 40" fill="none" xmlns="http://www.w3.org/2000/svg">
<path fill-rule="evenodd" clip-rule="evenodd" d="M20 40C8.95431 40 0 31.0457 0 20C0 8.9543 8.95431 0 20 0C31.0457 0 40 8.9543 40 20C40 31.0457 31.0457 40 20 40ZM21.2929 14.6262C21.6834 14.2357 22.3166 14.2357 22.7071 14.6262C23.0976 15.0168 23.0976 15.6499 22.7071 16.0405L18.7475 20L22.7071 23.9596C23.0976 24.3501 23.0976 24.9833 22.7071 25.3738C22.3166 25.7643 21.6834 25.7643 21.2929 25.3738L16.6262 20.7071C16.2357 20.3166 16.2357 19.6834 16.6262 19.2929L21.2929 14.6262Z" fill="white"/>
</svg>
