<svg xmlns="http://www.w3.org/2000/svg" width="36" height="36">
    <path fill="#BDBDBD" fill-rule="evenodd" d="M18 0c9.941 0 18 8.059 18 18s-8.059 18-18 18S0 27.941 0 18 8.059 0 18 0z"/>
    <path fill="#696969" fill-rule="evenodd" d="M23.091 16.312V12.75C23.091 10.131 20.807 8 18 8c-2.807 0-5.091 2.131-5.091 4.75v3.562c-1.052 0-1.909.8-1.909 1.782v7.125c0 .982.857 1.781 1.909 1.781h10.182C24.144 27 25 26.201 25 25.219v-7.125c0-.982-.856-1.782-1.909-1.782zm-8.909-3.562c0-1.965 1.712-3.563 3.818-3.563 2.105 0 3.818 1.598 3.818 3.563v3.562h-7.636V12.75zm9.545 12.469c0 .327-.286.593-.636.593H12.909c-.35 0-.636-.266-.636-.593v-7.125c0-.328.286-.594.636-.594h10.182c.35 0 .636.266.636.594v7.125zm-5.091-3.992v-1.352c0-.328-.285-.594-.636-.594-.351 0-.636.266-.636.594v1.352c-.379.206-.637.585-.637 1.023 0 .655.57 1.187 1.273 1.187.702 0 1.273-.532 1.273-1.187 0-.438-.258-.817-.637-1.023z"/>
</svg>
