<svg xmlns="http://www.w3.org/2000/svg" width="36" height="36">
    <path fill="#BDBDBD" fill-rule="evenodd" d="M18 0c9.941 0 18 8.059 18 18s-8.059 18-18 18S0 27.941 0 18 8.059 0 18 0z"/>
    <path fill="#696969" fill-rule="evenodd" d="M23.378 26H13.232c-.343 0-.622-.262-.622-.586v-2.227c0-.323.279-.585.622-.585.344 0 .623.262.623.585v1.641h8.9V12.172h-8.9v1.64c0 .324-.279.586-.623.586-.343 0-.622-.262-.622-.586v-2.226c0-.324.279-.586.622-.586h10.146c.343 0 .622.262.622.586v13.828c0 .324-.279.586-.622.586zm-12.253-8.086h5.156c.344 0 .622.262.622.586 0 .324-.278.586-.622.586h-5.156l.61.574c.243.229.243.6 0 .829a.65.65 0 0 1-.88 0l-1.673-1.575A.558.558 0 0 1 9 18.5c0-.158.071-.31.182-.414l1.673-1.575a.65.65 0 0 1 .88 0c.243.229.243.6 0 .829l-.61.574z"/>
</svg>
