<svg xmlns="http://www.w3.org/2000/svg" width="36" height="36">
    <path fill="#BDBDBD" fill-rule="evenodd" d="M18 0c9.941 0 18 8.059 18 18s-8.059 18-18 18S0 27.941 0 18 8.059 0 18 0z"/>
    <path fill="#696969" fill-rule="evenodd" d="M27.997 22.614l-.002.018-.005.024-.005.02-.007.02-.008.02-.008.02a.162.162 0 0 1-.01.018l-.011.02a.153.153 0 0 0-.011.016l-.014.02-.015.017-.014.016-.028.026-.005.006-.006.004a.837.837 0 0 1-.031.024l-.018.011a.255.255 0 0 1-.021.014l-.021.011-.021.01c-.007.004-.014.006-.022.009-.007.003-.014.007-.022.009a.142.142 0 0 1-.022.007l-.024.007a.174.174 0 0 1-.022.005l-.025.006a1.99 1.99 0 0 0-.026.003l-.023.003-.049.002H11.789c-.275 0-.499-.192-.499-.428v-2.466H8.713c-.275 0-.499-.191-.499-.428 0-.236.224-.427.499-.427h2.577v-.523c0-.236.224-.428.499-.428.276 0 .499.192.499.428v2.811l4.368-3.747a.535.535 0 0 1 .067-.047l-4.435-3.367v1.688c0 .236-.223.428-.499.428-.275 0-.499-.192-.499-.428v-2.638l.001-.007.001-.024.002-.019.004-.022a.142.142 0 0 1 .004-.02l.006-.02a.159.159 0 0 1 .007-.02l.008-.019.009-.02.01-.018.012-.02.011-.016.015-.02a.332.332 0 0 1 .031-.033l.005-.006.009-.008.019-.017.018-.013.018-.014.021-.013.019-.011a.226.226 0 0 1 .022-.011.088.088 0 0 1 .02-.009.16.16 0 0 1 .023-.01l.021-.008.024-.007a.745.745 0 0 1 .023-.006l.023-.005.024-.005.025-.003.023-.002.028-.001.013-.001h15.712c.276 0 .499.192.499.428v9.144a.297.297 0 0 1-.003.042zm-15.004-.47h13.304l-4.369-3.746a.489.489 0 0 1-.059-.062l-1.901 1.383a.549.549 0 0 1-.323.102.554.554 0 0 1-.331-.107l-1.865-1.417a.454.454 0 0 1-.087.101l-4.369 3.746zm14.009-8.288H13.105l6.547 4.971 5.612-4.083a.558.558 0 0 1 .703.049c.178.18.152.45-.058.603l-3.284 2.39.009.007 4.368 3.746v-7.683zm-16.848 1.659H6.372c-.276 0-.499-.192-.499-.428s.223-.428.499-.428h3.782c.276 0 .499.192.499.428s-.223.428-.499.428zm4.268 1.929c0 .237-.224.428-.499.428H5.499c-.276 0-.499-.191-.499-.428 0-.236.223-.427.499-.427h8.424c.275 0 .499.191.499.427zm-8.923 3.613h3.658c.275 0 .498.191.498.428 0 .236-.223.428-.498.428H5.499c-.276 0-.499-.192-.499-.428 0-.237.223-.428.499-.428z"/>
</svg>
