<svg xmlns="http://www.w3.org/2000/svg" width="36" height="36">
    <path fill="#BDBDBD" fill-rule="evenodd" d="M18 0c9.941 0 18 8.059 18 18s-8.059 18-18 18S0 27.941 0 18 8.059 0 18 0z"/>
    <path fill="#696969" fill-rule="evenodd" d="M29.5 24h-3a.5.5 0 0 1-.482-.367 19.292 19.292 0 0 0-.135-.452l-.802.538a1.57 1.57 0 0 1-.531 1.51 1.635 1.635 0 0 1-1.147.411c-.144.361-.434.67-.835.872-.41.206-.861.265-1.255.181a1.97 1.97 0 0 1-1.041.961c-.385.15-.785.149-1.137.012-.263.221-.642.334-1.135.334-.614 0-1.407-.34-1.775-.582-.446-.293-2.684-1.976-4.546-3.535-.31-.26-.771-.742-1.217-1.209l-.37-.384-.117.365A.5.5 0 0 1 9.5 23h-3a.5.5 0 0 1-.5-.5v-9.001A.5.5 0 0 1 6.53 13c1.03.061 4.457.324 5.314 1.136a.498.498 0 0 1 .154.406c-.013.143-.031.298-.052.457h4.013c1.284-1.008 2.447-1.261 4.245-.457 1.068.478 2.126.895 2.884 1.181a.5.5 0 0 1-.05-.366.498.498 0 0 1 .267-.311c.091-.042 2.269-1.047 6.195-1.047a.5.5 0 0 1 .5.5V23.5a.5.5 0 0 1-.5.5zM7 14.035V22h2.135c.372-1.175 1.571-5.066 1.836-7.256-.63-.306-2.364-.582-3.971-.709zm4.778 1.964c-.332 1.722-.934 3.834-1.352 5.214.183.171.457.455.759.769.408.426.87.909 1.137 1.134 1.901 1.592 4.102 3.234 4.453 3.465.293.194.892.419 1.225.419.1 0 .172-.008.238-.017-.757-.713-1.764-1.78-2.103-2.142a.5.5 0 0 1 .731-.683c.285.305 1.744 1.858 2.457 2.459.003.002.002.006.004.008.003.003.008.003.011.006.199.182.421.147.574.089a.962.962 0 0 0 .533-.54c-.829-.741-2.297-2.324-2.313-2.341a.5.5 0 0 1 .737-.677c.34.37 1.845 1.969 2.444 2.448.005.004.004.011.008.015.006.005.014.005.02.01.125.116.459.144.779-.018.103-.052.307-.188.363-.407-.747-.68-2.611-2.622-2.843-2.864a.5.5 0 1 1 .722-.693c.977 1.019 2.545 2.624 2.93 2.937.148.097.413.045.608-.122a.586.586 0 0 0 .149-.751c-.375-.78-2.042-2.129-3.512-3.318-.813-.657-1.585-1.282-2.157-1.819a9.835 9.835 0 0 0-.35.15c-.26.117-.433.189-.751.238-.77 1.022-1.804 1.38-2.937 1.006-.452-.149-.756-.469-.859-.901-.239-1.011.681-2.387 1.365-3.074h-3.07zm8.017-.543c-1.77-.791-2.608-.384-4.233 1.242-.683.683-1.21 1.705-1.105 2.144.015.064.043.131.199.183.489.164 1.221.254 1.928-.803a.5.5 0 0 1 .366-.219c.337-.034.421-.072.671-.184.164-.073.372-.167.709-.289a.5.5 0 0 1 .523.117c.547.547 1.405 1.241 2.313 1.975 1.379 1.116 2.791 2.263 3.48 3.185l.917-.616c-.514-1.543-1.307-3.758-1.895-5.186a58.38 58.38 0 0 1-3.873-1.549zM29 15.005c-2.379.056-4.018.501-4.781.76C25 17.429 26.4 21.455 26.874 23H29v-7.995z"/>
</svg>
