<svg xmlns="http://www.w3.org/2000/svg" width="36" height="36">
    <path fill="#BDBDBD" fill-rule="evenodd" d="M18 0c9.941 0 18 8.059 18 18s-8.059 18-18 18S0 27.941 0 18 8.059 0 18 0z"/>
    <path fill="#555" fill-rule="evenodd" d="M24.935 24.046c-.503 0-.989-.074-1.446-.213V28H10V9.446h3.979L13.701 8h6.127l-.294 1.446h3.955v4.681a4.997 4.997 0 0 1 1.446-.212c2.81 0 5.065 2.296 5.065 5.065 0 2.766-2.255 5.066-5.065 5.066zM14.763 8.85l.384 2.042h3.235l.425-2.042h-4.044zm7.872 1.45h-3.28l-.295 1.446h-4.636l-.278-1.446H10.85v16.85h11.793v-3.668a5.105 5.105 0 0 1-2.145-2.083h-8.496v-.85h8.121a4.994 4.994 0 0 1-.164-2.508h-7.957v-.846h8.194a5.122 5.122 0 0 1 2.439-2.724V10.3zm2.3 4.424c-2.296 0-4.212 1.916-4.212 4.211 0 2.296 1.871 4.212 4.212 4.212 2.34 0 4.211-1.916 4.211-4.212 0-2.295-1.871-4.211-4.211-4.211zm1.581 6.381l-1.565-1.565-1.565 1.565-.6-.605 1.564-1.565-1.535-1.531.6-.605 1.536 1.536 1.536-1.536.6.605-1.536 1.531 1.565 1.565-.6.605zm-14.514-7.231h9.53v.85h-9.53v-.85zm9.53 10.85h-9.53v-.85h9.53v.85z"/>
</svg>
