<svg id="_-eg-icon" data-name="-eg-icon" xmlns="http://www.w3.org/2000/svg" xmlns:xlink="http://www.w3.org/1999/xlink" width="81" height="81" viewBox="0 0 81 81">
  <metadata><?xpacket begin="﻿" id="W5M0MpCehiHzreSzNTczkc9d"?>
<x:xmpmeta xmlns:x="adobe:ns:meta/" x:xmptk="Adobe XMP Core 5.6-c138 79.159824, 2016/09/14-01:09:01        ">
   <rdf:RDF xmlns:rdf="http://www.w3.org/1999/02/22-rdf-syntax-ns#">
      <rdf:Description rdf:about=""/>
   </rdf:RDF>
</x:xmpmeta>
                                                                                                    
                                                                                                    
                                                                                                    
                                                                                                    
                                                                                                    
                                                                                                    
                                                                                                    
                                                                                                    
                                                                                                    
                                                                                                    
                                                                                                    
                                                                                                    
                                                                                                    
                                                                                                    
                                                                                                    
                                                                                                    
                                                                                                    
                                                                                                    
                                                                                                    
                                                                                                    
                           
<?xpacket end="w"?></metadata>
<defs>
    <style>
      .cls-1, .cls-2, .cls-6 {
        fill: #ebebeb;
      }

      .cls-1, .cls-2, .cls-3, .cls-7, .cls-8, .cls-9 {
        stroke: #c5c5c5;
      }

      .cls-1, .cls-2, .cls-3, .cls-4, .cls-7, .cls-8, .cls-9 {
        stroke-linecap: round;
      }

      .cls-1, .cls-3, .cls-7, .cls-8 {
        stroke-width: 1px;
      }

      .cls-2, .cls-9 {
        stroke-width: 1.1px;
      }

      .cls-3, .cls-7, .cls-8 {
        fill: #d8d8d8;
      }

      .cls-3, .cls-4, .cls-7, .cls-8, .cls-9 {
        fill-rule: evenodd;
      }

      .cls-4 {
        fill: none;
        stroke: #fff;
        stroke-width: 2.2px;
      }

      .cls-5 {
        fill: #bbb;
      }

      .cls-7 {
        filter: url(#filter);
      }

      .cls-8 {
        filter: url(#filter-2);
      }

      .cls-9 {
        fill: #d5d5d5;
      }
    </style>
    <filter id="filter" x="2603" y="259.063" width="32" height="43.937" filterUnits="userSpaceOnUse">
      <feOffset result="offset" dx="0.707" dy="0.707" in="SourceAlpha"/>
      <feGaussianBlur result="blur"/>
      <feFlood result="flood" flood-color="#c5c5c5" flood-opacity="0.5"/>
      <feComposite result="composite" operator="in" in2="blur"/>
      <feBlend result="blend" in="SourceGraphic"/>
    </filter>
    <filter id="filter-2" x="2638.16" y="259.063" width="31.84" height="43.937" filterUnits="userSpaceOnUse">
      <feOffset result="offset" dx="0.707" dy="0.707" in="SourceAlpha"/>
      <feGaussianBlur result="blur"/>
      <feFlood result="flood" flood-color="#c5c5c5" flood-opacity="0.5"/>
      <feComposite result="composite" operator="in" in2="blur"/>
      <feBlend result="blend" in="SourceGraphic"/>
    </filter>
  </defs>
  <circle id="Oval_5" data-name="Oval 5" class="cls-1" cx="40.5" cy="40.5" r="40"/>
  <g id="Letter">
    <rect class="cls-2" x="11.5" y="5.5" width="59.31" height="42" rx="4.4" ry="4.4"/>
    <g>
      <path id="Star_2" data-name="Star 2" class="cls-3" d="M2636.32,264.493l-0.76-.024-0.75-.072-0.75-.119-0.74-.165-0.73-.212-0.72-.257-0.69-.3L2630.5,263l-0.65-.387-0.63-.426-0.6-.466-0.57-.5-0.54-.537-0.5-.57-0.47-.6-0.42-.627-0.39-.654-0.34-.677-0.31-.7-0.25-.715-0.21-.729-0.17-.741-0.12-.75-0.07-.756-0.02-.759,0.02-.758,0.07-.756,0.12-.75,0.17-.741,0.21-.729,0.25-.715,0.31-.7,0.34-.677,0.39-.654,0.42-.627,0.47-.6,0.5-.57,0.54-.537,0.57-.5,0.6-.466,0.63-.426,0.65-.387,0.68-.345,0.69-.3,0.72-.257,0.73-.212,0.74-.165,0.75-.119,0.75-.072,0.76-.024,0.76,0.024,0.76,0.072,0.75,0.119,0.74,0.165,0.73,0.212,0.71,0.257,0.7,0.3,0.67,0.345,0.66,0.387,0.63,0.426,0.6,0.466,0.57,0.5,0.53,0.537,0.5,0.57,0.47,0.6,0.43,0.627,0.38,0.654,0.35,0.677,0.3,0.7,0.26,0.715,0.21,0.729,0.16,0.741,0.12,0.75,0.07,0.756,0.03,0.758-0.03.759-0.07.756-0.12.75-0.16.741-0.21.729-0.26.715-0.3.7-0.35.677-0.38.654-0.43.627-0.47.6-0.5.57-0.53.537-0.57.5-0.6.466-0.63.426-0.66.387-0.67.344-0.7.3-0.71.257-0.73.212-0.74.165-0.75.119-0.76.072Z" transform="translate(-2594.5 -232.5)"/>
      <path id="Combined_Shape" data-name="Combined Shape" class="cls-4" d="M2641.13,246.827l0.84,0.838-10.27,10.269-0.84-.838Z" transform="translate(-2594.5 -232.5)"/>
      <path id="Combined_Shape_copy" data-name="Combined Shape copy" class="cls-4" d="M2631.83,247.014l-0.83.829L2641.18,258l0.83-.828Z" transform="translate(-2594.5 -232.5)"/>
    </g>
    <rect class="cls-5" x="28.5" y="33.5" width="26" height="19"/>
    <rect class="cls-6" x="26.5" y="34.5" width="31" height="2"/>
    <rect id="Rectangle_63_copy" data-name="Rectangle 63 copy" class="cls-6" x="26.5" y="37.5" width="31" height="2"/>
    <rect id="Rectangle_63_copy_2" data-name="Rectangle 63 copy 2" class="cls-6" x="26.5" y="40.5" width="31" height="2"/>
    <g transform="translate(-2594.5 -232.5)" style="fill: #d8d8d8; filter: url(#filter)">
      <path id="Triangle_Copy" data-name="Triangle Copy" class="cls-7" d="M2633.33,281.214l-26.44,20.192a3.35,3.35,0,0,1-3.02.253,1.193,1.193,0,0,1-.87-0.983V260.29c0-.677.96-1.225,2.16-1.225a2.947,2.947,0,0,1,1.73.494l26.44,20.192A0.847,0.847,0,0,1,2633.33,281.214Z" style="stroke: inherit; filter: none; fill: inherit"/>
    </g>
    <use transform="translate(-2594.5 -232.5)" xlink:href="#Triangle_Copy" style="stroke: #c5c5c5; filter: none; fill: none"/>
    <g transform="translate(-2594.5 -232.5)" style="fill: #d8d8d8; filter: url(#filter-2)">
      <path id="Triangle_Copy_2" data-name="Triangle Copy 2" class="cls-8" d="M2638.57,281.214l26.44,20.192a3.35,3.35,0,0,0,3.02.253,1.193,1.193,0,0,0,.87-0.983V260.29c0-.677-0.97-1.225-2.16-1.225a2.947,2.947,0,0,0-1.73.494l-26.44,20.192A0.84,0.84,0,0,0,2638.57,281.214Z" style="stroke: inherit; filter: none; fill: inherit"/>
    </g>
    <use transform="translate(-2594.5 -232.5)" xlink:href="#Triangle_Copy_2" style="stroke: #c5c5c5; filter: none; fill: none"/>
    <path id="Triangle" class="cls-9" d="M2639.39,273.318l31.77,27.53c0.92,0.8.68,1.441-.53,1.441h-69.12c-1.22,0-1.46-.644-0.54-1.441l31.77-27.53A5.224,5.224,0,0,1,2639.39,273.318Z" transform="translate(-2594.5 -232.5)"/>
  </g>
</svg>
