<svg xmlns="http://www.w3.org/2000/svg" width="36" height="36">
    <path fill="#BDBDBD" fill-rule="evenodd" d="M18 0c9.941 0 18 8.059 18 18s-8.059 18-18 18S0 27.941 0 18 8.059 0 18 0z"/>
    <path fill="#6C6C6C" fill-rule="evenodd" d="M28 17.839C28 23.442 23.514 28 18 28S8 23.442 8 17.839c0-.333.266-.603.593-.603.328 0 .593.27.593.603 0 4.938 3.954 8.956 8.814 8.956 4.86 0 8.814-4.018 8.814-8.956S22.86 8.883 18 8.883h-1.029l1.471 1.674a.61.61 0 0 1-.047.851.587.587 0 0 1-.837-.048l-2.104-2.393a1.044 1.044 0 0 1 0-1.374l2.104-2.392a.587.587 0 0 1 .837-.048.61.61 0 0 1 .047.851l-1.471 1.674H18c5.514 0 10 4.558 10 10.161z"/>
    <path fill="#5B5B5B" fill-rule="evenodd" d="M22 15c-.156-.16-.527-.04-.683.12l-4.792 4.894-1.842-1.881c-.156-.16-.527-.293-.683-.133-.156.16-.156.84 0 1l2 2c.156.16.844.159 1 0l5-5c.156-.16.156-.84 0-1z"/>
</svg>
