<svg xmlns="http://www.w3.org/2000/svg" width="36" height="36">
    <path fill="#BDBDBD" fill-rule="evenodd" d="M18 0c9.941 0 18 8.059 18 18s-8.059 18-18 18S0 27.941 0 18 8.059 0 18 0z"/>
    <path fill="#5B5B5B" fill-rule="evenodd" d="M22.529 14.766h-12.26l2.578-2.984a.481.481 0 0 0-.037-.663.446.446 0 0 0-.642.038l-2.903 3.361a1.104 1.104 0 0 0 0 1.436l2.903 3.36a.447.447 0 0 0 .642.038.481.481 0 0 0 .037-.663l-2.578-2.984h12.26c1.964 0 3.562 1.65 3.562 3.678s-1.598 3.678-3.562 3.678h-2.165a.462.462 0 0 0-.455.469c0 .26.204.47.455.47h2.165C24.994 24 27 21.929 27 19.383s-2.006-4.617-4.471-4.617z"/>
</svg>
