<svg xmlns="http://www.w3.org/2000/svg" width="36" height="36">
    <path fill="#BDBDBD" fill-rule="evenodd" d="M18 0c9.941 0 18 8.059 18 18s-8.059 18-18 18S0 27.941 0 18 8.059 0 18 0z"/>
    <path fill="#6C6C6C" fill-rule="evenodd" d="M28 17.839C28 23.442 23.514 28 18 28S8 23.442 8 17.839c0-.333.266-.603.593-.603.328 0 .593.27.593.603 0 4.938 3.954 8.956 8.814 8.956 4.86 0 8.814-4.018 8.814-8.956S22.86 8.883 18 8.883h-1.029l1.471 1.674a.61.61 0 0 1-.047.851.587.587 0 0 1-.837-.048l-2.104-2.393a1.044 1.044 0 0 1 0-1.374l2.104-2.392a.587.587 0 0 1 .837-.048.61.61 0 0 1 .047.851l-1.471 1.674H18c5.514 0 10 4.558 10 10.161z"/>
    <path fill="#4A4A4A" fill-rule="evenodd" d="M15.246 20.121l4.849-4.848a.43.43 0 0 1 .606.606l-4.849 4.848a.427.427 0 0 1-.606 0 .427.427 0 0 1 0-.606z"/>
    <path fill="#4A4A4A" fill-rule="evenodd" d="M15.756 15.118l5.1 5.099a.45.45 0 1 1-.638.637l-5.099-5.099a.45.45 0 1 1 .637-.637z"/>
</svg>
