<svg id="Layer_1" data-name="Layer 1" xmlns="http://www.w3.org/2000/svg" viewBox="0 0 54 49">
  <defs>
    <style>
      .cls-1 {
        fill: #00a3d8;
        stroke: #00a3d8;
      }

      .cls-1, .cls-2 {
        stroke-miterlimit: 10;
        stroke-width: 0.5px;
      }

      .cls-2 {
        fill: #536d79;
        stroke: #536d79;
      }
    </style>
  </defs>
  <title>icons</title>
  <g>
    <path class="cls-1" d="M27.82,20.71a3.09,3.09,0,0,1,2.05.75,2.28,2.28,0,0,1,.8,1.67h.93a3.06,3.06,0,0,0-1.11-2.35,4.6,4.6,0,0,0-2.18-.94V17.3h-.93v2.54a3.67,3.67,0,0,0-2.17.94,3,3,0,0,0,0,4.71,3.83,3.83,0,0,0,2.61.93,3.09,3.09,0,0,1,2.05.75,2.15,2.15,0,0,1,0,3.35,3.3,3.3,0,0,1-2.05.75,3.07,3.07,0,0,1-2.05-.75A2.25,2.25,0,0,1,25,28.85H24a3,3,0,0,0,1.12,2.35,4.57,4.57,0,0,0,2.17.94v2.54h.93V32.14a3.65,3.65,0,0,0,2.17-.94,3,3,0,0,0,0-4.71,3.82,3.82,0,0,0-2.6-.93,3.07,3.07,0,0,1-2.05-.75,2.14,2.14,0,0,1,0-3.35A3.07,3.07,0,0,1,27.82,20.71Z"/>
    <path class="cls-2" d="M27.82,12.77A13.16,13.16,0,1,0,41,25.93,13.16,13.16,0,0,0,27.82,12.77Zm0,25.39A12.23,12.23,0,1,1,40.05,25.93,12.22,12.22,0,0,1,27.82,38.16Z"/>
    <path class="cls-2" d="M46.5,25.93a18.67,18.67,0,0,0-7.07-14.59l1.11-1.55,3.73,2.73.31-.43a4.33,4.33,0,0,0,.8-3.23A4.45,4.45,0,0,0,43.65,6l-.25-.18L44,5.07a.43.43,0,0,0-.13-.62.43.43,0,0,0-.62.12l-.56.75-.25-.19a4.27,4.27,0,0,0-2.48-.8,4.44,4.44,0,0,0-3.47,1.73l-.31.44,3.72,2.73-1.18,1.55a18.74,18.74,0,0,0-21.73,0L15.84,9.29l3.72-2.73-.31-.43a4.52,4.52,0,0,0-3.54-1.8,4.23,4.23,0,0,0-2.54.86l-.25.13-.56-.75a.49.49,0,0,0-.62-.12.47.47,0,0,0-.12.62l.55.75L12,6.06a4.12,4.12,0,0,0-1.74,2.86,4.28,4.28,0,0,0,.81,3.23l.31.43,3.72-2.73,1.12,1.55A18.58,18.58,0,0,0,16.77,41L15,44a.43.43,0,0,0,.18.62.4.4,0,0,0,.25.06.33.33,0,0,0,.37-.24l1.8-2.92a18.68,18.68,0,0,0,20.61,0L40,44.43a.53.53,0,0,0,.38.24.36.36,0,0,0,.24-.06.44.44,0,0,0,.19-.62l-1.92-3A18.56,18.56,0,0,0,46.5,25.93ZM39.92,5.26a3.55,3.55,0,0,1,2,.68l1.12.87A3.42,3.42,0,0,1,44.45,9,3.18,3.18,0,0,1,44,11.28l-6.64-5A3.51,3.51,0,0,1,39.92,5.26ZM11.18,9a3.3,3.3,0,0,1,1.37-2.23l1.18-.87a3.54,3.54,0,0,1,2-.68,3.22,3.22,0,0,1,2.49,1.11l-6.71,4.85A3.32,3.32,0,0,1,11.18,9ZM27.82,43.68A17.76,17.76,0,1,1,45.57,25.93,17.75,17.75,0,0,1,27.82,43.68Z"/>
  </g>
</svg>
