<svg width="60" height="60" viewBox="0 0 60 60" fill="none" xmlns="http://www.w3.org/2000/svg">
<rect x="-0.000854492" width="60" height="60" rx="20" fill="#6EC9F7"/>
<path fill-rule="evenodd" clip-rule="evenodd" d="M24.8394 15.9082C24.8394 15.2178 24.2797 14.6582 23.5894 14.6582C22.899 14.6582 22.3394 15.2178 22.3394 15.9082V17.7311H18.9071C16.5599 17.7311 14.6571 19.6339 14.6571 21.9811V40.5643C14.6571 42.9115 16.5599 44.8143 18.9071 44.8143H40.5632C42.9105 44.8143 44.8132 42.9115 44.8132 40.5643V21.9811C44.8132 19.6339 42.9105 17.7311 40.5632 17.7311H37.1309V15.9082C37.1309 15.2178 36.5713 14.6582 35.8809 14.6582C35.1905 14.6582 34.6309 15.2178 34.6309 15.9082V17.7311H24.8394V15.9082ZM34.6309 22.054V20.2311H24.8394V22.054C24.8394 22.7444 24.2797 23.304 23.5894 23.304C22.899 23.304 22.3394 22.7444 22.3394 22.054V20.2311H18.9071C17.9406 20.2311 17.1571 21.0146 17.1571 21.9811V25.4134H42.3132V21.9811C42.3132 21.0146 41.5297 20.2311 40.5632 20.2311H37.1309V22.054C37.1309 22.7444 36.5713 23.304 35.8809 23.304C35.1905 23.304 34.6309 22.7444 34.6309 22.054ZM42.3132 27.9134H17.1571V40.5643C17.1571 41.5308 17.9406 42.3143 18.9071 42.3143H40.5632C41.5297 42.3143 42.3132 41.5308 42.3132 40.5643V27.9134ZM24.3577 32.041C24.3577 32.8895 23.6698 33.5774 22.8212 33.5774C21.9727 33.5774 21.2848 32.8895 21.2848 32.041C21.2848 31.1924 21.9727 30.5045 22.8212 30.5045C23.6698 30.5045 24.3577 31.1924 24.3577 32.041ZM29.7352 33.5774C30.5838 33.5774 31.2717 32.8895 31.2717 32.041C31.2717 31.1924 30.5838 30.5045 29.7352 30.5045C28.8867 30.5045 28.1988 31.1924 28.1988 32.041C28.1988 32.8895 28.8867 33.5774 29.7352 33.5774ZM38.1857 32.041C38.1857 32.8895 37.4978 33.5774 36.6493 33.5774C35.8007 33.5774 35.1128 32.8895 35.1128 32.041C35.1128 31.1924 35.8007 30.5045 36.6493 30.5045C37.4978 30.5045 38.1857 31.1924 38.1857 32.041ZM22.8212 38.955C23.6698 38.955 24.3577 38.2671 24.3577 37.4185C24.3577 36.57 23.6698 35.8821 22.8212 35.8821C21.9727 35.8821 21.2848 36.57 21.2848 37.4185C21.2848 38.2671 21.9727 38.955 22.8212 38.955ZM31.2717 37.4185C31.2717 38.2671 30.5838 38.955 29.7352 38.955C28.8867 38.955 28.1988 38.2671 28.1988 37.4185C28.1988 36.57 28.8867 35.8821 29.7352 35.8821C30.5838 35.8821 31.2717 36.57 31.2717 37.4185ZM36.6493 38.955C37.4978 38.955 38.1857 38.2671 38.1857 37.4185C38.1857 36.57 37.4978 35.8821 36.6493 35.8821C35.8007 35.8821 35.1128 36.57 35.1128 37.4185C35.1128 38.2671 35.8007 38.955 36.6493 38.955Z" fill="white"/>
</svg>
