<svg width="60" height="60" viewBox="0 0 60 60" fill="none" xmlns="http://www.w3.org/2000/svg">
<rect x="-0.000854492" width="60" height="60" rx="20" fill="#14B8B8"/>
<circle cx="30.4992" cy="32.4442" r="14.5556" stroke="white" stroke-width="2"/>
<path d="M30.4991 17.8615V13.9727" stroke="white" stroke-width="2"/>
<path d="M14.9436 21.75L18.1843 18.5093L18.8325 17.8611" stroke="white" stroke-width="2" stroke-linecap="round"/>
<path d="M34.477 28.8673C34.4912 28.6194 34.4441 28.3586 34.3956 28.1187C34.3456 27.8707 34.249 27.6434 34.1491 27.4115C34.0356 27.148 33.8657 26.9225 33.6852 26.7009C33.4841 26.4543 33.2207 26.2496 32.953 26.082C32.6341 25.8823 32.2666 25.7399 31.902 25.6499C31.4406 25.536 30.9537 25.4925 30.479 25.4998C29.9943 25.5072 29.4931 25.5681 29.0307 25.7184C28.2362 25.9767 27.5514 26.4762 27.1194 27.1995C26.7891 27.7524 26.6399 28.3995 26.6129 29.0382C26.5866 29.6595 26.756 30.2877 27.0704 30.8223C27.4703 31.5023 28.1102 32.04 28.8157 32.379C29.2733 32.5989 29.7517 32.767 30.2472 32.8759C30.6908 32.9734 31.1254 33.0722 31.5464 33.2477C31.4693 33.2151 31.3922 33.1825 31.315 33.1499C31.6327 33.2843 31.9356 33.4517 32.2093 33.6626C32.144 33.6121 32.0786 33.5615 32.0133 33.5109C32.2105 33.6648 32.3898 33.8397 32.5436 34.0374C32.4931 33.9719 32.4426 33.9064 32.3921 33.841C32.5243 34.0131 32.6353 34.1998 32.7204 34.3996C32.6878 34.3223 32.6553 34.2451 32.6228 34.1678C32.7002 34.3528 32.7544 34.5462 32.782 34.7449C32.7705 34.6589 32.7589 34.5729 32.7474 34.4869C32.7796 34.7301 32.7681 34.9783 32.736 35.221C32.7476 35.135 32.7591 35.049 32.7707 34.963C32.7359 35.2177 32.6722 35.4676 32.5735 35.7052C32.606 35.6279 32.6386 35.5506 32.6712 35.4733C32.5901 35.6652 32.4868 35.8461 32.3597 36.0112C32.4102 35.9457 32.4607 35.8802 32.5112 35.8147C32.3976 35.9602 32.2674 36.0904 32.1223 36.2043C32.1877 36.1537 32.253 36.1031 32.3184 36.0525C32.1504 36.1823 31.9664 36.2873 31.7715 36.3707C31.8486 36.3381 31.9258 36.3055 32.0029 36.2729C31.7352 36.385 31.4533 36.4544 31.1662 36.4943C31.2521 36.4828 31.3379 36.4712 31.4238 36.4596C30.9793 36.5187 30.5235 36.5147 30.0793 36.4549C30.1651 36.4665 30.251 36.4781 30.3368 36.4896C30.0335 36.4472 29.7348 36.3743 29.4521 36.2552C29.5292 36.2878 29.6063 36.3204 29.6835 36.353C29.4921 36.2709 29.3108 36.1684 29.1453 36.0417C29.2107 36.0923 29.276 36.1429 29.3414 36.1935C29.1975 36.0819 29.0681 35.9537 28.9563 35.8098C29.0068 35.8752 29.0573 35.9407 29.1078 36.0062C28.9949 35.8589 28.902 35.6979 28.8298 35.5269C28.8624 35.6042 28.8949 35.6815 28.9275 35.7588C28.8477 35.5675 28.794 35.3663 28.7662 35.1609C28.7777 35.2469 28.7892 35.3329 28.8008 35.4189C28.7858 35.3056 28.7747 35.188 28.7828 35.0735C28.8004 34.8263 28.6693 34.5578 28.4991 34.3872C28.3182 34.206 28.0699 34.1029 27.814 34.1029C27.5581 34.1029 27.3099 34.206 27.129 34.3872C26.9377 34.5789 26.8641 34.8094 26.8453 35.0735C26.8279 35.3182 26.8752 35.5789 26.9205 35.8153C26.9679 36.0623 27.0635 36.2858 27.1612 36.517C27.2722 36.7799 27.4403 37.0024 27.6189 37.2236C27.8178 37.47 28.08 37.6738 28.3454 37.842C28.6629 38.0431 29.0294 38.186 29.3926 38.2791C29.8525 38.3968 30.3393 38.4428 30.8134 38.4417C31.2987 38.4406 31.801 38.3828 32.2653 38.2377C33.0631 37.9884 33.749 37.4883 34.1847 36.7686C34.5192 36.2162 34.6687 35.5676 34.6999 34.928C34.7303 34.3068 34.5657 33.6832 34.2566 33.1459C33.8655 32.466 33.2292 31.9258 32.5318 31.5821C32.0718 31.3554 31.5859 31.1834 31.086 31.0713C30.6331 30.9697 30.1889 30.8728 29.7586 30.6931C29.8357 30.7257 29.9129 30.7583 29.99 30.7909C29.673 30.6566 29.3708 30.4892 29.098 30.2782C29.1634 30.3288 29.2287 30.3794 29.2941 30.43C29.0976 30.276 28.9191 30.1011 28.7662 29.9034C28.8167 29.9689 28.8672 30.0344 28.9177 30.0999C28.7863 29.9276 28.676 29.7409 28.5917 29.5412C28.6242 29.6185 28.6568 29.6958 28.6894 29.773C28.6126 29.588 28.5589 29.3946 28.5317 29.1959C28.5432 29.2819 28.5547 29.3679 28.5663 29.4539C28.535 29.2148 28.5455 28.9712 28.5766 28.7325C28.5651 28.8185 28.5535 28.9046 28.542 28.9906C28.5763 28.7362 28.6398 28.4865 28.7385 28.2493C28.7059 28.3266 28.6734 28.4039 28.6408 28.4812C28.722 28.2892 28.8255 28.1084 28.9527 27.9433C28.9023 28.0088 28.8518 28.0743 28.8013 28.1397C28.9152 27.994 29.0459 27.8634 29.1913 27.7491C29.1259 27.7997 29.0606 27.8503 28.9952 27.9009C29.1693 27.7663 29.3603 27.6579 29.5627 27.5723C29.4855 27.605 29.4084 27.6376 29.3313 27.6702C29.6022 27.5579 29.8872 27.4883 30.1772 27.4478C30.0914 27.4594 30.0055 27.4709 29.9197 27.4825C30.3554 27.4244 30.8017 27.4246 31.2376 27.481C31.1517 27.4694 31.0659 27.4579 30.98 27.4463C31.2821 27.4871 31.5794 27.5589 31.8608 27.6774C31.7837 27.6448 31.7066 27.6121 31.6294 27.5795C31.8206 27.6615 32.0015 27.7642 32.1667 27.8911C32.1013 27.8405 32.0359 27.7899 31.9706 27.7393C32.1148 27.8516 32.2443 27.9807 32.3563 28.1253C32.3059 28.0598 32.2554 27.9944 32.2049 27.9289C32.3185 28.0775 32.412 28.2398 32.4851 28.412C32.4526 28.3348 32.42 28.2575 32.3874 28.1802C32.4702 28.3777 32.5261 28.5856 32.555 28.7978C32.5435 28.7118 32.532 28.6257 32.5204 28.5397C32.5347 28.6473 32.5458 28.7586 32.5396 28.8673C32.5092 29.396 33.0032 29.8379 33.5083 29.8379C33.7642 29.8379 34.0124 29.7349 34.1933 29.5537C34.3826 29.3639 34.4619 29.1301 34.477 28.8673Z" fill="white"/>
<path d="M31.6142 26.4698C31.6142 25.8682 31.6142 25.2666 31.6142 24.6649C31.6142 24.1358 31.1735 23.6943 30.6455 23.6943C30.1174 23.6943 29.6768 24.1358 29.6768 24.6649C29.6768 25.2666 29.6768 25.8682 29.6768 26.4698C29.6768 26.9989 30.1174 27.4405 30.6455 27.4405C31.1735 27.4405 31.6142 26.9989 31.6142 26.4698Z" fill="white"/>
<path d="M31.6142 39.2518C31.6142 38.6584 31.6142 38.065 31.6142 37.4716C31.6142 36.9425 31.1735 36.501 30.6455 36.501C30.1174 36.501 29.6768 36.9425 29.6768 37.4716C29.6768 38.065 29.6768 38.6584 29.6768 39.2518C29.6768 39.7809 30.1174 40.2224 30.6455 40.2224C31.1735 40.2224 31.6142 39.7809 31.6142 39.2518Z" fill="white"/>
<path d="M27.9991 13H32.1658H32.9991" stroke="white" stroke-width="2" stroke-linecap="round"/>
<path d="M46.0548 21.75L42.8141 18.5093L42.1659 17.8611" stroke="white" stroke-width="2" stroke-linecap="round"/>
</svg>
