<?xml version="1.0" encoding="utf-8"?>
<!-- Generator: Adobe Illustrator 16.0.0, SVG Export Plug-In . SVG Version: 6.00 Build 0)  -->
<!DOCTYPE svg PUBLIC "-//W3C//DTD SVG 1.1//EN" "http://www.w3.org/Graphics/SVG/1.1/DTD/svg11.dtd">
<svg version="1.1" id="Слой_1" xmlns="http://www.w3.org/2000/svg" x="0px" y="0px"
     width="595.281px" height="489px" viewBox="0 0 595.281 489" enable-background="new 0 0 595.281 489"
     xml:space="preserve">
<rect x="33.635" y="179.061" fill="none" width="190.162" height="189.61"/>
<path fill="#6EC9F7" stroke="#FFFFFF" stroke-miterlimit="10" d="M213.755,271.438c0,27.924-13.355,52.645-34.104,68.096
	c-14.237,10.707-31.896,16.997-50.99,16.997c-19.093,0-36.752-6.29-50.989-16.997c-20.749-15.562-34.104-40.283-34.104-68.096
	c0-47.019,38.077-85.093,85.093-85.093C175.677,186.345,213.755,224.421,213.755,271.438z"/>
<path fill="#FFFFFF" d="M179.651,330.706v8.828c-14.237,10.707-31.896,16.997-50.99,16.997c-19.093,0-36.752-6.29-50.989-16.997
	v-8.828c0-28.144,22.846-50.99,50.989-50.99c14.127,0,26.819,5.739,36.09,14.899C173.912,303.885,179.651,316.688,179.651,330.706z"
	/>
<path fill="#FFFFFF" d="M128.661,272.541c17.548,0,31.786-14.235,31.786-31.786c0-17.549-14.237-31.784-31.786-31.784
	c-17.549,0-31.786,14.235-31.786,31.784C96.875,258.304,111.113,272.541,128.661,272.541z"/>
<rect x="373.234" y="179.061" fill="none" width="190.164" height="189.61"/>
<linearGradient id="SVGID_1_" gradientUnits="userSpaceOnUse" x1="309.5908" y1="842.7478" x2="447.1016" y2="842.7478" gradientTransform="matrix(1.2376 0 0 1.2376 0.0203 -771.5449)">
	<stop  offset="0" style="stop-color:#F16276"/>
	<stop  offset="0.4776" style="stop-color:#F16976"/>
	<stop  offset="1" style="stop-color:#F17776"/>
</linearGradient>
<path fill="url(#SVGID_1_)" stroke="#FFFFFF" stroke-miterlimit="10" d="M553.353,271.438c0,27.924-13.354,52.645-34.103,68.096
	c-14.237,10.707-31.897,16.997-50.99,16.997s-36.751-6.29-50.986-16.997c-20.75-15.562-34.104-40.283-34.104-68.096
	c0-47.019,38.077-85.093,85.093-85.093C515.278,186.345,553.353,224.421,553.353,271.438z"/>
<path fill="#FFFFFF" d="M519.25,330.706v8.828c-14.237,10.707-31.897,16.997-50.99,16.997s-36.751-6.29-50.986-16.997v-8.828
	c0-28.144,22.845-50.99,50.986-50.99c14.127,0,26.819,5.739,36.091,14.899C513.512,303.885,519.25,316.688,519.25,330.706z"/>
<path fill="#FFFFFF" d="M468.15,272.541c17.549,0,31.784-14.235,31.784-31.786c0-17.549-14.235-31.784-31.784-31.784
	c-17.55,0-31.785,14.235-31.785,31.784C436.365,258.304,450.602,272.541,468.15,272.541z"/>
<rect x="144.885" y="118.138" fill="none" width="306.71" height="306.71"/>
<path fill="#2B4F6E" stroke="#FFFFFF" stroke-width="4" stroke-miterlimit="10" d="M404.249,271.438
	c0,34.766-16.665,65.558-42.491,84.873c-17.77,13.243-39.731,21.19-63.572,21.19c-23.838,0-45.802-7.838-63.571-21.19
	c-25.826-19.314-42.491-50.107-42.491-84.873c0-58.605,47.458-106.063,106.063-106.063
	C356.791,165.375,404.249,212.833,404.249,271.438z"/>
<path fill="#FFFFFF" d="M361.757,345.274v11.036c-17.77,13.243-39.731,21.188-63.571,21.188c-23.839,0-45.803-7.836-63.573-21.188
	v-11.036c0-35.097,28.475-63.572,63.573-63.572c17.549,0,33.44,7.064,44.919,18.652
	C354.692,311.832,361.757,327.725,361.757,345.274z"/>
<path fill="#FFFFFF" d="M298.186,272.873c21.853,0,39.62-17.769,39.62-39.622c0-21.853-17.769-39.622-39.62-39.622
	c-21.854,0-39.623,17.771-39.623,39.622C258.563,255.104,276.332,272.873,298.186,272.873z"/>
<rect x="344.759" y="64.169" fill="none" width="200.757" height="130.896"/>
<path fill="#6EC9F7" d="M500.489,80.172h-116.99c-12.472,0-22.625,10.153-22.625,22.625v28.033c0,12.143,9.601,22.074,21.632,22.518
	v19.093l18.322-19.093h99.771c12.473,0,22.626-10.154,22.626-22.626v-28.033C523.114,90.325,512.959,80.172,500.489,80.172z"/>
<path fill="#F17776" d="M199.737,107.543H116.41c-10.815,0-19.645,8.83-19.645,19.646v21.963c0,10.816,8.83,19.646,19.645,19.646
	h63.02l17.106,17.771v-17.771h3.312c10.816,0,19.645-8.828,19.645-19.646v-21.963C219.383,116.373,210.664,107.543,199.737,107.543z
	"/>
<path fill="none" stroke="#FFFFFF" stroke-width="3" stroke-linecap="round" stroke-linejoin="round" stroke-miterlimit="10" d="
	M120.494,124.208h75.27"/>
<path fill="none" stroke="#FFFFFF" stroke-width="3" stroke-linecap="round" stroke-linejoin="round" stroke-miterlimit="10" d="
	M120.494,138.114h75.27"/>
<path fill="none" stroke="#FFFFFF" stroke-width="3" stroke-linecap="round" stroke-linejoin="round" stroke-miterlimit="10" d="
	M120.494,152.351h75.27"/>
<rect x="366.833" y="91.098" fill="none" width="57.722" height="56.176"/>
<path fill="#FFFFFF" d="M395.419,98.824l5.849,11.812l13.135,1.984l-9.49,9.271l2.315,13.134l-11.809-6.291l-11.81,6.291
	l2.314-13.134l-9.49-9.271l13.134-1.984L395.419,98.824z"/>
<rect x="413.96" y="91.098" fill="none" width="57.723" height="56.176"/>
<path fill="#FFFFFF" d="M442.657,98.824l5.849,11.812l13.133,1.984l-9.489,9.271l2.207,13.134l-11.697-6.291l-11.812,6.291
	l2.207-13.134l-9.489-9.271l13.132-1.984L442.657,98.824z"/>
<rect x="460.093" y="91.098" fill="none" width="57.17" height="56.176"/>
<path fill="#FFFFFF" d="M488.568,98.824l5.851,11.812l13.133,1.984l-9.491,9.271l2.207,13.134l-11.697-6.291l-11.812,6.291
	l2.209-13.134l-9.493-9.271l13.137-1.984L488.568,98.824z"/>
</svg>
