<?xml version="1.0" encoding="utf-8"?>
<!-- Generator: Adobe Illustrator 16.0.0, SVG Export Plug-In . SVG Version: 6.00 Build 0)  -->
<!DOCTYPE svg PUBLIC "-//W3C//DTD SVG 1.1//EN" "http://www.w3.org/Graphics/SVG/1.1/DTD/svg11.dtd">
<svg version="1.1" id="Слой_1" xmlns="http://www.w3.org/2000/svg" x="0px" y="0px"
     width="595.281px" height="489px" viewBox="0 142.445 595.281 489" enable-background="new 0 142.445 595.281 489"
     xml:space="preserve">
<rect x="90.808" y="230.445" fill="#FFFFFF" stroke="#FFFFFF" stroke-miterlimit="10" width="407.332" height="325"/>
<rect x="90.808" y="278.858" fill="none" width="350.087" height="73.037"/>
<path opacity="0.54" fill="#2B4F6E" enable-background="new    " d="M129.396,248.099c-0.112,0.113-0.224,0.224-0.224,0.335
	c-0.112,0.113-0.224,0.113-0.335,0.113s-0.335-0.113-0.448-0.224c-0.224-0.111-0.335-0.224-0.671-0.447
	c-0.224-0.112-0.559-0.335-0.895-0.448c-0.336-0.112-0.783-0.223-1.23-0.223s-0.895,0.111-1.23,0.223
	c-0.336,0.112-0.671,0.224-0.896,0.448c-0.223,0.223-0.447,0.447-0.559,0.671c-0.112,0.223-0.224,0.559-0.224,0.894
	c0,0.448,0.112,0.784,0.336,1.007c0.224,0.224,0.447,0.448,0.895,0.671c0.335,0.224,0.783,0.335,1.23,0.56
	c0.448,0.111,0.896,0.335,1.342,0.447c0.448,0.112,0.895,0.335,1.455,0.56c0.559,0.223,0.895,0.447,1.23,0.783
	s0.671,0.671,0.895,1.23c0.224,0.447,0.336,1.007,0.336,1.678c0,0.671-0.112,1.342-0.336,2.013c-0.223,0.671-0.559,1.23-1.118,1.678
	c-0.447,0.447-1.006,0.783-1.678,1.119c-0.671,0.224-1.454,0.447-2.349,0.447c-0.559,0-1.007,0-1.566-0.111
	c-0.448-0.111-1.007-0.224-1.454-0.447c-0.448-0.224-0.895-0.448-1.23-0.671c-0.335-0.224-0.783-0.56-1.007-0.895l0.783-1.231
	c0.112-0.111,0.112-0.223,0.224-0.223c0.112-0.112,0.224-0.112,0.335-0.112c0.224,0,0.336,0.112,0.559,0.224
	c0.224,0.111,0.448,0.335,0.783,0.56c0.335,0.223,0.671,0.335,1.118,0.559c0.448,0.112,0.896,0.224,1.455,0.224
	c0.895,0,1.678-0.224,2.237-0.671s0.783-1.118,0.783-1.902c0-0.447-0.112-0.783-0.336-1.118s-0.56-0.56-0.895-0.783
	c-0.335-0.224-0.783-0.335-1.23-0.448c-0.447-0.112-0.895-0.223-1.342-0.447c-0.447-0.111-0.895-0.335-1.342-0.56
	c-0.447-0.223-0.895-0.447-1.23-0.783c-0.335-0.335-0.671-0.783-0.895-1.229c-0.224-0.448-0.335-1.119-0.335-1.791
	c0-0.559,0.112-1.118,0.335-1.678c0.224-0.559,0.559-1.006,1.007-1.454c0.447-0.447,1.006-0.783,1.678-1.007
	c0.671-0.224,1.342-0.335,2.237-0.335s1.79,0.112,2.572,0.447c0.783,0.335,1.455,0.671,2.014,1.23L129.396,248.099z
	 M142.147,250.001v11.409h-1.454c-0.335,0-0.559-0.113-0.671-0.448l-0.224-1.118c-0.224,0.224-0.448,0.447-0.783,0.671
	c-0.224,0.224-0.559,0.336-0.895,0.56c-0.336,0.112-0.671,0.223-1.007,0.336c-0.335,0.111-0.671,0.111-1.119,0.111
	c-0.671,0-1.23-0.111-1.678-0.335s-0.895-0.56-1.23-0.895c-0.335-0.336-0.559-0.783-0.783-1.342
	c-0.112-0.559-0.224-1.119-0.224-1.79v-7.27h2.461v7.27c0,0.783,0.223,1.342,0.559,1.79c0.335,0.448,0.895,0.671,1.678,0.671
	c0.559,0,1.006-0.111,1.454-0.335c0.448-0.223,0.895-0.559,1.342-1.007v-8.388h2.573V250.001z"/>
<path opacity="0.54" fill="#2B4F6E" enable-background="new    " d="M188.117,245.303v16.107h-2.349v-11.074c0-0.224,0-0.335,0-0.56
	c0-0.223,0-0.447,0.112-0.671l-5.146,9.62c-0.224,0.447-0.559,0.559-0.895,0.559h-0.336c-0.447,0-0.783-0.223-0.895-0.559
	l-5.257-9.62c0,0.224,0,0.448,0,0.671c0,0.224,0,0.448,0,0.56v11.074h-2.349v-16.107h2.014c0.224,0,0.447,0,0.559,0.112
	c0.112,0,0.224,0.112,0.335,0.335l5.145,9.396c0.112,0.224,0.224,0.447,0.335,0.671c0.112,0.224,0.224,0.447,0.335,0.671
	c0.112-0.224,0.224-0.447,0.335-0.671c0.112-0.224,0.224-0.447,0.336-0.671l5.145-9.396c0.112-0.223,0.224-0.335,0.336-0.335
	c0.111,0,0.335-0.112,0.559-0.112H188.117z M196.059,249.889c0.895,0,1.565,0.111,2.237,0.447c0.671,0.224,1.23,0.671,1.789,1.231
	c0.448,0.559,0.896,1.118,1.119,1.901c0.224,0.671,0.448,1.566,0.448,2.46c0,0.895-0.112,1.678-0.448,2.461
	c-0.223,0.671-0.671,1.343-1.119,1.901c-0.447,0.56-1.006,0.895-1.789,1.23c-0.671,0.224-1.454,0.447-2.237,0.447
	c-0.896,0-1.678-0.112-2.349-0.447c-0.671-0.224-1.23-0.671-1.79-1.23c-0.447-0.559-0.895-1.118-1.119-1.901
	c-0.224-0.671-0.447-1.566-0.447-2.461c0-0.895,0.112-1.678,0.447-2.46c0.224-0.671,0.671-1.342,1.119-1.901
	c0.447-0.56,1.119-0.896,1.79-1.231C194.492,250.001,195.275,249.889,196.059,249.889z M196.059,259.732
	c1.006,0,1.789-0.336,2.348-1.007c0.56-0.671,0.783-1.678,0.783-3.02c0-1.231-0.224-2.237-0.783-3.02
	c-0.447-0.671-1.23-1.007-2.348-1.007c-1.007,0-1.79,0.335-2.349,1.007c-0.56,0.671-0.783,1.678-0.783,3.02
	c0,1.229,0.224,2.236,0.783,3.02C194.269,259.396,195.052,259.732,196.059,259.732z"/>
<path opacity="0.54" fill="#2B4F6E" enable-background="new    " d="M240.462,247.54h-5.033v13.981h-2.572V247.54h-5.034v-2.237
	h12.639V247.54z M249.746,250.001v11.409h-1.454c-0.335,0-0.56-0.113-0.671-0.448l-0.224-1.118
	c-0.224,0.224-0.447,0.447-0.783,0.671c-0.224,0.224-0.559,0.336-0.895,0.56c-0.335,0.112-0.671,0.223-1.006,0.336
	c-0.335,0.111-0.671,0.111-1.119,0.111c-0.671,0-1.23-0.111-1.678-0.335c-0.448-0.224-0.895-0.56-1.23-0.895
	c-0.335-0.336-0.559-0.783-0.783-1.342c-0.111-0.559-0.223-1.119-0.223-1.79v-7.27h2.46v7.27c0,0.783,0.224,1.342,0.56,1.79
	c0.335,0.448,0.895,0.671,1.678,0.671c0.559,0,1.006-0.111,1.454-0.335c0.448-0.223,0.895-0.559,1.342-1.007v-8.388h2.572V250.001z"
	/>
<path opacity="0.54" fill="#2B4F6E" enable-background="new    " d="M300.413,245.303l-5.032,16.107h-2.349l-3.803-11.521
	c0-0.113-0.112-0.224-0.112-0.448c0-0.111-0.112-0.335-0.112-0.447c0,0.224-0.112,0.336-0.112,0.447
	c0,0.112-0.112,0.335-0.112,0.448l-3.802,11.632h-2.349l-5.032-16.106h2.236c0.223,0,0.447,0.112,0.56,0.224
	c0.111,0.112,0.223,0.224,0.334,0.447l3.021,10.291c0.111,0.223,0.111,0.447,0.223,0.783c0,0.224,0.111,0.56,0.111,0.783
	c0-0.335,0.112-0.559,0.112-0.783c0.112-0.224,0.112-0.56,0.225-0.783l3.467-10.291c0-0.112,0.112-0.335,0.334-0.447
	c0.113-0.111,0.337-0.224,0.56-0.224h0.783c0.224,0,0.448,0.112,0.56,0.224c0.112,0.112,0.224,0.224,0.336,0.447l3.468,10.291
	c0.112,0.223,0.112,0.447,0.223,0.671c0.111,0.223,0.111,0.559,0.223,0.782c0-0.224,0.112-0.56,0.112-0.782
	c0-0.224,0.112-0.448,0.224-0.671l3.019-10.291c0-0.112,0.113-0.335,0.336-0.447c0.111-0.111,0.335-0.224,0.56-0.224h1.788V245.303z
	 M308.355,254.474c0-0.447-0.111-0.782-0.224-1.118c-0.111-0.335-0.336-0.671-0.56-0.895c-0.223-0.223-0.56-0.447-0.894-0.559
	c-0.337-0.113-0.672-0.224-1.119-0.224c-0.895,0-1.565,0.224-2.014,0.783c-0.448,0.447-0.782,1.231-1.008,2.125h5.817V254.474z
	 M302.538,255.928c0,0.671,0.113,1.23,0.337,1.678c0.223,0.448,0.448,0.895,0.671,1.23c0.335,0.336,0.671,0.56,1.006,0.671
	c0.448,0.111,0.896,0.224,1.342,0.224c0.448,0,0.896,0,1.231-0.113c0.336-0.111,0.671-0.223,0.896-0.335
	c0.224-0.111,0.446-0.223,0.671-0.335c0.224-0.112,0.335-0.223,0.446-0.223c0.224,0,0.337,0.111,0.448,0.223l0.671,0.895
	c-0.336,0.335-0.56,0.671-1.007,0.895c-0.335,0.223-0.783,0.447-1.118,0.559c-0.447,0.113-0.782,0.224-1.23,0.335
	c-0.448,0.113-0.895,0.113-1.23,0.113c-0.782,0-1.565-0.113-2.236-0.448c-0.671-0.223-1.23-0.671-1.79-1.23
	c-0.448-0.559-0.895-1.119-1.119-1.901c-0.224-0.783-0.446-1.678-0.446-2.685c0-0.783,0.111-1.566,0.334-2.237
	c0.226-0.671,0.56-1.23,1.119-1.79c0.448-0.559,1.006-0.894,1.678-1.229c0.671-0.335,1.455-0.448,2.237-0.448
	c0.672,0,1.343,0.113,1.902,0.335c0.558,0.224,1.117,0.56,1.565,1.007c0.446,0.448,0.782,1.007,1.006,1.678
	c0.225,0.671,0.336,1.342,0.336,2.125c0,0.335,0,0.671-0.111,0.784c-0.113,0.111-0.225,0.223-0.448,0.223H302.538z"/>
<path opacity="0.54" fill="#2B4F6E" enable-background="new    " d="M349.516,247.54h-5.034v13.981h-2.571V247.54h-5.034v-2.237
	h12.64V247.54z M353.542,251.343c0.446-0.447,1.006-0.783,1.565-1.118s1.23-0.448,2.014-0.448c0.671,0,1.23,0.113,1.677,0.335
	c0.448,0.224,0.896,0.56,1.23,0.896c0.336,0.335,0.56,0.895,0.782,1.342c0.113,0.559,0.226,1.119,0.226,1.79v7.271h-2.573v-7.271
	c0-0.783-0.223-1.342-0.56-1.79c-0.335-0.447-0.895-0.671-1.565-0.671c-0.56,0-1.008,0.111-1.454,0.335
	c-0.447,0.224-0.896,0.559-1.342,1.007v8.276h-2.461v-16.441h2.461V251.343z"/>
<path opacity="0.54" fill="#2B4F6E" enable-background="new    " d="M397.946,247.428v5.145h6.263v2.125h-6.263v6.711h-2.573
	v-16.107h10.067v2.125H397.946z M408.907,252.126c0.337-0.671,0.782-1.342,1.342-1.678c0.56-0.447,1.119-0.671,1.791-0.671
	c0.223,0,0.447,0,0.671,0.113c0.223,0,0.448,0.111,0.56,0.223l-0.111,1.791c0,0.111-0.113,0.223-0.113,0.223
	c-0.112,0-0.112,0.112-0.224,0.112s-0.223,0-0.448-0.112c-0.223,0-0.446-0.112-0.671-0.112c-0.335,0-0.671,0-0.895,0.112
	c-0.223,0.112-0.447,0.224-0.671,0.447c-0.223,0.224-0.335,0.448-0.56,0.671c-0.111,0.224-0.334,0.56-0.446,0.895v7.158h-2.461
	v-11.296h1.454c0.223,0,0.447,0,0.56,0.111c0.111,0.113,0.111,0.224,0.223,0.448V252.126z"/>
<path opacity="0.54" fill="#2B4F6E" enable-background="new    " d="M457.002,248.099c-0.112,0.113-0.112,0.224-0.224,0.335
	c-0.111,0.113-0.223,0.113-0.336,0.113c-0.112,0-0.335-0.113-0.446-0.224c-0.226-0.111-0.337-0.224-0.672-0.447
	c-0.225-0.112-0.56-0.335-0.896-0.448c-0.335-0.112-0.783-0.223-1.229-0.223c-0.448,0-0.896,0.111-1.231,0.223
	c-0.336,0.112-0.671,0.224-0.896,0.448c-0.224,0.223-0.446,0.447-0.558,0.671c-0.113,0.223-0.113,0.559-0.113,0.894
	c0,0.448,0.113,0.784,0.336,1.007c0.224,0.224,0.448,0.448,0.895,0.671c0.336,0.224,0.782,0.335,1.23,0.56
	c0.448,0.111,0.895,0.335,1.342,0.447c0.448,0.112,0.895,0.335,1.454,0.56c0.448,0.223,0.896,0.447,1.23,0.783
	c0.337,0.335,0.672,0.671,0.895,1.23c0.225,0.447,0.337,1.007,0.337,1.678c0,0.671-0.112,1.342-0.337,2.013
	c-0.223,0.671-0.558,1.23-1.117,1.678c-0.448,0.447-1.008,0.783-1.679,1.119c-0.671,0.224-1.454,0.447-2.348,0.447
	c-0.56,0-1.008,0-1.567-0.111c-0.446-0.111-1.006-0.224-1.454-0.447c-0.446-0.224-0.895-0.448-1.229-0.671
	c-0.337-0.224-0.784-0.56-1.008-0.895l0.782-1.231c0.112-0.111,0.112-0.223,0.226-0.223c0.111-0.112,0.223-0.112,0.334-0.112
	c0.224,0,0.337,0.112,0.56,0.224c0.224,0.111,0.448,0.335,0.783,0.56c0.335,0.223,0.671,0.335,1.119,0.559
	c0.446,0.112,0.895,0.224,1.454,0.224c0.894,0,1.677-0.224,2.236-0.671s0.782-1.118,0.782-1.902c0-0.447-0.111-0.783-0.335-1.118
	c-0.225-0.335-0.56-0.56-0.896-0.783c-0.335-0.224-0.783-0.335-1.229-0.448c-0.448-0.112-0.896-0.223-1.343-0.447
	c-0.448-0.111-0.896-0.335-1.342-0.56c-0.448-0.223-0.896-0.447-1.231-0.783c-0.336-0.335-0.671-0.783-0.894-1.229
	c-0.226-0.448-0.337-1.119-0.337-1.791c0-0.559,0.111-1.118,0.337-1.678c0.223-0.559,0.558-1.006,1.006-1.454
	c0.447-0.447,1.006-0.783,1.677-1.007c0.671-0.224,1.342-0.335,2.238-0.335c0.894,0,1.788,0.112,2.572,0.447
	c0.783,0.335,1.454,0.671,2.014,1.23L457.002,248.099z M466.286,256.488c-0.894,0-1.565,0.111-2.124,0.224
	c-0.56,0.112-1.119,0.223-1.454,0.447c-0.337,0.111-0.671,0.335-0.784,0.56c-0.112,0.223-0.224,0.447-0.224,0.783
	c0,0.224,0,0.447,0.111,0.671c0.112,0.224,0.226,0.335,0.337,0.447c0.111,0.113,0.335,0.224,0.56,0.224
	c0.223,0,0.446,0.111,0.671,0.111c0.671,0,1.117-0.111,1.565-0.335c0.448-0.223,0.895-0.559,1.342-1.006V256.488z M459.912,251.567
	c1.342-1.231,2.796-1.791,4.584-1.791c0.671,0,1.23,0.113,1.79,0.335c0.56,0.224,0.895,0.56,1.343,0.896
	c0.335,0.335,0.671,0.895,0.782,1.342c0.224,0.559,0.337,1.119,0.337,1.79v7.271h-1.119c-0.224,0-0.448,0-0.56-0.113
	c-0.111-0.111-0.224-0.223-0.335-0.447l-0.225-0.896c-0.335,0.224-0.56,0.448-0.895,0.671c-0.336,0.224-0.56,0.335-0.895,0.56
	c-0.336,0.111-0.671,0.224-1.007,0.335c-0.335,0.111-0.671,0.111-1.117,0.111c-0.448,0-0.896-0.111-1.343-0.223
	c-0.448-0.113-0.784-0.336-1.008-0.56c-0.334-0.224-0.56-0.56-0.671-1.007c-0.111-0.335-0.223-0.783-0.223-1.342
	c0-0.447,0.111-0.895,0.334-1.342c0.226-0.447,0.672-0.783,1.119-1.118c0.56-0.335,1.231-0.56,2.125-0.784
	c0.895-0.223,2.014-0.335,3.244-0.335v-0.783c0-0.783-0.225-1.454-0.56-1.79c-0.336-0.447-0.895-0.56-1.565-0.56
	c-0.447,0-0.896,0.113-1.119,0.224c-0.336,0.112-0.56,0.223-0.782,0.335c-0.225,0.112-0.448,0.224-0.671,0.336
	c-0.226,0.111-0.337,0.223-0.56,0.223c-0.112,0-0.335,0-0.448-0.112c-0.111-0.111-0.224-0.224-0.335-0.335L459.912,251.567z"/>
<path fill="#6EC9F7" d="M403.875,326.393H127.718c-9.619,0-17.448-7.829-17.448-17.448c0-9.62,7.83-17.449,17.448-17.449h276.156
	c9.618,0,17.448,7.83,17.448,17.449C421.323,318.564,413.493,326.393,403.875,326.393z"/>
<path fill="#FFFFFF" d="M403.875,322.815c7.605,0,13.868-6.264,13.868-13.869c0-7.606-6.263-13.87-13.868-13.87
	s-13.87,6.263-13.87,13.87C390.004,316.551,396.269,322.815,403.875,322.815z"/>
<rect x="202.993" y="329.861" fill="none" width="238.91" height="73.598"/>
<path fill="#F17776" d="M404.88,380.865H239.456c-9.619,0-17.449-7.83-17.449-17.449c0-9.619,7.83-17.448,17.449-17.448H404.88
	c9.62,0,17.448,7.829,17.448,17.448C422.329,373.147,414.5,380.865,404.88,380.865z"/>
<path fill="#FFFFFF" d="M403.875,377.397c7.605,0,13.868-6.264,13.868-13.87c0-7.606-6.263-13.869-13.868-13.869
	s-13.87,6.263-13.87,13.869C390.004,371.133,396.269,377.397,403.875,377.397z"/>
<path fill="#FFFFFF" d="M240.462,377.397c7.606,0,13.869-6.264,13.869-13.87c0-7.606-6.263-13.869-13.869-13.869
	c-7.605,0-13.869,6.263-13.869,13.869C226.593,371.133,232.857,377.397,240.462,377.397z"/>
<rect x="94.052" y="442.046" fill="none" width="238.91" height="73.598"/>
<path fill="#6EC9F7" d="M295.94,489.918H130.515c-9.619,0-17.449-7.83-17.449-17.448c0-9.619,7.83-17.449,17.449-17.449H295.94
	c9.619,0,17.447,7.83,17.447,17.449C313.276,482.088,305.447,489.918,295.94,489.918z"/>
<path fill="#FFFFFF" d="M294.933,486.338c7.605,0,13.871-6.264,13.871-13.868c0-7.605-6.266-13.871-13.871-13.871
	c-7.605,0-13.869,6.266-13.869,13.871C281.064,480.074,287.327,486.338,294.933,486.338z"/>
<path fill="#2B4F6E" d="M135.548,312.748v1.454h-7.159v-1.454h2.685v-8.165c0-0.335,0-0.56,0-0.895l-2.125,1.79
	c-0.112,0.111-0.224,0.111-0.335,0.111s-0.224,0-0.224,0c-0.111,0-0.111,0-0.224-0.111c-0.112,0-0.112-0.112-0.112-0.112
	l-0.559-0.895l3.915-3.355h1.566v11.632H135.548z"/>
<path fill="#2B4F6E" d="M189.571,312.412c0.224,0,0.335,0.112,0.448,0.224c0.112,0.111,0.224,0.223,0.224,0.447v1.23h-8.836v-0.671
	c0-0.112,0-0.224,0.112-0.448c0-0.111,0.111-0.223,0.224-0.447l4.026-4.026c0.335-0.335,0.671-0.671,0.895-1.007
	c0.224-0.335,0.448-0.671,0.671-0.895c0.224-0.335,0.335-0.671,0.448-1.006c0.111-0.335,0.111-0.671,0.111-1.006
	c0-0.336,0-0.671-0.111-0.896c-0.112-0.224-0.224-0.447-0.448-0.671s-0.447-0.335-0.671-0.335c-0.223-0.112-0.559-0.112-0.895-0.112
	s-0.559,0-0.783,0.112c-0.223,0.111-0.447,0.224-0.671,0.335c-0.224,0.111-0.335,0.335-0.447,0.56
	c-0.112,0.223-0.224,0.447-0.335,0.671c-0.112,0.223-0.224,0.447-0.335,0.447c-0.112,0.111-0.335,0.111-0.671,0l-1.006-0.224
	c0.111-0.671,0.224-1.118,0.559-1.678c0.224-0.447,0.559-0.894,1.006-1.118c0.336-0.335,0.783-0.56,1.342-0.671
	c0.448-0.111,1.007-0.224,1.566-0.224s1.119,0.112,1.566,0.224c0.447,0.224,0.895,0.447,1.23,0.783
	c0.335,0.335,0.671,0.671,0.783,1.119c0.224,0.447,0.335,1.006,0.335,1.565c0,0.448-0.111,0.895-0.224,1.342
	c-0.112,0.447-0.335,0.783-0.559,1.23c-0.224,0.336-0.56,0.783-0.895,1.119s-0.671,0.671-1.006,1.118l-3.132,3.244
	c0.224-0.111,0.559-0.111,0.783-0.224c0.224,0,0.559-0.112,0.783-0.112H189.571L189.571,312.412z"/>
<path fill="#2B4F6E" d="M236.212,304.807c0.112-0.671,0.224-1.119,0.56-1.678c0.224-0.448,0.559-0.896,1.007-1.119
	c0.335-0.336,0.783-0.559,1.342-0.671c0.447-0.112,1.006-0.223,1.566-0.223c0.559,0,1.118,0.111,1.566,0.223
	c0.448,0.112,0.895,0.448,1.23,0.671c0.336,0.335,0.56,0.671,0.783,1.006c0.224,0.448,0.335,0.895,0.335,1.342
	c0,0.448,0,0.784-0.112,1.119c-0.111,0.335-0.224,0.559-0.447,0.783c-0.224,0.223-0.447,0.447-0.671,0.559
	c-0.224,0.112-0.56,0.335-0.895,0.448c0.783,0.224,1.454,0.559,1.79,1.119c0.448,0.56,0.559,1.118,0.559,1.902
	c0,0.671-0.111,1.229-0.335,1.678c-0.224,0.447-0.559,0.894-1.007,1.229c-0.447,0.336-0.895,0.56-1.454,0.784
	c-0.56,0.223-1.119,0.223-1.678,0.223c-0.671,0-1.23-0.111-1.79-0.223c-0.447-0.112-0.895-0.448-1.23-0.671
	c-0.335-0.335-0.671-0.671-0.895-1.119c-0.224-0.447-0.448-0.894-0.56-1.454l0.895-0.335c0.224-0.111,0.447-0.111,0.671-0.111
	s0.336,0.111,0.447,0.335c0.112,0.223,0.224,0.447,0.335,0.671c0.112,0.223,0.224,0.447,0.448,0.559
	c0.224,0.224,0.447,0.335,0.671,0.448c0.336,0.111,0.671,0.223,1.007,0.223c0.447,0,0.783-0.112,1.118-0.223
	c0.335-0.113,0.56-0.335,0.783-0.56s0.335-0.447,0.448-0.671c0.111-0.224,0.111-0.56,0.111-0.782c0-0.336,0-0.671-0.111-0.896
	c-0.112-0.224-0.224-0.56-0.448-0.671c-0.224-0.224-0.559-0.335-1.007-0.447c-0.447-0.112-1.006-0.224-1.678-0.224v-1.454
	c0.559,0,1.007-0.112,1.342-0.112c0.335-0.112,0.671-0.223,0.895-0.447c0.224-0.223,0.448-0.447,0.448-0.671
	c0.112-0.223,0.112-0.559,0.112-0.895c0-0.335,0-0.671-0.112-0.895s-0.224-0.447-0.448-0.671c-0.224-0.224-0.447-0.335-0.671-0.335
	c-0.224-0.112-0.559-0.112-0.895-0.112c-0.336,0-0.559,0-0.783,0.112c-0.224,0.111-0.447,0.224-0.671,0.335
	c-0.223,0.111-0.335,0.335-0.447,0.56c-0.112,0.223-0.224,0.447-0.336,0.671c-0.112,0.223-0.223,0.447-0.335,0.447
	c-0.112,0.111-0.335,0.111-0.671,0L236.212,304.807z"/>
<path fill="#2B4F6E" d="M296.163,309.392v-4.698c0-0.335,0-0.783,0.112-1.229l-4.361,6.039h4.25V309.392z M299.742,309.392v1.118
	c0,0.113,0,0.224-0.111,0.336c-0.111,0.112-0.223,0.112-0.335,0.112h-1.342v3.355h-1.679v-3.355h-5.704
	c-0.112,0-0.224,0-0.336-0.112c-0.112-0.112-0.112-0.223-0.223-0.336l-0.224-1.006l6.264-8.388h1.79v8.276H299.742z"/>
<path fill="#2B4F6E" d="M347.614,306.037c0.335-0.111,0.56-0.111,0.895-0.111c0.337,0,0.56,0,0.782,0
	c0.672,0,1.231,0.111,1.791,0.335c0.56,0.223,1.006,0.447,1.342,0.783c0.335,0.335,0.671,0.783,0.783,1.23
	c0.225,0.447,0.225,1.007,0.225,1.565c0,0.671-0.113,1.342-0.337,1.902c-0.223,0.56-0.56,1.006-1.006,1.454
	c-0.447,0.448-0.896,0.671-1.566,0.896c-0.56,0.224-1.231,0.335-1.902,0.335c-0.446,0-0.782,0-1.117-0.112
	c-0.336-0.112-0.671-0.224-1.008-0.335c-0.334-0.112-0.56-0.335-0.894-0.448c-0.224-0.224-0.56-0.336-0.672-0.559l0.56-0.784
	c0.112-0.223,0.335-0.223,0.56-0.223c0.112,0,0.224,0,0.446,0.111c0.112,0.111,0.337,0.224,0.56,0.335
	c0.224,0.112,0.448,0.224,0.783,0.335c0.336,0.112,0.671,0.112,1.008,0.112c0.445,0,0.782-0.112,1.117-0.223
	c0.336-0.112,0.671-0.335,0.896-0.56c0.224-0.224,0.446-0.56,0.56-0.895c0.111-0.335,0.224-0.783,0.224-1.118
	s-0.112-0.671-0.224-1.007c-0.113-0.335-0.225-0.56-0.448-0.783c-0.223-0.224-0.447-0.335-0.782-0.448
	c-0.337-0.112-0.671-0.223-1.119-0.223c-0.335,0-0.671,0-1.006,0.111c-0.336,0-0.671,0.112-1.008,0.224l-1.23-0.335l1.119-6.264
	h6.375v0.895c0,0.224-0.111,0.56-0.224,0.671c-0.223,0.224-0.447,0.224-0.894,0.224h-3.804L347.614,306.037z"/>
<path fill="#2B4F6E" d="M403.875,312.748c0.447,0,0.782-0.111,1.119-0.224c0.334-0.112,0.558-0.336,0.782-0.559
	c0.224-0.224,0.446-0.448,0.56-0.784c0.111-0.335,0.224-0.671,0.224-1.007c0-0.447-0.112-0.783-0.224-1.118
	c-0.113-0.335-0.336-0.56-0.56-0.783c-0.225-0.224-0.448-0.335-0.782-0.448c-0.337-0.112-0.672-0.223-1.008-0.223
	c-0.448,0-0.782,0.111-1.119,0.223c-0.335,0.112-0.558,0.335-0.782,0.56c-0.224,0.224-0.446,0.447-0.56,0.783
	c-0.112,0.335-0.224,0.671-0.224,1.006s0,0.784,0.111,1.007c0.112,0.335,0.226,0.56,0.448,0.784
	c0.224,0.223,0.448,0.447,0.783,0.559C403.091,312.748,403.538,312.748,403.875,312.748z M403.204,306.037
	c-0.112,0.112-0.224,0.224-0.337,0.335c-0.111,0.112-0.223,0.224-0.223,0.335c0.223-0.111,0.56-0.335,0.894-0.335
	c0.337-0.111,0.671-0.111,1.119-0.111c0.56,0,1.008,0.111,1.454,0.223c0.448,0.112,0.895,0.448,1.23,0.783
	c0.335,0.336,0.671,0.783,0.895,1.23c0.225,0.448,0.336,1.007,0.336,1.678c0,0.56-0.111,1.119-0.336,1.678
	c-0.224,0.56-0.56,1.007-0.895,1.342c-0.448,0.336-0.895,0.671-1.454,0.896c-0.56,0.224-1.119,0.335-1.901,0.335
	s-1.342-0.112-1.79-0.335c-0.558-0.224-1.006-0.56-1.343-0.896c-0.334-0.447-0.671-0.894-0.894-1.454
	c-0.224-0.56-0.335-1.231-0.335-1.902c0-0.559,0.111-1.229,0.335-1.901c0.223-0.671,0.671-1.342,1.23-2.013l3.244-4.362
	c0.111-0.112,0.223-0.224,0.446-0.336c0.225-0.111,0.447-0.111,0.671-0.111h1.679L403.204,306.037z"/>
<path fill="#2B4F6E" d="M463.042,301.227v0.896c0,0.223,0,0.447-0.112,0.671c0,0.112-0.111,0.336-0.111,0.447l-5.146,10.514
	c-0.111,0.224-0.224,0.336-0.335,0.447c-0.111,0.112-0.336,0.224-0.671,0.224h-1.454l5.256-10.29
	c0.113-0.224,0.225-0.335,0.336-0.56c0.112-0.111,0.224-0.335,0.335-0.447h-6.486c-0.111,0-0.225,0-0.336-0.113
	c-0.112-0.111-0.112-0.223-0.112-0.335v-1.342h8.837V301.227z"/>
<path fill="#2B4F6E" d="M131.409,367.33c0.448,0,0.783,0,1.007-0.111c0.335-0.112,0.559-0.224,0.783-0.448
	c0.224-0.223,0.335-0.447,0.447-0.671c0.112-0.223,0.112-0.559,0.112-0.894c0-0.448-0.112-0.784-0.224-1.007
	c-0.112-0.335-0.335-0.56-0.56-0.671c-0.224-0.224-0.447-0.335-0.783-0.448c-0.335-0.112-0.671-0.112-1.007-0.112
	c-0.335,0-0.671,0-1.006,0.112c-0.335,0.112-0.559,0.224-0.783,0.448c-0.224,0.223-0.335,0.447-0.559,0.671
	c-0.112,0.335-0.224,0.671-0.224,1.007c0,0.335,0,0.671,0.112,0.894c0.112,0.224,0.224,0.56,0.447,0.671
	c0.224,0.224,0.448,0.336,0.783,0.448C130.738,367.33,131.074,367.33,131.409,367.33z M131.409,357.041
	c-0.335,0-0.671,0-0.895,0.111c-0.224,0.112-0.448,0.224-0.671,0.447c-0.224,0.224-0.336,0.448-0.448,0.671
	c-0.112,0.224-0.112,0.448-0.112,0.784c0,0.223,0,0.559,0.112,0.783s0.224,0.447,0.335,0.671c0.224,0.223,0.335,0.336,0.671,0.447
	c0.224,0.112,0.56,0.224,1.006,0.224c0.448,0,0.671-0.112,1.007-0.224c0.224-0.111,0.448-0.335,0.671-0.447
	c0.224-0.224,0.336-0.448,0.336-0.671c0.112-0.224,0.112-0.56,0.112-0.783c0-0.224,0-0.56-0.112-0.784
	c-0.112-0.223-0.224-0.447-0.448-0.671c-0.224-0.223-0.447-0.335-0.671-0.447C132.081,357.152,131.857,357.041,131.409,357.041z
	 M133.535,361.962c0.783,0.224,1.454,0.671,1.79,1.23c0.447,0.559,0.559,1.23,0.559,2.014c0,0.559-0.112,1.118-0.335,1.565
	c-0.224,0.448-0.56,0.896-0.895,1.231c-0.447,0.335-0.895,0.56-1.454,0.783c-0.56,0.224-1.119,0.224-1.79,0.224
	c-0.671,0-1.23-0.111-1.789-0.224c-0.56-0.223-1.007-0.447-1.455-0.783c-0.447-0.335-0.671-0.671-0.895-1.231
	c-0.224-0.559-0.335-1.118-0.335-1.678c0-0.783,0.224-1.454,0.559-2.013c0.448-0.559,1.007-0.894,1.79-1.23
	c-0.671-0.224-1.119-0.671-1.454-1.119c-0.335-0.447-0.447-1.118-0.447-1.789c0-0.447,0.112-0.895,0.335-1.342
	c0.224-0.447,0.447-0.783,0.783-1.118c0.335-0.335,0.783-0.56,1.23-0.783c0.448-0.224,1.007-0.224,1.678-0.224
	c0.559,0,1.119,0.112,1.678,0.224c0.448,0.223,0.895,0.447,1.23,0.783s0.671,0.671,0.783,1.118c0.224,0.448,0.335,0.895,0.335,1.342
	c0,0.671-0.112,1.342-0.448,1.789C134.653,361.29,134.206,361.738,133.535,361.962z"/>
<path fill="#2B4F6E" d="M183.531,359.613c0,0.783,0.224,1.342,0.671,1.79c0.447,0.448,1.007,0.671,1.79,0.671
	c0.448,0,0.783-0.111,1.007-0.223c0.335-0.112,0.559-0.335,0.783-0.56c0.223-0.224,0.335-0.447,0.447-0.783
	c0.112-0.335,0.112-0.56,0.112-0.895s-0.112-0.671-0.224-1.006c-0.112-0.336-0.335-0.559-0.448-0.783
	c-0.224-0.224-0.447-0.336-0.783-0.447c-0.335-0.112-0.671-0.224-1.006-0.224c-0.336,0-0.671,0.112-1.007,0.224
	c-0.335,0.111-0.56,0.335-0.783,0.559c-0.224,0.224-0.335,0.448-0.447,0.784C183.531,358.942,183.531,359.277,183.531,359.613z
	 M186.775,363.639c0.111-0.112,0.224-0.335,0.335-0.447c0.112-0.112,0.224-0.224,0.335-0.448c-0.335,0.224-0.671,0.448-1.006,0.56
	c-0.336,0.111-0.783,0.224-1.23,0.224s-0.895-0.112-1.342-0.224c-0.447-0.112-0.783-0.447-1.119-0.671
	c-0.335-0.335-0.559-0.671-0.783-1.23c-0.223-0.447-0.335-1.007-0.335-1.677c0-0.56,0.112-1.119,0.335-1.678
	c0.224-0.56,0.56-0.895,0.896-1.342c0.335-0.336,0.895-0.671,1.342-0.896c0.56-0.224,1.119-0.335,1.79-0.335s1.23,0.112,1.79,0.335
	c0.559,0.224,1.006,0.447,1.342,0.896c0.336,0.335,0.671,0.782,0.895,1.342c0.224,0.559,0.335,1.119,0.335,1.678
	c0,0.447,0,0.782-0.112,1.118c-0.112,0.335-0.112,0.671-0.336,1.006c-0.111,0.336-0.335,0.671-0.447,1.007
	c-0.224,0.335-0.336,0.671-0.671,1.007l-3.02,4.362c-0.112,0.112-0.224,0.223-0.447,0.336c-0.224,0.111-0.336,0.111-0.559,0.111
	h-1.901L186.775,363.639z"/>
<path fill="#2B4F6E" d="M239.232,367.33v1.454h-7.158v-1.454h2.685v-8.165c0-0.336,0-0.56,0-0.896l-2.125,1.791
	c-0.112,0.111-0.224,0.111-0.335,0.111s-0.224,0-0.224,0c-0.112,0-0.112,0-0.224-0.111c-0.112,0-0.112-0.113-0.112-0.113
	l-0.559-0.894l3.915-3.355h1.566v11.632H239.232z M250.417,362.186c0,1.118-0.112,2.125-0.336,3.02
	c-0.223,0.782-0.559,1.565-1.006,2.125s-0.895,1.007-1.566,1.231c-0.671,0.223-1.23,0.447-1.901,0.447
	c-0.671,0-1.342-0.111-1.901-0.447c-0.56-0.224-1.119-0.671-1.566-1.231s-0.783-1.23-1.006-2.125
	c-0.224-0.784-0.335-1.791-0.335-3.02c0-1.119,0.111-2.125,0.335-3.02c0.224-0.896,0.559-1.566,1.006-2.125
	c0.447-0.56,0.895-1.007,1.566-1.231c0.559-0.224,1.23-0.447,1.901-0.447c0.671,0,1.342,0.111,1.901,0.447
	c0.559,0.224,1.119,0.671,1.566,1.231c0.447,0.559,0.783,1.229,1.006,2.125C250.305,360.061,250.417,361.067,250.417,362.186z
	 M248.403,362.186c0-1.007-0.111-1.791-0.223-2.46c-0.112-0.671-0.336-1.119-0.56-1.566s-0.56-0.671-0.895-0.783
	c-0.335-0.112-0.67-0.224-1.006-0.224c-0.335,0-0.671,0.112-1.006,0.224c-0.335,0.111-0.671,0.447-0.895,0.783
	s-0.447,0.895-0.559,1.566c-0.112,0.67-0.224,1.454-0.224,2.46c0,1.006,0.111,1.789,0.224,2.46c0.112,0.671,0.335,1.118,0.559,1.566
	c0.224,0.335,0.56,0.671,0.895,0.783c0.335,0.112,0.671,0.224,1.006,0.224c0.336,0,0.671-0.112,1.006-0.224
	c0.335-0.111,0.671-0.447,0.895-0.783s0.447-0.895,0.56-1.566C248.403,363.975,248.403,363.192,248.403,362.186z"/>
<path fill="#FFFFFF" d="M293.703,367.33v1.454h-7.158v-1.454h2.685v-8.165c0-0.336,0-0.56,0-0.896l-2.125,1.791
	c-0.112,0.111-0.225,0.111-0.336,0.111c-0.111,0-0.223,0-0.223,0c-0.111,0-0.111,0-0.224-0.111c-0.112,0-0.112-0.113-0.112-0.113
	l-0.559-0.894l3.914-3.355h1.566v11.632H293.703z M304.216,367.33v1.454h-7.159v-1.454h2.684v-8.165c0-0.336,0-0.56,0-0.896
	l-2.125,1.791c-0.112,0.111-0.223,0.111-0.335,0.111c-0.112,0-0.225,0-0.225,0c-0.112,0-0.112,0-0.223-0.111
	c-0.112,0-0.112-0.113-0.112-0.113l-0.56-0.894l3.916-3.355h1.565v11.632H304.216z"/>
<path fill="#FFFFFF" d="M348.173,367.33v1.454h-7.159v-1.454h2.685v-8.165c0-0.336,0-0.56,0-0.896l-2.125,1.791
	c-0.111,0.111-0.223,0.111-0.334,0.111c-0.113,0-0.226,0-0.226,0c-0.111,0-0.111,0-0.223-0.111c-0.111,0-0.111-0.113-0.111-0.113
	l-0.56-0.894l3.915-3.355h1.565v11.632H348.173z M358.352,366.884c0.223,0,0.335,0.111,0.446,0.223
	c0.113,0.112,0.225,0.224,0.225,0.448v1.23h-8.836v-0.671c0-0.111,0-0.223,0.111-0.447c0-0.112,0.111-0.224,0.224-0.447l4.026-4.027
	c0.336-0.335,0.671-0.671,0.895-1.006c0.225-0.336,0.447-0.671,0.671-0.896c0.225-0.335,0.336-0.671,0.448-1.006
	c0.111-0.336,0.111-0.671,0.111-1.007s0-0.671-0.111-0.894c-0.112-0.224-0.224-0.448-0.448-0.671
	c-0.224-0.224-0.446-0.335-0.671-0.335c-0.224-0.112-0.559-0.112-0.895-0.112c-0.335,0-0.56,0-0.782,0.112
	c-0.224,0.111-0.448,0.223-0.672,0.335c-0.223,0.112-0.334,0.335-0.447,0.559c-0.112,0.224-0.224,0.448-0.335,0.671
	c-0.111,0.224-0.224,0.448-0.337,0.448c-0.111,0.112-0.334,0.112-0.671,0l-1.006-0.224c0.111-0.671,0.224-1.119,0.56-1.678
	c0.224-0.447,0.56-0.895,1.006-1.118c0.337-0.335,0.783-0.56,1.343-0.671c0.447-0.112,1.007-0.224,1.564-0.224
	c0.56,0,1.119,0.112,1.567,0.224c0.446,0.223,0.895,0.447,1.23,0.783c0.335,0.335,0.672,0.671,0.783,1.118
	c0.223,0.448,0.335,1.007,0.335,1.566c0,0.447-0.112,0.895-0.224,1.342c-0.111,0.447-0.336,0.783-0.56,1.23
	c-0.223,0.335-0.56,0.784-0.895,1.119c-0.336,0.335-0.671,0.671-1.007,1.118l-3.131,3.244c0.223-0.112,0.56-0.112,0.782-0.224
	c0.224,0,0.56-0.111,0.783-0.111H358.352z"/>
<path fill="#2B4F6E" d="M402.755,367.33v1.454h-7.157v-1.454h2.685v-8.165c0-0.336,0-0.56,0-0.896l-2.127,1.791
	c-0.111,0.111-0.224,0.111-0.335,0.111s-0.223,0-0.223,0c-0.112,0-0.112,0-0.226-0.111c-0.111,0-0.111-0.113-0.111-0.113
	l-0.56-0.894l3.915-3.355h1.565v11.632H402.755z M404.994,359.277c0.111-0.671,0.223-1.118,0.558-1.678
	c0.225-0.447,0.56-0.894,1.008-1.118c0.334-0.335,0.782-0.56,1.342-0.671c0.446-0.111,1.006-0.224,1.565-0.224
	s1.119,0.112,1.565,0.224c0.448,0.112,0.896,0.447,1.23,0.671c0.337,0.335,0.56,0.671,0.783,1.006
	c0.225,0.447,0.336,0.896,0.336,1.342c0,0.447,0,0.783-0.111,1.118c-0.111,0.336-0.225,0.56-0.448,0.784
	c-0.223,0.223-0.448,0.447-0.671,0.559c-0.224,0.112-0.56,0.336-0.895,0.447c0.783,0.224,1.454,0.56,1.789,1.119
	c0.447,0.559,0.56,1.118,0.56,1.901c0,0.671-0.112,1.23-0.335,1.678c-0.225,0.448-0.56,0.895-1.008,1.231
	c-0.446,0.335-0.895,0.559-1.454,0.782c-0.56,0.224-1.119,0.224-1.677,0.224c-0.671,0-1.23-0.111-1.79-0.224
	c-0.448-0.111-0.895-0.447-1.23-0.671c-0.335-0.335-0.671-0.671-0.895-1.118c-0.223-0.447-0.448-0.895-0.56-1.454l0.895-0.336
	c0.225-0.112,0.448-0.112,0.671-0.112c0.225,0,0.337,0.112,0.448,0.335c0.111,0.224,0.223,0.448,0.336,0.671
	c0.112,0.224,0.224,0.448,0.446,0.56c0.226,0.224,0.448,0.335,0.672,0.447c0.336,0.113,0.671,0.224,1.007,0.224
	c0.446,0,0.783-0.111,1.117-0.224c0.337-0.111,0.56-0.335,0.783-0.559c0.225-0.224,0.336-0.448,0.448-0.671
	c0.111-0.224,0.111-0.56,0.111-0.784c0-0.335,0-0.671-0.111-0.894c-0.112-0.224-0.224-0.56-0.448-0.671
	c-0.224-0.224-0.558-0.335-1.006-0.448c-0.448-0.112-1.008-0.223-1.679-0.223v-1.455c0.56,0,1.008-0.112,1.342-0.112
	c0.337-0.111,0.672-0.224,0.896-0.447c0.223-0.224,0.446-0.448,0.446-0.671c0.113-0.224,0.113-0.56,0.113-0.895s0-0.671-0.113-0.895
	c-0.111-0.224-0.224-0.448-0.446-0.671c-0.225-0.224-0.448-0.335-0.671-0.335c-0.226-0.112-0.56-0.112-0.896-0.112
	c-0.334,0-0.558,0-0.782,0.112c-0.224,0.111-0.446,0.223-0.671,0.335c-0.224,0.111-0.335,0.335-0.446,0.559
	c-0.112,0.224-0.226,0.448-0.337,0.671c-0.111,0.224-0.223,0.448-0.335,0.448c-0.111,0.112-0.336,0.112-0.671,0L404.994,359.277z"/>
<path fill="#2B4F6E" d="M457.227,367.33v1.454h-7.159v-1.454h2.685v-8.165c0-0.336,0-0.56,0-0.896l-2.125,1.791
	c-0.111,0.111-0.225,0.111-0.337,0.111c-0.111,0-0.223,0-0.223,0c-0.111,0-0.111,0-0.224-0.111c-0.113,0-0.113-0.113-0.113-0.113
	l-0.558-0.894l3.913-3.355h1.567v11.632H457.227z M464.944,363.975v-4.809c0-0.336,0-0.783,0.111-1.231l-4.361,6.04H464.944z
	 M468.411,363.975v1.118c0,0.113,0,0.224-0.111,0.335c-0.111,0.113-0.223,0.113-0.336,0.113h-1.343v3.355h-1.677v-3.355h-5.704
	c-0.113,0-0.225,0-0.336-0.113c-0.111-0.111-0.111-0.223-0.223-0.335l-0.226-1.006l6.265-8.388h1.789v8.276H468.411z"/>
<path fill="#2B4F6E" d="M130.291,421.802v1.454h-7.159v-1.454h2.685v-8.165c0-0.336,0-0.56,0-0.895l-2.125,1.789
	c-0.112,0.112-0.224,0.112-0.335,0.112c-0.112,0-0.224,0-0.224,0c-0.111,0-0.111,0-0.224-0.112c-0.112,0-0.112-0.111-0.112-0.111
	l-0.559-0.896l3.915-3.356h1.566v11.633H130.291L130.291,421.802z M134.988,414.978c0.336-0.112,0.56-0.112,0.895-0.112
	c0.336,0,0.56,0,0.783,0c0.671,0,1.23,0.112,1.79,0.336c0.559,0.224,1.007,0.448,1.342,0.783c0.335,0.336,0.671,0.782,0.783,1.229
	c0.224,0.448,0.224,1.008,0.224,1.566c0,0.672-0.112,1.343-0.335,1.902c-0.224,0.559-0.56,1.006-1.006,1.453
	c-0.448,0.447-0.896,0.672-1.566,0.895c-0.559,0.225-1.23,0.336-1.901,0.336c-0.447,0-0.783,0-1.118-0.111
	c-0.335-0.112-0.671-0.225-1.007-0.336s-0.56-0.336-0.895-0.447c-0.224-0.225-0.559-0.336-0.671-0.56l0.56-0.782
	c0.111-0.225,0.335-0.225,0.559-0.225c0.112,0,0.223,0,0.447,0.113c0.112,0.111,0.335,0.223,0.559,0.335
	c0.224,0.111,0.448,0.224,0.783,0.335c0.335,0.112,0.671,0.112,1.007,0.112c0.447,0,0.783-0.112,1.118-0.224
	c0.335-0.112,0.671-0.336,0.895-0.559c0.224-0.225,0.448-0.561,0.56-0.896c0.112-0.336,0.224-0.782,0.224-1.118
	s-0.112-0.672-0.224-1.007c-0.112-0.336-0.224-0.56-0.447-0.784c-0.224-0.223-0.448-0.335-0.783-0.447
	c-0.336-0.111-0.671-0.223-1.118-0.223c-0.336,0-0.671,0-1.007,0.111c-0.335,0-0.671,0.111-1.007,0.224l-1.23-0.335l1.118-6.264
	h6.375v0.895c0,0.223-0.112,0.558-0.224,0.671c-0.224,0.223-0.447,0.223-0.895,0.223h-3.803L134.988,414.978z"/>
<path fill="#2B4F6E" d="M184.762,421.802v1.454h-7.159v-1.454h2.685v-8.165c0-0.336,0-0.56,0-0.895l-2.125,1.789
	c-0.112,0.112-0.224,0.112-0.336,0.112c-0.112,0-0.224,0-0.224,0c-0.112,0-0.112,0-0.224-0.112c-0.112,0-0.112-0.111-0.112-0.111
	l-0.56-0.896l3.915-3.356h1.566v11.633H184.762L184.762,421.802z M191.249,421.802c0.448,0,0.783-0.112,1.119-0.224
	c0.335-0.112,0.559-0.336,0.783-0.559c0.224-0.225,0.448-0.449,0.56-0.784s0.224-0.671,0.224-1.007c0-0.447-0.112-0.783-0.224-1.118
	s-0.335-0.56-0.56-0.782c-0.224-0.225-0.447-0.336-0.783-0.448s-0.671-0.224-1.006-0.224c-0.448,0-0.783,0.111-1.119,0.224
	c-0.336,0.112-0.56,0.335-0.783,0.56c-0.224,0.224-0.448,0.447-0.56,0.783c-0.112,0.335-0.224,0.67-0.224,1.006s0,0.783,0.112,1.007
	c0.112,0.335,0.224,0.56,0.447,0.784c0.224,0.223,0.447,0.446,0.783,0.559C190.466,421.689,190.801,421.802,191.249,421.802z
	 M190.466,414.978c-0.112,0.111-0.224,0.224-0.335,0.336c-0.112,0.111-0.224,0.223-0.224,0.336c0.224-0.113,0.56-0.336,0.895-0.336
	c0.336-0.112,0.671-0.112,1.119-0.112c0.559,0,1.006,0.112,1.454,0.224c0.447,0.111,0.895,0.447,1.23,0.783
	c0.336,0.336,0.671,0.783,0.895,1.23s0.335,1.006,0.335,1.678c0,0.56-0.112,1.118-0.335,1.678s-0.559,1.007-0.895,1.342
	c-0.447,0.336-0.895,0.672-1.454,0.895c-0.559,0.225-1.118,0.336-1.901,0.336c-0.671,0-1.342-0.111-1.789-0.336
	c-0.56-0.223-1.007-0.559-1.342-0.895c-0.335-0.447-0.671-0.895-0.895-1.453c-0.224-0.56-0.336-1.23-0.336-1.902
	c0-0.559,0.112-1.23,0.336-1.901s0.671-1.343,1.23-2.014l3.244-4.361c0.112-0.112,0.224-0.224,0.447-0.335
	c0.224-0.112,0.447-0.112,0.671-0.112h1.678L190.466,414.978z"/>
<path fill="#2B4F6E" d="M239.232,421.802v1.454h-7.158v-1.454h2.685v-8.165c0-0.336,0-0.56,0-0.895l-2.125,1.789
	c-0.112,0.112-0.224,0.112-0.335,0.112s-0.224,0-0.224,0c-0.112,0-0.112,0-0.224-0.112c-0.112,0-0.112-0.111-0.112-0.111
	l-0.559-0.896l3.915-3.356h1.566v11.633H239.232L239.232,421.802z M250.305,410.169v0.895c0,0.224,0,0.447-0.112,0.67
	c0,0.113-0.112,0.336-0.112,0.447l-5.145,10.516c-0.112,0.223-0.224,0.334-0.336,0.446c-0.112,0.112-0.335,0.224-0.671,0.224h-1.454
	l5.257-10.29c0.112-0.224,0.224-0.335,0.335-0.56c0.112-0.111,0.224-0.336,0.335-0.447h-6.487c-0.112,0-0.224,0-0.336-0.111
	c-0.112-0.112-0.112-0.225-0.112-0.336v-1.342h8.836V410.169z"/>
<path fill="#2B4F6E" d="M293.703,421.802v1.454h-7.158v-1.454h2.685v-8.165c0-0.336,0-0.56,0-0.895l-2.125,1.789
	c-0.112,0.112-0.225,0.112-0.336,0.112c-0.111,0-0.223,0-0.223,0c-0.111,0-0.111,0-0.224-0.112c-0.112,0-0.112-0.111-0.112-0.111
	l-0.559-0.896l3.914-3.356h1.566v11.633H293.703L293.703,421.802z M300.19,421.802c0.448,0,0.782,0,1.006-0.112
	c0.336-0.111,0.56-0.224,0.784-0.447c0.224-0.223,0.335-0.447,0.446-0.672c0.111-0.223,0.111-0.559,0.111-0.894
	c0-0.448-0.111-0.784-0.223-1.007c-0.111-0.336-0.335-0.56-0.56-0.671c-0.224-0.224-0.446-0.336-0.783-0.448
	c-0.334-0.111-0.671-0.111-1.006-0.111c-0.336,0-0.671,0-1.007,0.111c-0.335,0.112-0.56,0.225-0.783,0.448
	c-0.223,0.224-0.334,0.446-0.559,0.671c-0.112,0.336-0.223,0.672-0.223,1.007s0,0.671,0.111,0.894
	c0.112,0.225,0.223,0.561,0.448,0.672c0.223,0.224,0.446,0.336,0.782,0.447C299.408,421.802,299.853,421.802,300.19,421.802z
	 M300.19,411.51c-0.337,0-0.671,0-0.895,0.112c-0.225,0.111-0.447,0.225-0.671,0.447c-0.225,0.225-0.336,0.447-0.448,0.672
	c-0.111,0.223-0.111,0.446-0.111,0.782c0,0.224,0,0.56,0.111,0.783c0.112,0.224,0.224,0.447,0.335,0.671
	c0.225,0.224,0.337,0.336,0.671,0.447c0.226,0.111,0.56,0.225,1.008,0.225s0.671-0.113,1.006-0.225
	c0.225-0.111,0.448-0.336,0.671-0.447c0.225-0.224,0.337-0.447,0.337-0.671c0.111-0.224,0.111-0.56,0.111-0.783s0-0.56-0.111-0.782
	c-0.112-0.225-0.224-0.447-0.448-0.672c-0.224-0.223-0.446-0.336-0.671-0.447C300.861,411.623,300.525,411.51,300.19,411.51z
	 M302.204,416.432c0.782,0.224,1.453,0.671,1.79,1.23c0.446,0.56,0.558,1.229,0.558,2.014c0,0.559-0.111,1.118-0.335,1.565
	c-0.223,0.447-0.56,0.895-0.894,1.23c-0.448,0.336-0.896,0.559-1.456,0.783c-0.558,0.224-1.117,0.224-1.788,0.224
	s-1.23-0.112-1.79-0.224c-0.56-0.225-1.006-0.447-1.454-0.783c-0.448-0.336-0.671-0.671-0.895-1.23
	c-0.225-0.447-0.336-1.007-0.336-1.565c0-0.784,0.224-1.454,0.56-2.014c0.448-0.56,1.007-0.896,1.791-1.23
	c-0.671-0.224-1.119-0.671-1.455-1.118c-0.335-0.448-0.447-1.119-0.447-1.79c0-0.447,0.111-0.895,0.334-1.343
	c0.225-0.447,0.448-0.782,0.784-1.118c0.335-0.336,0.784-0.559,1.23-0.783c0.448-0.224,1.008-0.224,1.679-0.224
	c0.56,0,1.117,0.112,1.677,0.224c0.448,0.224,0.896,0.447,1.23,0.783c0.337,0.335,0.671,0.67,0.783,1.118
	c0.225,0.448,0.336,0.896,0.336,1.343c0,0.671-0.111,1.342-0.448,1.79C303.434,415.761,302.875,416.209,302.204,416.432z"/>
<path fill="#2B4F6E" d="M348.173,421.802v1.454h-7.159v-1.454h2.685v-8.165c0-0.336,0-0.56,0-0.895l-2.125,1.789
	c-0.111,0.112-0.223,0.112-0.334,0.112c-0.113,0-0.226,0-0.226,0c-0.111,0-0.111,0-0.223-0.112c-0.111,0-0.111-0.111-0.111-0.111
	l-0.56-0.896l3.915-3.356h1.565v11.633H348.173L348.173,421.802z M352.201,414.084c0,0.782,0.223,1.342,0.671,1.789
	c0.446,0.448,1.006,0.672,1.788,0.672c0.448,0,0.783-0.112,1.008-0.224c0.335-0.112,0.56-0.336,0.782-0.56
	c0.224-0.225,0.335-0.447,0.448-0.783c0.111-0.335,0.111-0.559,0.111-0.895s-0.111-0.672-0.225-1.007
	c-0.111-0.335-0.335-0.559-0.446-0.782c-0.225-0.225-0.448-0.336-0.782-0.447c-0.337-0.113-0.672-0.225-1.008-0.225
	c-0.335,0-0.671,0.111-1.006,0.225c-0.336,0.111-0.56,0.334-0.784,0.559c-0.224,0.224-0.335,0.447-0.446,0.783
	C352.312,413.412,352.201,413.748,352.201,414.084z M355.556,418.11c0.111-0.111,0.223-0.335,0.334-0.447
	c0.112-0.112,0.224-0.224,0.337-0.448c-0.337,0.225-0.671,0.448-1.008,0.561c-0.335,0.111-0.782,0.224-1.23,0.224
	c-0.446,0-0.895-0.112-1.342-0.224c-0.446-0.112-0.783-0.447-1.118-0.672c-0.336-0.336-0.56-0.671-0.784-1.23
	c-0.223-0.447-0.335-1.007-0.335-1.678c0-0.559,0.112-1.118,0.335-1.678c0.225-0.559,0.56-0.895,0.896-1.341
	c0.334-0.336,0.894-0.671,1.342-0.895c0.56-0.224,1.117-0.336,1.788-0.336c0.672,0,1.231,0.112,1.791,0.336
	c0.56,0.224,1.007,0.447,1.342,0.895c0.337,0.334,0.671,0.783,0.895,1.341c0.225,0.56,0.336,1.119,0.336,1.678
	c0,0.448,0,0.783-0.111,1.119s-0.111,0.671-0.336,1.007c-0.112,0.335-0.335,0.671-0.446,1.007c-0.226,0.335-0.337,0.671-0.672,1.006
	l-3.132,4.361c-0.111,0.113-0.224,0.225-0.448,0.336c-0.223,0.112-0.335,0.112-0.56,0.112h-1.788L355.556,418.11z"/>
<path fill="#2B4F6E" d="M402.309,421.466c0.223,0,0.335,0.112,0.446,0.224c0.111,0.112,0.225,0.224,0.225,0.447v1.23h-8.836v-0.672
	c0-0.111,0-0.223,0.111-0.447c0-0.111,0.111-0.223,0.224-0.446l4.026-4.026c0.335-0.336,0.671-0.672,0.895-1.008
	c0.225-0.335,0.447-0.67,0.671-0.895c0.225-0.336,0.336-0.671,0.448-1.007c0.111-0.335,0.111-0.671,0.111-1.007
	c0-0.335,0-0.671-0.111-0.895c-0.112-0.223-0.224-0.447-0.448-0.67c-0.224-0.225-0.446-0.336-0.671-0.336
	c-0.224-0.112-0.56-0.112-0.895-0.112s-0.56,0-0.782,0.112c-0.226,0.111-0.448,0.223-0.672,0.336
	c-0.225,0.111-0.336,0.335-0.447,0.559c-0.112,0.224-0.224,0.447-0.335,0.671s-0.225,0.448-0.337,0.448
	c-0.111,0.111-0.334,0.111-0.671,0l-1.006-0.225c0.111-0.671,0.224-1.118,0.56-1.678c0.224-0.447,0.558-0.894,1.006-1.118
	c0.337-0.335,0.783-0.56,1.343-0.671c0.447-0.113,1.007-0.224,1.564-0.224c0.56,0,1.119,0.112,1.567,0.224
	c0.446,0.224,0.895,0.447,1.229,0.783c0.336,0.335,0.671,0.67,0.784,1.118c0.223,0.448,0.335,1.007,0.335,1.566
	c0,0.447-0.112,0.896-0.224,1.342c-0.111,0.447-0.336,0.783-0.56,1.231c-0.223,0.335-0.56,0.782-0.895,1.118
	c-0.336,0.336-0.671,0.671-1.007,1.118l-3.131,3.244c0.223-0.112,0.558-0.112,0.782-0.224c0.224,0,0.56-0.112,0.783-0.112H402.309
	L402.309,421.466z M413.941,416.767c0,1.119-0.111,2.125-0.336,3.021c-0.224,0.782-0.56,1.566-1.006,2.125
	c-0.448,0.56-0.896,1.007-1.567,1.23c-0.558,0.224-1.229,0.447-1.9,0.447s-1.342-0.111-1.901-0.447
	c-0.56-0.224-1.119-0.671-1.565-1.23c-0.448-0.559-0.784-1.229-1.008-2.125c-0.223-0.782-0.335-1.789-0.335-3.021
	c0-1.23,0.112-2.124,0.335-3.02c0.224-0.895,0.56-1.566,1.008-2.125c0.446-0.559,0.895-1.006,1.565-1.23
	c0.56-0.223,1.23-0.447,1.901-0.447s1.343,0.112,1.9,0.447c0.56,0.224,1.119,0.671,1.567,1.23c0.446,0.559,0.782,1.23,1.006,2.125
	C413.83,414.643,413.941,415.537,413.941,416.767z M411.927,416.767c0-1.006-0.111-1.789-0.225-2.46
	c-0.111-0.671-0.335-1.119-0.558-1.565c-0.225-0.447-0.56-0.672-0.896-0.783c-0.334-0.111-0.671-0.225-1.005-0.225
	c-0.337,0-0.672,0.113-1.008,0.225c-0.335,0.111-0.671,0.447-0.895,0.783c-0.223,0.335-0.448,0.895-0.56,1.565
	s-0.223,1.454-0.223,2.46c0,1.008,0.111,1.79,0.223,2.461c0.111,0.672,0.337,1.119,0.56,1.566c0.224,0.336,0.56,0.671,0.895,0.783
	c0.336,0.111,0.671,0.224,1.008,0.224c0.334,0,0.671-0.112,1.005-0.224c0.337-0.112,0.672-0.447,0.896-0.783
	c0.223-0.336,0.446-0.895,0.558-1.566C411.816,418.445,411.927,417.663,411.927,416.767z"/>
<path fill="#2B4F6E" d="M456.779,421.466c0.224,0,0.335,0.112,0.448,0.224c0.111,0.112,0.223,0.224,0.223,0.447v1.23h-8.836v-0.672
	c0-0.111,0-0.223,0.111-0.447c0-0.111,0.112-0.223,0.224-0.446l4.026-4.026c0.337-0.336,0.671-0.672,0.896-1.008
	c0.223-0.335,0.446-0.67,0.671-0.895c0.223-0.336,0.335-0.671,0.446-1.007c0.111-0.335,0.111-0.671,0.111-1.007
	c0-0.335,0-0.671-0.111-0.895c-0.111-0.223-0.224-0.447-0.446-0.67c-0.225-0.225-0.448-0.336-0.671-0.336
	c-0.226-0.112-0.56-0.112-0.896-0.112c-0.334,0-0.56,0-0.782,0.112c-0.224,0.111-0.448,0.223-0.671,0.336
	c-0.224,0.111-0.335,0.335-0.448,0.559c-0.111,0.224-0.224,0.447-0.335,0.671s-0.223,0.448-0.335,0.448
	c-0.113,0.111-0.336,0.111-0.671,0l-1.008-0.225c0.112-0.671,0.224-1.118,0.56-1.678c0.224-0.447,0.56-0.894,1.006-1.118
	c0.337-0.335,0.785-0.56,1.343-0.671c0.448-0.113,1.008-0.224,1.567-0.224c0.558,0,1.117,0.112,1.564,0.224
	c0.448,0.224,0.895,0.447,1.231,0.783c0.334,0.335,0.671,0.67,0.782,1.118c0.224,0.448,0.335,1.007,0.335,1.566
	c0,0.447-0.111,0.896-0.224,1.342c-0.111,0.447-0.334,0.783-0.56,1.231c-0.223,0.335-0.56,0.782-0.894,1.118
	c-0.337,0.336-0.672,0.671-1.008,1.118l-3.131,3.244c0.224-0.112,0.56-0.112,0.783-0.224c0.223,0,0.56-0.112,0.782-0.112H456.779
	L456.779,421.466z M467.74,421.802v1.454h-7.157v-1.454h2.683v-8.165c0-0.336,0-0.56,0-0.895l-2.125,1.789
	c-0.111,0.112-0.223,0.112-0.335,0.112c-0.111,0-0.223,0-0.223,0c-0.113,0-0.113,0-0.225-0.112c-0.112,0-0.112-0.111-0.112-0.111
	l-0.56-0.896l3.916-3.356h1.564v11.633H467.74L467.74,421.802z"/>
<path fill="#2B4F6E" d="M129.844,475.936c0.223,0,0.335,0.111,0.447,0.223c0.112,0.113,0.224,0.226,0.224,0.448v1.23h-8.836v-0.671
	c0-0.111,0-0.225,0.111-0.448c0-0.111,0.112-0.223,0.224-0.446l4.027-4.026c0.335-0.336,0.67-0.671,0.895-1.008
	c0.224-0.334,0.447-0.671,0.671-0.894c0.224-0.337,0.336-0.672,0.447-1.008c0.112-0.335,0.112-0.671,0.112-1.006
	c0-0.337,0-0.671-0.112-0.896c-0.111-0.224-0.224-0.446-0.447-0.672c-0.224-0.223-0.447-0.334-0.671-0.334
	c-0.224-0.112-0.559-0.112-0.895-0.112c-0.336,0-0.56,0-0.783,0.112c-0.224,0.111-0.448,0.223-0.671,0.334
	c-0.223,0.113-0.335,0.337-0.447,0.56c-0.112,0.226-0.224,0.448-0.335,0.671c-0.112,0.226-0.224,0.448-0.336,0.448
	c-0.111,0.112-0.335,0.112-0.671,0l-1.007-0.223c0.112-0.671,0.224-1.119,0.56-1.679c0.224-0.446,0.559-0.895,1.007-1.117
	c0.335-0.337,0.783-0.56,1.342-0.672c0.447-0.113,1.006-0.225,1.565-0.225c0.56,0,1.119,0.111,1.566,0.225
	c0.448,0.224,0.895,0.446,1.23,0.783c0.335,0.335,0.671,0.671,0.783,1.117c0.223,0.448,0.335,1.008,0.335,1.567
	c0,0.446-0.112,0.894-0.224,1.342c-0.112,0.446-0.335,0.783-0.56,1.229c-0.224,0.336-0.559,0.784-0.895,1.119
	c-0.336,0.336-0.671,0.671-1.007,1.119l-3.131,3.243c0.223-0.113,0.559-0.113,0.782-0.225c0.224,0,0.56-0.111,0.783-0.111H129.844
	L129.844,475.936z M140.357,475.936c0.224,0,0.335,0.111,0.447,0.223c0.112,0.113,0.224,0.226,0.224,0.448v1.23h-8.836v-0.671
	c0-0.111,0-0.225,0.112-0.448c0-0.111,0.112-0.223,0.224-0.446l4.027-4.026c0.335-0.336,0.671-0.671,0.895-1.008
	c0.224-0.334,0.447-0.671,0.671-0.894c0.224-0.337,0.335-0.672,0.447-1.008c0.112-0.335,0.112-0.671,0.112-1.006
	c0-0.337,0-0.671-0.112-0.896c-0.111-0.224-0.223-0.446-0.447-0.672c-0.224-0.223-0.448-0.334-0.671-0.334
	c-0.224-0.112-0.559-0.112-0.895-0.112s-0.56,0-0.783,0.112c-0.224,0.111-0.447,0.223-0.671,0.334
	c-0.224,0.113-0.336,0.337-0.448,0.56c-0.111,0.226-0.224,0.448-0.335,0.671c-0.112,0.226-0.224,0.448-0.335,0.448
	c-0.112,0.112-0.336,0.112-0.671,0l-1.006-0.223c0.112-0.671,0.224-1.119,0.56-1.679c0.223-0.446,0.559-0.895,1.006-1.117
	c0.335-0.337,0.783-0.56,1.342-0.672c0.447-0.113,1.007-0.225,1.566-0.225s1.118,0.111,1.566,0.225
	c0.447,0.224,0.895,0.446,1.23,0.783c0.335,0.335,0.671,0.671,0.783,1.117c0.224,0.448,0.335,1.008,0.335,1.567
	c0,0.446-0.112,0.894-0.224,1.342c-0.112,0.446-0.335,0.783-0.56,1.229c-0.224,0.336-0.559,0.784-0.895,1.119
	c-0.335,0.336-0.671,0.671-1.007,1.119l-3.131,3.243c0.224-0.113,0.559-0.113,0.783-0.225c0.224,0,0.56-0.111,0.783-0.111H140.357
	L140.357,475.936z"/>
<path fill="#2B4F6E" d="M184.314,475.936c0.224,0,0.335,0.111,0.448,0.223c0.112,0.113,0.223,0.226,0.223,0.448v1.23h-8.836v-0.671
	c0-0.111,0-0.225,0.112-0.448c0-0.111,0.111-0.223,0.223-0.446l4.027-4.026c0.335-0.336,0.671-0.671,0.895-1.008
	c0.224-0.334,0.448-0.671,0.671-0.894c0.224-0.337,0.335-0.672,0.447-1.008c0.112-0.335,0.112-0.671,0.112-1.006
	c0-0.337,0-0.671-0.112-0.896c-0.112-0.224-0.224-0.446-0.447-0.672c-0.224-0.223-0.447-0.334-0.671-0.334
	c-0.224-0.112-0.559-0.112-0.895-0.112s-0.559,0-0.783,0.112c-0.224,0.111-0.447,0.223-0.671,0.334
	c-0.224,0.113-0.335,0.337-0.447,0.56c-0.112,0.226-0.224,0.448-0.335,0.671c-0.112,0.226-0.224,0.448-0.335,0.448
	c-0.112,0.112-0.336,0.112-0.671,0l-1.006-0.223c0.111-0.671,0.223-1.119,0.559-1.679c0.223-0.446,0.559-0.895,1.006-1.117
	c0.336-0.337,0.783-0.56,1.342-0.672c0.448-0.113,1.007-0.225,1.566-0.225s1.119,0.111,1.566,0.225
	c0.447,0.224,0.895,0.446,1.23,0.783c0.335,0.335,0.671,0.671,0.783,1.117c0.224,0.448,0.335,1.008,0.335,1.567
	c0,0.446-0.111,0.894-0.224,1.342c-0.112,0.446-0.335,0.783-0.559,1.229c-0.224,0.336-0.56,0.784-0.895,1.119
	c-0.335,0.336-0.671,0.671-1.007,1.119l-3.131,3.243c0.224-0.113,0.559-0.113,0.783-0.225c0.224,0,0.559-0.111,0.783-0.111H184.314
	L184.314,475.936z M186.999,468.331c0.112-0.671,0.224-1.119,0.559-1.679c0.224-0.446,0.56-0.895,1.006-1.117
	c0.336-0.337,0.783-0.56,1.342-0.671c0.448-0.112,1.007-0.226,1.566-0.226c0.56,0,1.119,0.113,1.566,0.226
	c0.447,0.111,0.895,0.446,1.23,0.671c0.335,0.335,0.559,0.671,0.783,1.006c0.224,0.448,0.335,0.895,0.335,1.342
	c0,0.448,0,0.783-0.112,1.119c-0.112,0.335-0.224,0.56-0.448,0.783c-0.224,0.223-0.447,0.447-0.671,0.56
	c-0.224,0.111-0.559,0.334-0.895,0.446c0.783,0.225,1.454,0.56,1.79,1.119c0.447,0.56,0.559,1.119,0.559,1.901
	c0,0.671-0.112,1.23-0.335,1.677c-0.224,0.448-0.559,0.896-1.007,1.23c-0.447,0.337-0.895,0.56-1.454,0.783
	c-0.559,0.225-1.118,0.225-1.677,0.225c-0.671,0-1.231-0.113-1.79-0.225c-0.447-0.111-0.895-0.446-1.23-0.671
	c-0.335-0.335-0.671-0.672-0.895-1.118c-0.224-0.447-0.447-0.896-0.56-1.453l0.895-0.337c0.224-0.111,0.447-0.111,0.671-0.111
	c0.224,0,0.335,0.111,0.448,0.335c0.112,0.225,0.224,0.447,0.335,0.671c0.112,0.225,0.224,0.448,0.448,0.56
	c0.223,0.225,0.447,0.336,0.671,0.448c0.335,0.111,0.671,0.223,1.006,0.223c0.447,0,0.783-0.111,1.119-0.223
	c0.335-0.112,0.559-0.337,0.783-0.56c0.224-0.224,0.335-0.448,0.447-0.672c0.112-0.223,0.112-0.56,0.112-0.782
	c0-0.337,0-0.671-0.112-0.895c-0.111-0.225-0.223-0.56-0.447-0.671c-0.224-0.225-0.56-0.336-1.007-0.448
	c-0.448-0.111-1.007-0.223-1.678-0.223v-1.456c0.559,0,1.007-0.111,1.342-0.111c0.335-0.111,0.671-0.223,0.895-0.446
	c0.224-0.225,0.448-0.448,0.448-0.671c0.111-0.225,0.111-0.56,0.111-0.896c0-0.334,0-0.671-0.111-0.894
	c-0.112-0.224-0.224-0.448-0.448-0.671c-0.224-0.224-0.448-0.337-0.671-0.337c-0.224-0.111-0.559-0.111-0.895-0.111
	c-0.335,0-0.56,0-0.783,0.111c-0.224,0.113-0.447,0.225-0.671,0.337c-0.224,0.111-0.335,0.334-0.447,0.56
	c-0.112,0.223-0.224,0.446-0.335,0.671c-0.112,0.223-0.224,0.446-0.335,0.446c-0.112,0.113-0.335,0.113-0.671,0L186.999,468.331z"/>
<path fill="#2B4F6E" d="M238.896,475.936c0.224,0,0.335,0.111,0.447,0.223c0.112,0.113,0.224,0.226,0.224,0.448v1.23h-8.836v-0.671
	c0-0.111,0-0.225,0.112-0.448c0-0.111,0.112-0.223,0.224-0.446l4.027-4.026c0.335-0.336,0.671-0.671,0.895-1.008
	c0.224-0.334,0.448-0.671,0.671-0.894c0.223-0.337,0.335-0.672,0.447-1.008c0.112-0.335,0.112-0.671,0.112-1.006
	c0-0.337,0-0.671-0.112-0.896c-0.112-0.224-0.224-0.446-0.447-0.672c-0.224-0.223-0.447-0.334-0.671-0.334
	c-0.224-0.112-0.559-0.112-0.895-0.112s-0.559,0-0.783,0.112c-0.224,0.111-0.447,0.223-0.671,0.334
	c-0.224,0.113-0.336,0.337-0.447,0.56c-0.112,0.226-0.224,0.448-0.335,0.671c-0.112,0.226-0.224,0.448-0.336,0.448
	c-0.112,0.112-0.335,0.112-0.671,0l-1.007-0.223c0.112-0.671,0.224-1.119,0.559-1.679c0.224-0.446,0.559-0.895,1.007-1.117
	c0.335-0.337,0.783-0.56,1.342-0.672c0.448-0.113,1.007-0.225,1.566-0.225s1.119,0.111,1.565,0.225
	c0.448,0.224,0.896,0.446,1.231,0.783c0.335,0.335,0.671,0.671,0.783,1.117c0.224,0.448,0.335,1.008,0.335,1.567
	c0,0.446-0.112,0.894-0.224,1.342c-0.112,0.446-0.335,0.783-0.559,1.229c-0.224,0.336-0.56,0.784-0.895,1.119
	c-0.335,0.336-0.671,0.671-1.007,1.119l-3.131,3.243c0.224-0.113,0.559-0.113,0.783-0.225c0.223,0,0.559-0.111,0.782-0.111H238.896
	L238.896,475.936z M246.95,472.917v-4.811c0-0.335,0-0.783,0.111-1.229l-4.361,6.04H246.95L246.95,472.917z M250.529,472.917v1.117
	c0,0.112,0,0.226-0.112,0.337c-0.112,0.111-0.224,0.111-0.336,0.111h-1.342v3.355h-1.678v-3.355h-5.704
	c-0.112,0-0.224,0-0.336-0.111s-0.112-0.225-0.224-0.337l-0.224-1.005l6.264-8.391h1.79v8.278H250.529z"/>
<path fill="#2B4F6E" d="M293.367,475.936c0.223,0,0.335,0.111,0.447,0.223c0.112,0.113,0.224,0.226,0.224,0.448v1.23h-8.836v-0.671
	c0-0.111,0-0.225,0.112-0.448c0-0.111,0.111-0.223,0.223-0.446l4.026-4.026c0.336-0.336,0.671-0.671,0.896-1.008
	c0.224-0.334,0.447-0.671,0.671-0.894c0.224-0.337,0.335-0.672,0.447-1.008c0.112-0.335,0.112-0.671,0.112-1.006
	c0-0.337,0-0.671-0.112-0.896c-0.112-0.224-0.223-0.446-0.447-0.672c-0.224-0.223-0.447-0.334-0.671-0.334
	c-0.224-0.112-0.559-0.112-0.896-0.112c-0.334,0-0.559,0-0.783,0.112c-0.223,0.111-0.447,0.223-0.671,0.334
	c-0.223,0.113-0.334,0.337-0.447,0.56c-0.112,0.226-0.224,0.448-0.335,0.671c-0.111,0.226-0.223,0.448-0.335,0.448
	c-0.112,0.112-0.335,0.112-0.671,0l-1.006-0.223c0.111-0.671,0.223-1.119,0.56-1.679c0.223-0.446,0.56-0.895,1.006-1.117
	c0.336-0.337,0.783-0.56,1.342-0.672c0.448-0.113,1.008-0.225,1.566-0.225c0.56,0,1.118,0.111,1.566,0.225
	c0.447,0.224,0.894,0.446,1.23,0.783c0.335,0.335,0.671,0.671,0.783,1.117c0.223,0.448,0.335,1.008,0.335,1.567
	c0,0.446-0.112,0.894-0.224,1.342c-0.112,0.446-0.336,0.783-0.56,1.229c-0.223,0.336-0.559,0.784-0.895,1.119
	c-0.335,0.336-0.671,0.671-1.007,1.119l-3.131,3.243c0.223-0.113,0.56-0.113,0.783-0.225c0.223,0,0.56-0.111,0.783-0.111H293.367
	L293.367,475.936z M298.4,469.561c0.336-0.113,0.56-0.113,0.896-0.113c0.335,0,0.558,0,0.783,0c0.671,0,1.23,0.113,1.788,0.337
	c0.56,0.223,1.008,0.447,1.343,0.782c0.336,0.337,0.671,0.783,0.784,1.23c0.223,0.448,0.223,1.006,0.223,1.565
	c0,0.671-0.111,1.343-0.336,1.902c-0.224,0.56-0.558,1.006-1.006,1.453c-0.448,0.448-0.895,0.672-1.565,0.895
	c-0.56,0.225-1.23,0.337-1.901,0.337c-0.448,0-0.783,0-1.119-0.112c-0.335-0.111-0.671-0.225-1.006-0.336
	c-0.336-0.111-0.56-0.335-0.896-0.446c-0.223-0.225-0.559-0.337-0.671-0.56l0.56-0.783c0.111-0.225,0.336-0.225,0.56-0.225
	c0.111,0,0.223,0,0.448,0.113c0.112,0.111,0.335,0.224,0.56,0.335c0.223,0.111,0.447,0.223,0.783,0.336
	c0.335,0.112,0.671,0.112,1.006,0.112c0.448,0,0.782-0.112,1.119-0.226c0.335-0.111,0.671-0.334,0.895-0.558
	c0.223-0.225,0.447-0.56,0.56-0.896c0.111-0.335,0.223-0.783,0.223-1.117c0-0.337-0.111-0.672-0.223-1.008
	c-0.112-0.335-0.224-0.56-0.448-0.783c-0.224-0.223-0.446-0.336-0.783-0.447c-0.334-0.112-0.671-0.224-1.119-0.224
	c-0.334,0-0.671,0-1.005,0.111c-0.337,0-0.672,0.112-1.006,0.224l-1.23-0.335l1.117-6.263h6.376v0.894
	c0,0.224-0.111,0.56-0.225,0.672c-0.224,0.223-0.446,0.223-0.895,0.223h-3.804L298.4,469.561z"/>
<path fill="#2B4F6E" d="M347.837,475.936c0.225,0,0.336,0.111,0.448,0.223c0.111,0.113,0.223,0.226,0.223,0.448v1.23h-8.836v-0.671
	c0-0.111,0-0.225,0.111-0.448c0-0.111,0.113-0.223,0.225-0.446l4.027-4.026c0.334-0.336,0.671-0.671,0.894-1.008
	c0.224-0.334,0.448-0.671,0.672-0.894c0.223-0.337,0.334-0.672,0.447-1.008c0.112-0.335,0.112-0.671,0.112-1.006
	c0-0.337,0-0.671-0.112-0.896c-0.113-0.224-0.225-0.446-0.447-0.672c-0.224-0.223-0.448-0.334-0.672-0.334
	c-0.223-0.112-0.56-0.112-0.894-0.112c-0.337,0-0.56,0-0.785,0.112c-0.223,0.111-0.445,0.223-0.671,0.334
	c-0.223,0.113-0.334,0.337-0.446,0.56c-0.111,0.226-0.223,0.448-0.336,0.671c-0.111,0.226-0.224,0.448-0.335,0.448
	c-0.111,0.112-0.336,0.112-0.671,0l-1.008-0.223c0.113-0.671,0.225-1.119,0.56-1.679c0.225-0.446,0.56-0.895,1.008-1.117
	c0.335-0.337,0.782-0.56,1.342-0.672c0.446-0.113,1.006-0.225,1.565-0.225s1.119,0.111,1.565,0.225
	c0.448,0.224,0.896,0.446,1.23,0.783c0.337,0.335,0.672,0.671,0.783,1.117c0.225,0.448,0.336,1.008,0.336,1.567
	c0,0.446-0.111,0.894-0.225,1.342c-0.111,0.446-0.335,0.783-0.558,1.229c-0.225,0.336-0.56,0.784-0.896,1.119
	c-0.334,0.336-0.671,0.671-1.006,1.119l-3.132,3.243c0.225-0.113,0.56-0.113,0.782-0.225c0.226,0,0.56-0.111,0.784-0.111H347.837
	L347.837,475.936z M354.66,476.272c0.448,0,0.783-0.113,1.119-0.225c0.335-0.111,0.56-0.335,0.783-0.56
	c0.223-0.223,0.447-0.446,0.56-0.782c0.111-0.335,0.223-0.672,0.223-1.006c0-0.448-0.111-0.783-0.223-1.119
	c-0.112-0.335-0.337-0.56-0.56-0.783c-0.224-0.223-0.448-0.336-0.783-0.447c-0.336-0.112-0.671-0.224-1.008-0.224
	c-0.445,0-0.782,0.111-1.117,0.224c-0.336,0.111-0.56,0.336-0.782,0.56c-0.225,0.223-0.448,0.447-0.56,0.782
	c-0.111,0.337-0.225,0.671-0.225,1.008c0,0.334,0,0.782,0.113,1.006c0.111,0.336,0.223,0.56,0.446,0.782
	c0.225,0.225,0.447,0.448,0.782,0.56C353.877,476.159,354.213,476.272,354.66,476.272z M353.989,469.448
	c-0.111,0.113-0.223,0.225-0.335,0.337c-0.111,0.111-0.225,0.223-0.225,0.334c0.225-0.111,0.56-0.334,0.896-0.334
	c0.334-0.112,0.671-0.112,1.117-0.112c0.56,0,1.007,0.112,1.455,0.224c0.446,0.111,0.895,0.448,1.229,0.782
	c0.336,0.337,0.671,0.783,0.896,1.231c0.224,0.447,0.335,1.007,0.335,1.679c0,0.558-0.111,1.117-0.335,1.677
	c-0.225,0.56-0.56,1.007-0.896,1.342c-0.446,0.335-0.895,0.671-1.454,0.895c-0.56,0.225-1.117,0.336-1.902,0.336
	c-0.671,0-1.342-0.111-1.788-0.336c-0.56-0.224-1.008-0.56-1.342-0.895c-0.337-0.448-0.672-0.895-0.895-1.454
	c-0.225-0.56-0.337-1.23-0.337-1.901c0-0.56,0.112-1.23,0.337-1.901c0.223-0.672,0.671-1.343,1.229-2.014l3.244-4.361
	c0.111-0.111,0.224-0.224,0.448-0.337c0.223-0.111,0.446-0.111,0.671-0.111h1.677L353.989,469.448z"/>
<path fill="#2B4F6E" d="M402.309,475.936c0.223,0,0.335,0.111,0.446,0.223c0.111,0.113,0.225,0.226,0.225,0.448v1.23h-8.836v-0.671
	c0-0.111,0-0.225,0.111-0.448c0-0.111,0.111-0.223,0.224-0.446l4.026-4.026c0.335-0.336,0.671-0.671,0.895-1.008
	c0.225-0.334,0.447-0.671,0.671-0.894c0.225-0.337,0.336-0.672,0.448-1.008c0.111-0.335,0.111-0.671,0.111-1.006
	c0-0.337,0-0.671-0.111-0.896c-0.112-0.224-0.224-0.446-0.448-0.672c-0.224-0.223-0.446-0.334-0.671-0.334
	c-0.224-0.112-0.56-0.112-0.895-0.112s-0.56,0-0.782,0.112c-0.226,0.111-0.448,0.223-0.672,0.334
	c-0.225,0.113-0.336,0.337-0.447,0.56c-0.112,0.226-0.224,0.448-0.335,0.671c-0.111,0.226-0.225,0.448-0.337,0.448
	c-0.111,0.112-0.334,0.112-0.671,0l-1.006-0.223c0.111-0.671,0.224-1.119,0.56-1.679c0.224-0.446,0.558-0.895,1.006-1.117
	c0.337-0.337,0.783-0.56,1.343-0.672c0.447-0.113,1.007-0.225,1.564-0.225c0.56,0,1.119,0.111,1.567,0.225
	c0.446,0.224,0.895,0.446,1.229,0.783c0.336,0.335,0.671,0.671,0.784,1.117c0.223,0.448,0.335,1.008,0.335,1.567
	c0,0.446-0.112,0.894-0.224,1.342c-0.111,0.446-0.336,0.783-0.56,1.229c-0.223,0.336-0.56,0.784-0.895,1.119
	c-0.336,0.336-0.671,0.671-1.007,1.119l-3.131,3.243c0.223-0.113,0.558-0.113,0.782-0.225c0.224,0,0.56-0.111,0.783-0.111H402.309
	L402.309,475.936z M409.131,476.272c0.446,0,0.783-0.113,1.117-0.225c0.337-0.111,0.56-0.335,0.783-0.56
	c0.225-0.223,0.448-0.446,0.56-0.782c0.111-0.335,0.225-0.672,0.225-1.006c0-0.448-0.113-0.783-0.225-1.119
	c-0.111-0.335-0.335-0.56-0.56-0.783c-0.224-0.223-0.446-0.336-0.783-0.447c-0.334-0.112-0.671-0.224-1.005-0.224
	c-0.448,0-0.783,0.111-1.119,0.224c-0.335,0.111-0.56,0.336-0.783,0.56c-0.223,0.223-0.448,0.447-0.56,0.782
	c-0.111,0.337-0.223,0.671-0.223,1.008c0,0.334,0,0.782,0.111,1.006c0.111,0.336,0.223,0.56,0.448,0.782
	c0.223,0.225,0.446,0.448,0.782,0.56C408.347,476.159,408.795,476.272,409.131,476.272z M408.46,469.448
	c-0.113,0.113-0.225,0.225-0.336,0.337c-0.112,0.111-0.224,0.223-0.224,0.334c0.224-0.111,0.56-0.334,0.895-0.334
	c0.336-0.112,0.671-0.112,1.119-0.112c0.56,0,1.006,0.112,1.453,0.224c0.448,0.111,0.895,0.448,1.231,0.782
	c0.334,0.337,0.671,0.783,0.894,1.231c0.224,0.447,0.337,1.007,0.337,1.679c0,0.558-0.113,1.117-0.337,1.677
	c-0.223,0.56-0.56,1.007-0.894,1.342c-0.448,0.335-0.896,0.671-1.454,0.895c-0.56,0.225-1.119,0.336-1.901,0.336
	c-0.672,0-1.343-0.111-1.791-0.336c-0.56-0.224-1.006-0.56-1.342-0.895c-0.335-0.448-0.671-0.895-0.895-1.454
	c-0.223-0.56-0.336-1.23-0.336-1.901c0-0.56,0.113-1.23,0.336-1.901c0.224-0.672,0.671-1.343,1.23-2.014l3.242-4.361
	c0.113-0.111,0.226-0.224,0.448-0.337c0.224-0.111,0.448-0.111,0.671-0.111h1.679L408.46,469.448z"/>
<path fill="#2B4F6E" d="M456.779,475.936c0.224,0,0.335,0.111,0.448,0.223c0.111,0.113,0.223,0.226,0.223,0.448v1.23h-8.836v-0.671
	c0-0.111,0-0.225,0.111-0.448c0-0.111,0.112-0.223,0.224-0.446l4.026-4.026c0.337-0.336,0.671-0.671,0.896-1.008
	c0.223-0.334,0.446-0.671,0.671-0.894c0.223-0.337,0.335-0.672,0.446-1.008c0.111-0.335,0.111-0.671,0.111-1.006
	c0-0.337,0-0.671-0.111-0.896c-0.111-0.224-0.224-0.446-0.446-0.672c-0.225-0.223-0.448-0.334-0.671-0.334
	c-0.226-0.112-0.56-0.112-0.896-0.112c-0.334,0-0.56,0-0.782,0.112c-0.224,0.111-0.448,0.223-0.671,0.334
	c-0.224,0.113-0.335,0.337-0.448,0.56c-0.111,0.226-0.224,0.448-0.335,0.671c-0.111,0.226-0.223,0.448-0.335,0.448
	c-0.113,0.112-0.336,0.112-0.671,0l-1.008-0.223c0.112-0.671,0.224-1.119,0.56-1.679c0.224-0.446,0.56-0.895,1.006-1.117
	c0.337-0.337,0.785-0.56,1.343-0.672c0.448-0.113,1.008-0.225,1.567-0.225c0.558,0,1.117,0.111,1.564,0.225
	c0.448,0.224,0.895,0.446,1.231,0.783c0.334,0.335,0.671,0.671,0.782,1.117c0.224,0.448,0.335,1.008,0.335,1.567
	c0,0.446-0.111,0.894-0.224,1.342c-0.111,0.446-0.334,0.783-0.56,1.229c-0.223,0.336-0.56,0.784-0.894,1.119
	c-0.337,0.336-0.672,0.671-1.008,1.119l-3.131,3.243c0.224-0.113,0.56-0.113,0.783-0.225c0.223,0,0.56-0.111,0.782-0.111H456.779
	L456.779,475.936z M463.713,476.385c0.448,0,0.782,0,1.007-0.112c0.335-0.113,0.559-0.225,0.783-0.447
	c0.223-0.224,0.335-0.448,0.446-0.672c0.113-0.223,0.113-0.56,0.113-0.894c0-0.448-0.113-0.785-0.225-1.008
	c-0.112-0.335-0.335-0.56-0.56-0.671c-0.224-0.224-0.446-0.335-0.783-0.448c-0.334-0.111-0.671-0.111-1.006-0.111
	c-0.336,0-0.671,0-1.007,0.111c-0.335,0.113-0.56,0.225-0.783,0.448c-0.223,0.223-0.335,0.448-0.56,0.671
	c-0.111,0.337-0.223,0.671-0.223,1.008c0,0.334,0,0.671,0.111,0.894c0.111,0.224,0.223,0.56,0.448,0.672
	c0.223,0.223,0.446,0.334,0.782,0.447C462.93,476.272,463.265,476.385,463.713,476.385z M463.713,465.981
	c-0.335,0-0.671,0-0.895,0.113c-0.225,0.111-0.448,0.223-0.671,0.446c-0.225,0.223-0.337,0.448-0.448,0.671
	c-0.111,0.224-0.111,0.448-0.111,0.782c0,0.226,0,0.561,0.111,0.783c0.111,0.225,0.225,0.448,0.337,0.671
	c0.223,0.225,0.334,0.337,0.671,0.448c0.223,0.111,0.558,0.223,1.006,0.223s0.671-0.111,1.007-0.223
	c0.335-0.111,0.446-0.335,0.672-0.448c0.223-0.223,0.334-0.446,0.334-0.671c0.112-0.223,0.112-0.558,0.112-0.783
	c0-0.223,0-0.559-0.112-0.782c-0.111-0.223-0.223-0.448-0.447-0.671c-0.224-0.224-0.446-0.335-0.672-0.446
	C464.384,465.981,464.049,465.981,463.713,465.981z M465.726,470.904c0.783,0.223,1.454,0.671,1.791,1.229
	c0.446,0.56,0.56,1.23,0.56,2.014c0,0.56-0.113,1.119-0.337,1.566c-0.223,0.446-0.56,0.895-0.895,1.231
	c-0.447,0.334-0.896,0.558-1.453,0.782c-0.56,0.224-1.119,0.224-1.79,0.224c-0.672,0-1.231-0.112-1.791-0.224
	c-0.558-0.225-1.006-0.448-1.453-0.782c-0.446-0.337-0.672-0.672-0.895-1.231c-0.224-0.447-0.337-1.007-0.337-1.566
	c0-0.783,0.226-1.454,0.56-2.014c0.448-0.558,1.008-0.895,1.791-1.229c-0.672-0.226-1.119-0.672-1.454-1.119
	c-0.337-0.448-0.448-1.119-0.448-1.791c0-0.445,0.111-0.894,0.337-1.342c0.223-0.446,0.446-0.782,0.782-1.117
	c0.335-0.337,0.783-0.56,1.23-0.783c0.446-0.225,1.006-0.225,1.678-0.225c0.56,0,1.118,0.111,1.677,0.225
	c0.447,0.224,0.896,0.446,1.23,0.783c0.336,0.335,0.671,0.671,0.782,1.117c0.226,0.448,0.337,0.896,0.337,1.342
	c0,0.672-0.111,1.343-0.448,1.791C466.845,470.344,466.398,470.678,465.726,470.904z"/>
<path fill="#2B4F6E" d="M129.844,530.406c0.223,0,0.335,0.113,0.447,0.225c0.112,0.112,0.224,0.224,0.224,0.446v1.231h-8.836v-0.672
	c0-0.111,0-0.223,0.111-0.447c0-0.112,0.112-0.224,0.224-0.446l4.027-4.027c0.335-0.336,0.67-0.671,0.895-1.007
	c0.224-0.335,0.447-0.672,0.671-0.895c0.224-0.335,0.336-0.671,0.447-1.006c0.112-0.336,0.112-0.671,0.112-1.008
	c0-0.334,0-0.671-0.112-0.894c-0.111-0.226-0.224-0.448-0.447-0.672c-0.224-0.223-0.447-0.336-0.671-0.336
	c-0.224-0.111-0.559-0.111-0.895-0.111c-0.336,0-0.56,0-0.783,0.111c-0.224,0.113-0.448,0.225-0.671,0.336
	c-0.223,0.112-0.335,0.335-0.447,0.56c-0.112,0.224-0.224,0.446-0.335,0.672c-0.112,0.223-0.224,0.445-0.336,0.445
	c-0.111,0.112-0.335,0.112-0.671,0l-1.007-0.223c0.112-0.671,0.224-1.119,0.56-1.677c0.224-0.448,0.559-0.896,1.007-1.119
	c0.335-0.337,0.783-0.56,1.342-0.671c0.447-0.112,1.006-0.224,1.565-0.224c0.56,0,1.119,0.111,1.566,0.224
	c0.448,0.223,0.895,0.447,1.23,0.782c0.335,0.337,0.671,0.671,0.783,1.119c0.223,0.446,0.335,1.006,0.335,1.565
	c0,0.448-0.112,0.895-0.224,1.342c-0.112,0.448-0.335,0.783-0.56,1.231c-0.224,0.334-0.559,0.782-0.895,1.117
	c-0.336,0.336-0.671,0.671-1.007,1.119l-3.131,3.244c0.223-0.112,0.559-0.112,0.782-0.224c0.224,0,0.56-0.113,0.783-0.113H129.844
	L129.844,530.406z M134.206,523.024c0,0.784,0.224,1.342,0.671,1.79c0.447,0.448,1.006,0.671,1.789,0.671
	c0.448,0,0.783-0.111,1.007-0.223c0.335-0.112,0.559-0.337,0.783-0.56c0.224-0.224,0.335-0.448,0.447-0.783
	c0.112-0.336,0.112-0.56,0.112-0.896c0-0.335-0.112-0.671-0.224-1.006c-0.112-0.337-0.335-0.56-0.447-0.783
	c-0.224-0.225-0.448-0.336-0.783-0.447c-0.336-0.112-0.671-0.224-1.007-0.224s-0.671,0.111-1.007,0.224
	c-0.335,0.111-0.56,0.336-0.783,0.56c-0.223,0.223-0.335,0.447-0.447,0.782C134.317,522.353,134.206,522.689,134.206,523.024z
	 M137.562,527.164c0.111-0.113,0.223-0.336,0.335-0.448c0.112-0.111,0.224-0.223,0.335-0.447c-0.335,0.225-0.67,0.447-1.006,0.56
	c-0.335,0.111-0.783,0.223-1.23,0.223c-0.447,0-0.895-0.111-1.342-0.223c-0.447-0.112-0.783-0.448-1.118-0.672
	c-0.335-0.334-0.56-0.671-0.783-1.23c-0.224-0.446-0.335-1.006-0.335-1.677c0-0.56,0.112-1.119,0.335-1.679s0.559-0.895,0.895-1.342
	c0.336-0.335,0.896-0.672,1.342-0.895c0.56-0.224,1.119-0.335,1.79-0.335c0.671,0,1.23,0.111,1.789,0.335
	c0.56,0.223,1.007,0.448,1.342,0.895c0.335,0.336,0.671,0.782,0.895,1.342s0.336,1.119,0.336,1.679c0,0.446,0,0.782-0.112,1.117
	c-0.112,0.337-0.112,0.671-0.335,1.008c-0.112,0.335-0.335,0.671-0.448,1.006c-0.223,0.336-0.335,0.671-0.671,1.008l-3.02,4.361
	c-0.112,0.111-0.224,0.225-0.448,0.336s-0.335,0.111-0.559,0.111h-1.79L137.562,527.164z"/>
<path fill="#2B4F6E" d="M176.484,522.801c0.112-0.671,0.224-1.119,0.559-1.677c0.224-0.448,0.56-0.896,1.007-1.119
	c0.335-0.335,0.783-0.56,1.342-0.671c0.448-0.111,1.007-0.224,1.566-0.224c0.56,0,1.119,0.112,1.566,0.224s0.895,0.448,1.23,0.671
	c0.335,0.335,0.559,0.671,0.783,1.006c0.224,0.448,0.335,0.896,0.335,1.343c0,0.447,0,0.784-0.112,1.119
	c-0.112,0.336-0.224,0.559-0.448,0.782c-0.224,0.225-0.447,0.448-0.671,0.56s-0.56,0.336-0.895,0.448
	c0.783,0.223,1.454,0.56,1.79,1.117c0.447,0.56,0.559,1.119,0.559,1.901c0,0.671-0.112,1.23-0.335,1.679
	c-0.224,0.446-0.56,0.895-1.007,1.23c-0.448,0.335-0.895,0.559-1.454,0.783c-0.559,0.223-1.119,0.223-1.678,0.223
	c-0.671,0-1.23-0.111-1.79-0.223c-0.448-0.111-0.895-0.448-1.23-0.671c-0.335-0.337-0.671-0.672-0.895-1.119
	c-0.224-0.448-0.447-0.895-0.559-1.454l0.895-0.337c0.224-0.111,0.448-0.111,0.671-0.111c0.224,0,0.335,0.111,0.448,0.337
	c0.112,0.223,0.223,0.446,0.335,0.671c0.112,0.223,0.224,0.446,0.447,0.56c0.224,0.223,0.447,0.335,0.671,0.446
	c0.335,0.111,0.671,0.225,1.006,0.225c0.447,0,0.783-0.113,1.119-0.225c0.335-0.111,0.559-0.335,0.783-0.56
	c0.224-0.224,0.336-0.446,0.447-0.671c0.112-0.224,0.112-0.558,0.112-0.783c0-0.334,0-0.671-0.112-0.894
	c-0.111-0.224-0.224-0.56-0.447-0.672c-0.224-0.223-0.56-0.336-1.006-0.447c-0.448-0.112-1.007-0.224-1.678-0.224v-1.454
	c0.559,0,1.006-0.111,1.342-0.111c0.336-0.113,0.671-0.225,0.895-0.448c0.224-0.223,0.447-0.447,0.447-0.671
	c0.112-0.223,0.112-0.56,0.112-0.894c0-0.337,0-0.672-0.112-0.896c-0.112-0.223-0.224-0.446-0.447-0.671
	c-0.224-0.224-0.448-0.335-0.671-0.335c-0.224-0.111-0.559-0.111-0.895-0.111s-0.56,0-0.783,0.111s-0.447,0.224-0.671,0.335
	c-0.224,0.113-0.335,0.336-0.447,0.56c-0.112,0.225-0.224,0.448-0.335,0.671c-0.112,0.225-0.224,0.448-0.335,0.448
	c-0.112,0.111-0.336,0.111-0.671,0L176.484,522.801z M195.946,525.709c0,1.119-0.112,2.126-0.335,3.021
	c-0.224,0.782-0.559,1.565-1.007,2.125c-0.447,0.56-0.895,1.006-1.565,1.23c-0.671,0.224-1.23,0.446-1.901,0.446
	c-0.671,0-1.342-0.111-1.902-0.446c-0.559-0.336-1.118-0.671-1.566-1.23c-0.447-0.56-0.783-1.23-1.007-2.125
	c-0.223-0.782-0.335-1.79-0.335-3.021c0-1.118,0.112-2.125,0.335-3.02c0.224-0.895,0.56-1.565,1.007-2.125
	c0.448-0.56,0.895-1.008,1.566-1.23c0.56-0.224,1.23-0.448,1.902-0.448c0.671,0,1.342,0.113,1.901,0.448
	c0.559,0.223,1.118,0.671,1.565,1.23c0.448,0.56,0.783,1.23,1.007,2.125S195.946,524.591,195.946,525.709z M193.933,525.709
	c0-1.006-0.112-1.789-0.224-2.46s-0.335-1.119-0.56-1.567c-0.224-0.334-0.559-0.671-0.895-0.782s-0.671-0.224-1.007-0.224
	s-0.671,0.112-1.006,0.224c-0.336,0.111-0.671,0.448-0.895,0.782c-0.224,0.337-0.447,0.896-0.559,1.567s-0.224,1.454-0.224,2.46
	c0,1.007,0.112,1.79,0.224,2.461s0.335,1.119,0.559,1.565c0.224,0.336,0.559,0.671,0.895,0.784c0.335,0.111,0.671,0.224,1.006,0.224
	s0.671-0.112,1.007-0.224c0.335-0.113,0.671-0.448,0.895-0.784c0.224-0.335,0.448-0.895,0.56-1.565
	C193.933,527.499,193.933,526.716,193.933,525.709z"/>
<path fill="#2B4F6E" d="M230.955,522.801c0.112-0.671,0.224-1.119,0.56-1.677c0.224-0.448,0.559-0.896,1.006-1.119
	c0.336-0.335,0.783-0.56,1.342-0.671c0.447-0.111,1.006-0.224,1.566-0.224c0.559,0,1.118,0.112,1.566,0.224
	c0.447,0.111,0.895,0.448,1.23,0.671c0.336,0.335,0.56,0.671,0.783,1.006c0.224,0.448,0.335,0.896,0.335,1.343
	c0,0.447,0,0.784-0.112,1.119c-0.112,0.336-0.224,0.559-0.447,0.782c-0.224,0.225-0.447,0.448-0.671,0.56
	c-0.224,0.111-0.56,0.336-0.895,0.448c0.783,0.223,1.454,0.56,1.79,1.117c0.447,0.56,0.559,1.119,0.559,1.901
	c0,0.671-0.112,1.23-0.335,1.679c-0.224,0.446-0.559,0.895-1.007,1.23c-0.447,0.335-0.895,0.559-1.454,0.783
	c-0.56,0.223-1.119,0.223-1.678,0.223c-0.671,0-1.23-0.111-1.79-0.223c-0.447-0.111-0.895-0.448-1.23-0.671
	c-0.335-0.337-0.671-0.672-0.895-1.119c-0.224-0.448-0.448-0.895-0.56-1.454l0.895-0.337c0.224-0.111,0.447-0.111,0.671-0.111
	c0.224,0,0.335,0.111,0.447,0.337c0.112,0.223,0.224,0.446,0.335,0.671c0.112,0.223,0.224,0.446,0.448,0.56
	c0.224,0.223,0.447,0.335,0.671,0.446c0.335,0.111,0.671,0.225,1.007,0.225c0.447,0,0.783-0.113,1.118-0.225s0.56-0.335,0.783-0.56
	c0.224-0.224,0.335-0.446,0.447-0.671c0.112-0.224,0.112-0.558,0.112-0.783c0-0.334,0-0.671-0.112-0.894
	c-0.112-0.224-0.224-0.56-0.447-0.672c-0.224-0.223-0.559-0.336-1.007-0.447c-0.447-0.112-1.007-0.224-1.678-0.224v-1.454
	c0.559,0,1.007-0.111,1.342-0.111c0.335-0.113,0.671-0.225,0.895-0.448c0.224-0.223,0.448-0.447,0.448-0.671
	c0.112-0.223,0.112-0.56,0.112-0.894c0-0.337,0-0.672-0.112-0.896c-0.112-0.223-0.224-0.446-0.448-0.671
	c-0.224-0.224-0.447-0.335-0.671-0.335c-0.224-0.111-0.559-0.111-0.895-0.111c-0.335,0-0.559,0-0.783,0.111
	s-0.447,0.224-0.671,0.335c-0.224,0.113-0.335,0.336-0.447,0.56c-0.112,0.225-0.224,0.448-0.336,0.671
	c-0.112,0.225-0.224,0.448-0.335,0.448c-0.112,0.111-0.335,0.111-0.671,0L230.955,522.801z M249.746,530.743v1.453h-7.158v-1.453
	h2.685v-8.165c0-0.337,0-0.56,0-0.896l-2.125,1.791c-0.111,0.111-0.224,0.111-0.335,0.111c-0.111,0-0.224,0-0.224,0
	c-0.112,0-0.112,0-0.224-0.111c-0.112,0-0.112-0.112-0.112-0.112l-0.559-0.894l3.915-3.356h1.566v11.633H249.746L249.746,530.743z"
	/>
<path opacity="0.4" fill="#2B4F6E" enable-background="new    " d="M298.959,530.743v1.453h-7.159v-1.453h2.685v-8.165
	c0-0.337,0-0.56,0-0.896l-2.125,1.791c-0.112,0.111-0.224,0.111-0.335,0.111c-0.111,0-0.224,0-0.224,0c-0.111,0-0.111,0-0.224-0.111
	c-0.112,0-0.112-0.112-0.112-0.112l-0.56-0.894l3.915-3.356h1.565v11.633H298.959L298.959,530.743z"/>
<path opacity="0.4" fill="#2B4F6E" enable-background="new    " d="M353.094,530.406c0.224,0,0.335,0.113,0.448,0.225
	c0.111,0.112,0.224,0.224,0.224,0.446v1.231h-8.837v-0.672c0-0.111,0-0.223,0.112-0.447c0-0.112,0.111-0.224,0.223-0.446
	l4.026-4.027c0.337-0.336,0.672-0.671,0.896-1.007c0.223-0.335,0.446-0.672,0.671-0.895c0.224-0.335,0.335-0.671,0.446-1.006
	c0.113-0.336,0.113-0.671,0.113-1.008c0-0.334,0-0.671-0.113-0.894c-0.111-0.226-0.223-0.448-0.446-0.672
	c-0.225-0.223-0.448-0.336-0.671-0.336c-0.225-0.111-0.56-0.111-0.896-0.111c-0.334,0-0.558,0-0.782,0.111
	c-0.223,0.113-0.446,0.225-0.671,0.336c-0.224,0.112-0.335,0.335-0.446,0.56c-0.113,0.224-0.225,0.446-0.337,0.672
	c-0.111,0.223-0.223,0.445-0.334,0.445c-0.113,0.112-0.337,0.112-0.672,0l-1.007-0.223c0.111-0.671,0.223-1.119,0.56-1.677
	c0.223-0.448,0.56-0.896,1.006-1.119c0.336-0.337,0.784-0.56,1.342-0.671c0.448-0.112,1.008-0.224,1.567-0.224
	s1.117,0.111,1.565,0.224c0.447,0.223,0.894,0.447,1.23,0.782c0.335,0.337,0.671,0.671,0.782,1.119
	c0.224,0.446,0.337,1.006,0.337,1.565c0,0.448-0.113,0.895-0.225,1.342c-0.112,0.448-0.335,0.783-0.56,1.231
	c-0.224,0.334-0.559,0.782-0.895,1.117c-0.335,0.336-0.671,0.671-1.006,1.119l-3.133,3.244c0.224-0.112,0.56-0.112,0.783-0.224
	c0.223,0,0.56-0.113,0.782-0.113H353.094L353.094,530.406z"/>
<path opacity="0.4" fill="#2B4F6E" enable-background="new    " d="M399.736,522.801c0.111-0.671,0.224-1.119,0.56-1.677
	c0.224-0.448,0.558-0.896,1.006-1.119c0.337-0.335,0.783-0.56,1.343-0.671c0.447-0.111,1.007-0.224,1.564-0.224
	c0.56,0,1.119,0.112,1.567,0.224c0.446,0.111,0.895,0.448,1.229,0.671c0.336,0.335,0.56,0.671,0.784,1.006
	c0.223,0.448,0.335,0.896,0.335,1.343c0,0.447,0,0.784-0.112,1.119c-0.111,0.336-0.223,0.559-0.447,0.782
	c-0.224,0.225-0.446,0.448-0.672,0.56c-0.223,0.111-0.56,0.336-0.894,0.448c0.782,0.223,1.453,0.56,1.79,1.117
	c0.446,0.56,0.558,1.119,0.558,1.901c0,0.671-0.111,1.23-0.335,1.679c-0.223,0.446-0.56,0.895-1.006,1.23
	c-0.447,0.335-0.896,0.559-1.455,0.783c-0.558,0.223-1.117,0.223-1.677,0.223c-0.671,0-1.23-0.111-1.79-0.223
	c-0.446-0.111-0.895-0.448-1.231-0.671c-0.334-0.337-0.671-0.672-0.894-1.119c-0.224-0.448-0.448-0.895-0.56-1.454l0.896-0.337
	c0.224-0.111,0.446-0.111,0.671-0.111c0.224,0,0.335,0.111,0.446,0.337c0.112,0.223,0.226,0.446,0.337,0.671
	c0.111,0.223,0.223,0.446,0.446,0.56c0.225,0.223,0.448,0.335,0.671,0.446c0.337,0.111,0.671,0.225,1.008,0.225
	c0.447,0,0.782-0.113,1.119-0.225c0.334-0.111,0.558-0.335,0.782-0.56c0.224-0.224,0.335-0.446,0.446-0.671
	c0.113-0.224,0.113-0.558,0.113-0.783c0-0.334,0-0.671-0.113-0.894c-0.111-0.224-0.223-0.56-0.446-0.672
	c-0.225-0.223-0.56-0.336-1.008-0.447c-0.446-0.112-1.005-0.224-1.677-0.224v-1.454c0.56,0,1.006-0.111,1.343-0.111
	c0.334-0.113,0.671-0.225,0.894-0.448c0.224-0.223,0.448-0.447,0.448-0.671c0.111-0.223,0.111-0.56,0.111-0.894
	c0-0.337,0-0.672-0.111-0.896c-0.111-0.223-0.225-0.446-0.448-0.671c-0.223-0.224-0.447-0.335-0.671-0.335
	c-0.223-0.111-0.56-0.111-0.894-0.111c-0.337,0-0.56,0-0.783,0.111c-0.225,0.111-0.448,0.224-0.671,0.335
	c-0.225,0.113-0.337,0.336-0.448,0.56c-0.111,0.225-0.223,0.448-0.336,0.671c-0.112,0.225-0.224,0.448-0.335,0.448
	c-0.111,0.111-0.337,0.111-0.671,0L399.736,522.801z"/>
<path opacity="0.4" fill="#2B4F6E" enable-background="new    " d="M459.686,527.387v-4.81c0-0.337,0-0.783,0.112-1.23l-4.361,6.04
	H459.686z M463.154,527.387v1.119c0,0.111,0,0.223-0.111,0.334c-0.112,0.111-0.224,0.111-0.335,0.111h-1.343v3.356h-1.679v-3.356
	h-5.703c-0.111,0-0.225,0-0.337-0.111c-0.111-0.111-0.111-0.223-0.223-0.334l-0.223-1.008l6.263-8.389h1.788v8.277H463.154z"/>
<rect x="492.346" y="221.367" fill="none" width="69.794" height="69.235"/>
<path fill="#FFFFFF" d="M527.132,268.455c8.611,0,15.547-6.934,15.547-15.547c0-8.612-6.936-15.546-15.547-15.546
	c-8.613,0-15.547,6.934-15.547,15.546C511.585,261.521,518.519,268.455,527.132,268.455z"/>
<path fill="none" stroke="#F17776" stroke-width="2" stroke-linecap="round" stroke-linejoin="round" stroke-miterlimit="10" d="
	M525.454,247.205l6.264,5.816"/>
<path fill="none" stroke="#F17776" stroke-width="2" stroke-linecap="round" stroke-linejoin="round" stroke-miterlimit="10" d="
	M531.717,253.021l-6.264,5.705"/>
<rect x="32.758" y="218.235" fill="none" width="69.235" height="69.794"/>
<path fill="#FFFFFF" d="M67.32,265.659c8.612,0,15.547-6.934,15.547-15.547c0-8.612-6.935-15.547-15.547-15.547
	s-15.547,6.935-15.547,15.547C51.772,258.725,58.708,265.659,67.32,265.659z"/>
<path fill="none" stroke="#F17776" stroke-width="2" stroke-linecap="round" stroke-linejoin="round" stroke-miterlimit="10" d="
	M68.998,255.705l-6.264-5.705"/>
<path fill="none" stroke="#F17776" stroke-width="2" stroke-linecap="round" stroke-linejoin="round" stroke-miterlimit="10" d="
	M62.734,250.001l6.264-5.816"/>
</svg>
