<?xml version="1.0" encoding="utf-8"?>
<!-- Generator: Adobe Illustrator 16.0.0, SVG Export Plug-In . SVG Version: 6.00 Build 0)  -->
<!DOCTYPE svg PUBLIC "-//W3C//DTD SVG 1.1//EN" "http://www.w3.org/Graphics/SVG/1.1/DTD/svg11.dtd">
<svg version="1.1" id="Слой_1" xmlns="http://www.w3.org/2000/svg" x="0px" y="0px"
     width="595.281px" height="489px" viewBox="0 142.445 595.281 489" enable-background="new 0 142.445 595.281 489"
     xml:space="preserve">
<g opacity="0.25">
	<path opacity="0.25" fill="#FFFFFF" enable-background="new    " d="M121.46,495.783V267.286c0-8.378,6.801-15.18,15.181-15.18
		h209.075c8.381,0,15.183,6.802,15.183,15.18v263.59c0,8.378-6.802,15.18-15.183,15.18H172.621"/>
	<path opacity="0.58" fill="#6EC9F7" enable-background="new    " d="M121.46,495.783V267.286c0-8.378,6.801-15.18,15.181-15.18
		h209.075c8.381,0,15.183,6.802,15.183,15.18v263.59c0,8.378-6.802,15.18-15.183,15.18H172.621"/>
	<path opacity="0.25" fill="#6EC9F7" enable-background="new    " d="M121.46,495.783h36.079c8.378,0,15.18,6.801,15.18,15.18
		v35.191"/>
	<path opacity="0.25" fill="#2B4F6E" enable-background="new    " d="M320.087,353.539c0,25.629-12.223,48.4-31.148,62.792
		c-13.209,10.055-29.77,16.068-47.809,16.068c-18.04,0-34.501-6.014-47.809-16.068c-18.926-14.392-31.149-37.162-31.149-62.792
		c0-43.57,35.29-78.86,78.859-78.86C284.799,274.679,320.087,309.969,320.087,353.539z"/>
	<g opacity="0.25">
		<path opacity="0.25" fill="#FFFFFF" enable-background="new    " d="M288.939,409.924v6.407
			c-13.209,10.055-29.77,16.068-47.809,16.068c-18.04,0-34.501-6.014-47.809-16.068v-6.407c0-26.418,21.391-47.809,47.809-47.809
			c13.209,0,25.136,5.322,33.811,13.997C283.616,384.788,288.939,396.715,288.939,409.924z"/>
		<path opacity="0.25" fill="#FFFFFF" enable-background="new    " d="M241.13,355.412c16.461,0,29.769-13.308,29.769-29.77
			s-13.308-29.77-29.769-29.77c-16.462,0-29.77,13.308-29.77,29.77S224.668,355.412,241.13,355.412z"/>
	</g>
	<path opacity="0.25" fill="#F4F6F7" enable-background="new    " d="M306.681,465.126H175.578c-1.183,0-2.07-0.985-2.07-2.069
		v-4.83c0-1.185,0.986-2.071,2.07-2.071h131.103c1.184,0,2.07,0.986,2.07,2.071v4.83
		C308.851,464.239,307.865,465.126,306.681,465.126z"/>
	<path opacity="0.25" fill="#F4F6F7" enable-background="new    " d="M284.897,487.304h-87.534c-1.183,0-2.07-0.984-2.07-2.07v-4.83
		c0-1.183,0.985-2.069,2.07-2.069h87.534c1.184,0,2.07,0.984,2.07,2.069v4.83C287.065,486.418,286.081,487.304,284.897,487.304z"/>
	<path opacity="0.25" fill="#14B8B8" enable-background="new    " d="M261.634,528.213h-40.811c-2.07,0-3.844-1.675-3.844-3.844
		v-8.773c0-2.07,1.676-3.844,3.844-3.844h40.811c2.07,0,3.844,1.676,3.844,3.844v8.773
		C265.379,526.538,263.704,528.213,261.634,528.213z"/>
</g>
<path fill="#FFFFFF" d="M145.611,469.364V240.868c0-8.379,6.802-15.181,15.181-15.181h209.174c8.381,0,15.182,6.802,15.182,15.181
	v263.589c0,8.379-6.801,15.181-15.182,15.181H196.87"/>
<g opacity="0.52">
	<path opacity="0.52" fill="#FFFFFF" enable-background="new    " d="M145.611,469.956V241.558c0-8.378,6.802-15.18,15.181-15.18
		h209.174c8.381,0,15.182,6.802,15.182,15.18v263.588c0,8.379-6.801,15.181-15.182,15.181H196.87"/>
	<path opacity="0.58" fill="#6EC9F7" enable-background="new    " d="M145.611,469.956V241.558c0-8.378,6.802-15.18,15.181-15.18
		h209.174c8.381,0,15.182,6.802,15.182,15.18v263.588c0,8.379-6.801,15.181-15.182,15.181H196.87"/>
	<path opacity="0.52" fill="#6EC9F7" enable-background="new    " d="M145.611,469.956h36.079c8.378,0,15.18,6.802,15.18,15.181
		v35.19"/>
	<path opacity="0.52" fill="#2B4F6E" enable-background="new    " d="M344.24,327.712c0,25.629-12.224,48.4-31.15,62.793
		c-13.209,10.054-29.769,16.066-47.809,16.066c-17.94,0-34.5-6.013-47.809-16.066c-18.926-14.393-31.149-37.164-31.149-62.793
		c0-43.57,35.29-78.859,78.859-78.859S344.24,284.142,344.24,327.712z"/>
	<g opacity="0.52">
		<path opacity="0.52" fill="#FFFFFF" enable-background="new    " d="M313.188,384.097v6.408
			c-13.21,10.054-29.77,16.066-47.809,16.066c-17.941,0-34.501-6.013-47.809-16.066v-6.408c0-26.418,21.391-47.809,47.809-47.809
			c13.209,0,25.137,5.323,33.812,13.997C307.766,358.961,313.188,370.888,313.188,384.097z"/>
		<path opacity="0.52" fill="#FFFFFF" enable-background="new    " d="M265.379,329.684c16.462,0,29.77-13.308,29.77-29.77
			s-13.308-29.77-29.77-29.77c-16.461,0-29.77,13.308-29.77,29.77S248.918,329.684,265.379,329.684z"/>
	</g>
	<path opacity="0.52" fill="#F4F6F7" enable-background="new    " d="M330.931,439.398H199.828c-1.183,0-2.07-0.986-2.07-2.07v-4.83
		c0-1.183,0.986-2.069,2.07-2.069h131.104c1.183,0,2.071,0.984,2.071,2.069v4.83C333.002,438.412,332.114,439.398,330.931,439.398z"
		/>
	<path opacity="0.52" fill="#F4F6F7" enable-background="new    " d="M309.146,461.578h-87.533c-1.183,0-2.071-0.987-2.071-2.07
		v-4.83c0-1.183,0.986-2.07,2.071-2.07h87.533c1.184,0,2.07,0.985,2.07,2.07v4.83C311.216,460.591,310.33,461.578,309.146,461.578z"
		/>
	<path opacity="0.52" fill="#14B8B8" enable-background="new    " d="M285.784,502.486h-40.81c-2.07,0-3.844-1.678-3.844-3.845
		v-8.773c0-2.07,1.676-3.845,3.844-3.845h40.81c2.07,0,3.845,1.677,3.845,3.845v8.773
		C289.629,500.711,287.854,502.486,285.784,502.486z"/>
</g>
<rect x="168.185" y="190.99" fill="none" width="256.886" height="311.299"/>
<path fill="#FFFFFF" d="M176.86,440.385V211.887c0-8.378,6.801-15.18,15.18-15.18h209.176c8.378,0,15.179,6.802,15.179,15.18
	v263.687c0,8.379-6.801,15.181-15.179,15.181H228.118"/>
<path opacity="0.58" fill="#6EC9F7" enable-background="new    " d="M176.86,440.385V211.887c0-8.378,6.801-15.18,15.18-15.18
	h209.176c8.378,0,15.179,6.802,15.179,15.18v263.687c0,8.379-6.801,15.181-15.179,15.181H228.118"/>
<path fill="#6EC9F7" d="M176.86,440.385h36.078c8.379,0,15.18,6.801,15.18,15.181v35.189"/>
<path fill="#2B4F6E" d="M375.487,298.139c0,25.63-12.223,48.4-31.149,62.793C331.128,370.986,314.568,377,296.529,377
	s-34.5-6.014-47.809-16.068c-18.926-14.393-31.149-37.163-31.149-62.793c0-43.57,35.29-78.859,78.86-78.859
	C340.198,219.28,375.487,254.57,375.487,298.139z"/>
<path fill="#FFFFFF" d="M344.337,354.525v6.407C331.128,370.986,314.568,377,296.529,377s-34.5-6.014-47.809-16.068v-6.407
	c0-26.418,21.391-47.809,47.809-47.809c13.209,0,25.137,5.323,33.813,13.997C339.015,329.388,344.337,341.316,344.337,354.525z"/>
<path fill="#FFFFFF" d="M296.529,300.013c16.463,0,29.77-13.308,29.77-29.77c0-16.462-13.307-29.77-29.77-29.77
	c-16.462,0-29.77,13.307-29.77,29.77C266.759,286.705,280.067,300.013,296.529,300.013z"/>
<path fill="#F4F6F7" d="M362.082,409.727H230.977c-1.183,0-2.07-0.986-2.07-2.071v-4.83c0-1.182,0.986-2.069,2.07-2.069h131.104
	c1.183,0,2.069,0.986,2.069,2.069v4.83C364.25,408.84,363.264,409.727,362.082,409.727z"/>
<path fill="#F4F6F7" d="M340.296,431.906h-87.535c-1.183,0-2.07-0.985-2.07-2.07v-4.83c0-1.183,0.986-2.069,2.07-2.069h87.535
	c1.184,0,2.07,0.985,2.07,2.069v4.83C342.464,431.018,341.48,431.906,340.296,431.906z"/>
<path fill="#14B8B8" d="M317.033,472.814h-40.81c-2.07,0-3.844-1.675-3.844-3.843v-8.774c0-2.07,1.676-3.844,3.844-3.844h40.81
	c2.07,0,3.845,1.675,3.845,3.844v8.774C320.779,471.139,319.103,472.814,317.033,472.814z"/>
<rect x="327.48" y="359.257" fill="none" width="225.738" height="225.736"/>
<path fill="#FFFFFF" d="M453.755,394.645l-12.123-15.575l-14.196,15.871l-16.166-15.574l-6.21,21.587l-20.208-6.703l-2.76,19.617
	l-19.519,2.662l6.605,20.207l-21.589,6.21l15.575,16.265l-15.87,14.196l15.673,12.123l-7.491,18.236l20.799,4.338l-5.421,21.884
	l21.884-5.422l4.337,20.799l18.335-7.393l12.025,15.575l14.196-15.871l16.265,15.574l6.209-21.587l20.208,6.605l2.661-19.52
	l19.617-2.66l-6.703-20.209l21.587-6.309l-15.574-16.165l15.871-14.196l-15.575-12.123l7.393-18.237l-20.799-4.337l5.423-21.884
	l-21.885,5.421l-6.407-21.687L453.755,394.645z"/>
<path fill="#F17776" d="M431.083,447.088c0,2.66-0.492,5.026-1.379,7.195c-0.889,2.168-2.171,3.943-3.648,5.52
	c-1.578,1.577-3.351,2.76-5.323,3.548c-1.971,0.79-4.14,1.283-6.309,1.283c-2.365,0-4.632-0.395-6.604-1.283
	c-1.972-0.788-3.746-1.971-5.224-3.548c-1.48-1.576-2.663-3.352-3.451-5.52c-0.789-2.169-1.281-4.535-1.281-7.195
	c0-2.761,0.394-5.227,1.281-7.394c0.788-2.17,1.971-4.042,3.451-5.618c1.478-1.578,3.252-2.761,5.224-3.55
	c1.972-0.888,4.237-1.28,6.604-1.28s4.634,0.393,6.703,1.28c2.07,0.887,3.845,2.069,5.323,3.55c1.479,1.576,2.661,3.448,3.45,5.618
	C430.591,441.962,431.083,444.425,431.083,447.088z M453.954,432.103c0.492-0.492,0.985-0.985,1.675-1.381
	c0.592-0.395,1.48-0.591,2.663-0.591h9.758l-52.837,68.706c-0.492,0.592-0.984,0.986-1.675,1.381s-1.479,0.59-2.365,0.59h-9.956
	L453.954,432.103z M420.733,447.088c0-1.775-0.196-3.254-0.492-4.437s-0.788-2.169-1.381-2.859c-0.592-0.69-1.281-1.183-1.972-1.578
	c-0.689-0.393-1.575-0.492-2.464-0.492c-0.887,0-1.676,0.197-2.464,0.492c-0.788,0.297-1.38,0.79-1.972,1.578
	c-0.493,0.69-0.985,1.677-1.281,2.859s-0.493,2.661-0.493,4.437c0,1.675,0.197,3.153,0.493,4.237c0.296,1.183,0.69,2.07,1.281,2.76
	c0.493,0.69,1.184,1.184,1.972,1.48c0.788,0.294,1.577,0.393,2.464,0.393c0.889,0,1.676-0.099,2.464-0.393
	c0.789-0.297,1.479-0.79,1.972-1.48c0.593-0.689,0.986-1.577,1.381-2.76C420.537,450.24,420.733,448.862,420.733,447.088z
	 M471.302,484.052c0,2.661-0.493,5.028-1.38,7.196c-0.888,2.168-2.169,3.942-3.648,5.521c-1.576,1.577-3.351,2.76-5.322,3.548
	c-1.971,0.789-4.14,1.282-6.309,1.282c-2.365,0-4.633-0.395-6.604-1.282c-1.971-0.788-3.746-1.971-5.224-3.548
	c-1.479-1.578-2.662-3.353-3.45-5.521c-0.79-2.168-1.282-4.535-1.282-7.196c0-2.76,0.395-5.225,1.282-7.393
	c0.788-2.17,1.971-4.042,3.45-5.618c1.478-1.577,3.253-2.76,5.224-3.549c1.972-0.788,4.239-1.281,6.604-1.281
	s4.633,0.393,6.703,1.281c2.07,0.789,3.845,1.972,5.322,3.549c1.479,1.576,2.661,3.448,3.451,5.618
	C470.809,478.827,471.302,481.292,471.302,484.052z M460.952,484.052c0-1.774-0.197-3.252-0.493-4.436
	c-0.295-1.183-0.788-2.169-1.38-2.858c-0.592-0.69-1.281-1.184-1.97-1.578c-0.69-0.394-1.579-0.492-2.466-0.492
	c-0.888,0-1.676,0.197-2.465,0.492c-0.788,0.297-1.38,0.79-1.971,1.578c-0.492,0.689-0.986,1.676-1.282,2.858
	c-0.295,1.184-0.492,2.661-0.492,4.436c0,1.677,0.197,3.155,0.492,4.239c0.296,1.183,0.69,2.069,1.282,2.76
	c0.492,0.69,1.183,1.183,1.971,1.479c0.789,0.295,1.577,0.394,2.465,0.394c0.887,0,1.675-0.099,2.466-0.394
	c0.788-0.297,1.477-0.789,1.97-1.479c0.592-0.69,0.985-1.577,1.38-2.76C460.754,487.207,460.952,485.827,460.952,484.052z"/>
</svg>
