<svg xmlns="http://www.w3.org/2000/svg" width="18" height="18">
    <path fill="#0192FF" fill-rule="evenodd" d="M17.518 18H.482A.474.474 0 0 1 0 17.538V4.943c0-.104.036-.204.104-.285L3.788.177A.486.486 0 0 1 4.166 0h9.672c.149 0 .285.065.378.177l3.683 4.481a.413.413 0 0 1 .101.285v12.595a.474.474 0 0 1-.482.462zM8.52.925H4.398L1.414 4.558H8.52V.925zm5.085 0H9.484v3.633h7.106L13.605.925zm3.431 4.557H.964v11.593h16.072V5.482zM6.857 7.906c.45 0 .871.165 1.189.47a1.565 1.565 0 0 1 0 2.277c-.318.304-.739.47-1.189.47-.45 0-.872-.166-1.189-.47a1.565 1.565 0 0 1 0-2.277 1.7 1.7 0 0 1 1.189-.47zm-.506 2.092c.136.127.313.2.506.2a.72.72 0 0 0 .506-.2.671.671 0 0 0 0-.971.737.737 0 0 0-.506-.2.718.718 0 0 0-.506.2.671.671 0 0 0 0 .971zm5.161-1.749a.497.497 0 0 1 .683 0 .45.45 0 0 1 0 .655l-5.7 5.467a.504.504 0 0 1-.683 0 .45.45 0 0 1 0-.655l5.7-5.467zm-.365 3.263c.446 0 .872.162 1.189.466a1.57 1.57 0 0 1 0 2.281c-.317.304-.739.47-1.189.47-.45 0-.872-.166-1.189-.47a1.565 1.565 0 0 1 0-2.277c.317-.304.739-.47 1.189-.47zm-.506 2.096c.136.127.313.2.506.2a.72.72 0 0 0 .506-.2.677.677 0 0 0 .209-.486.653.653 0 0 0-.209-.485.737.737 0 0 0-.506-.2.718.718 0 0 0-.506.2.671.671 0 0 0 0 .971z"/>
</svg>
