<svg xmlns="http://www.w3.org/2000/svg" width="17" height="18">
    <path fill="#0192FF" fill-rule="evenodd" d="M14.97 11.816H4.821c-.415 0-.804-.126-1.124-.337v1.466c0 .608.502 1.106 1.124 1.106h9.662c1.106 0 2.007.887 2.007 1.974 0 1.088-.901 1.975-2.007 1.975s-2.008-.887-2.008-1.975c0-.401.121-.772.328-1.083H7.999c.208.311.328.682.328 1.083C8.327 17.113 7.425 18 6.32 18c-1.106 0-2.008-.887-2.008-1.975 0-.404.124-.779.336-1.091-1.042-.085-1.861-.943-1.861-1.989V1.899L.277.856A.443.443 0 0 1 .036.273.454.454 0 0 1 .628.035l2.789 1.151.046.022c0 .004.003.008.007.008.008.007.019.011.027.018l.022.015.012.011a.093.093 0 0 1 .022.019c.004 0 .008.003.012.007l.018.022.012.012a.071.071 0 0 1 .015.018l.011.015.012.019.011.022c.004.004.004.011.007.015l.012.026c0 .003.003.007.003.011l.012.029c0 .004.004.012.004.015a.092.092 0 0 1 .007.026c0 .008.004.019.004.03v.011a.199.199 0 0 1 .004.048V9.816c0 .608.502 1.106 1.124 1.106H14.97c.619 0 1.124-.494 1.124-1.106V5.614a.45.45 0 0 1 .453-.445c.249 0 .453.2.453.445v4.205c0 1.099-.91 1.997-2.03 1.997zm-.491 5.293c.608 0 1.102-.486 1.102-1.084 0-.597-.494-1.083-1.102-1.083-.608 0-1.102.486-1.102 1.083 0 .598.494 1.084 1.102 1.084zm-8.159 0c.607 0 1.102-.486 1.102-1.084 0-.597-.495-1.083-1.102-1.083-.608 0-1.102.486-1.102 1.083 0 .598.494 1.084 1.102 1.084zm3.407-9.004a.463.463 0 0 1-.641 0L7.769 6.813a.44.44 0 0 1 0-.631.457.457 0 0 1 .641 0l.997.98 2.468-2.431a.457.457 0 0 1 .641 0 .44.44 0 0 1 0 .631L9.727 8.105z"/>
</svg>
