<svg xmlns="http://www.w3.org/2000/svg" width="18" height="16">
    <path fill="#0192FF" fill-rule="evenodd" d="M13.932 4.296c-2.32 0-4.068-.923-4.068-2.148S11.612 0 13.932 0C16.252 0 18 .923 18 2.148s-1.748 2.148-4.068 2.148zm0-3.373c-1.934 0-3.169.727-3.169 1.229 0 .501 1.235 1.229 3.169 1.229 1.935 0 3.17-.728 3.17-1.229 0-.502-1.235-1.229-3.17-1.229zM4.068 8.978C1.748 8.978 0 8.056 0 6.83c0-1.225 1.748-2.148 4.068-2.148 2.32 0 4.068.923 4.068 2.148 0 1.226-1.748 2.148-4.068 2.148zm0-3.377c-1.935 0-3.17.728-3.17 1.229 0 .502 1.235 1.229 3.17 1.229 1.934 0 3.169-.727 3.169-1.229 0-.501-1.235-1.229-3.169-1.229zM.936 9.33c.239.525 1.478 1.069 3.132 1.069 1.699 0 2.956-.575 3.147-1.107a.446.446 0 0 1 .576-.272.466.466 0 0 1 .27.586c-.187.525-.7.965-1.478 1.275-.708.283-1.598.437-2.515.437-1.924 0-3.51-.64-3.948-1.597a.467.467 0 0 1 .217-.613.448.448 0 0 1 .599.222zm0 2.344c.239.524 1.478 1.068 3.132 1.068 1.699 0 2.956-.574 3.147-1.107a.446.446 0 0 1 .576-.272.463.463 0 0 1 .27.586c-.187.525-.7.965-1.478 1.275-.708.284-1.598.437-2.515.437-1.924 0-3.51-.64-3.948-1.597a.465.465 0 0 1 .217-.612.447.447 0 0 1 .599.222zm0 2.339c.239.524 1.478 1.068 3.132 1.068 1.699 0 2.956-.574 3.147-1.106a.446.446 0 0 1 .576-.272.466.466 0 0 1 .27.586c-.187.524-.7.964-1.478 1.275-.708.283-1.598.436-2.515.436-1.924 0-3.51-.639-3.948-1.597a.465.465 0 0 1 .217-.612.448.448 0 0 1 .599.222zm9.868-9.365c.239.525 1.478 1.068 3.132 1.068 1.699 0 2.956-.574 3.147-1.106a.446.446 0 0 1 .577-.272.465.465 0 0 1 .269.586c-.187.524-.7.964-1.478 1.275-.708.283-1.598.436-2.515.436-1.924 0-3.51-.639-3.948-1.596a.466.466 0 0 1 .217-.613.447.447 0 0 1 .599.222zm0 2.343c.239.525 1.478 1.068 3.132 1.068 1.699 0 2.956-.574 3.147-1.106a.446.446 0 0 1 .577-.272.465.465 0 0 1 .269.586c-.187.524-.7.965-1.478 1.275-.708.283-1.598.436-2.515.436-1.924 0-3.51-.639-3.948-1.596a.466.466 0 0 1 .217-.613.447.447 0 0 1 .599.222zm0 2.339c.239.525 1.478 1.069 3.132 1.069 1.699 0 2.956-.575 3.147-1.107a.447.447 0 0 1 .577-.272.466.466 0 0 1 .269.586c-.187.525-.7.965-1.478 1.275-.708.283-1.598.437-2.515.437-1.924 0-3.51-.64-3.948-1.597a.467.467 0 0 1 .217-.613.448.448 0 0 1 .599.222zm0 2.344c.239.524 1.478 1.068 3.132 1.068 1.699 0 2.956-.574 3.147-1.107a.447.447 0 0 1 .577-.272.463.463 0 0 1 .269.586c-.187.525-.7.965-1.478 1.275-.708.284-1.598.437-2.515.437-1.924 0-3.51-.64-3.948-1.597a.465.465 0 0 1 .217-.612.447.447 0 0 1 .599.222zm0 2.339c.239.524 1.478 1.068 3.132 1.068 1.699 0 2.956-.574 3.147-1.106a.446.446 0 0 1 .577-.272.465.465 0 0 1 .269.586c-.187.524-.7.964-1.478 1.275-.708.283-1.598.436-2.515.436-1.924 0-3.51-.639-3.948-1.597a.465.465 0 0 1 .217-.612.447.447 0 0 1 .599.222z"/>
</svg>
