<svg width="58.202mm" height="36.311mm" version="1.1" viewBox="0 0 58.202 36.311" xmlns="http://www.w3.org/2000/svg">
 <g transform="translate(-.11377 -260.74)">
  <g transform="matrix(.18047 0 0 .18047 -2.1602 257.12)">
   <path d="m321.2 221.3-3.8-13.8c-2.6-9-10.8-15.7-20.7-15.8-3.4 0-6.6 0.7-9.5 2.1-2.3-3.9-6.5-6.5-11.3-6.5-1.6 0-3 0.3-4.4 0.8-9.3-10.9-14.3-24.8-14.3-39.1v-32.2h15.2l-24.4-31.5-24.2 31.4h14.7v34.9c0 13.1-4.6 25.7-13.1 35.6-1.4-0.5-2.9-0.8-4.4-0.8-5.3-0.1-9.9 3.1-12 7.6-2.7-1.2-5.8-1.9-8.9-1.9-10.2 0.1-18.8 7.2-21 16.7-1-0.2-2-0.3-3.1-0.3-1.2 0-2.3 0.1-3.4 0.3-6.5 1.3-11.6 6.2-13.5 12.4h162.1z" fill="#c44957"/>
   <path d="m157.5 221.3c-1.4-0.7-3-1.1-4.7-1.1-1.1 0-2.2 0.2-3.2 0.5v0.6z" fill="#c44957"/>
   <path d="m194.7 221.3v-0.5c-1.1-0.4-2.3-0.7-3.6-0.7-1.8 0-3.5 0.4-5 1.2z" fill="#81a96a"/>
   <path d="m184.9 221.3c-1.6-6-6.3-10.7-12.3-12.4-1.4-0.4-3-0.6-4.5-0.6-1.1 0-2.1 0.1-3.1 0.3-2.2-9.5-10.7-16.7-20.9-16.8-3.4 0-6.6 0.7-9.5 2.1-2.3-3.9-6.5-6.5-11.3-6.5-1.6 0-3 0.3-4.4 0.8-9.3-10.9-14.3-24.8-14.3-39.1v-32.2h15.2l-24.5-31.6-24.2 31.4h14.7v34.9c0 13.1-4.6 25.7-13.1 35.6-1.4-0.5-2.9-0.8-4.4-0.8-5.3-0.1-9.9 3.1-12 7.6-2.7-1.2-5.8-1.9-8.9-1.9-7.6 0.1-14.2 4-18 9.8l-2.1 19.4z" fill="#81a96a"/>
   <path d="m307.7 221.3c-4.8-7.2-13.2-11.3-22.9-11.4-1.6 0-3.2 0.1-4.8 0.4-3.4-14.7-16.5-25.8-32.3-26-5.3-0.1-10.3 1.1-14.7 3.2-3.5-6-10-10.1-17.5-10-2.4 0-4.7 0.5-6.8 1.3-14.3-16.9-22.1-38.3-22.1-60.4v-49.8h23.4l-37.4-48.5-37.4 48.5h22.7v53.9c0 20.2-7.2 39.6-20.3 55-2.1-0.8-4.4-1.3-6.8-1.3-8.2-0.1-15.2 4.7-18.5 11.6-4.2-1.9-8.9-2.9-13.8-2.9-15.8 0.1-28.9 11.1-32.4 25.8-1.5-0.3-3.1-0.4-4.8-0.4-9.7 0.1-17.8 4-22.4 11z" fill="#14abe3"/>
   <path d="m38.9 221.3c0.8-1.8 1.3-3.8 1.3-5.9 0-7.6-6.2-13.8-13.8-13.8s-13.8 6.2-13.8 13.8c0 2.1 0.5 4.1 1.3 5.9z" fill="#81a96a"/>
   <path d="m334.2 221.3c0.6-1.4 0.9-2.9 0.9-4.5 0-6.9-5.6-12.4-12.4-12.4s-12.4 5.6-12.4 12.4c0 1.6 0.3 3.1 0.9 4.5z" fill="#c44957"/>
  </g>
 </g>
</svg>
