<?xml version="1.0" encoding="utf-8"?>
<!-- Generator: Adobe Illustrator 21.1.0, SVG Export Plug-In . SVG Version: 6.00 Build 0)  -->
<svg version="1.1" id="Layer_1" xmlns="http://www.w3.org/2000/svg" xmlns:xlink="http://www.w3.org/1999/xlink" x="0px" y="0px"
	 viewBox="0 0 48 48" style="enable-background:new 0 0 48 48;" xml:space="preserve">
<path fill="#009EDE" d="M31.5,10.5h12V12h-12V10.5z M43.5,21h-12v-1.5h12V21z M31.5,15h12v1.5h-12V15z M47.2,25.5h-4.2l-5.8,5.8
	c-0.1,0.1-0.3,0.2-0.5,0.2c-0.1,0-0.2,0-0.3-0.1c-0.3-0.1-0.5-0.4-0.5-0.7v-5.3h-9V24h9.8c0.4,0,0.7,0.3,0.7,0.8v4.2l4.7-4.7
	c0.1-0.1,0.3-0.2,0.5-0.2h3.7V7.5h-15V6h15.7C47.7,6,48,6.3,48,6.8v18C48,25.2,47.7,25.5,47.2,25.5z M29.2,21H27v-1.5h1.5v-18h-27
	v18h3.7c0.2,0,0.4,0.1,0.5,0.2l4.7,4.7v-4.2c0-0.4,0.3-0.8,0.7-0.8h6V21H12v5.3c0,0.3-0.2,0.6-0.5,0.7c-0.1,0-0.2,0.1-0.3,0.1
	c-0.2,0-0.4-0.1-0.5-0.2L4.9,21H0.8C0.3,21,0,20.7,0,20.3V0.7C0,0.3,0.3,0,0.8,0h28.5C29.7,0,30,0.3,30,0.7v19.5
	C30,20.7,29.7,21,29.2,21z M5.2,15c-0.4,0-0.7-0.3-0.7-0.7V6.8C4.5,6.3,4.8,6,5.2,6h19.5c0.4,0,0.7,0.3,0.7,0.8v7.5
	c0,0.4-0.3,0.7-0.7,0.7H5.2z M24,7.5H6v6h18V7.5z M12.8,11.2h-1.5V9.7h1.5V11.2z M15.7,11.2h-1.5V9.7h1.5V11.2z M18.8,11.2h-1.5V9.7
	h1.5V11.2z M0.8,28.5H12h1.2l4.2-4.9l2.1-4.3c0.1-1.6,1.4-2.8,3-2.8c1.7,0,3,1.3,3,3v2.3c0,0.1,0,0.2-0.1,0.3l-2.6,6.5h8.6
	c1.7,0,3,1.3,3,3c0,0.7-0.3,1.4-0.7,1.9c0.9,0.5,1.5,1.5,1.5,2.6c0,1.3-0.8,2.4-2,2.8c0.3,0.5,0.5,1.1,0.5,1.7c0,1.1-0.6,2-1.5,2.6
	c0.4,0.5,0.7,1.2,0.7,1.9c0,1.7-1.3,3-3,3H17.2c-0.1,0-0.2,0-0.3-0.1l-3-1.5l0.7-1.3l2.8,1.4H30c0.8,0,1.5-0.7,1.5-1.5
	c0-0.8-0.7-1.5-1.5-1.5c-0.4,0-0.8-0.3-0.8-0.8c0-0.4,0.3-0.7,0.8-0.7h0.8c0.8,0,1.5-0.7,1.5-1.5c0-0.8-0.7-1.5-1.5-1.5
	c-0.4,0-0.8-0.3-0.8-0.7c0-0.4,0.3-0.8,0.8-0.8h1.5c0.8,0,1.5-0.7,1.5-1.5s-0.7-1.5-1.5-1.5h-0.8c-0.4,0-0.7-0.3-0.7-0.8
	s0.3-0.8,0.7-0.8c0.8,0,1.5-0.7,1.5-1.5c0-0.8-0.7-1.5-1.5-1.5h-9.7c-0.2,0-0.5-0.1-0.6-0.3C21,29.5,21,29.2,21.1,29l2.9-7.4v-2.1
	c0-0.8-0.7-1.5-1.5-1.5c-0.8,0-1.5,0.7-1.5,1.5c0,0.1,0,0.2-0.1,0.3l-2.3,4.5c0,0.1-0.1,0.1-0.1,0.2l-4.5,5.3
	c-0.1,0.2-0.3,0.3-0.6,0.3h-0.7v17.2c0,0.4-0.3,0.8-0.8,0.8H0.8C0.3,48,0,47.7,0,47.2v-18C0,28.8,0.3,28.5,0.8,28.5z M1.5,46.5h9.7
	V30H1.5V46.5z M8.3,43.5h1.5V45H8.3V43.5z"/>
</svg>
