<svg id="Layer_1"  xmlns="http://www.w3.org/2000/svg" viewBox="0 0 48 48">
    <g id="Layer_2" fill="#BDBDBD">
            <rect x="4.53" y="4.56" width="4.74" height="1.78"/>
            <rect x="4.53" y="7.46" width="12.48" height="1.78"/>
            <rect x="4.53" y="10.46" width="1.78" height="1.78"/>
            <rect x="8.09" y="10.46" width="1.78" height="1.78"/>
            <rect x="11.66" y="10.46" width="1.78" height="1.78"/>
            <path
                d="M42.53,46.2h-2V24.75H31.6V46.2H29.94V29.82H21.05V46.2H19.46V37.12H10.57V46.2H8.81V17.69H7V48h35.5ZM33.38,26.53h5.33V46.13H33.38ZM22.83,31.59h5.33V46.13H22.83ZM12.35,38.9h5.33v7.22H12.35Z"/>
            <rect x="14.12" y="30.02" width="1.78" height="1.78"/>
            <rect x="10.57" y="33.57" width="1.78" height="1.78"/>
            <rect x="14.12" y="33.57" width="1.78" height="1.78"/>
            <rect x="17.68" y="33.57" width="1.78" height="1.78"/>
            <rect x="24.61" y="22.39" width="1.78" height="1.78"/>
            <rect x="21.05" y="25.95" width="1.78" height="1.78"/>
            <rect x="24.61" y="25.95" width="1.78" height="1.78"/>
            <rect x="28.16" y="25.95" width="1.78" height="1.78"/>
            <rect x="35.16" y="17.48" width="1.78" height="1.78"/>
            <rect x="31.6" y="21.03" width="1.78" height="1.78"/>
            <rect x="35.16" y="21.03" width="1.78" height="1.78"/>
            <rect x="38.71" y="21.03" width="1.78" height="1.78"/>
            <path
                d="M39.32.18H.18V36.27h0v4.21H4.4V38.71H2V36.6H4.4V34.82H2V32.69H2V2H38v8.3H46.4V34.82H43.95V36.6H46.4v2.11H43.95v1.78h4.23V9Zm.45,8.3V3.13l5.37,5.34Z"/>
            <polygon
                points="34.96 7.59 34.96 7.59 29.82 7.59 29.85 9.14 32.26 9.14 11.53 27.47 12.71 28.8 26.92 16.24 26.95 16.28 33.48 10.45 33.48 12.73 35.01 12.71 35.03 7.59 34.96 7.59"/>
    </g>
</svg>
