<?xml version="1.0" encoding="utf-8"?>
<!-- Generator: Adobe Illustrator 21.1.0, SVG Export Plug-In . SVG Version: 6.00 Build 0)  -->
<svg version="1.1" id="Layer_1" xmlns="http://www.w3.org/2000/svg" xmlns:xlink="http://www.w3.org/1999/xlink" x="0px" y="0px"
	 viewBox="0 0 48 48" style="enable-background:new 0 0 48 48;" xml:space="preserve">
<path fill="#BDBDBD" d="M42.7,43.5V42h3.7v-9H48v10.5H42.7z M36.7,36h1.5v1.5h-1.5V36z M38.2,43.5h-1.5V42h1.5V43.5z M36.7,39h1.5v1.5h-1.5V39z
	 M41.2,33.8v10.5c0,2.1-1.7,3.8-3.7,3.8c-2.1,0-3.7-1.7-3.7-3.8V36h1.5v8.2c0,1.2,1,2.2,2.2,2.2s2.2-1,2.2-2.2v-10
	c-0.7,0.2-1.5,0.2-2.2,0.2C31.7,34.5,27,29.8,27,24s4.7-10.5,10.5-10.5C43.3,13.5,48,18.2,48,24C48,28.5,45.2,32.3,41.2,33.8z
	 M37.5,15c-5,0-9,4-9,9s4,9,9,9c5,0,9-4,9-9S42.4,15,37.5,15z M36,27.8c-0.2,0-0.4-0.1-0.5-0.2l-3-3l1.1-1.1l2.5,2.5l5.5-5.5
	l1.1,1.1l-6,6C36.4,27.7,36.2,27.8,36,27.8z M18,36H7.5v-1.5H18V36z M18,33H7.5v-1.5H18V33z M18,30H7.5v-1.5H18V30z M7.5,13.5H18V24
	H7.5V13.5z M9,22.5h7.5V15H9V22.5z M18,27H7.5v-1.5H18V27z M32.2,40.5H3V9h42v4.5h-1.5v-3h-39V39h27.7V40.5z M30,36H19.5v-1.5H30V36
	z M27.7,33h-8.2v-1.5h8.2V33z M19.5,28.5h6V30h-6V28.5z M25.5,27h-6v-1.5h6V27z M19.5,13.5H30V15h-9v7.5h4.5V24h-6V13.5z M46.5,7.5
	h-45V42h30.7v1.5H0V0h48v15h-1.5V7.5z M12,1.5H1.5V6H12V1.5z M46.5,1.5h-33V6h33V1.5z M45,4.5H15V3h30V4.5z M4.5,4.5H3V3h1.5V4.5z
	 M7.5,4.5H6V3h1.5V4.5z M10.5,4.5H9V3h1.5V4.5z"/>
</svg>
