<?xml version="1.0" encoding="utf-8"?>
<!-- Generator: Adobe Illustrator 21.1.0, SVG Export Plug-In . SVG Version: 6.00 Build 0)  -->
<svg version="1.1" id="Layer_1" xmlns="http://www.w3.org/2000/svg" xmlns:xlink="http://www.w3.org/1999/xlink" x="0px" y="0px"
	 viewBox="0 0 48 48" style="enable-background:new 0 0 48 48;" xml:space="preserve">
<path fill="#BDBDBD" d="M46.5,24.8c-0.4,11.8-9.9,21.3-21.7,21.7V48h-1.5v-1.5C11.4,46.1,1.9,36.6,1.5,24.8H0v-1.5h1.5C1.9,11.4,11.4,1.9,23.2,1.5
	V0h1.5v1.5c11.8,0.4,21.3,9.9,21.7,21.7H48v1.5H46.5z M24,3C12.4,3,3,12.4,3,24c0,11.6,9.4,21,21,21c11.6,0,21-9.4,21-21
	C45,12.4,35.6,3,24,3z M24,43.5C13.2,43.5,4.5,34.8,4.5,24C4.5,13.2,13.2,4.5,24,4.5c10.8,0,19.5,8.7,19.5,19.5
	C43.5,34.8,34.8,43.5,24,43.5z M42,23.2C41.6,13.9,34.1,6.4,24.7,6v3h-1.5V6C13.9,6.4,6.4,13.9,6,23.2h3v1.5H6
	c0.4,9.3,7.9,16.8,17.2,17.2v-3h1.5v3c9.3-0.4,16.8-7.9,17.2-17.2h-3v-1.5H42z M28.9,29.9l1.6,2.5l5,2.2L35,35.9l-4.8-2.1l-3,3
	L24,35.3l-3.1,1.6l-3-3L13,35.9l-0.6-1.4l5-2.2l1.6-2.5l0.4,0.1v-1.9c-0.7-0.7-2.4-2.6-3-7l0-0.1v-3c0-5,2.5-7.5,7.5-7.5
	c5,0,7.5,2.5,7.5,7.5l0,3.1c-0.6,4.4-2.3,6.3-3,7V30L28.9,29.9z M24,12c-3.7,0-5.6,1.5-5.9,4.7l2.1-1.1l7.5,3l2.3-1.1
	C29.8,13.7,28,12,24,12z M30,20.9v-1.7l-2.2,1.1l-7.5-3L18,18.5v2.5c0.6,4.4,2.4,6,2.6,6.2c1.3,0.6,3.3,0.6,3.4,0.6c0,0,2,0,3.4-0.6
	C27.6,26.9,29.4,25.4,30,20.9z M21,28.8v1.4l3,0.5l3-0.5v-1.4c-1.4,0.4-2.9,0.4-3,0.4S22.4,29.2,21,28.8z M28.1,31.6L24,32.3
	l-4.1-0.7L19,32.9l2.2,2.2l2.9-1.4l2.9,1.4l2.2-2.2L28.1,31.6z"/>
</svg>
