<svg id="Layer_1" data-name="Layer 1" xmlns="http://www.w3.org/2000/svg" viewBox="0 0 54 49"><defs><style>.cls-1{fill:#4bb6df;}.cls-2{fill:#5b6973;}</style></defs><title>icons</title><path class="cls-1" d="M32.13,0C26.31,0,21.59,2,21.59,4.54v5.72h4L26,29.12a.53.53,0,0,1,.51-.41.55.55,0,0,1,.55.55V35.9a21.78,21.78,0,0,0,5.12.58c5.74,0,10.41-2,10.53-4.45h0V4.54C42.66,2,38,0,32.13,0Zm2.94,31.52H29.18V28.64h5.89Zm5.27-10.66a1.11,1.11,0,0,1-2.21,0V6.06a1.11,1.11,0,1,1,2.21,0Z"/><path class="cls-1" d="M14.76,28.44a5.19,5.19,0,0,0,1.1-6.57A2.78,2.78,0,0,1,13,23.51c1.23-1.7,0-4.15-.09-4.35,0,.14.4,1.59-1.8,3.75a3.49,3.49,0,0,0,.29,5.53c-2.2,0-5.76-3.48-.86-8a4.91,4.91,0,0,0,1-6c1.22.2,4.62,3.09,2.91,7.53,1-.14,1.51-1.12,1.26-2.86C18.34,21.82,18.39,26.8,14.76,28.44Z"/><path class="cls-1" d="M29.7,37.29V39.4a.42.42,0,0,0,.42.42h.4a.42.42,0,0,0,.42-.42v-2C30.51,37.38,30.1,37.34,29.7,37.29Z"/><path class="cls-1" d="M34,37.38v2a.42.42,0,0,0,.42.42h.4a.42.42,0,0,0,.42-.42V37.22C34.83,37.29,34.42,37.34,34,37.38Z"/><path class="cls-2" d="M6.31,40.12l-.49-.5,1-1a2,2,0,1,0,.5.5ZM9.8,38.64h6.11V35.7H9.8Zm10.77,1.48-.5-.5,1.05-1a2,2,0,1,0,.5.5ZM7.43,48.37a.63.63,0,0,0,.63.63h.59a.63.63,0,0,0,.62-.63V46.48H7.43Zm9.3,0a.63.63,0,0,0,.63.63h.58a.63.63,0,0,0,.63-.63V46.48H16.73ZM.86,9.94A.86.86,0,0,0,0,10.8v34a.87.87,0,0,0,.86.86H25.09a.87.87,0,0,0,.86-.86V9.94ZM24.38,32.51H22.65v1.26h1.73V43.1a.94.94,0,0,1-.94.94H2.51a.94.94,0,0,1-.94-.94V33.77H3.06V32.51H1.57V12.45a.94.94,0,0,1,.94-.94H23.44a.94.94,0,0,1,.94.94Z"/></svg>