<svg id="Layer_1" data-name="Layer 1" xmlns="http://www.w3.org/2000/svg" viewBox="0 0 54 49"><defs><style>.cls-1,.cls-2{fill:none;stroke-width:1.5px;}.cls-1{stroke:#5b6973;stroke-linecap:round;stroke-linejoin:round;}.cls-2{stroke:#4bb6df;stroke-miterlimit:10;}.cls-3{fill:#4bb6df;}.cls-4{fill:#5b6973;}</style></defs><title>icons</title><path class="cls-1" d="M25.12,17.63,14.84,12.45a2.8,2.8,0,0,0-2.2,0L2,17.43a1.84,1.84,0,0,0-1,1.74l.55,5.36a2.89,2.89,0,0,0,1.15,1.88L24.9,41.09a1.88,1.88,0,0,0,2-.05l3-2.18"/><path class="cls-2" d="M42.83,10,31.65,6.18a1.84,1.84,0,0,0-1.9.57L26.43,11A2.92,2.92,0,0,0,26,13.15l5.83,26a1.88,1.88,0,0,0,1.48,1.35L45.87,42.2A3.22,3.22,0,0,0,48,41.6L52.47,38A1.86,1.86,0,0,0,53,36.07L44.39,11.52A2.78,2.78,0,0,0,42.83,10Z"/><path class="cls-3" d="M48.35,32.83l-7.48-1.5a.51.51,0,0,1-.39-.35l-1-3.66a.51.51,0,0,1,.6-.63l7.37,1.68a.52.52,0,0,1,.36.33l1.16,3.48A.5.5,0,0,1,48.35,32.83Zm-3.06-9.06-7.14-1.83a.5.5,0,0,1-.36-.34l-.89-3.12a.49.49,0,0,1,.61-.62l7,2a.48.48,0,0,1,.34.32l1,3A.5.5,0,0,1,45.29,23.77Zm-3-11.33L43.16,15a.5.5,0,0,1-.62.64l-6.82-2.07a.5.5,0,0,1-.34-.34l-.76-2.66a.5.5,0,0,1,.63-.61L42,12.12A.51.51,0,0,1,42.31,12.44Z"/><path class="cls-4" d="M27.2,28.41,26,29.16a.51.51,0,0,1-.52,0l-3.29-1.91a.5.5,0,0,1,0-.86l3.7-2.23a.5.5,0,0,1,.75.32l.76,3.38A.48.48,0,0,1,27.2,28.41Z"/><path class="cls-4" d="M7.16,17.65l6.36-3.1a.51.51,0,0,1,.45,0l2.38,1.24a.5.5,0,0,1,0,.89L10,19.93a.49.49,0,0,1-.47,0l-2.4-1.38A.5.5,0,0,1,7.16,17.65Z"/><path class="cls-4" d="M14.27,21.79l6.44-3.47a.49.49,0,0,1,.47,0L24,19.77a.5.5,0,0,1,0,.88l-6.42,3.64a.5.5,0,0,1-.49,0l-2.81-1.63A.5.5,0,0,1,14.27,21.79Z"/></svg>