<svg id="Layer_1" data-name="Layer 1" xmlns="http://www.w3.org/2000/svg" viewBox="0 0 54 49"><defs><style>.cls-1{fill:#5b6973;}.cls-2{fill:#4bb6df;}.cls-3{fill:#fff;}</style></defs><title>icons</title><rect class="cls-1" x="8.73" y="8.12" width="19.04" height="2.42"/><path class="cls-2" d="M13.92,22.82a9.68,9.68,0,1,0,6.84,2.83A9.68,9.68,0,0,0,13.92,22.82Z"/><path class="cls-3" d="M13.92,26.86a5.65,5.65,0,1,0,5.65,5.65h0A5.65,5.65,0,0,0,13.92,26.86Z"/><path class="cls-2" d="M45.14,28.52A6.82,6.82,0,1,0,52,35.34,6.82,6.82,0,0,0,45.14,28.52Z"/><path class="cls-3" d="M45.14,31.88a3.46,3.46,0,1,0,3.46,3.46A3.47,3.47,0,0,0,45.14,31.88Z"/><path class="cls-1" d="M31,31.26h-3.6a.47.47,0,1,0,0,.94H31a.47.47,0,1,0,0-.94Z"/><path class="cls-1" d="M31,34h-3.6a.47.47,0,0,0,0,.94H31A.47.47,0,0,0,31,34Z"/><path class="cls-1" d="M46.07,21A8.64,8.64,0,0,0,40,18.34H32.41V8.94a2.11,2.11,0,0,1,.5-1.36,1.78,1.78,0,0,1,1.36-.49.72.72,0,0,0,0-1.44,3.23,3.23,0,0,0-2.42.92A3.57,3.57,0,0,0,31,9v9.35H30l-1.61-6.69h.35a.73.73,0,0,0,.5-.23.77.77,0,0,0,.15-.75L28.09,7.77a.71.71,0,0,0-.65-.43H9.1a.72.72,0,0,0-.66.43L7.19,10.64a.72.72,0,0,0,.65,1H8.3l-.73,7A15.35,15.35,0,0,0,2,23a.72.72,0,0,0,.12,1l2.4,1.89a.71.71,0,0,0,1-.12,10.77,10.77,0,0,1,19.24,6.73A13.4,13.4,0,0,1,24.41,35l-.48,1.88a.74.74,0,0,0,.14.63.72.72,0,0,0,.56.28h12a.77.77,0,0,0,.56-.27.79.79,0,0,0,.15-.6,7.1,7.1,0,0,1-.16-1.53,7.94,7.94,0,0,1,7.9-7.93h0a7.88,7.88,0,0,1,2.41.38.77.77,0,0,0,.54,0,.71.71,0,0,0,.42-.66A8.61,8.61,0,0,0,46.07,21ZM27,8.75l.63,1.43H9l.63-1.43ZM35.83,36.3H25.56l.25-1a14.94,14.94,0,0,0,.3-2.83A12.18,12.18,0,0,0,4.83,24.32l-1.26-1a13.74,13.74,0,0,1,10.31-4.64h0a14.08,14.08,0,0,1,9.77,4.5,12.27,12.27,0,0,1,1.56,2.28l.07.11c.25.42.48.82.71,1.14a.7.7,0,0,0,.58.3h1.46a.71.71,0,0,0,.71-.72V19.76h11A7.25,7.25,0,0,1,47,26.17,9.7,9.7,0,0,0,45.14,26a9.39,9.39,0,0,0-9.36,9.36C35.78,35.66,35.8,36,35.83,36.3Zm-7.77-18a.73.73,0,0,0-.72.73v6.52H27c-.09-.14-.19-.31-.28-.47l-.21-.36a13.64,13.64,0,0,0-1.78-2.56,16.24,16.24,0,0,0-8.62-4.75V11.6H26.86l1.63,6.71ZM14.67,11.62v5.65l-.23,0-.52,0h0A15.28,15.28,0,0,0,9.08,18l.68-6.39ZM45.14,27.17Z"/></svg>