<svg id="Layer_1" data-name="Layer 1" xmlns="http://www.w3.org/2000/svg" viewBox="0 0 54 49"><defs><style>.cls-1{fill:#5b6973;}.cls-2{fill:#4bb6df;}</style></defs><title>icons</title><path id="head" class="cls-1" d="M21.26,18.16a2.24,2.24,0,1,0-2.15-2.34A2.25,2.25,0,0,0,21.26,18.16Z"/><path id="body" class="cls-1" d="M27.63,27.71l-3.16-.9-.3-2.64h0l-.35-4.25a4.31,4.31,0,0,0,1.93-1.48,4.94,4.94,0,0,0,.63-3.9.75.75,0,0,0-1.44.39,3.48,3.48,0,0,1-.41,2.66,3.9,3.9,0,0,1-3,1.32l-.58,0a3.88,3.88,0,0,1-2.88-1.58,3.5,3.5,0,0,1-.19-2.68.74.74,0,0,0-.45-1,.75.75,0,0,0-1,.44,5,5,0,0,0,.31,4A4.49,4.49,0,0,0,19,19.88l.39,5h0l-1.42,2.44a1,1,0,0,0,.08,1.1l2.43,3.07a1,1,0,0,0,.72.36.92.92,0,0,0,.64-.21A1,1,0,0,0,22,30.25l-2-2.55L21.54,25l.73,0,.36,2.72a1,1,0,0,0,.7.81l3.76,1.07a.62.62,0,0,0,.23,0,1,1,0,0,0,1-.71A1,1,0,0,0,27.63,27.71Z"/><path id="head-2" data-name="head" class="cls-1" d="M34.19,9.61a2.24,2.24,0,1,1,2.15-2.34A2.24,2.24,0,0,1,34.19,9.61Z"/><path id="body-2" data-name="body" class="cls-1" d="M27.83,19.16,31,18.27l.3-2.65h0l.36-4.25A4.24,4.24,0,0,1,29.71,9.9,5,5,0,0,1,29.07,6a.75.75,0,0,1,1.44.39A3.55,3.55,0,0,0,30.93,9a3.92,3.92,0,0,0,3,1.33l.59,0A3.92,3.92,0,0,0,37.4,8.76a3.51,3.51,0,0,0,.19-2.68A.75.75,0,0,1,39,5.57a5,5,0,0,1-.3,3.95,4.46,4.46,0,0,1-2.19,1.81l-.38,5h0l1.43,2.43a1,1,0,0,1-.08,1.1L35,22.91a1,1,0,0,1-.72.37,1,1,0,0,1-.65-.21,1,1,0,0,1-.16-1.37l2-2.55L33.91,16.4l-.73,0-.35,2.72a1,1,0,0,1-.7.81L28.36,21a.83.83,0,0,1-.22,0,1,1,0,0,1-.31-1.91Z"/><path class="cls-2" d="M5.44,9.8l5.39,4.87L2.07,16.24,5.44,9.8m-1-5.93H4.38a.65.65,0,0,0-.52.76l.66,3.69L.09,16.79a.8.8,0,0,0,.07.85A.82.82,0,0,0,.81,18h0L1,18,12.47,15.9a.81.81,0,0,0,.41-1.4L5.79,8.1l-.1-.57L9,6.06a.65.65,0,0,0-.22-1.24L5.17,4.59l0-.18a.64.64,0,0,0-.64-.54Z"/><path class="cls-1" d="M10.13,19.2l3,16.63-5.67,1-3-16.63,5.67-1m.56-1.61h0l-.14,0-7,1.25A.8.8,0,0,0,3,19.2a.82.82,0,0,0-.14.61l3.22,18a.8.8,0,0,0,.34.52.77.77,0,0,0,.46.15H7l7-1.26a.82.82,0,0,0,.66-.94l-3.22-18a.82.82,0,0,0-.8-.67Z"/><path class="cls-2" d="M48.48,9.7l3.44,6.4-8.78-1.47L48.48,9.7m.88-5.94a.65.65,0,0,0-.64.53L48.06,8l-7,6.43a.81.81,0,0,0,.41,1.4l11.54,1.94h.14a.83.83,0,0,0,.66-.34.81.81,0,0,0,0-.86L49.38,8.21A.49.49,0,0,0,49.23,8h0a.44.44,0,0,1,.13.14l.09-.54,3.62-.24a.66.66,0,0,0,.6-.54.65.65,0,0,0-.38-.7L50,4.7l0-.18a.64.64,0,0,0-.53-.75Zm-.23,4.17a.81.81,0,0,0-.33-.14.81.81,0,0,1,.33.14Z"/><path class="cls-1" d="M43.89,19l5.68.95L46.78,36.63l-5.68-1L43.89,19m-.57-1.6h0a.81.81,0,0,0-.8.67l-3,18a.83.83,0,0,0,.67.94l7,1.18h.14a.84.84,0,0,0,.46-.15.8.8,0,0,0,.33-.53l3-18a.81.81,0,0,0-.66-.93l-7-1.18Z"/><g id="base"><path class="cls-2" d="M47.2,39.71a127.48,127.48,0,0,0-39.89.22.81.81,0,0,0-.68.93L7,43l.25,1.56a.84.84,0,0,0,.33.53.83.83,0,0,0,.48.15h.12A122.08,122.08,0,0,1,46.39,45h.13a.81.81,0,0,0,.8-.69l.28-1.85.29-1.85A.82.82,0,0,0,47.2,39.71Z"/><path class="cls-2" d="M37.37,33.58a.76.76,0,0,0-.53-.32,60.73,60.73,0,0,0-9.62-.71,61.93,61.93,0,0,0-9.62.81.84.84,0,0,0-.53.33.77.77,0,0,0-.14.61l.09.54.31,1.92a.82.82,0,0,0,.81.68h.12a57.15,57.15,0,0,1,18-.1h.13a.8.8,0,0,0,.79-.69l.3-1.93.08-.54A.8.8,0,0,0,37.37,33.58Z"/></g></svg>