<svg id="Layer_1" data-name="Layer 1" xmlns="http://www.w3.org/2000/svg" viewBox="0 0 54 49"><defs><style>.cls-1{fill:#5b6973;}.cls-2{fill:#4bb6df;}</style></defs><title>icons</title><path class="cls-1" d="M13.39,29.83V47H1.5V29.83H13.39m.5-1.5H1a1,1,0,0,0-1,1V47.52a1,1,0,0,0,1,1H13.89a1,1,0,0,0,1-1V29.33a1,1,0,0,0-1-1Z"/><path class="cls-1" d="M13.39,1.86V24.58H1.5V1.86H13.39m.5-1.5H1a1,1,0,0,0-1,1V25.08a1,1,0,0,0,1,1H13.89a1,1,0,0,0,1-1V1.36a1,1,0,0,0-1-1Z"/><rect class="cls-1" x="11.55" y="30.59" width="0.96" height="2.82"/><rect class="cls-1" x="11.55" y="21.29" width="0.96" height="2.82"/><path class="cls-1" d="M29.29,1.86V24.58H17.4V1.86H29.29m.5-1.5H16.9a1,1,0,0,0-1,1V25.08a1,1,0,0,0,1,1H29.79a1,1,0,0,0,1-1V1.36a1,1,0,0,0-1-1Z"/><rect class="cls-1" x="27.57" y="21.29" width="0.96" height="2.82"/><path class="cls-2" d="M29.29,35.69V47H17.4V35.69H29.29m.5-1.5H16.9a1,1,0,0,0-1,1V47.52a1,1,0,0,0,1,1H29.79a1,1,0,0,0,1-1V35.19a1,1,0,0,0-1-1Z"/><rect class="cls-2" x="21.94" y="37.89" width="2.82" height="0.96"/><path class="cls-2" d="M29.29,29.83V32H17.4V29.83H29.29m.5-1.5H16.9a1,1,0,0,0-1,1v3.19a1,1,0,0,0,1,1H29.79a1,1,0,0,0,1-1V29.33a1,1,0,0,0-1-1Z"/><rect class="cls-2" x="21.94" y="30.31" width="2.82" height="0.96"/><path class="cls-1" d="M52.5,29.83V47.14H33.39V29.83H52.5m.5-1.5H32.89a1,1,0,0,0-1,1V47.64a1,1,0,0,0,1,1H53a1,1,0,0,0,1-1V29.33a1,1,0,0,0-1-1Z"/><path class="cls-1" d="M45.7,1.86v9.3H39.91V1.86H45.7m.5-1.5H39.41a1,1,0,0,0-1,1v10.3a1,1,0,0,0,1,1H46.2a1,1,0,0,0,1-1V1.36a1,1,0,0,0-1-1Z"/><path class="cls-2" d="M46.9,15l3.27,3H35.65l3.19-3H46.9m.36-1.5H38.47a.59.59,0,0,0-.4.16L33,18.55a.59.59,0,0,0,.41,1H52.5a.59.59,0,0,0,.4-1L47.66,13.7a.61.61,0,0,0-.4-.16Z"/><path class="cls-2" d="M49.87,36v8.61H36V36H49.87m.47-1.5H35.55a1,1,0,0,0-1,1v9.55a1,1,0,0,0,1,1H50.34a1,1,0,0,0,1-1V35.57a1,1,0,0,0-1-1Z"/><rect class="cls-2" x="35" y="31.51" width="16.13" height="0.83"/></svg>