<svg id="Layer_1" data-name="Layer 1" xmlns="http://www.w3.org/2000/svg" viewBox="0 0 54 49"><defs><style>.cls-1{fill:none;stroke:#4bb6df;stroke-linecap:round;stroke-linejoin:round;}.cls-2{fill:#5b6973;}</style></defs><title>icons</title><path class="cls-1" d="M52.74,17.23l-.71.18a.52.52,0,0,1-.57-.24,7.66,7.66,0,0,0-2.9-2.7.53.53,0,0,0-.71.25L47,16.52l-.85-.38L44.87,19a.49.49,0,0,0,.05.52,1.23,1.23,0,0,1,.15,1.28L45,21H40a.53.53,0,0,1-.48-.74l.72-1.59a1.24,1.24,0,0,1,1.07-.73.48.48,0,0,0,.42-.3l1.32-2.9-.84-.38.57-1.26a.56.56,0,0,0-.09-.58A6,6,0,0,0,40.58,11l-.3.67-2.22-1a.52.52,0,0,1-.26-.69l1.57-3.48a.53.53,0,0,1,.7-.26l2.22,1L42,7.88a6.1,6.1,0,0,0,2.91.59c5.23-.08,7.77,4.92,8.25,8.18A.53.53,0,0,1,52.74,17.23Z"/><path class="cls-1" d="M35.79,21H31.46a.51.51,0,0,1-.5-.42l-.18-1.11-.24,0a.7.7,0,0,1-.79-.57l-.1-.62a.68.68,0,0,1,.57-.79l.24,0,1.09-.17a.51.51,0,0,0,.42-.58L30.79,9.2a.5.5,0,0,0-.29-.38A.82.82,0,0,1,30,8l.16-2.14a.5.5,0,0,1,.42-.46l1.26-.2a.49.49,0,0,1,.54.3l.82,2a.83.83,0,0,1-.24,1,.47.47,0,0,0-.13.43L34,16.39a.51.51,0,0,0,.58.41l1.09-.17.24,0a.69.69,0,0,1,.79.57l.1.62a.69.69,0,0,1-.57.79l-.24,0,.29,1.79A.51.51,0,0,1,35.79,21Z"/><path class="cls-1" d="M20.23,11.35,20,7.63,17.83,5.76a.37.37,0,0,0-.61.3l.22,3.2-1.81,1-1.92-.7L13.5,6.32a.37.37,0,0,0-.65-.22L11,8.24,11.24,12l2.81,2.45L14.5,21h3.74l-.47-6.82Z"/><path class="cls-1" d="M25.3,11.36a3.43,3.43,0,0,0-2.81,5.94L21.92,21H25.7l.48-3.1a3.43,3.43,0,0,0-.88-6.52Zm.84,3.44a1.36,1.36,0,1,1-2.68-.41,1.36,1.36,0,0,1,2.68.41Z"/><path class="cls-1" d="M10.24,19.81,11,18.48l-1.49-.33.74-1.34-1.49-.32.73-1.34L8,14.82l.73-1.33-1.48-.33.72-1.34-1.48-.33.73-1.33L5.7,9.83l.73-1.34L5,8.16l.73-1.33L4.2,6.5a.66.66,0,0,0-.28,0l-2.53.55a.67.67,0,0,0-.5.78L3.67,20.47A.64.64,0,0,0,4.3,21h7l.46-.84Z"/><path class="cls-2" d="M48.14,24.2v4.71H1.5V24.2H48.14m.5-1.5H1a1,1,0,0,0-1,1v5.71a1,1,0,0,0,1,1H48.64a1,1,0,0,0,1-1V23.7a1,1,0,0,0-1-1Z"/><path class="cls-2" d="M48.14,33.38v4.71H1.5V33.38H48.14m.5-1.5H1a1,1,0,0,0-1,1v5.71a1,1,0,0,0,1,1H48.64a1,1,0,0,0,1-1V32.88a1,1,0,0,0-1-1Z"/><path class="cls-2" d="M48.14,42.56v4.71H1.5V42.56H48.14m.5-1.5H1a1,1,0,0,0-1,1v5.71a1,1,0,0,0,1,1H48.64a1,1,0,0,0,1-1V42.06a1,1,0,0,0-1-1Z"/><path class="cls-2" d="M3.52,25.31a1.25,1.25,0,1,0,1.25,1.24,1.24,1.24,0,0,0-1.25-1.24Z"/><path class="cls-2" d="M46.12,25.31a1.25,1.25,0,0,0,0,2.49,1.25,1.25,0,1,0,0-2.49Z"/><path class="cls-2" d="M46.12,34.49a1.25,1.25,0,1,0,1.25,1.24,1.24,1.24,0,0,0-1.25-1.24Z"/><path class="cls-2" d="M3.52,34.49a1.25,1.25,0,1,0,1.25,1.24,1.25,1.25,0,0,0-1.25-1.24Z"/><path class="cls-2" d="M46.12,43.67a1.25,1.25,0,1,0,1.25,1.25,1.24,1.24,0,0,0-1.25-1.25Z"/><path class="cls-2" d="M3.52,43.67a1.25,1.25,0,1,0,1.25,1.25,1.25,1.25,0,0,0-1.25-1.25Z"/></svg>