<svg id="Layer_1" data-name="Layer 1" xmlns="http://www.w3.org/2000/svg" viewBox="0 0 54 49"><defs><style>.cls-1{fill:#5b6973;}.cls-2{fill:#4bb6df;}</style></defs><title>icons</title><path class="cls-1" d="M29.8,23.45a1.31,1.31,0,0,1,.3,0,.71.71,0,0,1,.3.13.63.63,0,0,1,0,.2,1.4,1.4,0,0,1,0,.25h0a2.65,2.65,0,0,0-2.91,2.86V27a67.45,67.45,0,0,1-1.17,8c-.27,1.5-.48,2.69-.56,3.31-.15,1.26-.37,2.55-.58,3.8-.14.87-.29,1.73-.42,2.6-.2,1.36-.52,1.67-1.91,1.89a23,23,0,0,1-3.5.22l-1.79,0-1.84,0h-.3l-1.33,0-1.6,0a20.3,20.3,0,0,1-3.19-.21c-1.54-.26-1.78-.71-1.92-1.63-.5-3.12-1-6.24-1.43-9.37l-.34-2.23c-.1-.66-.81-5.57-.87-6.2V27a3,3,0,0,0-3.06-3,.45.45,0,0,1,0-.18c0-.11,0-.17.27-.31a.78.78,0,0,1,.35,0H29.8m0-1.5H2.21a2.15,2.15,0,0,0-1,.21A1.77,1.77,0,0,0,.09,23.85c0,.86.52,1.63,1.29,1.63h0c1.28,0,1.66.62,1.8,1.69,0,.37.86,6.2.89,6.38.58,3.87,1.16,7.75,1.76,11.61C6.12,46.92,7.05,47.72,9,48a22,22,0,0,0,3.43.23c1,0,2,0,2.94,0h.29c1.21,0,2.42,0,3.63,0A24.51,24.51,0,0,0,23,48c2.06-.32,2.87-1.15,3.17-3.15.31-2.15.74-4.28,1-6.43.22-1.79,1.83-9.52,1.74-11.53,0-1,.4-1.35,1.44-1.37a1.57,1.57,0,0,0,1.54-1.71A1.71,1.71,0,0,0,30.47,22,2.5,2.5,0,0,0,29.8,22Z"/><path class="cls-2" d="M37.11,39.3C36,40.09,35,40.89,33.9,41.64c-.44.3-1,.52-1.42,0s.26-.86.58-1.21,1.12-.68,1.37-1.48c-.88,0-1.43.65-2.15.76-.35.06-.83.23-1-.15s.18-.71.47-.92c.95-.7,1.93-1.35,2.89-2a3.53,3.53,0,0,0,.93-.88c-.93-.16-1.45.53-2.15.8-1,.37-1.93,1-3.09.73-.38-.09-.79-.21-.83-.64s.44-.58.77-.68a13.22,13.22,0,0,0,2.42-.74c2.59-1.29,3.84-3.62,4.56-6.2a2.63,2.63,0,0,1,2.72-2.24A4.15,4.15,0,0,0,41,26.63a1.91,1.91,0,0,1,2.46.92,15,15,0,0,0,9,6l.68.18c.4.11.92.11.85.72s-.48.67-.91.75a8.84,8.84,0,0,1-4.46-.39,15.94,15.94,0,0,0,3.19,3.36c.55.45,1.08.92,1.58,1.41a.63.63,0,0,1,.21.77c-.16.29-.46.29-.74.3a2,2,0,0,1-1.38-.63c-1-.87-2.11-1.72-3.49-2.85A30.28,30.28,0,0,0,49.83,42c.14.31.34.58.46.88.3.77.65,1.74-.27,2.13s-1-.72-1.42-1.24c-.24-.33-.25-.82-.81-1.08-.16.9.31,1.66.33,2.46,0,.48.17,1-.47,1.15s-.88-.2-1.12-.64a20.67,20.67,0,0,1-1.29-3.74,4.52,4.52,0,0,0-.62-1.42c0,1,0,2,0,3a6.72,6.72,0,0,1-.07,1.27c-.08.41-.23.9-.77.85s-.55-.53-.55-1c0-1,0-2,0-3.48-.86,1-.59,2-.83,2.78a6.5,6.5,0,0,1-1,2.59c-.38.43-.78,1.18-1.48.75s-.34-1.13,0-1.66a13.2,13.2,0,0,0,1.25-3.3,2.5,2.5,0,0,0,0-1.33c-.51.9-1,1.8-1.54,2.69a5.22,5.22,0,0,1-1.6,1.77c-.38.26-.78.38-1.15,0s-.09-.76.2-1.09a17.59,17.59,0,0,0,2.66-4.71c-1.11,1.06-1.95,1.89-2.82,2.68a8.92,8.92,0,0,1-1.35,1,.75.75,0,0,1-1-.24c-.3-.41-.06-.69.29-.93A11.41,11.41,0,0,0,36.93,40C37.1,39.82,37.38,39.62,37.11,39.3Z"/><path class="cls-2" d="M22.05,15.71c-1.14-2.79-3.47-3.32-6-3.35a6.57,6.57,0,0,0-6.34,3.5c-.43.81-.64.95-1.47.4a3.89,3.89,0,0,0-6.2,2.53c-.2,1-.78.84-1.41.86-.92,0-.63-.63-.58-1.08C.39,15.47,4,12.85,7,13.63a2.34,2.34,0,0,0,2.64-.76A9.75,9.75,0,0,1,22,12.26a1.87,1.87,0,0,0,1.89.43c4.52-1.06,8.15,1.91,7.73,6.21-.08.78-.48.78-1,.75s-.87.12-1-.63C28.91,14.29,26.25,13.11,22.05,15.71Z"/><path class="cls-1" d="M42.42,24.6c-1.36.3-2.7.53-4,.89-.71.2-1,0-1-.66a3,3,0,0,1,0-1.26c1-2.67,0-5.19-.47-7.75-.21-1.2-.5-2.39-.75-3.59-.18-.86-.14-1.74.92-1.85s1.23.77,1.29,1.55a44.81,44.81,0,0,0,.59,4.47,10.36,10.36,0,0,0,2,4.92A7.37,7.37,0,0,1,42.42,24.6Z"/><path class="cls-2" d="M24.53,4a3.17,3.17,0,0,0-3.11,3.19,3.21,3.21,0,0,0,6.41,0A3.17,3.17,0,0,0,24.53,4Zm.08,5.12a2,2,0,0,1-1.9-1.9,1.91,1.91,0,0,1,1.86-2.06,1.89,1.89,0,0,1,2,1.94A2,2,0,0,1,24.61,9.14Z"/><path class="cls-2" d="M17.41.73a2.65,2.65,0,0,0-2.63,2.76A2.54,2.54,0,0,0,17.41,6a2.59,2.59,0,0,0,2.66-2.56A2.73,2.73,0,0,0,17.41.73Zm0,4.32a1.58,1.58,0,0,1-1.67-1.56,1.55,1.55,0,0,1,1.52-1.7A1.68,1.68,0,0,1,19.07,3.4,1.74,1.74,0,0,1,17.45,5.05Z"/></svg>