<svg id="Layer_1" data-name="Layer 1" xmlns="http://www.w3.org/2000/svg" viewBox="0 0 54 49"><defs><style>.cls-1{fill:#5b6973;}.cls-2{fill:#4bb6df;}</style></defs><title>icons</title><rect class="cls-1" x="25.99" y="30.05" width="1.67" height="2.87"/><path class="cls-2" d="M38.14,12.12,34,6.27A.57.57,0,0,0,33.51,6H20.14a.54.54,0,0,0-.44.23l-4.18,5.85a.51.51,0,0,0-.1.32V25c0,1.54,2,5.56,11.41,5.56s11.41-4,11.41-5.56V12.44A.58.58,0,0,0,38.14,12.12Zm-1,.49V25a3.64,3.64,0,0,1-1.9,2.57c-1.3.87-3.81,1.9-8.42,1.9s-7.13-1-8.43-1.9A3.64,3.64,0,0,1,16.5,25V12.61l3.92-5.48H33.23Z"/><path class="cls-2" d="M34.35,7h-15a.42.42,0,0,1,0-.83H34.35a.42.42,0,1,1,0,.83Z"/><path class="cls-2" d="M34.35,7.13h-15A.55.55,0,0,1,19.3,6H34.35a.55.55,0,0,1,0,1.09Zm-15-.84a.3.3,0,0,0,0,.59H34.35a.3.3,0,0,0,0-.59Z"/><path class="cls-2" d="M36,12.86H17.63a.42.42,0,1,1,0-.84H36a.42.42,0,1,1,0,.84Z"/><path class="cls-2" d="M36,13H17.63a.54.54,0,0,1-.54-.54.55.55,0,0,1,.54-.55H36a.55.55,0,0,1,.54.55A.54.54,0,0,1,36,13Zm-18.39-.84a.3.3,0,0,0-.29.3.29.29,0,0,0,.29.29H36a.29.29,0,0,0,.29-.29.3.3,0,0,0-.29-.3Z"/><path class="cls-1" d="M10.11,41.15A3.89,3.89,0,1,0,14,45,3.89,3.89,0,0,0,10.11,41.15Zm0,6.69a2.8,2.8,0,1,1,2.8-2.8A2.8,2.8,0,0,1,10.11,47.84Z"/><path class="cls-1" d="M10.11,43.66A1.38,1.38,0,1,0,11.49,45,1.38,1.38,0,0,0,10.11,43.66Zm0,1.67a.29.29,0,1,1,0-.58.29.29,0,0,1,0,.58Z"/><path class="cls-1" d="M8,28.7a.49.49,0,0,0,.16-.38v-.84a.54.54,0,0,0-1.08,0v.3H5.64v-.3a.55.55,0,0,0-.55-.54.54.54,0,0,0-.54.54v.3H3.13v-.3a.55.55,0,0,0-.55-.54.54.54,0,0,0-.54.54v.3H1.46v-7c0-.15.09-3.64,6.14-3.64a.54.54,0,0,0,.54-.54.55.55,0,0,0-.54-.55C.45,16.07.37,20.75.37,20.8v7.52a.54.54,0,0,0,.54.54H7.6A.49.49,0,0,0,8,28.7Z"/><path class="cls-2" d="M7.07,21.09H2.53a.49.49,0,0,0-.49.49v2.27a.49.49,0,0,0,.49.49H7.07a.49.49,0,0,0,.49-.49V21.58A.49.49,0,0,0,7.07,21.09Z"/><path class="cls-1" d="M46.05,47.84H44.88a.5.5,0,0,1-.5-.5V16.7a.5.5,0,0,0-.5-.5h-.67a.5.5,0,0,0-.5.5V34.51a.5.5,0,0,1-.5.5H11.44a.51.51,0,0,1-.5-.5V16.7a.5.5,0,0,0-.5-.5H9.77a.5.5,0,0,0-.5.5V40.05a.51.51,0,0,0,.5.5h.67a.5.5,0,0,0,.5-.5V37.18a.5.5,0,0,1,.5-.5H42.21a.5.5,0,0,1,.5.5V47.34a.5.5,0,0,1-.5.5H41a.55.55,0,0,0-.55.54.55.55,0,0,0,.55.55h5a.55.55,0,0,0,.55-.55A.55.55,0,0,0,46.05,47.84Z"/><path class="cls-1" d="M53.79,9.22v-.6a.5.5,0,0,0-.5-.5H46.38V16.2h-.83v.42h0v1.67h0v.42h3.34V16.2H48v-6a.5.5,0,0,1,.5-.5h4.81A.51.51,0,0,0,53.79,9.22Z"/><path class="cls-1" d="M12.21,18.83h.41V32.92H41V18.83h.42V16.7a.5.5,0,0,0-.5-.5H39.45a.5.5,0,0,0-.5.5v.55a.51.51,0,0,1-.5.5H15.2a.51.51,0,0,1-.5-.5V16.7a.5.5,0,0,0-.5-.5H12.7a.5.5,0,0,0-.5.5v2.13Zm2.58,0H38.87a.5.5,0,0,1,.5.5V30.75a.51.51,0,0,1-.5.5H14.79a.5.5,0,0,1-.5-.5V19.33A.5.5,0,0,1,14.79,18.83Z"/></svg>