<svg id="Layer_1" data-name="Layer 1" xmlns="http://www.w3.org/2000/svg" viewBox="0 0 133.5 49"><defs><style>.cls-1,.cls-3{fill:#4bb6df;}.cls-2{fill:#5b6973;}.cls-3{stroke:#4bb6df;stroke-miterlimit:10;stroke-width:0.5px;}</style></defs><title>icons</title><path class="cls-1" d="M49.83,13a1.08,1.08,0,0,1,1.08,1.08V39.91A1.08,1.08,0,0,1,49.83,41H23.73a1.07,1.07,0,0,1-1.07-1.08V14.05A1.08,1.08,0,0,1,23.73,13h26.1m0-1.5H23.73a2.58,2.58,0,0,0-2.57,2.58V39.91a2.58,2.58,0,0,0,2.57,2.58h26.1a2.59,2.59,0,0,0,2.58-2.58V14.05a2.59,2.59,0,0,0-2.58-2.58Z"/><path class="cls-2" d="M127.57,5.32V47.47H5.47V5.32h122.1m.5-1.5H5a1,1,0,0,0-1,1V48a1,1,0,0,0,1,1h123.1a1,1,0,0,0,1-1V4.82a1,1,0,0,0-1-1Z"/><path class="cls-1" d="M43.39,24.34A4.34,4.34,0,1,1,47.73,20,4.34,4.34,0,0,1,43.39,24.34Zm0-7.3a3,3,0,1,0,3,3A3,3,0,0,0,43.39,17Z"/><path class="cls-1" d="M43.39,22.52A2.52,2.52,0,1,1,45.9,20,2.52,2.52,0,0,1,43.39,22.52Zm0-3.65A1.14,1.14,0,1,0,44.52,20,1.14,1.14,0,0,0,43.39,18.87Z"/><path class="cls-1" d="M30.81,24.34A4.34,4.34,0,1,1,35.15,20,4.35,4.35,0,0,1,30.81,24.34Zm0-7.3a3,3,0,1,0,3,3A3,3,0,0,0,30.81,17Z"/><path class="cls-1" d="M30.81,22.52A2.52,2.52,0,1,1,33.33,20,2.52,2.52,0,0,1,30.81,22.52Zm0-3.65A1.14,1.14,0,1,0,32,20,1.13,1.13,0,0,0,30.81,18.87Z"/><path class="cls-1" d="M43.39,34.51a4.34,4.34,0,1,1,4.34-4.34A4.34,4.34,0,0,1,43.39,34.51Zm0-7.3a3,3,0,1,0,3,3A3,3,0,0,0,43.39,27.21Z"/><path class="cls-1" d="M43.39,32.69a2.52,2.52,0,1,1,2.51-2.52A2.52,2.52,0,0,1,43.39,32.69Zm0-3.66a1.14,1.14,0,1,0,1.13,1.14A1.14,1.14,0,0,0,43.39,29Z"/><path class="cls-1" d="M30.81,34.51a4.34,4.34,0,1,1,4.34-4.34A4.35,4.35,0,0,1,30.81,34.51Zm0-7.3a3,3,0,1,0,3,3A3,3,0,0,0,30.81,27.21Z"/><path class="cls-1" d="M30.81,32.69a2.52,2.52,0,1,1,2.52-2.52A2.52,2.52,0,0,1,30.81,32.69Zm0-3.66A1.14,1.14,0,1,0,32,30.17,1.13,1.13,0,0,0,30.81,29Z"/><circle class="cls-1" cx="39.62" cy="37.43" r="1.71" transform="translate(0.41 75.29) rotate(-87.37)"/><circle class="cls-1" cx="44.88" cy="37.43" r="1.71" transform="translate(5.42 80.55) rotate(-87.37)"/><circle class="cls-1" cx="29.1" cy="37.43" r="1.71" transform="translate(-9.63 64.79) rotate(-87.37)"/><circle class="cls-1" cx="34.36" cy="37.43" r="1.71" transform="translate(-4.61 70.04) rotate(-87.37)"/><path class="cls-3" d="M111.8,11.69H88L86.11,8.77a2.33,2.33,0,0,0-3.26-.68,2.3,2.3,0,0,0-1.08,1.83h0v1.83H57.29a2.65,2.65,0,0,0-2.64,2.65V39.82a2.64,2.64,0,0,0,2.64,2.64H111.8a2.64,2.64,0,0,0,2.64-2.64V14.33A2.6,2.6,0,0,0,111.8,11.69ZM83.6,9.18A1,1,0,0,1,85,9.45L93,21.92a1,1,0,0,1-.27,1.36,1,1,0,0,1-.75.13,1,1,0,0,1-.61-.4l-6.23-9.63-1.83-2.85a.93.93,0,0,1-.14-.47v-.2A.75.75,0,0,1,83.6,9.18ZM83.12,13h.14l.68,1.09,1.76,2.71a1.33,1.33,0,0,1-1.29.95,1.29,1.29,0,0,1-1.29-1.29Zm4.41,7.66a4.45,4.45,0,0,1,.14-.95l2.57,4a2.31,2.31,0,0,0,1.49,1,1.15,1.15,0,0,0,.48.07,2.27,2.27,0,0,0,1.29-.41,2.31,2.31,0,0,0,.67-3.25L91,16.3a5.11,5.11,0,0,1,1-.14h12.27a4.55,4.55,0,0,1,4.55,4.54V33.38a4.55,4.55,0,0,1-4.55,4.54H92.07a4.54,4.54,0,0,1-4.54-4.54Zm25.56,19.05A1.29,1.29,0,0,1,111.8,41H57.29A1.28,1.28,0,0,1,56,39.75V14.33A1.28,1.28,0,0,1,57.29,13H81.77v3.39a2.65,2.65,0,0,0,2.64,2.65,2.74,2.74,0,0,0,2.1-1l.14.2a5.85,5.85,0,0,0-.54,2.44V33.38A5.9,5.9,0,0,0,92,39.28h12.27a5.9,5.9,0,0,0,5.9-5.9V20.7a5.9,5.9,0,0,0-5.9-5.89H92.07a5.53,5.53,0,0,0-1.83.27L88.89,13H111.8a1.29,1.29,0,0,1,1.29,1.29Z"/><path class="cls-3" d="M93.77,33a3.37,3.37,0,1,0-3.37-3.37A3.32,3.32,0,0,0,93.77,33Zm0-5.67a2.25,2.25,0,1,1-2.25,2.25A2.19,2.19,0,0,1,93.77,27.35Z"/><path class="cls-3" d="M78.31,18.06H62.24a.68.68,0,0,0,0,1.35H78.31a.64.64,0,0,0,.68-.67A.68.68,0,0,0,78.31,18.06Z"/><path class="cls-3" d="M78.31,22.19H62.24a.68.68,0,0,0,0,1.36H78.31a.64.64,0,0,0,.68-.68A.69.69,0,0,0,78.31,22.19Z"/><path class="cls-3" d="M78.31,26.4H62.24a.68.68,0,0,0,0,1.35H78.31a.64.64,0,0,0,.68-.67A.68.68,0,0,0,78.31,26.4Z"/><path class="cls-3" d="M78.31,30.53H62.24a.68.68,0,0,0,0,1.36H78.31a.64.64,0,0,0,.68-.68A.68.68,0,0,0,78.31,30.53Z"/><path class="cls-3" d="M78.31,34.67H62.24a.68.68,0,0,0,0,1.35H78.31a.64.64,0,0,0,.68-.67A.68.68,0,0,0,78.31,34.67Z"/><path class="cls-3" d="M101.9,20.7a2.51,2.51,0,0,1,2.51,2.51.68.68,0,0,0,1.36,0,3.86,3.86,0,0,0-3.87-3.86.64.64,0,0,0-.68.68A.68.68,0,0,0,101.9,20.7Z"/><path class="cls-3" d="M105.16,30.74a.64.64,0,0,0-.75.54,2.45,2.45,0,0,1-2,2.1.72.72,0,0,0-.55.81.67.67,0,0,0,.68.55h.14a3.77,3.77,0,0,0,3.12-3.26A.68.68,0,0,0,105.16,30.74Z"/></svg>