<?xml version="1.0" encoding="utf-8"?>
<!-- Generator: Adobe Illustrator 18.1.1, SVG Export Plug-In . SVG Version: 6.00 Build 0)  -->
<!DOCTYPE svg PUBLIC "-//W3C//DTD SVG 1.1//EN" "http://www.w3.org/Graphics/SVG/1.1/DTD/svg11.dtd">
<svg version="1.1" id="Layer_1" xmlns="http://www.w3.org/2000/svg" xmlns:xlink="http://www.w3.org/1999/xlink" x="0px" y="0px"
	 viewBox="0 0 54 49" enable-background="new 0 0 54 49" xml:space="preserve">
<g>
	<path fill="#00A9DE" d="M39.8,5.9c0.1-0.3,0.2-0.7,0.3-0.9c0.4-1.2,1.5-2,2.6-2c1.2,0,2.3,0.8,2.6,2.1c0.2,1,0.2,2,0.2,3
		c0,0.5,0.2,0.7,0.6,0.9c2.1,0.9,4.1,1.9,6.2,2.9c1.5,0.7,2.1,2.1,1.7,3.5c-0.5,1.5-2.1,2.4-3.6,1.8c-1.6-0.6-3.2-1.4-4.7-2.2
		C39.4,12,33.2,9.1,27.1,6.2c-0.4-0.2-0.7-0.2-1,0c-7.2,3.6-14.4,7.1-21.6,10.6c-1.1,0.6-2.3,0.7-3.3-0.1c-1.6-1.2-1.5-3.6,0.2-4.6
		c0.8-0.5,1.7-0.9,2.6-1.3c7-3.4,14-6.9,21-10.3c1.2-0.6,2.2-0.6,3.4,0c3.6,1.8,7.3,3.5,11,5.2C39.4,5.7,39.6,5.8,39.8,5.9z"/>
	<path fill="#596A74" d="M45,17c-6.1-2.8-12.2-5.6-18.3-8.4c-0.2-0.1-0.5-0.1-0.8,0c-6.1,3-12.2,5.9-18.4,8.9
		c-0.3,0.2-0.4,0.3-0.4,0.7c0,7,0,13.9,0,20.9c0,1.2,0.2,2.3,0.7,3.4c0.3,0.6,0.7,1.3,1.3,1.4c0.9,0.1,1.9,0,2.9,0
		c0-0.3,0-0.5,0-0.7c0-4.5,0-9,0-13.4c0-1,0.3-1.3,1.3-1.3c2.5,0,5,0,7.5,0c1.1,0,1.4,0.2,1.4,1.4c0,4.4,0,8.9,0,13.3
		c0,0.2,0,0.5,0,0.8c0.3,0,0.4,0,0.6,0c5.8,0,11.6,0,17.4,0c0.5,0,1,0,1.5-0.2c2.3-0.6,3.7-2.4,3.7-4.8c0-7.1,0-14.2,0-21.3
		C45.5,17.3,45.3,17.1,45,17z M29.4,29.4c0-0.5,0.3-0.9,0.9-0.9c0.4,0,0.9,0,1.3,0c0.4,0,0.9,0,1.3,0c0.6,0,0.9,0.3,0.9,0.9
		c0,0.9,0,1.8,0,2.7c0,0.5-0.3,0.9-0.8,0.9c-0.9,0-1.8,0-2.7,0c-0.5,0-0.9-0.4-0.9-0.9C29.4,31.1,29.4,30.3,29.4,29.4z M33.8,37.7
		c0,0.5-0.3,0.9-0.8,0.9c-0.9,0-1.8,0-2.8,0c-0.5,0-0.8-0.4-0.8-0.9c0-0.9,0-1.7,0-2.6c0-0.5,0.3-0.9,0.9-0.9c0,0,0.1,0,0.1,0
		c0.4,0,0.8,0,1.2,0c0,0,0,0,0,0c0.4,0,0.8,0,1.2,0c0.6,0,0.9,0.3,0.9,0.9C33.8,35.9,33.8,36.8,33.8,37.7z M39.5,37.7
		c0,0.5-0.4,0.8-0.9,0.8c-0.9,0-1.8,0-2.6,0c-0.6,0-0.9-0.4-0.9-1c0-0.8,0-1.6,0-2.5c0-0.6,0.4-1,1-1c0.1,0,0.2,0,0.3,0
		c0.3,0,0.6,0,0.9,0c0.4,0,0.8,0,1.2,0c0.6,0,0.9,0.3,0.9,0.8C39.5,35.9,39.5,36.8,39.5,37.7z M39.5,32c0,0.5-0.4,0.9-0.9,0.9
		c-0.9,0-1.7,0-2.6,0c-0.6,0-0.9-0.4-0.9-1c0-0.8,0-1.6,0-2.5c0-0.6,0.4-0.9,1-1c0.4,0,0.8,0,1.2,0c0,0,0,0,0,0c0.4,0,0.8,0,1.2,0
		c0.6,0,1,0.3,1,0.9C39.6,30.3,39.5,31.2,39.5,32z"/>
</g>
</svg>
