<svg id="Layer_1" data-name="Layer 1" xmlns="http://www.w3.org/2000/svg" viewBox="0 0 54 49"><defs><style>.cls-1{fill:#4bb6df;}.cls-2,.cls-3{fill:#5b6973;}.cls-3{stroke:#fff;stroke-miterlimit:10;}</style></defs><title>icons</title><path class="cls-1" d="M16.86,27.08a6,6,0,0,1,.63-.6,5,5,0,0,0,1.44-2.62,15.09,15.09,0,0,0,.25-1.64,7.53,7.53,0,0,1,.72-2.8,5.75,5.75,0,0,1,1.49-1.77,11.76,11.76,0,0,1,2.1-1.32,21.9,21.9,0,0,1,2.06-.87.61.61,0,0,1,.68.22c.23.31.45.63.69.94a4.34,4.34,0,0,0,1.32,1.13c.27.16.54.32.8.49a.49.49,0,0,1,.26.55,2.88,2.88,0,0,0,0,.65,10.8,10.8,0,0,1-.51,3.14,5.34,5.34,0,0,1-1.56,2.32,7,7,0,0,1-2.47,1.3,14.62,14.62,0,0,1-2.36.52c-.61.09-1.22.15-1.83.2-.43,0-.86,0-1.28.08-.69.06-1.38,0-2.07,0,0,0-.09,0-.12,0Z"/><path class="cls-2" d="M27.14,14.14c0-.16.09-.31.2-.47L28.9,11.5,31,8.59c.35-.48.7-1,1-1.45A.68.68,0,0,1,33.09,7c1.26,1.28,2.54,2.55,3.81,3.82a.6.6,0,0,1,0,1c-.5.37-1,.72-1.52,1.08l-3.49,2.46-1.76,1.24a.73.73,0,0,1-.63.06,3,3,0,0,1-1-.61,4,4,0,0,1-.85-.9A1.72,1.72,0,0,1,27.14,14.14Z"/><path class="cls-3" d="M21.11,39H32.94c.2,1.22.35,2.43.63,3.6a23,23,0,0,0,1,2.79,1.58,1.58,0,0,0,.94,1,1.12,1.12,0,0,1,.58,1.35,1.22,1.22,0,0,1-1.24.9H19.31c-.79,0-1.29-.36-1.39-1s.21-1.15,1-1.44a1.11,1.11,0,0,0,.46-.45,14.51,14.51,0,0,0,1.53-5C21,40.2,21,39.6,21.11,39Z"/><path class="cls-3" d="M54,2.51A1.9,1.9,0,0,0,51.85.36H2.15A1.9,1.9,0,0,0,0,2.48V35.41a2,2,0,0,0,2.16,2.14H51.8A2.11,2.11,0,0,0,54,35.37Q54,18.95,54,2.51ZM51.23,30.57H2.77V3.12H51.23Z"/></svg>