<svg id="Layer_1" data-name="Layer 1" xmlns="http://www.w3.org/2000/svg" viewBox="0 0 54 49"><defs><style>.cls-1{fill:#4bb6df;}.cls-2{fill:#5b6973;}</style></defs><title>icons</title><path class="cls-1" d="M10.85,20.9c0,.22,0,.44,0,.67.06.91.11,1.82.17,2.74.22,3.26,2,4.91,5.21,4.93H21l5.07,0c.42.8.86,1.6,1.3,2.39s.95,1.72,1.39,2.58a10.94,10.94,0,0,1-8.32,5.41,2.5,2.5,0,0,0-.51.13H18.19l-.89-.21a15,15,0,0,1-2-.54A10.72,10.72,0,0,1,8,30a10.51,10.51,0,0,1,2.83-9M12.08,18a1.44,1.44,0,0,0-.25.07,1.61,1.61,0,0,0-.3.21,12.26,12.26,0,0,0-5,11.89,12.24,12.24,0,0,0,8.22,10.24,29.41,29.41,0,0,0,3.26.85h2.2a2.07,2.07,0,0,1,.42-.14,12.53,12.53,0,0,0,9.5-6.27,1.37,1.37,0,0,0,.06-1.12c-.91-1.76-1.91-3.47-2.83-5.23a1.23,1.23,0,0,0-1.25-.75h0l-5.09,0H16.28c-2.45,0-3.56-1.08-3.72-3.53-.12-1.86-.23-3.72-.36-5.58a3.89,3.89,0,0,0-.12-.65Z"/><path class="cls-2" d="M17.1,9a2.94,2.94,0,0,1,1,.2,1.87,1.87,0,0,1,1.33,1.62c.09.8.15,1.56.16,2.27A1.76,1.76,0,0,0,21.52,15h.1c.72,0,1.49,0,2.41,0h3a1,1,0,0,1,.71.19.66.66,0,0,1,.13.47c0,.23,0,.69-.86.7H19.83l.09,1.09.16,1.82.06.61.08.92h8.61A2.16,2.16,0,0,1,31,22.11c1,2,2.13,4,3.19,5.88l1.58,2.89.06.1a3.35,3.35,0,0,1,.3.66,1.23,1.23,0,0,1-.64,1.48.94.94,0,0,1-.37.07,1.49,1.49,0,0,1-1.26-.8c-1.36-2.46-2.58-4.68-3.81-7a2.08,2.08,0,0,0-2-1.2h-9.7c-2.13,0-2.82-.68-2.93-2.87-.08-1.55-.18-3.09-.28-4.63s-.22-3.43-.31-5.15a2.5,2.5,0,0,1,.64-1.84A2.32,2.32,0,0,1,17.1,9m0-1a3.32,3.32,0,0,0-3.34,3.6c.16,3.26.42,6.52.59,9.78.14,2.71,1.23,3.81,3.93,3.82H28a1.1,1.1,0,0,1,1.12.67c1.25,2.35,2.53,4.67,3.82,7a2.49,2.49,0,0,0,2.13,1.32,1.91,1.91,0,0,0,.74-.14,2.22,2.22,0,0,0,1.24-2.66,4.88,4.88,0,0,0-.45-1c-1.59-2.92-3.21-5.82-4.77-8.76a3.13,3.13,0,0,0-3-1.83h-7.7l-.21-2.44H27a1.65,1.65,0,0,0,1.85-1.69c0-1-.64-1.66-1.83-1.67l-3,0L21.6,14h-.08c-.67,0-.89-.27-.9-.93a21,21,0,0,0-.17-2.38,2.84,2.84,0,0,0-2-2.43A3.69,3.69,0,0,0,17.1,8Z"/><path class="cls-2" d="M17,1a2.6,2.6,0,1,1-2.59,2.59A2.59,2.59,0,0,1,17,1m0-1a3.6,3.6,0,1,0,3.59,3.59A3.59,3.59,0,0,0,17,0Z"/><polygon class="cls-2" points="-3.48 49 47.17 36.57 47.17 49 -3.48 49"/></svg>