<svg id="Layer_1" data-name="Layer 1" xmlns="http://www.w3.org/2000/svg" viewBox="0 0 54 49"><defs><style>.cls-1{fill:#4bb6df;}.cls-2{fill:#5b6973;}</style></defs><title>icons</title><path class="cls-1" d="M16.49,41l9,1.66V27.52h-9L24,29.13V41.06Zm0-19.15h9V6.71l-9,1.66,7.46,0V20.25ZM30.14,0,14.71,4.68l13.83-2.5V46.82l-13.83-2.5L30.14,49a.48.48,0,0,0,.63-.49V.51A.48.48,0,0,0,30.14,0ZM24.7,24.87a1.23,1.23,0,1,0,1.23-1.24A1.23,1.23,0,0,0,24.7,24.87Z"/><rect class="cls-2" x="32.58" y="4.85" width="7.76" height="41.25"/></svg>