<svg id="Layer_1" data-name="Layer 1" xmlns="http://www.w3.org/2000/svg" viewBox="0 0 54 49"><defs><style>.cls-1{fill:#5b6973;stroke:#fff;stroke-linejoin:round;stroke-width:0.25px;}.cls-2{fill:#4bb6df;}</style></defs><title>dop</title><path class="cls-1" d="M44.25,1.59H7.76a1,1,0,0,0-1,1V46.73a1,1,0,0,0,1,1H44.25a1,1,0,0,0,1-1V2.55A1,1,0,0,0,44.25,1.59Zm-1,44.18H8.72V3.51H43.29Z"/><path class="cls-1" d="M41.37,40a1,1,0,0,0,1-1V33.28a1,1,0,0,0-1-1V16a1,1,0,0,0,1-1V9.27a1,1,0,0,0-1-1V5.43H10.64V43.85H41.37Zm-1.92,1.93H12.56V7.35H39.45Z"/><path class="cls-2" d="M16.38,32.32H35.63a1,1,0,0,0,1-1,1,1,0,0,0-.14-.51L26.84,13.61a.94.94,0,0,0-.83-.5,1,1,0,0,0-.84.5L15.54,30.89a1,1,0,0,0,0,1A1,1,0,0,0,16.38,32.32ZM26,16.05,34,30.4H18Z"/><path class="cls-2" d="M28.74,24.13a1,1,0,0,0-.81-.45H25.64l1.22-2.45a1,1,0,1,0-1.71-.86l-1.92,3.84a1,1,0,0,0,.85,1.39h2.29l-1.22,2.45A1,1,0,0,0,26,29.44a.94.94,0,0,0,.86-.53l1.93-3.84A1,1,0,0,0,28.74,24.13Z"/><path class="cls-2" d="M32.73,34.24H19.28a1,1,0,0,0,0,1.92H32.73a1,1,0,1,0,0-1.92Z"/></svg>