<svg id="Layer_1" data-name="Layer 1" xmlns="http://www.w3.org/2000/svg" viewBox="0 0 61.14 49"><defs><style>.cls-1{fill:#5b6973;}.cls-2{fill:#4bb6df;}</style></defs><title>icons</title><path class="cls-1" d="M37.45,23.75a22.55,22.55,0,0,1,1.91-1.32,28.81,28.81,0,0,1,4.69-2.38c.71-.29,1.38-.53,2-.74l.15,0,.2-.07h3.79v-3H49a6,6,0,0,0-2.12-2.37,6,6,0,0,0-2.11,2.38h-.49L42.84,13.9H39.33V9.77A3.73,3.73,0,0,1,43,6h4.8a3.72,3.72,0,0,1,3.74,3.72l0,9.45h3.25a3,3,0,0,1,.42,0l0-9.48a7.41,7.41,0,0,0-7.42-7.38H43a7.41,7.41,0,0,0-7.38,7.43l0,12.94v2.53a21.32,21.32,0,0,1,1.7-1.45Z"/><path class="cls-2" d="M54.87,21.4H46.75c-.88.31-1.78.65-2.7,1l-.5.22a23.63,23.63,0,0,0-5.78,3.69h0c-.42.37-.83.76-1.23,1.18A21.74,21.74,0,0,0,32.69,33q-.34.69-.66,1.44l21.28-.06,2.46-1.48a.11.11,0,0,0,0-.09l0-10.53a.91.91,0,0,0-.5-.82A1,1,0,0,0,54.87,21.4Z"/><path class="cls-1" d="M25.94,39.68v1.83a2.17,2.17,0,0,0,2.18,2.16l30.1-.08a2.17,2.17,0,0,0,2.16-2.17V39.59a2.17,2.17,0,0,0-2.18-2.16l-30.1.08A2.17,2.17,0,0,0,25.94,39.68Zm30.17-.28A1.12,1.12,0,1,1,55,40.52,1.11,1.11,0,0,1,56.11,39.4Zm-6.48,0a1.11,1.11,0,1,1-1.11,1.11A1.11,1.11,0,0,1,49.63,39.42Zm-6.47,0a1.11,1.11,0,1,1-1.11,1.11A1.11,1.11,0,0,1,43.16,39.44Zm-6.48,0a1.11,1.11,0,1,1-1.11,1.11A1.11,1.11,0,0,1,36.68,39.46Zm-6.47,0a1.12,1.12,0,1,1-1.11,1.12A1.11,1.11,0,0,1,30.21,39.47Z"/><path class="cls-2" d="M7.44,29.59a2.22,2.22,0,0,0,.93,1.8V32.7h2.36L11,31.37a2.18,2.18,0,0,0,.9-1.79,2.22,2.22,0,0,0-.33-1.17l1.31-6.85.08,0a3.8,3.8,0,0,0,1.77-1.34h0l7.67,0a3.85,3.85,0,0,0,2.93,1.55h.39l5.62,9.12a23.28,23.28,0,0,1,3.89-5.13l-5.86-8.36a3.91,3.91,0,0,0-1.58-2.66,3.8,3.8,0,0,0-2.1-.73H25.5a3.91,3.91,0,0,0-1.83.46l-10.3,0a3.89,3.89,0,0,0-1.8-.44,3.78,3.78,0,0,0-1.8.45H9.63l0,.05a3.77,3.77,0,0,0-1.35,1.25c-.08.12-.14.23-.21.35a3.77,3.77,0,0,0-.43,1.8,3.87,3.87,0,0,0,.65,2.15l0,7.73A2.24,2.24,0,0,0,7.44,29.59Zm3,0a.79.79,0,1,1-.79-.79A.79.79,0,0,1,10.45,29.58ZM24.12,17.84a1.39,1.39,0,0,1,1.39-1.39,1.4,1.4,0,0,1,1.33,1,1.35,1.35,0,0,1,.06.41,1.39,1.39,0,0,1-1.39,1.39,1.38,1.38,0,0,1-1.32-1A1.41,1.41,0,0,1,24.12,17.84ZM11.57,16.5A1.4,1.4,0,0,1,13,17.89a1.33,1.33,0,0,1,0,.28,1.39,1.39,0,1,1-1.48-1.66Z"/><path class="cls-1" d="M8.88,42.42l8.9,0a.33.33,0,0,0,.25-.55l-6.52-7.75H7.28l-.87,5.44a2.49,2.49,0,0,0,2.47,2.88Z"/><path class="cls-1" d="M45.1,11a1.79,1.79,0,1,0,1.78-1.79A1.79,1.79,0,0,0,45.1,11Z"/></svg>