<svg id="Layer_1" data-name="Layer 1" xmlns="http://www.w3.org/2000/svg" viewBox="0 0 54 49"><defs><style>.cls-1{fill:#4bb6df;}.cls-2{fill:#5b6973;}</style></defs><title>icons</title><path class="cls-1" d="M3.6,8.59V47.5H2.08V8.59H3.6m1.5-1.5H.58V49H5.1V7.09Z"/><circle class="cls-2" cx="2.84" cy="2.97" r="2.97"/><path class="cls-1" d="M47,8.59V47.5H45.5V8.59H47m1.5-1.5H44V49h4.53V7.09Z"/><circle class="cls-2" cx="46.26" cy="2.97" r="2.97"/><path class="cls-2" d="M28.72,9.79a.84.84,0,0,1,.82.82V44a.84.84,0,0,1-.82.82h-20A.84.84,0,0,1,7.91,44V10.61a.84.84,0,0,1,.82-.82h20m0-1.5h-20a2.33,2.33,0,0,0-2.32,2.32V44a2.33,2.33,0,0,0,2.32,2.32h20A2.33,2.33,0,0,0,31,44V10.61a2.33,2.33,0,0,0-2.32-2.32Z"/><circle class="cls-1" cx="26.12" cy="26.08" r="1.96"/></svg>