<svg id="Layer_1" data-name="Layer 1" xmlns="http://www.w3.org/2000/svg" viewBox="0 0 54 49"><defs><style>.cls-1{fill:#5b6973;}.cls-2{fill:#4bb6df;}</style></defs><title>icons</title><path class="cls-1" d="M11.11,41.12v2.46A1.85,1.85,0,0,0,13,45.43H25.86a1.85,1.85,0,0,0,1.85-1.85V41.12a1.85,1.85,0,0,0-1.85-1.84H13A1.85,1.85,0,0,0,11.11,41.12Zm15.37,0v2.46a.62.62,0,0,1-.62.62H13a.61.61,0,0,1-.61-.62V41.12a.61.61,0,0,1,.61-.61H25.86A.61.61,0,0,1,26.48,41.12Z"/><path class="cls-1" d="M33.24,25.14A13.52,13.52,0,0,0,6.42,22.68H3.73a2.46,2.46,0,0,0,0,4.92h0a10.47,10.47,0,0,0,5.51,8.6H8.65a.62.62,0,0,0-.62.62v8.61a3.08,3.08,0,0,0,3.08,3.07H28.32a3.08,3.08,0,0,0,3.08-3.07V36.82a.62.62,0,0,0-.62-.62H27.45A13.54,13.54,0,0,0,33.24,25.14Zm-30.74,0a1.23,1.23,0,0,1,1.23-1.23H6.19v2.46H3.73A1.24,1.24,0,0,1,2.5,25.14ZM5,27.6H6.43a13.6,13.6,0,0,0,5,8.17A9.24,9.24,0,0,1,5,27.6ZM30.17,45.43a1.85,1.85,0,0,1-1.85,1.84H11.11a1.85,1.85,0,0,1-1.85-1.84v-8H30.17ZM25.05,36.2H14.38a12.3,12.3,0,1,1,10.67,0Z"/><path class="cls-1" d="M19.72,22.06a3.08,3.08,0,1,0,3.07,3.08A3.08,3.08,0,0,0,19.72,22.06Zm0,4.92a1.85,1.85,0,1,1,1.84-1.84A1.85,1.85,0,0,1,19.72,27Z"/><path class="cls-1" d="M19.72,14.07V15.3a9.84,9.84,0,0,1,9.83,9.84h1.23A11.07,11.07,0,0,0,19.72,14.07Z"/><rect class="cls-1" x="17.26" y="14.07" width="1.23" height="1.23"/><rect class="cls-1" x="21.57" y="41.74" width="1.22" height="1.23"/><rect class="cls-1" x="19.11" y="41.74" width="1.22" height="1.23"/><rect class="cls-1" x="16.65" y="41.74" width="1.22" height="1.23"/><path class="cls-2" d="M41.05,27.55a13.62,13.62,0,0,1,2.19,5.61l.55,3.28,2.09-2.58A16.67,16.67,0,0,0,47,32.33a15.26,15.26,0,0,1,1.94,4.42,6.67,6.67,0,0,1-2.11,7h0a7,7,0,0,0-1.19-3.37l-1.23-1.94-.82,1.21a6.88,6.88,0,0,0-.76-1.54l-1.9-2.75-.8,3.24a2.57,2.57,0,0,1-.85,1.45,5.31,5.31,0,0,0-2.13,3.8A7.86,7.86,0,0,1,35.66,42c-.85-1.52-2.31-5.49,2.5-9.4a8.76,8.76,0,0,0,2.89-5m-1.29-3.14,0,1.08s.06,3.78-2.56,5.91c-1.48,1.21-6.06,5.58-2.87,11.31a8.32,8.32,0,0,0,4.11,3.8l1.49.61-.83-1.38a.8.8,0,0,0-.08-.12c-1.18-2.12.42-3.76,1.17-4.37A4.07,4.07,0,0,0,41.57,39a7.2,7.2,0,0,1,1,3l.08,1.13.82-.78a6.6,6.6,0,0,0,.89-1.1c1,1.62,1.24,3.09.61,4.28l-.7,1.35,1.39-.61a8.17,8.17,0,0,0,2.17-1.34c5.86-5.22,1.14-12.54-.44-14.66l-.5-.66-.4.72a20,20,0,0,1-1.76,2.61c-.33-1.95-1.31-5.84-4.08-7.86l-.88-.64Z"/></svg>