<svg id="Layer_1" data-name="Layer 1" xmlns="http://www.w3.org/2000/svg" viewBox="0 0 54 49"><defs><style>.cls-1{fill:#4bb6df;}.cls-2{fill:#5b6973;}</style></defs><title>icons</title><path class="cls-1" d="M12.57,22.08l8.74,3.71-8.74,3.7-8.73-3.7,8.73-3.71m0-1.62L0,25.79l12.57,5.33,12.58-5.33L12.57,20.46Z"/><path class="cls-1" d="M26.63,28.21l8.73,3.71-8.73,3.7-8.73-3.7,8.73-3.71m0-1.63L14.06,31.92l12.57,5.33L39.2,31.92,26.63,26.58Z"/><path class="cls-2" d="M27.37,12l8.73,3.7-8.73,3.7-8.73-3.7L27.37,12m0-1.63L14.8,15.66,27.37,21l12.57-5.33L27.37,10.33Z"/><path class="cls-1" d="M41.43,22.08l8.73,3.71-8.73,3.7-8.74-3.7,8.74-3.71m0-1.62L28.85,25.79l12.58,5.33L54,25.79,41.43,20.46Z"/></svg>