<svg id="Layer_1" data-name="Layer 1" xmlns="http://www.w3.org/2000/svg" viewBox="0 0 54 49"><defs><style>.cls-1{fill:#4bb6df;}.cls-2{fill:#5b6973;}</style></defs><title>icons</title><path class="cls-1" d="M7.63,48.81a2.39,2.39,0,0,1-1.71-2.73c0-.82,0-1.64,0-2.53,1.94,1.29,4.11,1,6.21,1.07.53,2,.07,3.28-1.51,4.19Z"/><path class="cls-1" d="M43.4,48.81a2.92,2.92,0,0,1-.84-.52A2.87,2.87,0,0,1,41.84,47a17.21,17.21,0,0,1,0-2.39c2.12-.13,4.32.23,6.25-1.09,0,1.19.07,2.35,0,3.49a2.13,2.13,0,0,1-1.65,1.77Z"/><path class="cls-2" d="M49.15,23.3a4,4,0,0,1,.6.05,3.41,3.41,0,0,1,2.72,2.81,3.24,3.24,0,0,1-2.13,3.6,2.26,2.26,0,0,0-1.47,2c-.07.63-.14,1.26-.22,1.88-.18,1.52-.38,3.08-.52,4.64a2.35,2.35,0,0,1-1.53,2,6.8,6.8,0,0,1-3.1.7h-33a7.23,7.23,0,0,1-3.09-.68,2.71,2.71,0,0,1-1.62-2.56c-.1-1.36-.27-2.72-.43-4-.08-.66-.16-1.32-.23-2a2.26,2.26,0,0,0-1.51-2A3.31,3.31,0,0,1,1.56,26a3.39,3.39,0,0,1,3.3-2.72h.07A3.37,3.37,0,0,1,8,25.48C8.5,26.72,9.06,28,9.61,29.16l.72,1.61a1.5,1.5,0,0,0,1.37.89,1.52,1.52,0,0,0,.42-.06,53.76,53.76,0,0,1,15-2.22,50.91,50.91,0,0,1,14.7,2.2,1.67,1.67,0,0,0,.44.06,1.48,1.48,0,0,0,1.36-.88l.4-.87.82-1.83.43-1q.39-.92.81-1.8a3.35,3.35,0,0,1,3-2m0-1.5a4.84,4.84,0,0,0-4.4,2.86c-.43.93-.83,1.86-1.25,2.78l-1.21,2.7a52.33,52.33,0,0,0-15.14-2.26A54.7,54.7,0,0,0,11.7,30.16c-.79-1.77-1.6-3.5-2.32-5.25A4.87,4.87,0,0,0,5,21.82h-.1A4.87,4.87,0,0,0,.09,25.75a4.81,4.81,0,0,0,3,5.41.74.74,0,0,1,.54.73c.22,2,.52,4,.66,6a4.17,4.17,0,0,0,2.48,3.8,8.61,8.61,0,0,0,3.73.83h33a8.22,8.22,0,0,0,3.78-.86,3.84,3.84,0,0,0,2.34-3.2c.21-2.16.49-4.32.74-6.48,0-.34.08-.61.5-.77A4.77,4.77,0,0,0,54,26a4.93,4.93,0,0,0-4-4.12,5.1,5.1,0,0,0-.86-.08Z"/><path class="cls-2" d="M26.43,10.62l13,0a8.54,8.54,0,0,1,8.41,5.87,10.82,10.82,0,0,1,.32,1.33,8.69,8.69,0,0,0-3.74,1.31,8.58,8.58,0,0,0-3.17,3.5c-.37.76-.72,1.53-1.06,2.28A77.44,77.44,0,0,0,13.82,25c-.22-.48-.44-1-.64-1.47a8.84,8.84,0,0,0-6.62-5.58,6.52,6.52,0,0,0-.73-.12,7.29,7.29,0,0,1,.64-2,8.41,8.41,0,0,1,8.13-5.14c3.94,0,7.89,0,11.83,0m0-1.5-11.84,0a9.92,9.92,0,0,0-9.47,6,9.09,9.09,0,0,0-.89,4.09,17.66,17.66,0,0,1,2,.18,7.4,7.4,0,0,1,5.55,4.69c.36.9.78,1.78,1.14,2.58a76.22,76.22,0,0,1,28.14-.06c.49-1.08,1-2.2,1.52-3.31a7,7,0,0,1,2.63-2.88,7.35,7.35,0,0,1,4.13-1.15c.19,0,.39,0,.6,0A28.81,28.81,0,0,0,49.24,16a10,10,0,0,0-9.81-6.88l-13,0Z"/></svg>