<svg id="Layer_1" data-name="Layer 1" xmlns="http://www.w3.org/2000/svg" viewBox="0 0 54 49"><defs><style>.cls-1{fill:#5b6973;stroke:#fff;stroke-miterlimit:10;stroke-width:0.75px;}</style></defs><title>icons</title><path class="cls-1" d="M52.54,37.59a4.62,4.62,0,0,0-1.91-.89V34.64a23.65,23.65,0,0,0-18.25-23,5.76,5.76,0,0,0-10.76,0,23.65,23.65,0,0,0-18.25,23V36.7a4.68,4.68,0,0,0-1.91.89A3.6,3.6,0,0,0,.14,40.35c0,1.92,1.65,4,4.7,4a28.44,28.44,0,0,1,9.17,2,38.85,38.85,0,0,0,13,2.53,38.85,38.85,0,0,0,13-2.53,28.44,28.44,0,0,1,9.17-2c3.05,0,4.7-2,4.7-4A3.6,3.6,0,0,0,52.54,37.59ZM32.69,14.74a20.78,20.78,0,0,1,2.51.91v7.54a1.26,1.26,0,0,1-2.51,0Zm-13.89.91a20.78,20.78,0,0,1,2.51-.91v8.45a1.26,1.26,0,0,1-2.51,0V15.65Zm-12.5,19a20.71,20.71,0,0,1,9.57-17.43v6a4.19,4.19,0,0,0,8.37,0V13.07a2.83,2.83,0,0,1,5.52,0V23.19a4.19,4.19,0,0,0,8.37,0v-6A20.69,20.69,0,0,1,47.7,34.64v2A201.58,201.58,0,0,1,27,38.14,201.58,201.58,0,0,1,6.3,36.69Zm42.87,6.75c-3.76,0-6.84,1-10.1,2.1A35.5,35.5,0,0,1,27,45.88a35.55,35.55,0,0,1-12.07-2.39c-3.26-1.08-6.34-2.1-10.09-2.1-1.16,0-1.77-.52-1.77-1a.65.65,0,0,1,.27-.5,2.28,2.28,0,0,1,1.43-.39A212,212,0,0,0,27,41.07a211.52,211.52,0,0,0,22.23-1.61,2.3,2.3,0,0,1,1.43.39.65.65,0,0,1,.27.5C50.93,40.87,50.32,41.39,49.17,41.39Z"/></svg>