<svg id="Layer_1" data-name="Layer 1" xmlns="http://www.w3.org/2000/svg" viewBox="0 0 54 49"><defs><style>.cls-1{fill:none;stroke:#5b6973;stroke-linecap:round;stroke-linejoin:round;stroke-width:1.5px;}.cls-2{fill:#4bb6df;}</style></defs><title>icons</title><path class="cls-1" d="M21.75,38.14l-16,2.61a1,1,0,0,1-1.16-1V6.54a1,1,0,0,1,.84-1l25-4.07a1,1,0,0,1,1.16,1v9.27"/><path class="cls-2" d="M22.55,11.13l24,3.9V47.24l-24-3.91V11.13m-.5-1.59a1,1,0,0,0-1,1V43.76a1,1,0,0,0,.84,1l25,4.07h.17a1,1,0,0,0,1-1V14.61a1,1,0,0,0-.84-1l-25-4.07Z"/></svg>