<svg id="Layer_1" data-name="Layer 1" xmlns="http://www.w3.org/2000/svg" viewBox="0 0 54 49"><defs><style>.cls-1{fill:#4bb6df;}.cls-2{fill:#5b6973;}</style></defs><title>icons</title><path class="cls-1" d="M44.22,42.61a.6.6,0,0,0-.8.21,6.06,6.06,0,0,1-5.36,3h0a6.06,6.06,0,0,1-5.37-3,.59.59,0,0,0-.5-.3.55.55,0,0,0-.49.3,6.09,6.09,0,0,1-5.37,3h0a6.06,6.06,0,0,1-5.37-3,.59.59,0,0,0-.49-.3.56.56,0,0,0-.5.3,6.09,6.09,0,0,1-5.37,3h0a6,6,0,0,1-5.36-3,.58.58,0,1,0-1,.58A7.25,7.25,0,0,0,14.63,47h0a7.27,7.27,0,0,0,5.89-2.82A7.26,7.26,0,0,0,26.42,47h0a7.3,7.3,0,0,0,5.89-2.82A7.26,7.26,0,0,0,38.21,47h0A7.26,7.26,0,0,0,44.6,43.4.92.92,0,0,0,44.22,42.61Z"/><path class="cls-2" d="M43.92,17H38a8.62,8.62,0,0,0-8.65,8H25.57a.59.59,0,1,0,0,1.17h4.34a.58.58,0,0,0,.58-.58A7.46,7.46,0,0,1,38,18.13h5.34V40.18a.59.59,0,0,0,1.17,0V17.54a.59.59,0,0,0-.18-.41A.54.54,0,0,0,43.92,17Z"/><path class="cls-2" d="M44.51,3.29H41.58a.59.59,0,0,0-.59.59V9.57a.58.58,0,0,0,.59.58h2.34a.59.59,0,1,0,0-1.17H42.16V4.46h2.35a.59.59,0,0,0,.59-.58A.6.6,0,0,0,44.51,3.29Z"/><path class="cls-2" d="M8.62,40.76a.59.59,0,0,0,.59-.58V4.46H33a.58.58,0,0,0,.58-.58A.59.59,0,0,0,33,3.29H8.62A.6.6,0,0,0,8,3.88v36.3A.59.59,0,0,0,8.62,40.76Z"/><path class="cls-2" d="M35.89,4.46h2.34V9A16.65,16.65,0,0,0,22.05,25.55v2.93a.58.58,0,0,0,.59.58h7.27a.58.58,0,0,0,.58-.58.59.59,0,0,0-.58-.59H23.22V25.55a15.51,15.51,0,0,1,15.6-15.37.59.59,0,0,0,.59-.58V3.91a.55.55,0,0,0-.18-.41.57.57,0,0,0-.41-.18H35.89a.6.6,0,0,0-.59.59A.56.56,0,0,0,35.89,4.46Z"/><path class="cls-1" d="M26.27,32.17a.63.63,0,0,0-.53.33l-2.46,4.66a3.26,3.26,0,0,0,.62,3.9,3.37,3.37,0,0,0,2.37,1,3.41,3.41,0,0,0,2.38-1,3.3,3.3,0,0,0,.61-3.9L26.8,32.5A.62.62,0,0,0,26.27,32.17Zm1.56,8a2.22,2.22,0,0,1-3.11,0,2.09,2.09,0,0,1-.38-2.53L26.27,34l1.94,3.66A2.16,2.16,0,0,1,27.83,40.21Z"/></svg>