<svg id="Layer_1" data-name="Layer 1" xmlns="http://www.w3.org/2000/svg" viewBox="0 0 54 49"><defs><style>.cls-1,.cls-2{fill:none;stroke-linecap:round;stroke-linejoin:round;stroke-width:1.5px;}.cls-1{stroke:#5b6973;}.cls-2{stroke:#4bb6df;}</style></defs><title>icons</title><path class="cls-1" d="M17.8,37.73A9.58,9.58,0,0,1,15,44.53l-1,1a7.36,7.36,0,0,0-3.09-.75h-3L9,37.67a5.28,5.28,0,0,1,2.92-3.88l5.86-2.43Z"/><path class="cls-1" d="M37.54,37.73a9.58,9.58,0,0,0,2.82,6.8l1,1a7.29,7.29,0,0,1,3.09-.75h3l-1.1-7.11a5.26,5.26,0,0,0-2.91-3.88l-5.86-2.43v6.37Z"/><path class="cls-1" d="M22,37.73H33.31V29.54a4.83,4.83,0,0,1-.8-.61,4.36,4.36,0,0,1-1.26-3.05v-1a6.16,6.16,0,0,1-7.17,0v1a4.35,4.35,0,0,1-1.25,3.05,4.29,4.29,0,0,1-.8.6v8.2Z"/><path class="cls-1" d="M18.79,15.16c1,6.25,4.59,10.88,8.88,10.88s7.88-4.63,8.88-10.88Z"/><path class="cls-2" d="M24.85,6.45v0Z"/><path class="cls-2" d="M30.49,2.86v0Z"/><path class="cls-2" d="M24.85,2.86v-2h5.64V2.86A10.58,10.58,0,0,1,38.25,13l1.41,2.12h-24L17.09,13A10.58,10.58,0,0,1,24.85,2.86Z"/><path class="cls-2" d="M37.54,37.73a9.58,9.58,0,0,0,2.82,6.8l1,1a3.63,3.63,0,0,0-1,.66C39.58,47,39,47.6,39,47.6H16.39L15,46.19a3.79,3.79,0,0,0-1-.66l1-1a9.58,9.58,0,0,0,2.82-6.8Z"/><path class="cls-2" d="M33.31,37.73h4.23V31.36l-3.63-1.5a5.7,5.7,0,0,1-.6-.32Z"/><path class="cls-2" d="M22,37.73H17.8V31.36l3.63-1.5a5,5,0,0,0,.6-.33Z"/></svg>