<svg id="Layer_1" data-name="Layer 1" xmlns="http://www.w3.org/2000/svg" viewBox="0 0 54 49"><defs><style>.cls-1{fill:#5b6973;}.cls-2{fill:#4bb6df;}</style></defs><title>icons</title><path class="cls-1" d="M1.77,45.63h9.12l-1-2.08H7.49V41.47h2a.94.94,0,0,0,.94-.94V14a.93.93,0,0,0-.94-.93H3.14a.93.93,0,0,0-.93.93V40.53a.94.94,0,0,0,.93.94h2v2.08H2.74L2.07,45l-.3.62h0ZM6.33,16a2.25,2.25,0,1,1-2.25,2.25A2.25,2.25,0,0,1,6.33,16ZM4.08,25.71A2.26,2.26,0,1,1,6.33,28,2.25,2.25,0,0,1,4.08,25.71Z"/><path class="cls-1" d="M6.33,19.37a1.08,1.08,0,1,0-1.08-1.08A1.08,1.08,0,0,0,6.33,19.37Zm0-1.81h.13l-.57.58-.27.26a.59.59,0,0,1,0-.13A.73.73,0,0,1,6.33,17.56Z"/><path class="cls-1" d="M7.41,25.71A1.08,1.08,0,1,0,6.33,26.8,1.08,1.08,0,0,0,7.41,25.71Zm-1.79.09a.59.59,0,0,1,0-.13.73.73,0,0,1,.73-.73h.13l-.56.57Z"/><path class="cls-1" d="M55.77,45.63l-1-2.08H52.37V41.47h2a.94.94,0,0,0,.94-.94V14a.93.93,0,0,0-.94-.93H48a.93.93,0,0,0-.93.93V40.53a.94.94,0,0,0,.93.94h2v2.08H47.62L47,45l-.3.62h9.12ZM51.21,16A2.25,2.25,0,1,1,49,18.29,2.25,2.25,0,0,1,51.21,16ZM49,25.71A2.26,2.26,0,1,1,51.21,28,2.25,2.25,0,0,1,49,25.71Z"/><path class="cls-1" d="M51.21,19.37a1.08,1.08,0,1,0-1.08-1.08A1.08,1.08,0,0,0,51.21,19.37Zm0-1.81h.13l-.57.58-.27.26a.59.59,0,0,1,0-.13A.73.73,0,0,1,51.21,17.56Z"/><path class="cls-1" d="M52.29,25.71a1.08,1.08,0,1,0-1.08,1.09A1.08,1.08,0,0,0,52.29,25.71Zm-1.79.09a.59.59,0,0,1,0-.13.73.73,0,0,1,.73-.73h.13l-.56.57Z"/><path class="cls-2" d="M14.09,38.74H43.45a.89.89,0,0,0,.73-.39.91.91,0,0,0,.15-.49V19.29a.87.87,0,0,0-.88-.87H14.09a.87.87,0,0,0-.87.87V37.86A.88.88,0,0,0,14.09,38.74Zm2.37-18.63H25l-1.15,3.72a.51.51,0,0,0,.22.63.5.5,0,0,0,.67-.19l1.77-4.16h5.24L28.56,28.3a.5.5,0,0,0,.21.6.49.49,0,0,0,.68-.17l4-8.62h7.64V36.43H16.46Z"/><path class="cls-1" d="M18.2,42.5h1.67v.77a.4.4,0,0,0,.4.41h1.82a.41.41,0,0,0,.41-.41V42.5H35.05v.77a.41.41,0,0,0,.41.41h1.81a.41.41,0,0,0,.41-.41V42.5h1.67a.45.45,0,0,0,.45-.45V39.47h-22v2.58A.45.45,0,0,0,18.2,42.5ZM37,40.73a.29.29,0,0,1,0,.57.29.29,0,0,1,0-.57Zm-1.44,0a.29.29,0,1,1-.28.28A.28.28,0,0,1,35.58,40.73Zm-6.81-.33a.62.62,0,1,1,0,1.23.62.62,0,0,1,0-1.23Z"/></svg>