<svg id="Layer_1" data-name="Layer 1" xmlns="http://www.w3.org/2000/svg" viewBox="0 0 54 49"><defs><style>.cls-1{fill:#5b6973;}.cls-2{fill:#4bb6df;}</style></defs><title>icons</title><path class="cls-1" d="M23.38,43.15v0h1.21v4.1l19.58,0V41.67l4.62,0-.06-20.8H43.58l0-8.37-10.84,0,0-4.37-15.58,0v4.36H13.76l0,6.49-8,0,.06,19.35,8,0v4.71h.45v.05Zm-9.85-6.83H8l0-15.17h5.57ZM15.89,34h5.29v3.55H15.9Zm5.29-1H15.89V31.13l5.3,0ZM15.9,38.49h5.3V41l-5.29,0Zm26.21,6.58-15.45,0v-2l15.44,0Zm4.56-22.15,0,16.67H43.63l0-16.67ZM41.5,14.56l0,6.31v1.05a8.44,8.44,0,0,1-7.59-7.34Zm-22.31-4.3,11.45,0v2.3l-11.45,0Zm-3.35,4.37h1.29l14.61,0a10.63,10.63,0,0,0,9.78,9.51l0,4.66H37.71L35,25.4l-.82.51,2.16,4.45.23.48h5l0,10.15H40V38l-8.24,0v3H23.37l0-12.09-7.46,0V27.11l10.31,0v5.16h1.08l5,0V31.14l-3.89-.84V24.9H27.25l-11.38,0Z"/><rect class="cls-2" x="9.93" y="40.6" width="1.79" height="2.07" transform="translate(-0.11 0.03) rotate(-0.16)"/><rect class="cls-2" x="4.83" y="40.61" width="3.13" height="2.07" transform="translate(-0.11 0.02) rotate(-0.16)"/><polygon class="cls-2" points="2.1 39.87 0.03 39.87 0.04 42.69 2.85 42.69 2.85 40.62 2.1 40.62 2.1 39.87"/><rect class="cls-2" y="26.62" width="2.07" height="4.06" transform="translate(-0.08 0) rotate(-0.16)"/><rect class="cls-2" x="0.01" y="33.25" width="2.07" height="4.06" transform="translate(-0.1 0) rotate(-0.16)"/><rect class="cls-2" x="-0.02" y="20" width="2.07" height="4.06" transform="translate(-0.06 0) rotate(-0.16)"/><polygon class="cls-2" points="-0.04 17.44 2.03 17.43 2.03 16.68 2.78 16.68 2.78 14.61 -0.04 14.62 -0.04 17.44"/><rect class="cls-2" x="4.76" y="14.6" width="3.13" height="2.07" transform="translate(-0.04 0.02) rotate(-0.16)"/><rect class="cls-2" x="9.86" y="14.59" width="1.79" height="2.07" transform="translate(-0.04 0.03) rotate(-0.16)"/><polygon class="cls-2" points="53.88 13.22 51.7 9.48 49.55 13.23 50.62 13.23 50.7 43.38 49.63 43.38 51.8 47.12 53.96 43.37 52.87 43.37 52.78 13.22 53.88 13.22"/><polygon class="cls-2" points="48.21 3.83 42.62 3.85 42.62 2.76 38.88 4.93 42.63 7.08 42.63 6.01 48.22 6 48.22 7.07 51.96 4.89 48.21 2.74 48.21 3.83"/></svg>