<svg id="Layer_1" data-name="Layer 1" xmlns="http://www.w3.org/2000/svg" viewBox="0 0 54 49"><defs><style>.cls-1{fill:#fff;stroke:#5b6973;stroke-linecap:round;stroke-linejoin:round;stroke-width:1.5px;}.cls-2{fill:#4bb6df;}</style></defs><title>dop</title><rect class="cls-1" x="23.48" y="3.69" width="24.87" height="31.06" rx="2" ry="2"/><rect class="cls-1" x="31.32" y="1.68" width="9.36" height="4.36"/><rect class="cls-1" x="35.29" y="0.88" width="1.43" height="0.71"/><rect class="cls-1" x="13.48" y="10.06" width="24.87" height="31.06" rx="2" ry="2"/><rect class="cls-1" x="21.32" y="8.05" width="9.36" height="4.36"/><rect class="cls-1" x="25.29" y="7.25" width="1.43" height="0.71"/><rect class="cls-1" x="4.25" y="16.8" width="24.87" height="31.06" rx="2" ry="2"/><path class="cls-2" d="M14.74,32.37,16,31l2.14-2.27,2.37-2.54c.26-.27.51-.56.78-.83a1,1,0,0,1,.95-.19,1.81,1.81,0,0,1,.62.41l.78.65a1.1,1.1,0,0,1,.46.9.86.86,0,0,1-.21.53l-2.23,2.37-2.83,3-2.07,2.22c-.31.33-.61.67-.94,1a1.53,1.53,0,0,1-1,.44,1.12,1.12,0,0,1-.85-.3l-2.21-2.08-2-1.9a.87.87,0,0,1-.22-.89A1.2,1.2,0,0,1,9.82,31c.32-.32.64-.63.95-1a.89.89,0,0,1,.47-.31,1.05,1.05,0,0,1,.95.24l1.75,1.65Z"/><rect class="cls-1" x="12.08" y="14.79" width="9.36" height="4.36"/><rect class="cls-1" x="16.05" y="13.99" width="1.43" height="0.71"/></svg>