<svg id="Layer_1" data-name="Layer 1" xmlns="http://www.w3.org/2000/svg" viewBox="0 0 54 49"><defs><style>.cls-1{fill:#5b6973;}.cls-2{fill:#4bb6df;}</style></defs><title>icons</title><path class="cls-1" d="M25.77,30.37H54V27.42H26.23A13.75,13.75,0,0,1,25.77,30.37Z"/><path class="cls-1" d="M18.23,14.18A13.89,13.89,0,0,1,26.06,24.5H54V14.18ZM36.7,22.76h-8V20.34h8Z"/><path class="cls-1" d="M20.1,27.69A2.94,2.94,0,0,0,19,27.31l-3.35-.6a2.91,2.91,0,0,0-1.12-1.94l1.16-3.2a3.15,3.15,0,1,0-5.9,0c.53,1.48.9,2.48,1.16,3.2a2.92,2.92,0,0,0-1.13,1.94l-3.35.6a3.08,3.08,0,0,0-1.06.38A3.15,3.15,0,0,0,8.6,33.15a3.23,3.23,0,0,0,.86-.73c1-1.21,1.7-2,2.2-2.6a2.94,2.94,0,0,0,1.12.22,3,3,0,0,0,1.12-.22c.49.58,1.18,1.39,2.19,2.6a3.4,3.4,0,0,0,.86.73,3.15,3.15,0,1,0,3.15-5.46Zm-9.17-7-.11,0a.45.45,0,0,1-.33-.54,2.64,2.64,0,0,1,2.56-2,.45.45,0,0,1,0,.9,1.72,1.72,0,0,0-1.68,1.32A.46.46,0,0,1,10.93,20.67Zm1.84,7.87a1.45,1.45,0,1,1,1.45-1.44A1.44,1.44,0,0,1,12.77,28.54Z"/><path class="cls-2" d="M24.38,23.94a12.36,12.36,0,1,0-5.85,13.6l.67.94L21,35l-3.94.54.79,1.11a11.21,11.21,0,1,1,5.4-12.4.56.56,0,0,0,.68.42A.57.57,0,0,0,24.38,23.94Z"/></svg>