<svg id="Layer_1" data-name="Layer 1" xmlns="http://www.w3.org/2000/svg" viewBox="0 0 54 49"><defs><style>.cls-1{fill:#5b6973;}.cls-2{fill:#4bb6df;}</style></defs><title>icons</title><path class="cls-1" d="M9,26.86H.86l1.53-1.37,11.21-10a1.15,1.15,0,0,0,.43-1c0-2.06,0-4.13,0-6.2V7.57h.8c2.47,0,4.94,0,7.4,0A1.25,1.25,0,0,0,23,7.21c1.63-1.4,3.24-2.83,4.89-4.28l27,23.92H46.75V44.16H9Zm40-2.12,0-.14L27.86,5.83l-7.5,6.72V9.8h-4.1v.71c0,1.68,0,3.37,0,5.06a1.45,1.45,0,0,1-.39.91C13.93,18.22,12,19.92,10,21.64L6.56,24.71h4.62V42H44.57V24.74Z"/><path class="cls-2" d="M26.62,36a3.07,3.07,0,0,1,.4-.66c1.91-1.69,1.87-4.36-.2-6.3a5.42,5.42,0,0,1,.1-8.07A1.47,1.47,0,0,1,28,20.71c.55.12.54.85.14,1.4a7.53,7.53,0,0,0-1.26,2.14,3.65,3.65,0,0,0,1.25,3.81,5.74,5.74,0,0,1,1.95,4A5.41,5.41,0,0,1,28,36.63a.9.9,0,0,1-.8.08C27,36.6,26.83,36.28,26.62,36Z"/><path class="cls-2" d="M22.45,20.54a.84.84,0,0,1,.71,1.31,2.24,2.24,0,0,1-.3.32,3.87,3.87,0,0,0,0,5.74,6.12,6.12,0,0,1,2,3.5,5.46,5.46,0,0,1-1.94,5.14.73.73,0,0,1-1.12-.07.84.84,0,0,1,0-1.15,7.93,7.93,0,0,0,1.29-2,3.81,3.81,0,0,0-1.31-4.09,5.63,5.63,0,0,1-1.74-3,5.48,5.48,0,0,1,1.82-5.36A2,2,0,0,1,22.45,20.54Z"/><path class="cls-2" d="M34.09,32.44a4.23,4.23,0,0,0-1.52-3.21,5.55,5.55,0,0,1,.16-8.32.76.76,0,0,1,1.18,0,.8.8,0,0,1-.1,1.18,4.09,4.09,0,0,0-1.39,2.81,4.14,4.14,0,0,0,1.47,3.3,5.49,5.49,0,0,1,1.81,4.83,5.41,5.41,0,0,1-2,3.62.71.71,0,0,1-1.07-.07.8.8,0,0,1,0-1.14,4.71,4.71,0,0,0,.77-.91c.34-.66.57-1.37.85-2.06Z"/></svg>