<svg id="Layer_1" data-name="Layer 1" xmlns="http://www.w3.org/2000/svg" viewBox="0 0 54 49"><defs><style>.cls-1{fill:#5b6973;}.cls-2{fill:#4bb6df;}</style></defs><title>icons</title><path class="cls-1" d="M51.66,30.58a3.22,3.22,0,0,1-.24.28,2.48,2.48,0,0,0-.8,1.67v.53a12.73,12.73,0,0,1-4.49,9.3,5.13,5.13,0,0,0-1.08,1.23c-.94,1.52.32,2.77.85,3.3l.1.1a.18.18,0,0,1,.06.14.2.2,0,0,1-.19.19H38.3a.19.19,0,0,1-.19-.19.22.22,0,0,1,0-.14l.1-.1c.54-.53,1.8-1.78.86-3.3A5,5,0,0,0,38,42.36a12.78,12.78,0,0,1-4.48-9.3v-.53a2.49,2.49,0,0,0-.81-1.67l-.25-.28H51.66m0-1.5H32.49A1.49,1.49,0,0,0,31,30.57a1.53,1.53,0,0,0,.29.89c.31.42.76.78.76,1.07v.53a14.37,14.37,0,0,0,5,10.47,3.29,3.29,0,0,1,.75.86c.34.53-.22,1-.74,1.54a1.72,1.72,0,0,0-.49,1.2,1.69,1.69,0,0,0,1.69,1.69h7.57a1.69,1.69,0,0,0,1.69-1.69,1.72,1.72,0,0,0-.49-1.2c-.52-.52-1.08-1-.74-1.54a3.29,3.29,0,0,1,.75-.86,14.37,14.37,0,0,0,5-10.47v-.53c0-.29.45-.65.76-1.07a1.53,1.53,0,0,0,.29-.89,1.49,1.49,0,0,0-1.49-1.49Z"/><path class="cls-1" d="M46.12,15.24c.54,0,1.78.13,1.78,1.3v8.92H36.27V16.54c0-1.17,1.24-1.3,1.78-1.3h8.07m0-1.5H38.05c-1.81,0-3.28,1-3.28,2.8V27H49.4V16.54c0-1.81-1.47-2.8-3.28-2.8Z"/><path class="cls-1" d="M40.58,13v-.39a.57.57,0,0,1,.58-.57H43a.56.56,0,0,1,.57.57V13Z"/><path class="cls-2" d="M40.55,6.75v.06H39.14a1.51,1.51,0,0,0-1.36.85c-2.41,5-9,8.4-16.32,8.4S7.54,12.68,5.13,7.66a1.5,1.5,0,0,0-1.35-.85H2.36V6.75H40.55M19.06,19.85c.79.07,1.59.11,2.4.11s1.6,0,2.39-.11a6,6,0,0,0-.23,1.79V44.16c0,2.06.62,3.1,1.84,3.1h.34a0,0,0,1,1,0,.06H17.11s0,0,0,0a0,0,0,0,1,0,0h.34c1.22,0,1.84-1,1.84-3.1V21.64a6,6,0,0,0-.23-1.79M40.55,5.25H2.36a1.53,1.53,0,1,0,0,3.06H3.78c2.59,5.39,9.52,9.25,17.68,9.25S36.54,13.7,39.14,8.31h1.41a1.53,1.53,0,1,0,0-3.06ZM27.16,17.8a24.52,24.52,0,0,1-5.7.66,24.61,24.61,0,0,1-5.71-.66,1.6,1.6,0,0,0-.18.72,1.55,1.55,0,0,0,1.54,1.53h.34c.19,0,.34.71.34,1.59V44.16c0,.88-.15,1.6-.34,1.6h-.34a1.53,1.53,0,1,0,0,3.06H25.8a1.53,1.53,0,1,0,0-3.06h-.34c-.18,0-.34-.72-.34-1.6V21.64c0-.88.16-1.59.34-1.59h.34a1.54,1.54,0,0,0,1.54-1.53,1.48,1.48,0,0,0-.18-.72Z"/><rect class="cls-2" x="20.26" y="-0.18" width="2.38" height="5.84"/><path class="cls-2" d="M26.78,4.2H24v-1h2.74Zm-.86,1.13h-1V4.5h1Zm-7-2.14v1H16.13v-1ZM18,5.33H17V4.5h1Z"/></svg>