<svg id="Layer_1" data-name="Layer 1" xmlns="http://www.w3.org/2000/svg" viewBox="0 0 54 49"><defs><style>.cls-1{fill:#4bb6df;}.cls-2{fill:#5b6973;}</style></defs><title>icons</title><path class="cls-1" d="M3.6.72a25.66,25.66,0,0,1,7.29.8c4,1,6.07,3.67,6.84,7.56.11.56.22,1.13.36,1.87a12,12,0,0,1,3.05-4.1c2.48-1.92,5.41-2.62,8.39-3.21.74-.14.55.42.52.73a9,9,0,0,1-1,3c-2.13,4.57-4.61,6.07-9.64,5.86-.6,0-.75.17-.72.72a21.21,21.21,0,0,0,.51,3.38c.12.55.54.57,1,.67A26.79,26.79,0,0,1,27,20.31a5.4,5.4,0,0,1,1.94,1.51c.18.24.44.51.32.84s-.53.26-.83.26H25.55q-9.1,0-18.2,0c-.39,0-1,.28-1.16-.23s.28-.86.61-1.2a9.6,9.6,0,0,1,3.53-2.06,22.69,22.69,0,0,1,5-1.43,1.07,1.07,0,0,0,1-1,19.34,19.34,0,0,0,.38-4.8c0-.39.05-.88-.69-.8-3.6.43-6.3-1.24-8.55-3.83A22.77,22.77,0,0,1,3.6.72Z"/><path class="cls-2" d="M8.41,35.1a8.19,8.19,0,0,1,4.21-1.18,8,8,0,0,1,6,2.61l.37.4,14.42-5.66L36.92,23h-37L7.74,35.51Zm26.1-10.55L32.18,30l-12.81,5a9.77,9.77,0,0,0-6.75-2.73,9.66,9.66,0,0,0-4.34,1L2.79,24.55Z"/><path class="cls-2" d="M33.61,37.29v-3.8l4.67-1.94,4.35-11.49h11.3V18.47H41.53L37,30.34,18.36,38.12A6.94,6.94,0,0,0,5.8,43.35l-4.74,2,.61,1.47,4.61-1.92A7,7,0,0,0,8.2,47.41H4.38V49h46V47.41H17a6.89,6.89,0,0,0,2.06-7.87l4.11-1.71v4.4ZM7.31,42.73a5.19,5.19,0,0,1,0-.68,5.36,5.36,0,0,1,9.58-3.3l-.6.26a4.73,4.73,0,0,0-8.35,3c0,.14,0,.29,0,.43ZM15.57,41a3,3,0,0,1,.2,1,3.13,3.13,0,0,1-6,1.36Zm-6.06.8a3.11,3.11,0,0,1,5.14-2.14Zm3.11,5.6a5.37,5.37,0,0,1-4.87-3.14L8.33,44a4.73,4.73,0,0,0,9-2,4.62,4.62,0,0,0-.31-1.66l.58-.24a5.22,5.22,0,0,1,.36,1.9A5.38,5.38,0,0,1,12.62,47.41ZM24.8,37.16l7.22-3v2.13L24.8,39.71Z"/></svg>