<svg id="Layer_1" data-name="Layer 1" xmlns="http://www.w3.org/2000/svg" viewBox="0 0 54 49"><defs><style>.cls-1{fill:#5b6973;}.cls-2{fill:#4bb6df;}</style></defs><title>icons</title><path class="cls-1" d="M54,42a7,7,0,0,0-6.38-7,5.84,5.84,0,0,0-5.18-5.58l-3.12-.33V25.09a4.07,4.07,0,0,0-4-4.05H22.65a4.07,4.07,0,0,0-4,4.05v1.79L11.16,26,7.51,10.14a.66.66,0,0,0-.67-.53H5.58a1,1,0,0,0-.8-.4H1.06a1.07,1.07,0,0,0,0,2.13H4.78a.87.87,0,0,0,.8-.4h.73l5.58,24.31a7,7,0,1,0,9,7.37H40A7,7,0,0,0,54,42ZM14,36.31A5.72,5.72,0,1,1,8.24,42,5.72,5.72,0,0,1,14,36.31Zm24.11-7.37-3.92-.4V25a.67.67,0,1,0-1.33,0v3.45h0l-1.46-.2V24.89a.67.67,0,0,0-1.33,0v3.19l-1.53-.2v-3a.66.66,0,1,0-1.32,0v2.86l-1.53-.2V24.82a.67.67,0,0,0-1.33,0v2.53L20,26.88V25a2.74,2.74,0,0,1,2.73-2.73H35.34A2.74,2.74,0,0,1,38.06,25ZM46.3,35A7.05,7.05,0,0,0,40,41.3H20.92a7,7,0,0,0-7-6.38,2.55,2.55,0,0,0-.73.07l-1.73-7.64,30.82,3.38A4.5,4.5,0,0,1,46.3,35Zm6.37,7A5.68,5.68,0,1,1,47,36.31,5.62,5.62,0,0,1,52.67,42Z"/><path class="cls-2" d="M50.21,41.74A3.18,3.18,0,0,0,47,38.55a3.19,3.19,0,1,0,3.18,3.19Zm-1.32,0A1.86,1.86,0,0,1,47,43.6a1.86,1.86,0,0,1,0-3.72A1.86,1.86,0,0,1,48.89,41.74Z"/><path class="cls-2" d="M14,38.48a3.19,3.19,0,0,0-3.19,3.19,3.19,3.19,0,0,0,6.38,0A3.19,3.19,0,0,0,14,38.48Zm0,1.33a1.86,1.86,0,0,1,1.86,1.86A1.9,1.9,0,0,1,14,43.53a1.86,1.86,0,0,1,0-3.72Z"/></svg>