<svg id="Layer_1" data-name="Layer 1" xmlns="http://www.w3.org/2000/svg" viewBox="0 0 54 49"><defs><style>.cls-1{fill:#5b6973;}.cls-2{fill:#4bb6df;}</style></defs><title>icons</title><path class="cls-1" d="M10,11.23a2,2,0,0,0,.71.55l12.69,5.9,3.47,1.59-.38.84c-1.47,3.22-4.19,9.16-6.13,13.27l-1.12-.52-3.84-1.8C12,29.5,8.59,27.89,5.22,26.29A4.54,4.54,0,0,1,2.6,22.54a.85.85,0,0,0,0-.17v-.73c0-.12.06-.24.08-.37a6.06,6.06,0,0,1,.21-.78c.61-1.42,1.23-2.8,1.85-4.13a10.39,10.39,0,0,0,.15,1.7,4.41,4.41,0,0,0,3.09,3.36,3.85,3.85,0,0,0,.94.21l.26,0a1.24,1.24,0,0,0,.27,0,1.5,1.5,0,0,0,1.5-1.5V18a1.56,1.56,0,0,0-.9-1.38c0-.89,0-3,0-5.34M10.94,0H8.42c0,.1.07,16.55.1,17.1a.68.68,0,0,0,.59.73,1.57,1.57,0,0,1,.3.12V20.2a5.83,5.83,0,0,1-1-.19,3,3,0,0,1-2.13-2.24,10.22,10.22,0,0,1-.12-1.84c0-1.29-.06-2.59-.08-3.89,0-.15,0-.3,0-.45L6,11.54a9.65,9.65,0,0,0-1,1.18,22.94,22.94,0,0,0-1.35,2.42c-.74,1.57-1.46,3.16-2.14,4.76a11.55,11.55,0,0,0-.42,1.56v1.12a1.09,1.09,0,0,1,.05.17,6,6,0,0,0,3.47,4.89c4.65,2.22,9.33,4.39,14,6.58l1.35.63a1.26,1.26,0,0,0,.53.11,1.23,1.23,0,0,0,1.12-.7c2-4.13,4.76-10.29,6.24-13.53l.38-.84a1.47,1.47,0,0,0-.72-1.95L24,16.32l-12.69-5.9A.54.54,0,0,1,11,9.93c0-3.3,0-6.61,0-9.91l0,0Z"/><path class="cls-2" d="M41,49a1.38,1.38,0,0,1-.79-.67c-.68-1.18-1.36-2.35-2-3.54a1,1,0,0,1,.41-1.32.91.91,0,0,1,1.33.19c.6.9,1.14,1.84,1.69,2.77a7.78,7.78,0,0,1,.5,1,1.05,1.05,0,0,1-.56,1.43l-.2.09Z"/><path class="cls-1" d="M38.89,19.09l-.73,1.62c-.91,2-1.85,4.08-2.8,6.1-1.67,3.57-3.36,7.13-5,10.7l-2.43,5.13c-.53-1-1.08-2-1.67-3.2-.36-.7-.71-1.4-1.06-2.11l-.57-1.15q3.6-7.71,7.2-15.43l5.32-1.25,1.78-.41m.63-1.67a.5.5,0,0,0-.17,0L31,19.39a.55.55,0,0,0-.4.34Q26.83,27.86,23,36a.46.46,0,0,0,0,.44c.62,1.23,1.22,2.47,1.84,3.7s1.36,2.61,2.06,3.91a1,1,0,0,0,.83.55,1.19,1.19,0,0,0,.64-.2,1.83,1.83,0,0,0,.72-.86q3.79-8,7.59-16.08c1.26-2.69,2.47-5.39,3.69-8.09a6.6,6.6,0,0,0,.2-.63,1.48,1.48,0,0,0-.36-.89,1.08,1.08,0,0,0-.73-.42Z"/><path class="cls-2" d="M46.61,36.18a1.09,1.09,0,0,1-1.39,1c-2.37-1-4.76-2-7.14-3a1,1,0,0,1-.5-1.41,1,1,0,0,1,1.36-.53c2.36,1,4.71,2,7.06,3A1,1,0,0,1,46.61,36.18Z"/><path class="cls-2" d="M41.08,28.19a1.07,1.07,0,0,1-.4-2.1c1.8-.45,3.59-.93,5.39-1.38a1.11,1.11,0,0,1,1.21.62,1,1,0,0,1-.3,1.24,2,2,0,0,1-.63.32c-1.69.44-3.37.86-5.06,1.28C41.21,28.19,41.12,28.18,41.08,28.19Z"/><path class="cls-2" d="M36.37,38.51a1.07,1.07,0,0,1,1,.48A10.45,10.45,0,0,1,38,40.37a.9.9,0,0,1-.45,1.13,1,1,0,0,1-1.28-.08,3.5,3.5,0,0,1-.91-1.69A1.07,1.07,0,0,1,36.37,38.51Z"/><path class="cls-2" d="M47.58,36.46a1.39,1.39,0,0,1,1,0c1.26.51,2.52,1,3.77,1.54a1,1,0,0,1,.48,1.3.91.91,0,0,1-1.16.67c-1-.34-2-.74-3-1.14a8.41,8.41,0,0,1-1-.52,1,1,0,0,1-.44-1.47c0-.07.07-.13.1-.19Z"/><path class="cls-2" d="M51.25,24.71a1.08,1.08,0,0,1-.7.84,11.06,11.06,0,0,1-1.49.34.93.93,0,0,1-1-.71A1,1,0,0,1,48.45,24a3.48,3.48,0,0,1,1.86-.49A1.07,1.07,0,0,1,51.25,24.71Z"/><path class="cls-1" d="M16.46,22.46a.57.57,0,0,0-.51.31c-.13.23-.07.42.23.62a3.28,3.28,0,0,0,.31.2c.53.26,1,.53,1.58.78,1.15.53,2.31,1.07,3.48,1.58a.65.65,0,0,0,.26.06c.29,0,.5-.24.5-.62,0-.21-.12-.31-.3-.39l-5.33-2.49a.59.59,0,0,0-.22-.05Z"/><path class="cls-1" d="M19,17a.53.53,0,0,0-.44.32.35.35,0,0,0,.11.51,2.85,2.85,0,0,0,.52.33c1.66.78,3.32,1.56,5,2.32a.49.49,0,0,0,.2.05.55.55,0,0,0,.53-.57.61.61,0,0,0-.38-.46c-1.25-.6-2.5-1.2-3.75-1.78-.54-.26-1.09-.47-1.64-.69A.35.35,0,0,0,19,17Z"/><path class="cls-1" d="M17.63,19.74a.32.32,0,0,0-.29.15.84.84,0,0,0-.1.54.62.62,0,0,0,.31.33Q20,21.92,22.5,23.05a6.15,6.15,0,0,0,.69.23,1.35,1.35,0,0,0,.33-.26.4.4,0,0,0-.16-.65c-.87-.45-1.75-.91-2.64-1.33s-1.89-.83-2.85-1.25a.69.69,0,0,0-.24-.05Z"/></svg>