<svg id="Layer_1" data-name="Layer 1" xmlns="http://www.w3.org/2000/svg" viewBox="0 0 59.33 49"><defs><style>.cls-1{fill:#5b6973;}.cls-2{fill:#4bb6df;}</style></defs><title>icons</title><path class="cls-1" d="M26.92,31.87v5.46H13.58V31.87H26.92m1.5-1.5H12.08v8.46H28.42V30.37Z"/><path class="cls-2" d="M45.34,31.85v5.47H32.08V31.85H45.34m1.5-1.5H30.58v8.47H46.84V30.35Z"/><path class="cls-1" d="M36.22,21.92V27.4H22.75V21.92H36.22m1.5-1.5H21.25V28.9H37.72V20.42Z"/><path class="cls-1" d="M17.36,42V47.5H4.05V42H17.36m1.5-1.5H2.55V49H18.86V40.53Z"/><path class="cls-1" d="M36.21,42v5.47H22.73V42H36.21m1.5-1.5H21.23V49H37.71V40.51Z"/><path class="cls-1" d="M55.05,42V47.5H41.78V42H55.05m1.5-1.5H40.28V49H56.55V40.54Z"/></svg>