<svg id="Layer_1" data-name="Layer 1" xmlns="http://www.w3.org/2000/svg" viewBox="0 0 54 49"><defs><style>.cls-1{fill:#5b6973;stroke:#5b6973;stroke-linecap:round;stroke-linejoin:round;stroke-width:0.5px;}</style></defs><title>dop</title><path class="cls-1" d="M35.66,2.5l-.19-.11-.19.11L4,20.56l-.2.11V22l.2.11,6,3.44.14.09.15.12.14.14.12.14.13.18.12.18.1.19.08.19.06.18.05.19,0,.17v4.92L4,36.3l-.19.11v1.31l.19.11L19,46.5l.19.11.19-.11L50.68,28.44l.19-.11V27l-.19-.11-6-3.44-.13-.09-.15-.12-.15-.15L44.16,23l-.11-.16-.12-.19-.1-.18-.09-.2-.06-.2,0-.17,0-.18V16.78l7.08-4.08.19-.11V11.28l-.19-.11Zm14.67,9.77-7.2,4.15L19.37,30.15v-.51l31-17.87Zm0,15.75-31,17.87v-.5l31-17.87ZM35.47,3l14.7,8.49-31,17.87L4.51,20.89Zm8,19.9.12.2h0l.14.2h0l.16.17h0l.16.16h0l.17.14h0l0,0-31,17.88-.14-.1L13,41.5l-.16-.15-.15-.17L12.58,41l-.12-.2-.11-.2-.09-.21-.07-.21L12.13,40l0-.2V39.6l31-17.88v0h0l0,.21h0l0,.22h0l.07.22h0l.1.22h0l.11.21ZM11.27,39.64l0,.13-.06.11-.08.09L11,40l-.1,0-.1,0h-.13l-.14,0-.1,0,.86-.5Zm.86-12.22,0-.14.06-.11.08-.08L12.4,27l.1,0,.1,0h.13l.14,0L13,27l-.87.5Zm30.92-5.91L12.1,39.38V27.76l1.09-.63,5.94,3.43h0l.08,0,.08,0h0L43.05,16.84ZM11.31,39.3l-1.09.63-5.71-3.3,6.8-3.92V39.3Zm7.9,5.82L13.5,41.83,44.46,24l5.71,3.29Z"/></svg>