<svg id="Layer_1" data-name="Layer 1" xmlns="http://www.w3.org/2000/svg" viewBox="0 0 54 49"><defs><style>.cls-1{fill:#5b6973;}.cls-2{fill:#4bb6df;}</style></defs><title>icons</title><path class="cls-1" d="M6.18,13.68a.72.72,0,0,0-.71.62l-.62,4.31h-4a.72.72,0,0,0-.76.68A.72.72,0,0,0,.81,20a.11.11,0,0,0,.08,0H4.65L4.18,23.3H.89a.72.72,0,0,0-.1,1.44H4L3.51,28H.89a.72.72,0,0,0-.05,1.43H3.3l-.46,3.26H.89a.72.72,0,1,0,0,1.43H2.63L1.24,43.88a.72.72,0,0,0,.6.82H5.12A.73.73,0,0,0,5.84,44a.72.72,0,0,0-.72-.71H2.78l1.31-9.15h9.5a.7.7,0,0,0,.71-.72.71.71,0,0,0-.71-.71H4.29l.47-3.26H17.82a.72.72,0,0,0,.75-.69.71.71,0,0,0-.69-.74H5l.47-3.26H22.06a.72.72,0,0,0,.1-1.44H5.63L6.1,20H26.29a.72.72,0,0,0,0-1.43H6.3l.51-3.49H29.47a.71.71,0,0,0,.67-.76.72.72,0,0,0-.67-.68ZM31.58,19a.71.71,0,0,0-.71.62L28.76,35.44a.71.71,0,0,0,.63.79.72.72,0,0,0,.79-.6l2-15.23h10.5l3,9a.73.73,0,0,0,.25.35l6.51,5-1.89,8.5H48.52a.72.72,0,0,0,0,1.44h2.65a.74.74,0,0,0,.71-.57L54,34.63a.71.71,0,0,0-.26-.72L47,28.76l-3.1-9.3a.72.72,0,0,0-.68-.49Zm3.19,3h0a.71.71,0,0,0-.71.63L33,30.79a.72.72,0,0,0,.61.81h10.2a.72.72,0,0,0,.72-.72.67.67,0,0,0,0-.24l-2.9-8.2A.71.71,0,0,0,40.9,22Zm.63,1.45h5l2.38,6.76H34.51l.89-6.77ZM26.93,43.27a.72.72,0,0,0,0,1.44h9.62a.72.72,0,1,0,0-1.44Z"/><path class="cls-2" d="M42.77,40a4.43,4.43,0,1,0,4.43,4.43A4.44,4.44,0,0,0,42.77,40Zm0,7.42a3,3,0,1,1,3-3A3,3,0,0,1,42.77,47.4Z"/><path class="cls-2" d="M21.09,40a4.43,4.43,0,1,0,4.43,4.43A4.44,4.44,0,0,0,21.09,40Zm0,7.42a3,3,0,1,1,3-3A3,3,0,0,1,21.09,47.4Z"/><path class="cls-2" d="M10.88,40a4.43,4.43,0,1,0,4.43,4.43A4.44,4.44,0,0,0,10.88,40Zm0,7.42a3,3,0,1,1,3-3A3,3,0,0,1,10.88,47.4Z"/></svg>