<svg id="Layer_1" data-name="Layer 1" xmlns="http://www.w3.org/2000/svg" viewBox="0 0 54 49"><defs><style>.cls-1{fill:#5b6973;}.cls-2{fill:#4bb6df;}</style></defs><title>icons</title><path class="cls-1" d="M33.73,4.75l4.82,4.82L17.27,30.85,12.46,26,33.73,4.75m0-1.7a1,1,0,0,0-.7.29l-22,22a1,1,0,0,0,0,1.42l5.53,5.52a1,1,0,0,0,.7.29,1,1,0,0,0,.71-.29l22-22a1,1,0,0,0,0-1.42L34.44,3.34a1,1,0,0,0-.71-.29Z"/><polygon class="cls-1" points="33.73 1.08 40.36 7.7 40.67 7.39 33.73 0.45 10.34 23.85 10.65 24.16 33.73 1.08"/><polygon class="cls-2" points="35.37 17.8 41.99 24.43 42.31 24.11 35.37 17.18 11.97 40.57 12.28 40.89 35.37 17.8"/><path class="cls-2" d="M35.37,21.24l4.81,4.81L18.91,47.33l-4.82-4.81L35.37,21.24m0-1.71a1,1,0,0,0-.71.29l-22,22a1,1,0,0,0,0,1.41l5.52,5.53a1,1,0,0,0,.71.29,1,1,0,0,0,.7-.29l22-22a1,1,0,0,0,0-1.41l-5.52-5.53a1,1,0,0,0-.71-.29Z"/></svg>