<svg id="Layer_1" data-name="Layer 1" xmlns="http://www.w3.org/2000/svg" viewBox="0 0 54 49"><defs><style>.cls-1{fill:#5b6973;}.cls-2{fill:#4bb6df;}</style></defs><title>icons</title><path class="cls-1" d="M44.05,13.7V9.34c0-4.3-8.93-6.61-17.36-6.61S9.33,5,9.33,9.34V41c0,4.29,8.93,6.61,17.36,6.61S44.05,45.31,44.05,41V35.7a11.13,11.13,0,0,0,2.6.34,5.42,5.42,0,0,0,4-1.42C54,31.29,51.4,23.09,44.05,13.7ZM42.3,33.27c-.79-.29-1.7-.68-2.6-1.08A62.35,62.35,0,0,1,23.86,20.32a.88.88,0,0,0-1.24,1.24A64.09,64.09,0,0,0,39,33.78a30.79,30.79,0,0,0,3.34,1.35v4.64a8.77,8.77,0,0,1-4.24,2.49.48.48,0,0,0-.29.57.43.43,0,0,0,.4.28h.11a12.74,12.74,0,0,0,4-2v.06c-.05,1.07-1.64,2.2-4.24,3.11a35.39,35.39,0,0,1-11.37,1.64,35.65,35.65,0,0,1-11.37-1.64c-2.6-.91-4.12-2-4.24-3.11V41c2.55,2.2,8.49,3.73,15.56,3.73h1.58a.46.46,0,0,0,0-.91H26.63c-8.09,0-13.91-1.92-15.55-4.07V12.34a.06.06,0,0,1,.06.06l.17.17a1.77,1.77,0,0,1,.67,1V31c0,1.75,1,2.88,2.44,2.88.67,0,2.31-.28,2.31-2.88V20.2h.12a1.22,1.22,0,0,1,.51.17v4a2.09,2.09,0,1,0,4.18,0V16.13a.77.77,0,0,1,.17-.45.4.4,0,0,1,.28-.06,43.86,43.86,0,0,0,4.76.23c6.1,0,12.55-1.25,15.55-3.57ZM19.85,15.34a2.33,2.33,0,0,0-.12.73v8.26a.34.34,0,0,1-.68,0l.06-4.24a2.17,2.17,0,0,0-2.26-1.7A1.82,1.82,0,0,0,15,20.09v10.8C15,32,14.64,32,14.42,32s-.68,0-.68-1.13V13.75A27.23,27.23,0,0,0,19.85,15.34Zm-3.28-2.43a39.06,39.06,0,0,1,10.18-1.25,39.17,39.17,0,0,1,10.18,1.25,39,39,0,0,1-10.18,1.24c-1.59,0-3.12-.11-4.64-.23A34.19,34.19,0,0,1,16.57,12.91ZM42.36,9.46c-.17,1-1.59,2.09-4,2.94a37.2,37.2,0,0,0-11.65-1.64A37.22,37.22,0,0,0,15.09,12.4a12.8,12.8,0,0,1-2.6-1.3,2.94,2.94,0,0,1-1.3-1.64V9.12c.12-1,1.7-2.15,4.19-3.06A35.39,35.39,0,0,1,26.75,4.42,35.58,35.58,0,0,1,38.11,6.06c2.49.85,4.08,2,4.25,3.06Zm7.07,23.86c-1,1-2.89,1.19-5.38.57V16.64a40.32,40.32,0,0,1,5.43,9.78C50.67,29.7,50.61,32.14,49.43,33.32Z"/><path class="cls-2" d="M13.74,30.89c0,1.13.51,1.13.68,1.13S15,32,15,30.89V20.09a1.82,1.82,0,0,1,1.87-1.7,2.17,2.17,0,0,1,2.26,1.7l-.06,4.24a.34.34,0,0,0,.68,0V16.07a2.33,2.33,0,0,1,.12-.73,27.23,27.23,0,0,1-6.11-1.59Z"/><path class="cls-2" d="M26.75,14.15a39,39,0,0,0,10.18-1.24,39.17,39.17,0,0,0-10.18-1.25,39.06,39.06,0,0,0-10.18,1.25,34.19,34.19,0,0,0,5.54,1C23.63,14,25.16,14.15,26.75,14.15Z"/></svg>