<svg id="Layer_1" data-name="Layer 1" xmlns="http://www.w3.org/2000/svg" viewBox="0 0 54 49"><defs><style>.cls-1{fill:#4bb6df;}.cls-2{fill:#5b6973;}</style></defs><title>icons</title><path class="cls-1" d="M17,45.85a.58.58,0,0,1-.2.79l-.31.2A.58.58,0,0,1,16.22,48h-.79a.59.59,0,0,1-.58-.53c0-.16,0-1,1.32-1.78A.57.57,0,0,1,17,45.85Z"/><path class="cls-1" d="M18.24,39.39a.58.58,0,0,0-.58.58V44.3a.58.58,0,0,0,1.16,0v-.47a.57.57,0,0,0,.51-.36.58.58,0,0,0-.33-.75h0l-.09-.06-.06,0V40A.58.58,0,0,0,18.24,39.39Z"/><path class="cls-1" d="M15.15,45.88A3.54,3.54,0,0,0,16.49,43v-2.5c0-7.06,0-7.19-1.48-8.79l-.47-.51c-3.76-4.2-2.75-7.46-2.7-7.6a.58.58,0,1,0-1.09-.37c-.06.16-1.31,4,2.93,8.74l.48.52a2.83,2.83,0,0,1,1,1.83,55.52,55.52,0,0,1,.15,6.18c0,.75,0,1.58,0,2.49a2.46,2.46,0,0,1-.83,2,3.32,3.32,0,0,0-1.38,2.36.59.59,0,0,0,.55.61h0a.57.57,0,0,0,.57-.55A2.18,2.18,0,0,1,15.15,45.88Z"/><path class="cls-1" d="M14.09,39.8c0-2.33,0-3.85,0-4.93a.54.54,0,0,0,.25.06.55.55,0,0,0,.41-.18.56.56,0,0,0,0-.81c-4.72-4.59-7-8.93-7-13.25a47.44,47.44,0,0,1,1-9.48.59.59,0,0,0-.1-.47.61.61,0,0,0-.42-.24A30.48,30.48,0,0,1,3.81,10a3.35,3.35,0,0,1-1.7-1.18.58.58,0,0,0-.92.7,4.52,4.52,0,0,0,2.27,1.58,25.7,25.7,0,0,0,4,.55,49.17,49.17,0,0,0-.9,9.09c0,4.3,2.06,8.55,6.28,13a.33.33,0,0,0,0,.14c.13,1,.13,2.8.12,6v2.49a2.46,2.46,0,0,1-.83,2,3.24,3.24,0,0,0-1.38,2.36.56.56,0,0,0,.54.6h0a.58.58,0,0,0,.58-.55,2.1,2.1,0,0,1,.88-1.47,3.58,3.58,0,0,0,1.33-2.92C14.08,41.37,14.08,40.55,14.09,39.8Z"/><path class="cls-1" d="M9.39,4.11a.58.58,0,0,0-.57.58V8.87a2.69,2.69,0,0,0,5.38,0V4.69a.58.58,0,1,0-1.15,0V8.87a1.54,1.54,0,0,1-3.08,0V4.69A.58.58,0,0,0,9.39,4.11Z"/><path class="cls-1" d="M1.45,7.4a6.42,6.42,0,0,1-.16-1.08H5.05A.58.58,0,0,0,5.54,6a7.56,7.56,0,0,1,6-3.47c1.94,0,4.52.74,4.52,7.13a8.76,8.76,0,0,0,3.65,7.62A30.81,30.81,0,0,1,28.43,27a.56.56,0,0,0,.5.29.53.53,0,0,0,.28-.07.58.58,0,0,0,.22-.79,31.86,31.86,0,0,0-9-10.08A7.67,7.67,0,0,1,17.26,9.7a11.84,11.84,0,0,0-1.14-5.78,4.85,4.85,0,0,0-4.54-2.5A8.53,8.53,0,0,0,4.74,5.17h-4a.56.56,0,0,0-.57.52,6.14,6.14,0,0,0,.18,2A.59.59,0,0,0,1,8.1.57.57,0,0,0,1.45,7.4Z"/><path class="cls-1" d="M7.11,5.26a.48.48,0,0,0,.48.48.47.47,0,0,0,.48-.48.48.48,0,0,0-.48-.48A.49.49,0,0,0,7.11,5.26Z"/><path class="cls-2" d="M22,45.45h0a.56.56,0,0,0,.57-.55,12.77,12.77,0,0,0-1-5.91,15.76,15.76,0,0,1-1.64-4.85.57.57,0,0,0-1.14.15,16.2,16.2,0,0,0,.82,3.13l-.09-.13-.12-.23a.34.34,0,0,0-.09-.12A10.44,10.44,0,0,1,17.85,32V28.52l0-.08c-.4-1.27-1.61-1.22-2.33-1.2a2.43,2.43,0,0,1-.56,0,4.51,4.51,0,0,1-1.07-1.15,2.55,2.55,0,0,0,1-1.83,3.37,3.37,0,0,1,.46-1.8.57.57,0,1,0-1-.6,4.5,4.5,0,0,0-.64,2.4c0,.44-.52.94-1,1.28l-.42.33.3.44c.35.54,1.25,1.8,2,2a3.07,3.07,0,0,0,1,.07c.79,0,1,0,1.16.31V32a11.37,11.37,0,0,0,1.78,5.9,19.9,19.9,0,0,1,1.19,6.36c0,.32.24.52.56.61h0a.59.59,0,0,0,.58-.58,20.32,20.32,0,0,0-.46-4c.2.19.4.38.62.57l0,0a15.69,15.69,0,0,1,.38,4A.56.56,0,0,0,22,45.45Z"/><path class="cls-2" d="M15.69,25.05a.45.45,0,1,0-.45-.44A.45.45,0,0,0,15.69,25.05Z"/><path class="cls-2" d="M16.92,17.37a1.15,1.15,0,0,0-1.27,1.1V21.7a.58.58,0,1,0,1.16,0V18.6a.13.13,0,0,1,0-.08,1.84,1.84,0,0,1,.92.58,6.19,6.19,0,0,1,1.39,2.72.58.58,0,1,0,1.11-.31C19.23,17.82,17.3,17.41,16.92,17.37Z"/><path class="cls-2" d="M52.47,46c-.09,0-8.6,0-11.16-.54-.58-.11-.7-.48-.83-1.24l-.06-.3c-.08-.37-.15-1.29-.2-1.79v-.22c-.43-5-1.92-8.53-4.56-10.84a16.93,16.93,0,0,0-7.22-3.28l-.88-.23c-1.15-.31-2.83-2.35-3.32-3.51-.88-2.08-1.82-3.32-3-3.91a.57.57,0,1,0-.53,1c.88.46,1.67,1.55,2.42,3.34.51,1.21,2.36,3.7,4.09,4.18l.89.23a15.66,15.66,0,0,1,6.75,3c2.4,2.1,3.77,5.4,4.17,10.07v.22c.07.75.13,1.52.22,1.93,0,.08,0,.17.05.26a2.26,2.26,0,0,0,1.75,2.17c2.66.53,11,.56,11.37.56.08,0,.24.19.24.38a.27.27,0,0,1-.24.28H41a2.73,2.73,0,0,1-2.76-2.3.58.58,0,0,0-.05-.14V42.18a.57.57,0,0,0-.57-.58.58.58,0,0,0-.58.58v4.63a.15.15,0,0,0,0,.07,1,1,0,0,1-.18.64.91.91,0,0,1-.71.24H26.32a1.37,1.37,0,0,1,.15-.21A2.56,2.56,0,0,1,28.31,47h4.83a.58.58,0,0,0,0-1.16h-4.6a1,1,0,0,1-1.07-1v-.38h.05a.86.86,0,0,0-.05-.27c.18-5.37,5.44-5.47,5.67-5.48a.58.58,0,0,0,.58-.58.59.59,0,0,0-.58-.59h0a8.53,8.53,0,0,0-3.39.87,6.13,6.13,0,0,0-3.34,4.72c-.2-.13-.43-.26-.66-.39a8.4,8.4,0,0,1-1-.6V39.49a.58.58,0,0,0-1.16,0v7.35L23.5,47a2.57,2.57,0,0,0-.6.79H21.06a.8.8,0,0,1,.13-.22.68.68,0,0,1,.52-.19.58.58,0,0,0,.58-.58.59.59,0,0,0-.59-.57,1.8,1.8,0,0,0-1.36.56l0,0H18.56a.77.77,0,0,1,.14-.21.62.62,0,0,1,.51-.19.58.58,0,0,0,.58-.58.59.59,0,0,0-.59-.57,1.8,1.8,0,0,0-1.36.56,2.31,2.31,0,0,0-.51,1.62.57.57,0,0,0,.57.53h1.94a1.56,1.56,0,0,0,0,.43.57.57,0,0,0,.57.53h2.89a.58.58,0,0,0,.55-.41,1.27,1.27,0,0,1,.32-.55H25a2.6,2.6,0,0,0,0,.43.57.57,0,0,0,.57.53H36.2a2,2,0,0,0,1.57-.62,1.91,1.91,0,0,0,.35-.61A3.77,3.77,0,0,0,41,48.91H52.46a1.44,1.44,0,0,0,1.4-1.43A1.5,1.5,0,0,0,52.47,46ZM24.78,43.62v-.07l.41.23a7.26,7.26,0,0,1,1.12.72h0v.36h-.46a1,1,0,0,1-1.07-1Zm.82,3.18h-.82v-1a2.29,2.29,0,0,0,1.07.24h.83l0,0a2.72,2.72,0,0,0-1.1.71Z"/></svg>