<svg id="Layer_1" data-name="Layer 1" xmlns="http://www.w3.org/2000/svg" viewBox="0 0 54 51.64"><defs><style>.cls-1{fill:#5b6973;}.cls-2{fill:#4bb6df;stroke:#fff;stroke-linejoin:round;}</style></defs><title>dop</title><path class="cls-1" d="M10.48,3.4l.25.14a4.34,4.34,0,0,1,.82.52c2.52,2.47,5.21,5.12,7.81,7.82a2,2,0,0,1-.13,2.88l-1.86,1.85L15,19a3,3,0,0,0-.36,4.48A60.39,60.39,0,0,0,29.16,38a3.68,3.68,0,0,0,2.12.82,3.36,3.36,0,0,0,2.36-1.17l3-3,1-1a2.62,2.62,0,0,1,1.74-.93,2.64,2.64,0,0,1,1.75.92l.67.66c1.81,1.78,3.67,3.62,5.44,5.48a19.34,19.34,0,0,1,1.55,1.92l.43.58V43l-.15.21a12.16,12.16,0,0,1-.88,1.12c-.42.46-.87.9-1.34,1.36s-1.06,1-1.57,1.59a6.79,6.79,0,0,1-3.68,1.93l-.61.17H38.07l-1.37-.32c-1.1-.25-2.14-.5-3.15-.83a42.63,42.63,0,0,1-14.4-8.68C12.77,34,8.33,28.27,5.57,22a38.21,38.21,0,0,1-1.68-5.14c-.2-.76-.42-1.54-.65-2.31V11.69l.12-.46a8.54,8.54,0,0,1,.34-1.17C4.81,7.24,7.15,5.39,9.63,3.43l0,0h.82m.4-1.5H9.14C6.43,4.05,3.63,6.13,2.3,9.52a18.52,18.52,0,0,0-.56,2v3.26A69.11,69.11,0,0,0,4.2,22.58c3.15,7.17,8.1,13,14,18.12a44.38,44.38,0,0,0,14.91,9c1.57.53,3.21.83,4.82,1.23h3.27l.82-.22a8.41,8.41,0,0,0,4.43-2.37c.92-1,2-1.94,2.9-2.94.53-.58,1-1.25,1.43-1.87V41.76c-.79-1-1.51-2.1-2.39-3-2-2.1-4.08-4.13-6.15-6.16a4,4,0,0,0-2.8-1.36,4,4,0,0,0-2.81,1.37c-1.33,1.34-2.65,2.68-4,4a2,2,0,0,1-1.31.74A2.29,2.29,0,0,1,30,36.78,59,59,0,0,1,15.85,22.62c-.77-1.1-.74-1.62.21-2.57,1.4-1.42,2.82-2.82,4.23-4.23a3.45,3.45,0,0,0,.15-5C17.88,8.17,15.24,5.58,12.59,3A9.58,9.58,0,0,0,10.88,1.9Z"/><path class="cls-2" d="M50.74,27.17H46.19A20.85,20.85,0,0,0,25.48,6.46V1.9h2.17a3.67,3.67,0,0,0,.62.19A25.13,25.13,0,0,1,50.17,22c.21,1,.38,2,.57,3Z"/><path class="cls-2" d="M40.66,26.32H36.31c-.68-5.95-4-9.28-10-10V12C33.47,11.51,41,18.23,40.66,26.32Z"/></svg>