<svg id="Layer_1" data-name="Layer 1" xmlns="http://www.w3.org/2000/svg" viewBox="0 0 54 49"><defs><style>.cls-1{fill:#4bb6df;}.cls-2{fill:#5b6973;}</style></defs><title>icons</title><path class="cls-1" d="M17.44,22h0a1.34,1.34,0,0,1,1,.42,8.35,8.35,0,0,0,1.1.95l.4.31.16.13,0,0,3.11,2.64-1.62,1.81-3.7,4.11-.73.81.55.94,0,0,.05.09.59,1L19.56,35l.57-.17,1.23-.36,2.48-.7C25.89,33.18,28,32.59,30.1,32a.8.8,0,0,1,.24,0s.12,0,.38.16c1.06.7,2.16,1.38,3.22,2l1.63,1c.67.42,1.39.87,2.06,1.33.14.1.36.24.25.91,0,.13,0,.25-.56.38-2.2.57-4.41,1.19-6.56,1.79l-2.1.59-21.76,6-.22.06a11.15,11.15,0,0,0-1.13.36A1.34,1.34,0,0,1,5,46.7a1.8,1.8,0,0,1-1-.36A6.52,6.52,0,0,1,1.68,43.8a1,1,0,0,1,.1-1.27c2.78-3.87,5.57-7.82,8.28-11.64q1.51-2.16,3-4.31l.92-1.3c.57-.78,1.15-1.59,1.71-2.41a2.22,2.22,0,0,1,1.7-.84m0-1.5A3.69,3.69,0,0,0,14.51,22c-.86,1.24-1.75,2.46-2.62,3.69C8.12,31,4.37,36.36.56,41.65a2.48,2.48,0,0,0-.21,2.84A8.09,8.09,0,0,0,3.19,47.6a3.26,3.26,0,0,0,1.8.6A2.94,2.94,0,0,0,6.12,48,10,10,0,0,1,7.3,47.6l21.76-6c2.88-.8,5.75-1.62,8.64-2.37a1.93,1.93,0,0,0,1.66-1.59,2.24,2.24,0,0,0-.88-2.39c-.7-.47-1.4-.92-2.11-1.36-1.61-1-3.24-2-4.83-3a2.18,2.18,0,0,0-1.2-.4,2.14,2.14,0,0,0-.68.11c-2.89.88-5.81,1.67-8.71,2.5l-1.82.53-.07-.13,6.35-7.07-4.3-3.63c-.06-.06-.14-.11-.21-.17a12.35,12.35,0,0,1-1.36-1.13,2.82,2.82,0,0,0-2.1-.89Z"/><path class="cls-2" d="M48.28,2.5A2.11,2.11,0,0,1,49.46,3a6.31,6.31,0,0,1,2.77,4,1.48,1.48,0,0,1-1,2c-2.54,1-5.14,2-7.64,3L40.4,13.17l-1.2.47-4.05,1.58a.61.61,0,0,1-.15,0,.55.55,0,0,1-.32-.09A2.31,2.31,0,0,0,33,14.33h-.21A2.32,2.32,0,0,0,33,12.56a3.08,3.08,0,0,1-.08-.56,2.53,2.53,0,0,1,.49-.37l3.37-2.12c3.43-2.15,7-4.38,10.44-6.63a2.08,2.08,0,0,1,1.07-.38m0-1.7a3.62,3.62,0,0,0-2,.66c-4.57,3-9.19,5.83-13.79,8.73a2.1,2.1,0,0,0-1.16,2.75.59.59,0,0,1-.35.76c-1,.62-2.06,1.25-3.07,1.9-.35.22-.73.41-.75,1-.09,3.51-.19,7-.31,10.52a1.12,1.12,0,0,1-.33.71c-1.37,1.24-2.78,2.45-4.2,3.69l.12,0h0c2.29-.89,4.57-1.76,6.85-2.66a.55.55,0,0,0,.25-.4c.06-.95.09-1.9.12-2.85.08-2.46.14-4.93.23-7.39a.85.85,0,0,1,.35-.57c.74-.5,1.54-.93,2.27-1.44A.82.82,0,0,1,33,16a.68.68,0,0,1,.48.27,2.23,2.23,0,0,0,2.34.5l5.25-2c3.62-1.4,7.24-2.79,10.85-4.22a3.15,3.15,0,0,0,2-3.91,8.1,8.1,0,0,0-3.47-5.08A3.78,3.78,0,0,0,48.28.8Z"/></svg>