<svg id="Layer_1" data-name="Layer 1" xmlns="http://www.w3.org/2000/svg" viewBox="0 0 54 49"><defs><style>.cls-1{fill:none;stroke:#5b6973;stroke-miterlimit:10;}.cls-2{fill:#4bb6df;}.cls-3{fill:#5b6973;}</style></defs><title>icons</title><path class="cls-1" d="M2.62,12.31l3.25,4L18.67,6C16.59,3.6,12.93-.31,12,0s-.36,2.38.13,3.92C9.85,4.8,7.49,7.1,5.28,9.5,4.74,10.1,3.5,11.39,2.62,12.31Z"/><path class="cls-1" d="M1.53,13.5C0,15.37-.69,17.24.89,19.59c1.15,1.7,3.23,1.49,5.45.81L7,20.18Z"/><path class="cls-1" d="M19.79,7.1,6.87,17.55,8.53,19.6c2.16-.76,4.55-1.47,5.46-1,1.22.66,4.22,11.1,7.17,10.49C32.13,26.43,32,17.75,32,17.75,30,16,23.58,10.35,19.79,7.1Z"/><path id="stick" class="cls-2" d="M50.64,41.46a2.42,2.42,0,0,0-.35.12L31.43,24.88a14.2,14.2,0,0,1-1.58,1.83L48.68,43.39a2.8,2.8,0,0,0,0,1.35,2.71,2.71,0,1,0,2-3.28Z"/><path class="cls-3" d="M8.24,9.26a1.06,1.06,0,1,1-.76,1.28A1.06,1.06,0,0,1,8.24,9.26Z"/></svg>