<svg id="Layer_1" data-name="Layer 1" xmlns="http://www.w3.org/2000/svg" viewBox="0 0 54 49"><defs><style>.cls-1{fill:none;stroke:#5b6973;stroke-linejoin:round;stroke-width:1.5px;}.cls-2{fill:#4bb6df;}</style></defs><title>icons</title><rect class="cls-1" x="5.38" y="22.13" width="43.24" height="3.66" rx="1.71" ry="1.71"/><rect class="cls-1" x="23.05" y="0.98" width="7.91" height="2.79" rx="1.37" ry="1.37"/><path class="cls-2" d="M13.82,41.89A.85.85,0,0,1,13,41V28.68a.86.86,0,0,1,1.71,0V41A.85.85,0,0,1,13.82,41.89Z"/><path class="cls-2" d="M20.41,49.52a.86.86,0,0,1-.86-.85v-20a.86.86,0,0,1,1.72,0v20A.86.86,0,0,1,20.41,49.52Z"/><path class="cls-2" d="M27,41.89a.86.86,0,0,1-.86-.85V28.68a.86.86,0,0,1,1.72,0V41A.86.86,0,0,1,27,41.89Z"/><path class="cls-2" d="M33.59,49.52a.85.85,0,0,1-.86-.85v-20a.86.86,0,0,1,1.71,0v20A.85.85,0,0,1,33.59,49.52Z"/><path class="cls-2" d="M40.18,41.89a.85.85,0,0,1-.86-.85V28.68a.86.86,0,0,1,1.71,0V41A.85.85,0,0,1,40.18,41.89Z"/><path class="cls-1" d="M27,5.88A16.71,16.71,0,0,0,10.49,20h33A16.71,16.71,0,0,0,27,5.88Z"/></svg>