<svg id="Layer_1" data-name="Layer 1" xmlns="http://www.w3.org/2000/svg" viewBox="0 0 54 49"><defs><style>.cls-1{fill:#5b6973;stroke:#5b6973;}.cls-1,.cls-2{stroke-miterlimit:10;stroke-width:0.5px;}.cls-2{fill:#4bb6df;stroke:#4bb6df;}</style></defs><title>icons</title><path class="cls-1" d="M30.45,31.22V6.05a4.72,4.72,0,0,1,4.71-4.72h3.36a.55.55,0,0,1,.54.55.54.54,0,0,1-.54.54H35.16a3.64,3.64,0,0,0-3.63,3.63V31.22a.54.54,0,1,1-1.08,0Z"/><path class="cls-1" d="M14.7,28.54V6.05a4.72,4.72,0,0,1,4.71-4.72h3.36a.55.55,0,0,1,.54.55.54.54,0,0,1-.54.54H19.41a3.64,3.64,0,0,0-3.63,3.63V28.54a.54.54,0,1,1-1.08,0Z"/><path class="cls-1" d="M14.7,8.9a.55.55,0,0,1,.54-.55H31a.55.55,0,0,1,.54.55.54.54,0,0,1-.54.54H15.24A.54.54,0,0,1,14.7,8.9Z"/><path class="cls-1" d="M14.7,15.85a.55.55,0,0,1,.54-.55H31a.55.55,0,0,1,.54.55.54.54,0,0,1-.54.54H15.24A.54.54,0,0,1,14.7,15.85Z"/><path class="cls-1" d="M14.7,22.8a.55.55,0,0,1,.54-.55H31a.55.55,0,0,1,.54.55.54.54,0,0,1-.54.54H15.24A.54.54,0,0,1,14.7,22.8Z"/><path class="cls-2" d="M21.57,31.12a8,8,0,0,0-9.39,0,9.08,9.08,0,0,1-10.63,0,.55.55,0,0,1-.13-.76.54.54,0,0,1,.75-.14,8,8,0,0,0,9.39,0,9.07,9.07,0,0,1,10.62,0,8,8,0,0,0,9.39,0,9.08,9.08,0,0,1,10.63,0,8,8,0,0,0,9.38,0,.55.55,0,0,1,.62.9,9.07,9.07,0,0,1-10.62,0,8,8,0,0,0-9.39,0,9.06,9.06,0,0,1-10.62,0Z"/><path class="cls-2" d="M21.57,38.07a8,8,0,0,0-9.39,0,9.08,9.08,0,0,1-10.63,0,.55.55,0,0,1-.13-.76.54.54,0,0,1,.75-.14,8,8,0,0,0,9.39,0,9.07,9.07,0,0,1,10.62,0,8,8,0,0,0,9.39,0,9.08,9.08,0,0,1,10.63,0,8,8,0,0,0,9.38,0,.55.55,0,0,1,.62.9,9.07,9.07,0,0,1-10.62,0,8,8,0,0,0-9.39,0,9.06,9.06,0,0,1-10.62,0Z"/><path class="cls-2" d="M21.57,45a8,8,0,0,0-9.39,0A9.05,9.05,0,0,1,1.55,45a.54.54,0,0,1,.62-.89,8,8,0,0,0,9.39,0,9.05,9.05,0,0,1,10.62,0,8,8,0,0,0,9.39,0,9.08,9.08,0,0,1,10.63,0,8,8,0,0,0,9.38,0,.55.55,0,0,1,.76.14.53.53,0,0,1-.14.75,9,9,0,0,1-10.62,0,8,8,0,0,0-9.39,0,9,9,0,0,1-10.62,0Z"/></svg>