<svg id="Layer_1" data-name="Layer 1" xmlns="http://www.w3.org/2000/svg" viewBox="0 0 54 49"><defs><style>.cls-1{fill:#4bb6df;}.cls-2,.cls-3{fill:none;stroke:#5b6973;stroke-linecap:round;stroke-width:2px;}.cls-2{stroke-linejoin:round;}.cls-3{stroke-miterlimit:10;}</style></defs><title>icons</title><path class="cls-1" d="M17.41,14.78h0m-.2.19c2.88,2.88,5.54,5.53,8.11,8.08,0,0,.06.06.06.35v5.5c0,.15,0,.25,0,.31a1.06,1.06,0,0,0-.25.09H20.4c0-.24,0-.49,0-.73,0-1.19-.05-2.42,0-3.62a1.77,1.77,0,0,0-2-2h-.08l-1.05,0c-3.14,0-3.15,1.38-3.17,4.18,0,.29,0,.59,0,.89a8.51,8.51,0,0,1,0,1.34H9.38a1.29,1.29,0,0,0-.21-.07.36.36,0,0,0,0-.11h0v-6l2-2c2-2.06,4.09-4.12,6.12-6.18M9.12,22.8h0m8.09-9a.86.86,0,0,0-.58.31c-2.76,2.8-5.54,5.6-8.31,8.39l-.2.28v6.58a1.3,1.3,0,0,1,.1.15l-.07.07a.8.8,0,0,0,.66.67.16.16,0,0,1,.11-.07s.08,0,.11.1h5.64L15,30.1a11.75,11.75,0,0,0,.12-3c0-2.83,0-3.18,2.17-3.18l1.11,0c.77,0,1,.26,1,1,0,1.71,0,3.43.06,5.15a.43.43,0,0,1,.42.22h5.64c0-.07.06-.11.11-.11s.06,0,.1.06c.61-.25.69-.78.69-1.35V23.4A1.32,1.32,0,0,0,26,22.34q-4.11-4.08-8.2-8.19a.93.93,0,0,0-.61-.33Z"/><path class="cls-1" d="M17.27,9.26h0m-.06,0,.17.15C20.92,13,24.53,16.61,28,20.08l.48.48a1,1,0,0,1,.31.59.52.52,0,0,1-.31.46.61.61,0,0,1-.29.08.43.43,0,0,1-.3-.12,8.68,8.68,0,0,1-.72-.67L27,20.68,25,18.75c-2.11-2.11-4.3-4.29-6.42-6.45a2,2,0,0,0-1.4-.71,2,2,0,0,0-1.41.71c-2.07,2.12-4.2,4.24-6.27,6.29L7.36,20.77l-.2.21-.41.4a1.17,1.17,0,0,1-.66.32.38.38,0,0,1-.31-.17c-.26-.32-.33-.5.12-.94l5.22-5.21,2.09-2.09,1.13-1.12c.89-.88,1.8-1.79,2.69-2.71l.18-.16m0-1a1.32,1.32,0,0,0-.9.5c-1.25,1.29-2.54,2.54-3.81,3.82L5.19,19.88A1.52,1.52,0,0,0,5,22.17a1.38,1.38,0,0,0,1.08.53,2,2,0,0,0,1.31-.57,8.33,8.33,0,0,0,.67-.66c2.82-2.81,5.66-5.62,8.46-8.46.27-.28.48-.42.69-.42a1.07,1.07,0,0,1,.69.41c2.76,2.82,5.57,5.6,8.37,8.39a11.69,11.69,0,0,0,1,1,1.46,1.46,0,0,0,.92.33,1.67,1.67,0,0,0,.73-.18,1.55,1.55,0,0,0,.87-1.37,2,2,0,0,0-.6-1.29q-5.58-5.54-11.13-11.1a1.31,1.31,0,0,0-.88-.48Z"/><path class="cls-1" d="M49.25,9.62a3.42,3.42,0,0,1-3.36,3.5,3.47,3.47,0,1,1,3.36-3.5Z"/><polyline class="cls-2" points="39.63 36.62 1.19 36.62 1.19 2.5 44.04 2.5 44.04 4.25"/><line class="cls-3" x1="22.62" y1="47.87" x2="22.62" y2="36.89"/><line class="cls-3" x1="30.26" y1="47.87" x2="22.62" y2="36.89"/><line class="cls-3" x1="14.97" y1="47.87" x2="22.62" y2="36.89"/><path class="cls-1" d="M50.91,13.9H29.26a1.4,1.4,0,0,0-1.4,1.39h0a1.4,1.4,0,0,0,1.4,1.4H40.69c.7,0,.87.36.87,1.21q0,4.84,0,9.69h0V47.51A1.49,1.49,0,0,0,43,49h.87a1.48,1.48,0,0,0,1.49-1.49v-17a1.05,1.05,0,0,1,.52-.13,1.13,1.13,0,0,1,.32.06V47.51A1.49,1.49,0,0,0,47.71,49h1a1.4,1.4,0,0,0,1.4-1.39s.07-19.34.07-27.75c0-.31,0-.62,0-.94s.16-.33.38-.33a.51.51,0,0,1,.38.1V29.56a1.49,1.49,0,0,0,1.48,1.49h0a1.49,1.49,0,0,0,1.49-1.49V15.92a2,2,0,0,0-2-2Z"/></svg>