<svg id="Layer_1" data-name="Layer 1" xmlns="http://www.w3.org/2000/svg" viewBox="0 0 54 49"><defs><style>.cls-1{fill:#4bb6df;}.cls-2{fill:#5b6973;}</style></defs><title>icons</title><path class="cls-1" d="M26.05,2.49h.42a22,22,0,0,1-.25,44h-.28a22,22,0,0,1,.11-44m0-2.5a24.5,24.5,0,0,0-.14,49h.31a24.5,24.5,0,0,0,.25-49h-.42Z"/><path class="cls-2" d="M36.45,9.76A16.11,16.11,0,0,1,43,17.41a15.93,15.93,0,0,1,1.37,6H34.23a9.39,9.39,0,0,0-2.79-4.89l1.19-2.09q1.92-3.35,3.82-6.7M36,7.87c-.17,0-.28.11-.41.34L29.68,18.62a2.12,2.12,0,0,0-.14.31,8.08,8.08,0,0,1,3.41,6H45.77c0-.34.07-.65.07-1a17.45,17.45,0,0,0-1.5-7.16,17.66,17.66,0,0,0-8-8.83A.75.75,0,0,0,36,7.87Z"/><path class="cls-2" d="M23.32,32.15a9.51,9.51,0,0,0,2.81.44,9.4,9.4,0,0,0,2.8-.44L32,37.44l2,3.45a14.62,14.62,0,0,1-6.25,1.87c-.52,0-1,.07-1.55.07a16.59,16.59,0,0,1-8-2L20.49,37l2.83-4.85m6.26-1.85a8.36,8.36,0,0,1-3.45.79,8.49,8.49,0,0,1-3.47-.79c-2.16,3.71-4.31,7.38-6.45,11a17.15,17.15,0,0,0,10,3c.55,0,1.11,0,1.67-.08A16,16,0,0,0,36,41.37L29.58,30.3Z"/><path class="cls-2" d="M16.17,9.51l.16.28,4.88,8.52a9.46,9.46,0,0,0-2.81,4.85H8.17c-.24-4.3,3.87-11.31,8-13.65m.62-1.93c-5.64,2-11.35,11.88-9.89,17.08H19.66a8,8,0,0,1,3.49-6L16.79,7.58Z"/><path class="cls-2" d="M26.26,22.28a2.29,2.29,0,0,1,1.65.68,2.35,2.35,0,0,1-3.34,3.3,2.29,2.29,0,0,1-.68-1.65,2.34,2.34,0,0,1,2.37-2.33h0m0-1.5h0a3.84,3.84,0,1,0,0,7.67h0a3.84,3.84,0,1,0,0-7.67Z"/></svg>