<svg id="Layer_1" data-name="Layer 1" xmlns="http://www.w3.org/2000/svg" viewBox="0 0 54 49"><defs><style>.cls-1{fill:#5b6973;}.cls-2{fill:#4bb6df;}</style></defs><title>icons</title><path class="cls-1" d="M27.8,1.49h5.06a.94.94,0,0,1,.93.72l.18.53.18.56a2.73,2.73,0,0,0,2.69,1.91h3.84A1,1,0,0,1,41.84,6.4V20.93a1,1,0,0,1-1.18,1.2H15c-.9,0-1.25-.36-1.25-1.27V6.47c0-.89.36-1.25,1.23-1.25h3.7a2.73,2.73,0,0,0,2.78-2l.14-.4c.06-.21.13-.41.2-.61a.94.94,0,0,1,.93-.72H27.8m0-1.5H22.73a2.45,2.45,0,0,0-2.34,1.71l-.35,1a1.25,1.25,0,0,1-1.36,1H15a2.52,2.52,0,0,0-2.73,2.75V20.86A2.53,2.53,0,0,0,15,23.63H40.66a2.52,2.52,0,0,0,2.68-2.7V6.4a2.51,2.51,0,0,0-2.66-2.68H36.84a1.21,1.21,0,0,1-1.27-.91c-.13-.36-.24-.73-.37-1.09A2.44,2.44,0,0,0,32.86,0Z"/><path class="cls-1" d="M35.26,6.22a1.24,1.24,0,0,0,0,2.48h0a1.24,1.24,0,0,0,0-2.48Z"/><path class="cls-1" d="M27.8,7.45V9A5.36,5.36,0,1,1,24,10.53,5.35,5.35,0,0,1,27.8,9l0-1.5m0,0h0a6.84,6.84,0,0,0,0,13.68h0a6.84,6.84,0,0,0,0-13.68Z"/><path class="cls-1" d="M35.22,8.7A1.24,1.24,0,1,0,34,7.45,1.26,1.26,0,0,0,35.22,8.7Z"/><path class="cls-1" d="M14.13,2.48q1.23,0,2.46,0a.62.62,0,0,0,.64-.65.62.62,0,0,0-.67-.58c-.4,0-.79,0-1.19,0s-.8,0-1.2,0a.61.61,0,0,0-.67.61A.6.6,0,0,0,14.13,2.48Z"/><path class="cls-1" d="M27.8,11.45a2.84,2.84,0,1,1-2.86,2.83,2.85,2.85,0,0,1,2.86-2.83h0m0-1.5a4.35,4.35,0,1,0,0,8.69h0a4.35,4.35,0,1,0,0-8.69Z"/><path class="cls-2" d="M27.81,25.76a1,1,0,0,0-1,1V48a1,1,0,1,0,2,0V26.78A1,1,0,0,0,27.81,25.76Z"/><path class="cls-2" d="M33.06,26.32a1,1,0,1,0-1.82.92l10,19.68a1,1,0,0,0,.91.55,1,1,0,0,0,.46-.11A1,1,0,0,0,43,46Z"/><path class="cls-2" d="M23.94,25.87a1,1,0,0,0-1.37.45L12.59,46A1,1,0,0,0,13,47.36a1,1,0,0,0,.46.11,1,1,0,0,0,.91-.55l10-19.68A1,1,0,0,0,23.94,25.87Z"/></svg>