<svg id="Layer_1" data-name="Layer 1" xmlns="http://www.w3.org/2000/svg" viewBox="0 0 54 49"><defs><style>.cls-1{fill:#5b6973;}.cls-2{fill:#4bb6df;}</style></defs><title>icons</title><path class="cls-1" d="M19.2,24.18A15.19,15.19,0,0,1,28,27a11.46,11.46,0,0,0,5.88,1.77,26.87,26.87,0,0,1,6.74,1.21,7.5,7.5,0,0,1,1.82.77A1.26,1.26,0,0,1,43,32.18a6.44,6.44,0,0,1-.3,1c-.46,1.16-.75,1.16-1.2,1.16a4.24,4.24,0,0,1-.79-.09l-2.85-.49c-1.31-.23-2.67-.46-4-.71a13.68,13.68,0,0,0-2.57-.22c-1,0-1.91.07-2.82.14s-1.74.14-2.58.14h-.16a1.53,1.53,0,0,0-1.5,1.46v.2a1.5,1.5,0,0,0,1.07,1.51l.4.13c.33.1.71.22,1.11.31a9,9,0,0,1,2.94,1,12.58,12.58,0,0,0,6.93,1.84,25.92,25.92,0,0,0,2.63-.15l.48-.05c.83-.09,1.68-.17,2.55-.34a10.09,10.09,0,0,0,5.7-3.2,5.8,5.8,0,0,1,2.77-1.83,3.17,3.17,0,0,1,.76-.11,1.65,1.65,0,0,1,.7.14.69.69,0,0,1,.32.19.79.79,0,0,1-.12.37,2,2,0,0,0-.19,2c.16.35.34.74-.6,1.69a55.92,55.92,0,0,1-6.25,5.17l-.6.44a4.72,4.72,0,0,1-2.1.88c-1.72.26-3.44.58-5.11.9-2.45.46-5,.94-7.48,1.21h-.34a4.45,4.45,0,0,1-2.13-.62l-1.42-.78q-5.81-3.18-11.59-6.38a12,12,0,0,0-4.48-1.58c.29-3.29.55-6.63.8-9.87l.15-1.88a22.22,22.22,0,0,1,8-1.7m-8,1.51h0m8-3a23.88,23.88,0,0,0-8.77,1.87,1.11,1.11,0,0,0-.76,1c-.32,4.05-.63,8.11-1,12.16C8.6,38.67,9,39,9.82,39.1A10.22,10.22,0,0,1,14,40.52q6.5,3.6,13,7.16a5.93,5.93,0,0,0,2.85.81l.5,0C34.58,48,38.75,47,43,46.35a6.09,6.09,0,0,0,2.77-1.16,61.31,61.31,0,0,0,7-5.76c1-1,1.54-2,.9-3.37-.16-.34.08-.51.19-.74a1.74,1.74,0,0,0-1-2.61,3.43,3.43,0,0,0-1.28-.25,4.16,4.16,0,0,0-1.15.17A7.22,7.22,0,0,0,47,34.89a8.54,8.54,0,0,1-4.87,2.74c-1,.18-1.94.26-2.91.36a22.89,22.89,0,0,1-2.47.15,11.13,11.13,0,0,1-6.13-1.61,10.26,10.26,0,0,0-3.44-1.23c-.47-.1-.92-.27-1.38-.41v-.23h.16c1.8,0,3.59-.28,5.4-.28a12.72,12.72,0,0,1,2.29.19c2.28.44,4.58.8,6.86,1.21a6.06,6.06,0,0,0,1.06.11c1.29,0,2-.62,2.59-2.12a7.43,7.43,0,0,0,.39-1.32,2.72,2.72,0,0,0-1.28-3,8.73,8.73,0,0,0-2.17-.95,28.71,28.71,0,0,0-7.12-1.28,9.93,9.93,0,0,1-5.13-1.51,16.69,16.69,0,0,0-9.61-3Z"/><path class="cls-2" d="M28.39,23.37c-.4.07-.7-.19-1-.35a18.29,18.29,0,0,0-6.29-1.87c-.79-.08-1-.43-.7-1.15a3.19,3.19,0,0,1,.65-.87c3.65-3.66,7.32-7.31,11-11,.48-.49.77-.55,1.28,0q5.52,5.58,11.1,11.1a2.19,2.19,0,0,1,.71,1.7c0,2.54,0,5.08,0,7.61-.08,0-.16.08-.18.06a16.42,16.42,0,0,0-7-2.5c-.58-.09-.89-.31-.81-.94.11-.86-.29-1.17-1.12-1.09a8,8,0,0,1-1.47,0c-.94-.07-1.76,0-1.59,1.35-.17-.09-.3-.12-.31-.16-.11-1.24-.94-1.24-1.89-1.2-.73,0-1.55.26-2.11-.52l3,0c.57,0,.85-.24.84-.82,0-.85,0-1.7,0-2.56,0-.54-.31-.77-.8-.78-.85,0-1.71,0-2.56,0a.71.71,0,0,0-.8.79A13.55,13.55,0,0,0,28.39,23.37Zm8.66-1.83c0-2.3.26-2.16-2.18-2.15-2,0-2,0-2,2,0,2.45-.12,2.16,2.17,2.17S37.05,23.77,37.05,21.54Z"/><path class="cls-2" d="M15.88,17.62A2.12,2.12,0,0,1,16.59,16q7.48-7.5,15-15c.85-.84,1.31-.82,2.17,0Q41.19,8.46,48.61,15.9c1.06,1.06,1.13,2.26.22,3.16a2.12,2.12,0,0,1-3.16-.23Q39.4,12.58,33.16,6.3c-.41-.41-.57-.46-1,0C28,10.54,23.76,14.73,19.56,18.92a2,2,0,0,1-2.42.56A2,2,0,0,1,15.88,17.62Z"/><path class="cls-1" d="M3.23,22.52h0m-.1.37.27,0C4,23,4.64,23,5.27,23l1.26.06-.1.7A119.78,119.78,0,0,0,5,40.6c-1.08-.06-2.2-.11-3.36-.14,0-.55,0-1.11,0-1.65V38A89.38,89.38,0,0,1,3.08,23.14c0-.1,0-.18,0-.25m-.24-1.51c-.88,0-1,.28-1.28,1.48A89.27,89.27,0,0,0,.12,38c0,.92,0,1.84,0,2.76S.37,41.94,1.21,42c1.38,0,2.75.07,4.13.17H5.5c.73,0,1-.37,1-1.12A120.35,120.35,0,0,1,8.06,22.93c.13-1-.07-1.28-1.07-1.34-1.16-.08-2.33-.1-3.49-.18l-.61,0Z"/></svg>