<svg id="Layer_1" data-name="Layer 1" xmlns="http://www.w3.org/2000/svg" viewBox="0 0 54 49"><defs><style>.cls-1{fill:#5b6973;}.cls-2{fill:#4bb6df;}</style></defs><title>icons</title><path class="cls-1" d="M8.48,35.1a8.19,8.19,0,0,1,4.21-1.18,8,8,0,0,1,6,2.61l.37.4,14.42-5.66L37,23H31.18a7.69,7.69,0,0,0-7.61-6.32h-.24a5.14,5.14,0,0,0-10.26,0A7,7,0,0,0,6.88,23H0L7.81,35.51Zm5.36-16.87h0l.92,0-.09-.91c0-.11,0-.23,0-.35a3.55,3.55,0,1,1,7.1,0,2.77,2.77,0,0,1,0,.42l-.12,1,1-.16a6.87,6.87,0,0,1,.94-.08,6.2,6.2,0,0,1,6,4.73H8.48A5.43,5.43,0,0,1,13.84,18.23Zm20.74,6.32L32.25,30l-12.81,5a9.77,9.77,0,0,0-6.75-2.73,9.66,9.66,0,0,0-4.34,1L2.86,24.55Z"/><path class="cls-1" d="M33.68,37.29v-3.8l4.67-1.94L42.7,20.06H54V18.47H41.6L37.1,30.34,18.43,38.12A6.94,6.94,0,0,0,5.87,43.35l-4.74,2,.61,1.47,4.61-1.92a7,7,0,0,0,1.92,2.53H4.46V49h46V47.41H17.12a6.9,6.9,0,0,0,2.05-7.87l4.11-1.71v4.4ZM7.38,42.73a5.19,5.19,0,0,1,0-.68,5.36,5.36,0,0,1,9.59-3.3l-.61.26a4.69,4.69,0,0,0-3.62-1.69A4.74,4.74,0,0,0,8,42.05c0,.14,0,.29,0,.43ZM15.64,41a3,3,0,0,1,.2,1,3.13,3.13,0,0,1-6,1.36Zm-6.06.8a3.11,3.11,0,0,1,5.14-2.14Zm3.11,5.6a5.37,5.37,0,0,1-4.87-3.14L8.4,44a4.73,4.73,0,0,0,9-2,4.62,4.62,0,0,0-.31-1.66l.58-.24a5.22,5.22,0,0,1,.36,1.9A5.38,5.38,0,0,1,12.69,47.41ZM24.87,37.16l7.22-3v2.13l-7.22,3.42Z"/><path class="cls-2" d="M8.5,22.86a5.42,5.42,0,0,1,5.34-4.63h0l.92,0-.09-.91c0-.11,0-.23,0-.35a3.55,3.55,0,1,1,7.1,0,2.77,2.77,0,0,1,0,.42l-.12,1,1-.16a6.87,6.87,0,0,1,.94-.08,6.18,6.18,0,0,1,5.94,4.63h1.65a7.69,7.69,0,0,0-7.59-6.22h-.24a5.14,5.14,0,0,0-10.26,0A7,7,0,0,0,6.9,22.86Z"/></svg>