<?xml version="1.0" encoding="utf-8"?>
<!-- Generator: Adobe Illustrator 18.1.1, SVG Export Plug-In . SVG Version: 6.00 Build 0)  -->
<!DOCTYPE svg PUBLIC "-//W3C//DTD SVG 1.1//EN" "http://www.w3.org/Graphics/SVG/1.1/DTD/svg11.dtd">
<svg version="1.1" id="Layer_1" xmlns="http://www.w3.org/2000/svg" xmlns:xlink="http://www.w3.org/1999/xlink" x="0px" y="0px"
	 viewBox="0 0 54 49" enable-background="new 0 0 54 49" xml:space="preserve">
<g>
	<path fill="#5E6973" d="M23.4,42.7L23.4,42.7l1.2-0.1l0,4.1l19.6-0.1l0-5.5l4.6,0l-0.1-20.8l-5.1,0l0-8.4l-10.8,0l0-4.4l-15.6,0
		l0,4.4l-3.4,0l0,6.5l-8,0L5.9,38l8,0l0,4.7l0.5,0l0,0.1L23.4,42.7z M13.6,35.9l-5.6,0l0-15.2l5.6,0L13.6,35.9z M15.9,33.5l5.3,0
		l0,3.6l-5.3,0L15.9,33.5z M21.2,32.6l-5.3,0l0-1.9l5.3,0L21.2,32.6z M15.9,38l5.3,0l0,2.5l-5.3,0L15.9,38z M42.2,44.6l-15.4,0l0-2
		l15.4,0L42.2,44.6z M46.7,22.5l0,16.7l-3.1,0l0-16.7L46.7,22.5z M41.5,14.1l0,6.3l0,1.1c-3.9-0.4-7.1-3.4-7.6-7.3L41.5,14.1z
		 M19.2,9.8l11.5,0l0,2.3l-11.5,0L19.2,9.8z M15.9,14.2l1.3,0l14.6,0c0.5,5.1,4.7,9.1,9.8,9.5l0,4.7l-3.8,0L35,24.9l-0.8,0.5
		l2.2,4.5l0.2,0.5l0.6,0l4.3,0l0,10.1l-1.6,0l0-3l-8.2,0l0,3l-7.2,0l-1.2,0l0-12.1l-7.5,0l0-1.9l10.3,0l0,4.1l0,1.1l1.1,0l5,0l0-1.1
		l-3.9-0.8l0-4.3l0-1.1l-1.1,0l-11.4,0L15.9,14.2z"/>
	<rect x="10" y="40.1" fill="#1FA8DB" width="1.8" height="2.1"/>
	
		<rect x="4.9" y="40.1" transform="matrix(-1 2.728371e-03 -2.728371e-03 -1 12.9765 82.3353)" fill="#1FA8DB" width="3.1" height="2.1"/>
	<polygon fill="#1FA8DB" points="2.1,39.4 0.1,39.4 0.1,42.2 2.9,42.2 2.9,40.2 2.1,40.2 	"/>
	
		<rect x="0" y="26.2" transform="matrix(1 -2.787923e-03 2.787923e-03 1 -7.857853e-02 3.099179e-03)" fill="#1FA8DB" width="2.1" height="4.1"/>
	
		<rect x="0.1" y="32.8" transform="matrix(1 -2.787955e-03 2.787955e-03 1 -9.704708e-02 3.175838e-03)" fill="#1FA8DB" width="2.1" height="4.1"/>
	
		<rect x="0" y="19.5" transform="matrix(1 -2.787955e-03 2.787955e-03 1 -6.011207e-02 3.023274e-03)" fill="#1FA8DB" width="2.1" height="4.1"/>
	<polygon fill="#1FA8DB" points="0,17 2.1,17 2.1,16.2 2.8,16.2 2.8,14.1 0,14.2 	"/>
	
		<rect x="4.8" y="14.1" transform="matrix(-1 2.728371e-03 -2.728371e-03 -1 12.7637 30.3192)" fill="#1FA8DB" width="3.1" height="2.1"/>
	<rect x="9.9" y="14.1" fill="#1FA8DB" width="1.8" height="2.1"/>
	<polygon fill="#1FA8DB" points="53.9,12.8 51.7,9 49.6,12.8 50.7,12.8 50.7,42.9 49.7,42.9 51.8,46.7 54,42.9 52.9,42.9 52.8,12.8 
			"/>
	<polygon fill="#1FA8DB" points="48.3,3.4 42.7,3.4 42.7,2.3 38.9,4.5 42.7,6.6 42.7,5.5 48.3,5.5 48.3,6.6 52,4.4 48.3,2.3 	"/>
</g>
</svg>
