<svg id="Layer_1" data-name="Layer 1" xmlns="http://www.w3.org/2000/svg" viewBox="0 0 54 49"><defs><style>.cls-1{fill:#5b6973;}.cls-2{fill:#4bb6df;}.cls-3{fill:none;stroke:#4bb6df;stroke-miterlimit:10;stroke-width:2.26px;}</style></defs><title>icons</title><path class="cls-1" d="M26.14,1.88a2.13,2.13,0,0,1,.59.1l19,5.27c.32.09.33.13.34.3q.26,3.12.49,6.24l.14,1.83a1.57,1.57,0,0,0-.08.49,54.33,54.33,0,0,1-1,11.94,23.39,23.39,0,0,1-2.61,7.21,25.62,25.62,0,0,1-3.93,5,30.07,30.07,0,0,1-10.3,6.83c-.35.14-.7.26-1.05.38s-.65.23-1,.36a1.29,1.29,0,0,1-.46.09,2,2,0,0,1-.58-.11,30.46,30.46,0,0,1-11.73-7A24.81,24.81,0,0,1,9.2,34.83,23.18,23.18,0,0,1,7,28.94,48.67,48.67,0,0,1,5.81,16.39c0-2.18.2-4.42.36-6.58,0-.66.09-1.32.14-2a1.7,1.7,0,0,1,.06-.45,2.29,2.29,0,0,1,.48-.17l4-1.11,15-4.18a1,1,0,0,1,.29,0m0-1.5a2.49,2.49,0,0,0-.7.09Q16,3.14,6.45,5.77c-1.18.33-1.56.73-1.64,2-.19,2.87-.44,5.75-.5,8.63A50.17,50.17,0,0,0,5.58,29.28a24.92,24.92,0,0,0,2.31,6.28,26.57,26.57,0,0,0,5,6.28A31.92,31.92,0,0,0,25.18,49.2a3.5,3.5,0,0,0,1,.18,2.77,2.77,0,0,0,1-.19c.67-.26,1.36-.48,2-.75a31.42,31.42,0,0,0,10.81-7.16A27.31,27.31,0,0,0,44.22,36,25.06,25.06,0,0,0,47,28.36a55.52,55.52,0,0,0,1.07-12.27h.12c-.23-2.89-.44-5.77-.68-8.65A1.73,1.73,0,0,0,46.1,5.8L27.14.53a3.85,3.85,0,0,0-1-.15Z"/><polygon class="cls-2" points="26.24 15.12 28.94 20.59 34.98 21.47 30.61 25.72 31.64 31.73 26.24 28.9 20.85 31.73 21.88 25.72 17.51 21.47 23.55 20.59 26.24 15.12"/><circle class="cls-3" cx="26.24" cy="23.43" r="11.61"/></svg>