<svg id="Layer_1" data-name="Layer 1" xmlns="http://www.w3.org/2000/svg" viewBox="0 0 54 49"><defs><style>.cls-1{fill:#4bb6df;}.cls-2{fill:#5b6973;}</style></defs><title>icons</title><path class="cls-1" d="M51.75,8.2l-2.38,5.68L2.05,12.16l1.31-4H51.75m.75-1.5H3a1,1,0,0,0-.94.69L.42,12.32a1,1,0,0,0,.91,1.32l48.33,1.75h0a1,1,0,0,0,.92-.62l2.8-6.68A1,1,0,0,0,52.5,6.7Z"/><path class="cls-2" d="M3.34,16.43l48.43,2.06L49.4,24.06,2,20.33l1.31-3.9M3,14.92a1,1,0,0,0-1,.68L.41,20.46a1,1,0,0,0,.87,1.31l48.36,3.81h.08a1,1,0,0,0,.92-.6l2.79-6.57A1,1,0,0,0,52.56,17L3,14.92Z"/><path class="cls-2" d="M3.31,24.66l48.48,4.12-2.37,5.46L2,28.49l1.3-3.83M3,23.13a1,1,0,0,0-1,.68L.4,28.59a1,1,0,0,0,.82,1.32l48.39,5.86h.12a1,1,0,0,0,.92-.6l2.8-6.44a1,1,0,0,0-.84-1.39L3.05,23.13Z"/><path class="cls-2" d="M3.29,32.89l48.52,6.19-2.36,5.34L2,36.65l1.29-3.76M3,31.34A1,1,0,0,0,2,32L.39,36.72A1,1,0,0,0,1.17,38L49.59,46l.16,0a1,1,0,0,0,.92-.6l2.79-6.31a1,1,0,0,0-.79-1.39L3.08,31.35Z"/></svg>