<svg id="Layer_1" data-name="Layer 1" xmlns="http://www.w3.org/2000/svg" viewBox="0 0 54 49"><defs><style>.cls-1{fill:#5b6973;}.cls-1,.cls-2{stroke:#fff;stroke-miterlimit:10;stroke-width:0.75px;}.cls-2{fill:#4bb6df;}</style></defs><title>icons</title><path class="cls-1" d="M27.72,5.59,11.63,18.36c-2.44,1.94-4.85,3.92-7.34,5.79a2.67,2.67,0,0,1-2,.5C.77,24.22.69,22.92,2,21.84Q8.51,16.65,15,11.5c3.67-2.91,7.36-5.79,11-8.74a2.4,2.4,0,0,1,3.47,0C37.52,9,45.61,15.24,53.69,21.49c.86.67,2,1.3,1,2.65-.69.95-1.76.9-3-.09L28.85,6.43Z"/><path class="cls-1" d="M12.26,43.62H25.75c-.28-2.06.56-4.18-.61-6.23A2.53,2.53,0,0,1,26,34.05a2.59,2.59,0,0,1,3.34.09,2.45,2.45,0,0,1,.61,3.36c-1,1.18-.9,2.46-.91,3.79s0,2.41,0,3.62A1.81,1.81,0,0,1,27,47H11.15a1.78,1.78,0,0,1-2-2.05c0-6.43,0-12.86,0-19.29,0-1.21.43-2,1.68-2s1.46,1,1.46,2q0,8.15,0,16.29Z"/><path class="cls-1" d="M43.63,43.77V26.41a8.16,8.16,0,0,1,0-1.21,1.55,1.55,0,0,1,1.78-1.45,1.42,1.42,0,0,1,1.45,1.58V45.24A1.56,1.56,0,0,1,45.11,47c-3.52,0-7,0-10.56,0a1.53,1.53,0,0,1-1.72-1.66,1.48,1.48,0,0,1,1.66-1.55c1.81,0,3.62,0,5.43,0Z"/><path class="cls-2" d="M28.31,21.89a15.17,15.17,0,0,0-9.71,3.66,2.62,2.62,0,0,1-2.09.53c-1.32-.43-1.33-1.74-.15-2.85a17.34,17.34,0,0,1,20.26-2.31,27.82,27.82,0,0,1,3.18,2.26c.89.67,1.42,1.51.49,2.53s-1.73.75-2.62-.05A14.31,14.31,0,0,0,30,22C29.4,22,28.74,21.93,28.31,21.89Z"/><path class="cls-2" d="M28.18,26.22a10.53,10.53,0,0,1,6.61,2.57c.8.69,1.07,1.48.35,2.35a1.49,1.49,0,0,1-2.37.23,6.67,6.67,0,0,0-9.17-.06,1.51,1.51,0,0,1-2.38-.18c-.74-.87-.45-1.63.36-2.33A10.57,10.57,0,0,1,28.18,26.22Z"/></svg>