<svg id="Layer_1" data-name="Layer 1" xmlns="http://www.w3.org/2000/svg" viewBox="0 0 54 49"><defs><style>.cls-1{fill:#5b6973;}.cls-2{fill:#4bb6df;}</style></defs><title>icons</title><path class="cls-1" d="M18.9,18.08l-1.61-.26-2,7.12,1.6.31ZM15.6,29.77,14,29.46l-2,7.13,1.6.33Zm8.15,1.59.62,6.21a.82.82,0,0,0,.88.73.74.74,0,0,0,.73-.89l-.57-5.72Zm-.48-4.88,1.66.32-.78-7.87-1.66-.26Zm5,1,1.6.31L30.93,20l-1.6-.26ZM26.57,39.59l1.6.33,1-7.49-1.6-.31Zm8.56-25.53c-.6-3.84-2.25-4.79-2.68-4.93l.65-4.65a8.75,8.75,0,0,0,.13-1.37A2.67,2.67,0,0,0,32.46,1,3.18,3.18,0,0,0,30.3.42H25.8a5.08,5.08,0,0,0-3,.76,4.19,4.19,0,0,0-1.6,2.61l-2.79,9.89,1.62.25,1.18-4.18a6.79,6.79,0,0,1,.59,2.32l.21,2.17,1.66.26-.26-2.58a6.54,6.54,0,0,0-1.63-4.18l1-3.55a2.59,2.59,0,0,1,.95-1.68,3.5,3.5,0,0,1,2-.47h4.5a1.23,1.23,0,0,1,1.3,1.07,6.72,6.72,0,0,1-.11,1.13L29.93,15.48l1.6.25.67-4.82a6.39,6.39,0,0,1,1.33,3.41L37.15,37l-6.53-1.4a.81.81,0,0,0-.34,1.59l7.15,1.53.34,2.13a.81.81,0,0,0,1,.66c.54-.08.61-.58.61-.91Zm-9.68,33.6a.81.81,0,0,0,.69.91h.11a.82.82,0,0,0,.81-.7l.4-2.88-1.6-.34ZM9.91,44a.82.82,0,1,0,1.57.44l.72-2.58-1.59-.33Z"/><polygon class="cls-2" points="30.15 17.82 31.78 16.86 18.52 14.79 16.49 15.53 16.49 16.6 30.15 18.81 30.15 17.82"/><polygon class="cls-2" points="9.62 38.83 9.62 40.21 26.65 43.75 26.65 42.57 28.52 41.13 11.97 37.72 9.62 38.83"/><polygon class="cls-2" points="28.3 30.14 30.04 28.9 15.33 26.05 13.15 27.01 13.15 28.2 28.3 31.15 28.3 30.14"/></svg>