<svg id="Layer_1" data-name="Layer 1" xmlns="http://www.w3.org/2000/svg" viewBox="0 0 54 49"><defs><style>.cls-1{fill:#4bb6df;}.cls-2{fill:none;}.cls-3{fill:#5b6973;}</style></defs><title>icons</title><path class="cls-1" d="M27,2.12,43.24,18.35l-1.8,1.8L28.78,7.49a2.51,2.51,0,0,0-3.54,0L12.59,20.15l-1.81-1.8L27,2.12M27,.41a1,1,0,0,0-.71.3L9.37,17.64a1,1,0,0,0,0,1.42l2.51,2.51a1,1,0,0,0,1.41,0l13-13A1,1,0,0,1,27,8.26a1,1,0,0,1,.71.29l13,13a1,1,0,0,0,.71.29,1,1,0,0,0,.7-.29l2.51-2.51a1,1,0,0,0,0-1.42L27.72.71A1,1,0,0,0,27,.41Z"/><rect class="cls-2" x="18.04" y="21.68" width="17.95" height="17.95" transform="translate(-13.76 28.08) rotate(-45)"/><path class="cls-3" d="M44.65,29.94,27.72,13a1,1,0,0,0-.71-.3,1,1,0,0,0-.71.3L9.37,29.94a1,1,0,0,0,0,1.42L26.3,48.29a1,1,0,0,0,.71.3,1,1,0,0,0,.71-.3L44.65,31.36A1,1,0,0,0,44.65,29.94ZM26.36,42.69,15,31.3A.92.92,0,0,1,15,30L26.36,18.61a.92.92,0,0,1,1.3,0L39.05,30a.92.92,0,0,1,0,1.3L27.66,42.69A.92.92,0,0,1,26.36,42.69Z"/></svg>