<svg id="Layer_1" data-name="Layer 1" xmlns="http://www.w3.org/2000/svg" viewBox="0 0 54 49"><defs><style>.cls-1{fill:#5b6973;}.cls-2{fill:#4bb6df;}</style></defs><title>icons</title><path class="cls-1" d="M52.15,25.1l-4.78-2.74V13.77a.83.83,0,0,0-.83-.82h-5a.83.83,0,1,0,0,1.65h4.22v8.23a.83.83,0,0,0,.42.72l5.19,3a.87.87,0,0,0,.41.11.82.82,0,0,0,.72-.42A.83.83,0,0,0,52.15,25.1Z"/><path class="cls-2" d="M14.59,28.63a.83.83,0,0,0-.83.83v8.15a.83.83,0,0,0,.83.83h8.15a.83.83,0,0,0,.83-.83V29.46a.83.83,0,0,0-.83-.83Zm7.32,8.15H15.42V30.29h6.49Z"/><path class="cls-1" d="M27,10.49a.81.81,0,0,0-.42.12L1.85,24.92a.83.83,0,0,0,.42,1.54H6.68V48.17a.83.83,0,0,0,.83.83h23a.83.83,0,0,0,.83-.83V30.44h7.23V48.17a.83.83,0,0,0,.83.83h7.16a.83.83,0,0,0,.83-.83V26.62a.83.83,0,1,0-1.65,0V47.34H40.19V29.61a.83.83,0,0,0-.83-.82H30.47a.82.82,0,0,0-.82.82V47.34H8.34V25.63a.83.83,0,0,0-.83-.82H5.35L27,12.28l14.32,8.28a.83.83,0,0,0,.42.11.86.86,0,0,0,.72-.41.83.83,0,0,0-.31-1.13L27.43,10.61a.78.78,0,0,0-.41-.12Z"/></svg>