<svg id="Layer_1" data-name="Layer 1" xmlns="http://www.w3.org/2000/svg" viewBox="0 0 54 49"><defs><style>.cls-1{fill:#5b6973;stroke:#5b6973;}.cls-1,.cls-2{stroke-miterlimit:10;stroke-width:0.5px;}.cls-2{fill:#4bb6df;stroke:#4bb6df;}</style></defs><title>dop</title><path class="cls-1" d="M26.49,47.14a.42.42,0,0,1-.21-.06L7.15,35.38A.42.42,0,0,1,7,35l0-2.15a.39.39,0,0,1,.39-.39h0a.39.39,0,0,1,.39.4l0,1.93L26.49,46.27,45.22,34.82l0-1.93a.41.41,0,0,1,.39-.41h0a.4.4,0,0,1,.4.39L46,35a.42.42,0,0,1-.19.35L26.7,47.08A.39.39,0,0,1,26.49,47.14Z"/><path class="cls-1" d="M26.49,42.87a.42.42,0,0,1-.21-.06L7.15,31.11A.41.41,0,0,1,7,30.56a.38.38,0,0,1,.14-.14l4.6-2.76a.39.39,0,0,1,.55.13.4.4,0,0,1-.14.55l-4,2.43L26.49,42,44.87,30.76l-3.79-2.42a.41.41,0,0,1-.12-.56.4.4,0,0,1,.55-.12l4.34,2.77a.4.4,0,0,1,0,.68L26.7,42.81A.39.39,0,0,1,26.49,42.87Z"/><path class="cls-1" d="M27,29.2a9.84,9.84,0,0,1-9.85-9.84h0a16.85,16.85,0,0,1,1.72-5.94A43.8,43.8,0,0,1,26.73,2a.39.39,0,0,1,.56,0,41.43,41.43,0,0,1,7.65,11c0,.05,0,.09.05.13a17.51,17.51,0,0,1,1.87,6.28A9.85,9.85,0,0,1,27,29.2ZM27,2.84a42.72,42.72,0,0,0-7.4,10.89A16.07,16.07,0,0,0,18,19.35a9.05,9.05,0,1,0,18.1,0h0a17,17,0,0,0-1.81-6l0-.09A40.17,40.17,0,0,0,27,2.84Z"/><path class="cls-2" d="M14.31,25.14a.4.4,0,0,1-.4-.4.38.38,0,0,1,.2-.35L41,9a.4.4,0,1,1,.4.7L14.5,25.08A.33.33,0,0,1,14.31,25.14Z"/></svg>