<svg id="Layer_1" data-name="Layer 1" xmlns="http://www.w3.org/2000/svg" viewBox="0 0 54 49"><defs><style>.cls-1{fill:#020608;}.cls-1,.cls-2,.cls-3,.cls-4,.cls-5{stroke:#fff;stroke-width:0.4px;}.cls-1,.cls-2,.cls-4,.cls-5{stroke-linejoin:round;}.cls-2,.cls-3{fill:none;}.cls-3{stroke-miterlimit:10;}.cls-4{fill:#4bb6df;}.cls-5{fill:#5b6973;}</style></defs><title>dop</title><path class="cls-1" d="M49,17.35a.56.56,0,0,0,.23-.72l-1.54-4h.89a.7.7,0,0,0,.44-.16.57.57,0,0,0,.23-.73l-1.54-4h.88a.61.61,0,0,0,.45-.16h0a.56.56,0,0,0,.21-.71L47.37,1.93a.72.72,0,0,0-.67-.52H7.2a.72.72,0,0,0-.68.52L4.63,6.81a.7.7,0,0,0,.5.86l.17,0h.88l-1.54,4a.71.71,0,0,0,.5.86.45.45,0,0,0,.16,0h.89l-1.54,4a.7.7,0,0,0,.5.86l.17,0h.87l-1.54,4a.71.71,0,0,0,.47.88.57.57,0,0,0,.18,0h.89l-1.54,4a.7.7,0,0,0,.5.86l.17,0h.87l-1.54,4a.71.71,0,0,0,.5.86l.17,0H6.7V46.89a.72.72,0,0,0,.68.7H46.52a.67.67,0,0,0,.48-.2h0a.61.61,0,0,0,.19-.48V32.26h1.38a.58.58,0,0,0,.45-.17h0a.56.56,0,0,0,.21-.71l-1.54-4h.89a.66.66,0,0,0,.45-.17h0a.56.56,0,0,0,.21-.71l-1.54-4h.89a.66.66,0,0,0,.45-.17h0a.56.56,0,0,0,.21-.71l-1.54-4h.89A.67.67,0,0,0,49,17.35ZM45.82,46.19H8.08V32.27h.51V45.19a.71.71,0,0,0,.7.69H44.63a.6.6,0,0,0,.47-.19h0a.66.66,0,0,0,.2-.48v-13h.51ZM10,44.51V32.27H25.21V44.51Zm16.64,0V32.27h.68V44.51Zm2.05,0V32.26H43.93V44.51ZM6.32,30.86l1.35-3.49H46.23l1.35,3.49Zm0-4.91,1.35-3.5H46.23l1.35,3.49Zm0-4.92,1.35-3.49H46.23L47.58,21Zm0-4.91,1.35-3.49H46.23l1.35,3.49Zm0-4.92L7.67,7.71H46.23l1.35,3.49Zm0-4.9L7.67,2.81H46.23L47.58,6.3Z"/><polygon class="cls-2" points="7.67 17.54 6.32 21.03 47.58 21.03 46.23 17.54 7.67 17.54"/><polygon class="cls-2" points="7.67 27.37 6.32 30.86 47.58 30.86 46.23 27.37 7.67 27.37"/><polygon class="cls-2" points="7.67 22.45 6.32 25.95 47.58 25.94 46.23 22.45 7.67 22.45"/><polygon class="cls-2" points="7.67 12.63 6.32 16.12 47.58 16.12 46.23 12.63 7.67 12.63"/><path class="cls-2" d="M7.67,7.71,6.32,11.2H47.58L46.23,7.71Z"/><polygon class="cls-3" points="7.67 2.81 6.32 6.3 47.58 6.3 46.23 2.81 7.67 2.81"/><path class="cls-4" d="M49.06,12.44a.57.57,0,0,0,.23-.73l-1.54-4h.88a.61.61,0,0,0,.45-.16.56.56,0,0,0,.21-.71L47.37,1.93a.72.72,0,0,0-.67-.52H7.2a.72.72,0,0,0-.68.52L4.63,6.81a.7.7,0,0,0,.5.86l.17,0h.88l-1.54,4a.71.71,0,0,0,.5.86.45.45,0,0,0,.16,0h.89l-1.54,4a.7.7,0,0,0,.5.86l.17,0h.87l-1.54,4a.71.71,0,0,0,.47.88.57.57,0,0,0,.18,0h.89l-1.54,4a.7.7,0,0,0,.5.86l.17,0h.87l-1.54,4a.71.71,0,0,0,.5.86l.17,0h.46v0H48.57a.58.58,0,0,0,.45-.17.56.56,0,0,0,.21-.71l-1.54-4h.89a.66.66,0,0,0,.45-.17.56.56,0,0,0,.21-.71l-1.54-4h.89a.66.66,0,0,0,.45-.17.56.56,0,0,0,.21-.71l-1.54-4h.89a.67.67,0,0,0,.44-.18.56.56,0,0,0,.23-.72l-1.54-4h.89A.7.7,0,0,0,49.06,12.44ZM6.32,30.86l1.35-3.49H46.23l1.35,3.49Zm0-4.91,1.35-3.5H46.23l1.35,3.49Zm0-4.92,1.35-3.49H46.23L47.58,21Zm0-4.91,1.35-3.49H46.23l1.35,3.49Zm0-4.92L7.67,7.71H46.23l1.35,3.49Zm0-4.9L7.67,2.81H46.23L47.58,6.3Z"/><path class="cls-5" d="M6.7,46.89a.72.72,0,0,0,.68.7H46.52a.67.67,0,0,0,.48-.2.61.61,0,0,0,.19-.48V32.26H45.81V46.19H8.08V32.27h.51V45.19a.71.71,0,0,0,.7.69H44.63a.6.6,0,0,0,.47-.19.66.66,0,0,0,.2-.48v-13H43.93V44.51H28.66V32.26H5.78v0H6.7ZM26.61,32.27h.68V44.51h-.68ZM10,32.27H25.21V44.51H10Z"/></svg>