<?xml version="1.0" encoding="utf-8"?>
<!-- Generator: Adobe Illustrator 16.0.0, SVG Export Plug-In . SVG Version: 6.00 Build 0)  -->
<!DOCTYPE svg PUBLIC "-//W3C//DTD SVG 1.1//EN" "http://www.w3.org/Graphics/SVG/1.1/DTD/svg11.dtd">
<svg version="1.1" id="Слой_1" xmlns="http://www.w3.org/2000/svg" xmlns:xlink="http://www.w3.org/1999/xlink" x="0px" y="0px"
	 width="595.281px" height="489px" viewBox="0 142.445 595.281 489" enable-background="new 0 142.445 595.281 489"
	 xml:space="preserve">
<path fill="#FFFFFF" d="M79.744,427.271c24.547,0,44.419-19.872,44.419-44.419c0-24.548-19.872-44.418-44.419-44.418
	c-24.547,0-44.418,19.871-44.418,44.418C35.326,407.4,55.197,427.271,79.744,427.271z"/>
<path opacity="0.61" fill="#B0E9FF" enable-background="new    " d="M79.744,427.271c24.547,0,44.419-19.872,44.419-44.419
	c0-24.548-19.872-44.418-44.419-44.418c-24.547,0-44.418,19.871-44.418,44.418C35.326,407.4,55.197,427.271,79.744,427.271z"/>
<path opacity="0.39" fill="#FFFFFF" enable-background="new    " d="M82.569,382.95l5.26-5.26c1.169-1.071,1.753-2.63,1.753-4.188
	c0-2.435-1.461-4.676-3.799-5.552l-22.112-8.67c-2.24-0.876-4.578-0.389-6.234,1.267c-0.876,0.876-1.364,1.85-1.559,2.922
	c-0.194,1.071-0.097,2.24,0.292,3.312l8.669,22.113c0.877,2.241,3.117,3.799,5.552,3.799c1.559,0,3.117-0.584,4.188-1.753
	l5.163-5.164l3.41,3.41c-1.364,2.63-1.071,5.942,1.169,8.085l7.793,7.792c2.63,2.63,7.013,2.63,9.643,0
	c2.63-2.63,2.63-6.917,0-9.644l-7.792-7.793c-2.143-2.143-5.455-2.532-7.988-1.169L82.569,382.95z"/>
<path fill="#FFFFFF" d="M514.873,427.271c24.548,0,44.418-19.872,44.418-44.419c0-24.548-19.87-44.418-44.418-44.418
	s-44.419,19.871-44.419,44.418C470.454,407.4,490.325,427.271,514.873,427.271z"/>
<rect x="63.185" y="295.865" fill="none" width="179.525" height="179.525"/>
<path fill="#B0E9FF" d="M152.899,455.91c40.327,0,73.057-32.73,73.057-73.058c0-40.328-32.73-73.057-73.057-73.057
	c-40.328,0-73.057,32.729-73.057,73.057C79.842,423.179,112.571,455.91,152.899,455.91z"/>
<path opacity="0.61" fill="#B0E9FF" enable-background="new    " d="M514.873,427.271c24.548,0,44.418-19.872,44.418-44.419
	c0-24.548-19.87-44.418-44.418-44.418s-44.419,19.871-44.419,44.418C470.454,407.4,490.325,427.271,514.873,427.271z"/>
<g opacity="0.53">
	<path opacity="0.53" fill="#FFFFFF" enable-background="new    " d="M536.79,362.104c-0.293-0.194-0.683-0.194-0.877,0
		c-0.293,0.195-0.487,0.488-0.487,0.78v6.526c0,1.558-1.267,2.825-2.825,2.825h-13.053c-0.485,0-0.974,0.389-0.974,0.974
		c0,0.973,0.097,1.947,0.39,2.921l-19.385,19.385c-0.877,0.876-1.461,2.143-1.461,3.409c0,2.728,2.143,4.871,4.87,4.871
		c1.266,0,2.534-0.487,3.41-1.461l14.708-14.709c1.56-1.558,3.702-2.435,5.941-2.435h3.606c6.72,0,12.077-5.455,12.077-12.079
		C542.829,368.63,540.393,364.15,536.79,362.104z M503.768,400.094c-1.071,0-1.852-0.876-1.852-1.85
		c0-1.072,0.876-1.851,1.852-1.851c0.973,0,1.85,0.877,1.85,1.851C505.618,399.315,504.741,400.094,503.768,400.094z"/>
	<path opacity="0.53" fill="#FFFFFF" enable-background="new    " d="M519.84,370.481h6.722c0.485,0,0.875-0.389,0.875-0.877v-6.818
		c0-0.293-0.097-0.585-0.39-0.683c-0.194-0.194-0.485-0.194-0.876-0.097c-3.312,1.072-6.038,3.896-7.306,7.403
		c-0.097,0.292,0,0.584,0.196,0.779C519.256,370.384,519.547,370.481,519.84,370.481z"/>
</g>
<rect x="352.1" y="295.865" fill="none" width="179.526" height="179.525"/>
<path fill="#B0E9FF" d="M441.814,455.91c40.329,0,73.059-32.73,73.059-73.058c0-40.328-32.729-73.057-73.059-73.057
	c-40.327,0-73.056,32.729-73.056,73.057C368.758,423.179,401.487,455.91,441.814,455.91z"/>
<g opacity="0.69">
	<path opacity="0.69" fill="#FFFFFF" enable-background="new    " d="M148.808,371.261h-31.658c-0.584,0-1.071-0.488-1.071-1.072
		v-10.326c0-0.585,0.487-1.071,1.071-1.071h31.658c0.584,0,1.072,0.486,1.072,1.071v10.326
		C149.879,370.773,149.392,371.261,148.808,371.261z"/>
	<path opacity="0.69" fill="#FFFFFF" enable-background="new    " d="M187.966,371.261h-31.658c-0.584,0-1.071-0.488-1.071-1.072
		v-10.326c0-0.585,0.487-1.071,1.071-1.071h31.658c0.584,0,1.071,0.486,1.071,1.071v10.326
		C189.038,370.773,188.551,371.261,187.966,371.261z"/>
	<path opacity="0.69" fill="#FFFFFF" enable-background="new    " d="M148.808,407.01h-31.658c-0.584,0-1.071-0.487-1.071-1.071
		v-10.326c0-0.585,0.487-1.071,1.071-1.071h31.658c0.584,0,1.072,0.486,1.072,1.071v10.326
		C149.879,406.523,149.392,407.01,148.808,407.01z"/>
	<path opacity="0.69" fill="#FFFFFF" enable-background="new    " d="M187.966,407.01h-31.658c-0.584,0-1.071-0.487-1.071-1.071
		v-10.326c0-0.585,0.487-1.071,1.071-1.071h31.658c0.584,0,1.071,0.486,1.071,1.071v10.326
		C189.038,406.523,188.551,407.01,187.966,407.01z"/>
	<path opacity="0.69" fill="#FFFFFF" enable-background="new    " d="M129.813,389.087H98.155c-0.584,0-1.071-0.487-1.071-1.071
		V377.69c0-0.585,0.487-1.071,1.071-1.071h31.658c0.584,0,1.071,0.486,1.071,1.071v10.326
		C130.884,388.599,130.397,389.087,129.813,389.087z"/>
	<path opacity="0.69" fill="#FFFFFF" enable-background="new    " d="M207.545,389.087h-31.658c-0.584,0-1.071-0.487-1.071-1.071
		V377.69c0-0.585,0.487-1.071,1.071-1.071h31.658c0.584,0,1.071,0.486,1.071,1.071v10.326
		C208.617,388.599,208.13,389.087,207.545,389.087z"/>
	<path opacity="0.69" fill="#FFFFFF" enable-background="new    " d="M168.971,389.087h-31.658c-0.584,0-1.072-0.487-1.072-1.071
		V377.69c0-0.585,0.487-1.071,1.072-1.071h31.658c0.584,0,1.072,0.486,1.072,1.071v10.326
		C170.043,388.599,169.556,389.087,168.971,389.087z"/>
</g>
<g opacity="0.78">
	<path opacity="0.78" fill="#2B4F6E" enable-background="new    " d="M397.006,360.935l2.729,2.728
		c4.577-4.091,10.13-6.625,10.13-6.625s8.475-2.435,8.475,5.65h7.208c0,0,0.099-5.942,5.066-5.942c4.967,0,4.771,3.507,4.771,3.507
		h5.943v-13.54h-5.748c0,0-0.292,4.481-3.506,4.481c-3.215,0-4.773-4.481-4.773-4.481h-14.903
		C412.202,346.518,400.319,351.973,397.006,360.935z"/>
	<path opacity="0.78" fill="#273149" enable-background="new    " d="M425.451,362.592h-7.209v27.469h7.209V362.592z"/>
	<path opacity="0.78" fill="#F17776" enable-background="new    " d="M427.69,417.336v-25.62c0-0.877-0.682-1.558-1.557-1.558
		h-8.476c-0.877,0-1.56,0.681-1.56,1.558v25.62h-1.168c-0.585,0-0.975,0.389-0.975,0.973v2.435c0,0.584,0.39,0.975,0.975,0.975
		h14.124c0.584,0,0.974-0.391,0.974-0.975v-2.435c0-0.584-0.39-0.973-0.974-0.973H427.69z"/>
	<path opacity="0.78" fill="#2B4F6E" enable-background="new    " d="M440.062,392.691v3.214c0,0.487,0.39,0.877,0.877,0.877h1.071
		v21.625c0,1.655,1.267,3.213,2.922,3.311c1.754,0.098,3.215-1.364,3.215-3.117v-21.723h1.071c0.487,0,0.877-0.389,0.877-0.877
		v-3.312c0-0.487-0.39-0.877-0.877-0.877h-8.377C440.452,391.814,440.062,392.204,440.062,392.691z"/>
	<path opacity="0.78" fill="#FFFFFF" enable-background="new    " d="M447.076,365.708h-3.799v26.106h3.799V365.708z"/>
	<path opacity="0.78" fill="#273149" enable-background="new    " d="M442.01,396.782h2.24l-2.24,3.312V396.782z"/>
	<path opacity="0.78" fill="#273149" enable-background="new    " d="M416.002,417.336h6.72l-6.72-5.066V417.336z"/>
	<path opacity="0.78" fill="#2B4F6E" enable-background="new    " d="M484.675,357.428l-7.306-12.76
		c-0.194-0.39-0.585-0.585-0.975-0.585h-0.584c-0.683,0-1.17,0.487-1.17,1.169v13.637c0,0.682-0.485,1.169-1.168,1.169h-8.864
		c-0.683,0-1.168-0.487-1.168-1.169v-13.637c0-0.682-0.488-1.169-1.17-1.169h-0.584c-0.39,0-0.78,0.195-0.976,0.585l-7.306,12.76
		c-0.194,0.39-0.194,0.779,0,1.169l7.306,12.761c0.195,0.389,0.586,0.584,0.976,0.584h1.168v43.348c0,3.604,2.923,6.428,6.429,6.428
		c3.605,0,6.429-2.922,6.429-6.428v-43.348h0.683c0.39,0,0.78-0.195,0.975-0.584l7.306-12.761
		C484.871,358.207,484.871,357.818,484.675,357.428z"/>
	<path opacity="0.78" fill="#273149" enable-background="new    " d="M470.064,413.926h-1.754c-0.973,0-1.753-0.779-1.753-1.753
		v-40.328h5.261v40.328C471.818,413.147,471.038,413.926,470.064,413.926z"/>
	<path opacity="0.78" fill="#273149" enable-background="new    " d="M475.712,371.942h-3.214l3.214,4.481V371.942z"/>
</g>
<rect x="179.589" y="241.609" fill="none" width="244.108" height="289.403"/>
<path fill="#B0E9FF" d="M405.189,360.838c0-57.276-46.464-103.643-103.644-103.643c-57.276,0-103.644,46.464-103.644,103.643
	c0,47.731,32.243,87.863,76.077,99.943l27.666,47.826l27.664-47.826C372.946,448.701,405.189,408.569,405.189,360.838z"/>
<path fill="none" stroke="#FFFFFF" stroke-width="3" stroke-miterlimit="10" d="M405.189,360.838
	c0-57.276-46.464-103.643-103.644-103.643c-57.276,0-103.644,46.464-103.644,103.643c0,47.731,32.243,87.863,76.077,99.943
	l27.666,47.826l27.664-47.826C372.946,448.701,405.189,408.569,405.189,360.838z"/>
<path fill="#2B4F6E" d="M249.626,435.941l-46.659,22.111l14.027,9.74l-14.709,21.236l14.417,10.033l14.709-21.332l14.027,9.74
	L249.626,435.941z"/>
<path fill="#2B4F6E" d="M334.373,404.282h-79.389c-1.559,0-2.922-1.266-2.922-2.923V331.42h85.136v69.939
	C337.294,402.919,336.028,404.282,334.373,404.282z"/>
<path fill="#F17776" d="M307.001,331.42h-16.658h-16.657H257.03v10.812c0,4.383,3.214,8.28,7.5,8.669
	c3.215,0.293,6.04-1.169,7.696-3.604c0.487-0.682,1.461-0.389,1.461,0.39v9.059c0,4.383,3.214,8.28,7.5,8.669
	c4.968,0.487,9.156-3.409,9.156-8.28v-7.013c0-0.779,0.975-1.071,1.461-0.39c1.656,2.436,4.481,3.896,7.696,3.604
	c4.383-0.39,7.501-4.286,7.501-8.669v-2.63c0-0.78,0.973-1.072,1.461-0.39c1.655,2.435,4.48,3.896,7.695,3.604
	c4.383-0.39,7.5-4.286,7.5-8.669v-5.065h-16.656V331.42L307.001,331.42z"/>
<path fill="none" stroke="#2B4F6E" stroke-width="2" stroke-linecap="round" stroke-linejoin="round" stroke-miterlimit="10" d="
	M335.347,324.797h-83.772v-12.274c0-6.721,5.455-12.176,12.176-12.176h59.418c6.723,0,12.178,5.455,12.178,12.176V324.797z"/>
<path fill="#F17776" d="M311.287,304.145h-35.652c-0.974,0-1.753-0.78-1.753-1.753v-3.994c0-0.975,0.779-1.754,1.753-1.754h35.652
	c0.974,0,1.752,0.779,1.752,1.754v3.994C313.039,303.365,312.26,304.145,311.287,304.145z"/>
<path fill="#F17776" d="M340.217,430.486h-9.644c-0.975,0-1.754-0.779-1.754-1.754v-33.216h13.248v33.216
	C341.971,429.707,341.191,430.486,340.217,430.486z"/>
<path fill="none" stroke="#FFFFFF" stroke-linecap="round" stroke-linejoin="round" stroke-miterlimit="10" d="M328.82,415.387
	h13.151"/>
<path fill="#E6E7E8" d="M335.347,425.42c1.461,0,2.629-1.168,2.629-2.629c0-1.463-1.168-2.63-2.629-2.63
	c-1.462,0-2.631,1.167-2.631,2.63C332.716,424.252,333.885,425.42,335.347,425.42z"/>
<path fill="#FFFFFF" d="M356.874,378.079h-42.566v-23.378c0-1.461,1.267-2.728,2.727-2.728h37.113c1.461,0,2.727,1.267,2.727,2.728
	V378.079L356.874,378.079z"/>
<path fill="none" stroke="#A7A9AC" stroke-miterlimit="10" d="M320.443,351.973v10.911"/>
<path fill="none" stroke="#A7A9AC" stroke-miterlimit="10" d="M326.19,351.973v8.865"/>
<path fill="none" stroke="#A7A9AC" stroke-miterlimit="10" d="M332.424,351.973v6.234"/>
<path fill="none" stroke="#A7A9AC" stroke-miterlimit="10" d="M350.348,351.973v8.573"/>
<rect x="302.91" y="372.429" fill="none" width="64.972" height="34.581"/>
<path fill="#F17776" d="M352.587,395.516h-34.386c-3.7,0-6.72-3.02-6.72-6.721v-10.716h47.827v10.716
	C359.309,392.496,356.29,395.516,352.587,395.516z"/>
<rect x="235.112" y="317.198" fill="none" width="116.891" height="25.716"/>
<path fill="#273149" d="M341.191,331.42h-95.363c-1.169,0-2.046-0.974-2.046-2.046v-4.188c0-1.169,0.974-2.046,2.046-2.046h95.363
	c1.17,0,2.046,0.975,2.046,2.046v4.188C343.333,330.446,342.361,331.42,341.191,331.42z"/>
</svg>
